G04 #@! TF.FileFunction,Legend,Top*
%FSLAX46Y46*%
G04 Gerber Fmt 4.6, Leading zero omitted, Abs format (unit mm)*
G04 Created by KiCad (PCBNEW 4.0.7) date 07/15/18 23:17:43*
%MOMM*%
%LPD*%
G01*
G04 APERTURE LIST*
%ADD10C,0.100000*%
%ADD11C,0.150000*%
%ADD12C,0.120000*%
G04 APERTURE END LIST*
D10*
D11*
X127200000Y-140070000D02*
X118260000Y-140070000D01*
X118260000Y-140070000D02*
X118260000Y-119770000D01*
X118260000Y-119770000D02*
X127200000Y-119770000D01*
X127200000Y-119770000D02*
X127200000Y-140070000D01*
X127200000Y-132145000D02*
X125900000Y-132145000D01*
X125900000Y-132145000D02*
X125900000Y-138870000D01*
X125900000Y-138870000D02*
X119560000Y-138870000D01*
X119560000Y-138870000D02*
X119560000Y-120970000D01*
X119560000Y-120970000D02*
X125900000Y-120970000D01*
X125900000Y-120970000D02*
X125900000Y-127695000D01*
X125900000Y-127695000D02*
X127200000Y-127695000D01*
X118260000Y-130170000D02*
X118060000Y-130170000D01*
X118060000Y-130170000D02*
X118060000Y-129670000D01*
X118060000Y-129670000D02*
X118260000Y-129670000D01*
X118160000Y-130170000D02*
X118160000Y-129670000D01*
X118260000Y-122690000D02*
X118060000Y-122690000D01*
X118060000Y-122690000D02*
X118060000Y-122190000D01*
X118060000Y-122190000D02*
X118260000Y-122190000D01*
X118160000Y-122690000D02*
X118160000Y-122190000D01*
X118260000Y-137650000D02*
X118060000Y-137650000D01*
X118060000Y-137650000D02*
X118060000Y-137150000D01*
X118060000Y-137150000D02*
X118260000Y-137150000D01*
X118160000Y-137650000D02*
X118160000Y-137150000D01*
X124600000Y-137200000D02*
X123400000Y-137200000D01*
X123400000Y-137200000D02*
X124000000Y-136600000D01*
X124000000Y-136600000D02*
X124600000Y-137200000D01*
X140780000Y-61190000D02*
X142050000Y-61190000D01*
X142050000Y-61190000D02*
X142050000Y-68810000D01*
X142050000Y-68810000D02*
X140780000Y-68810000D01*
X129350000Y-59920000D02*
X125540000Y-59920000D01*
X125540000Y-59920000D02*
X125540000Y-62460000D01*
X125540000Y-62460000D02*
X129350000Y-62460000D01*
X129350000Y-62460000D02*
X129350000Y-59920000D01*
X135700000Y-61190000D02*
X135700000Y-68810000D01*
X135700000Y-68810000D02*
X140780000Y-68810000D01*
X135700000Y-61190000D02*
X140780000Y-61190000D01*
X134430000Y-59920000D02*
X131890000Y-59920000D01*
X131890000Y-59920000D02*
X131890000Y-62460000D01*
X131890000Y-62460000D02*
X134430000Y-62460000D01*
X134430000Y-62460000D02*
X134430000Y-59920000D01*
X107760000Y-67540000D02*
X107760000Y-62460000D01*
X107760000Y-62460000D02*
X110300000Y-62460000D01*
X110300000Y-62460000D02*
X110300000Y-67540000D01*
X110300000Y-67540000D02*
X107760000Y-67540000D01*
X114110000Y-59920000D02*
X114110000Y-70080000D01*
X123000000Y-70080000D02*
X123000000Y-59920000D01*
X114110000Y-70080000D02*
X123000000Y-70080000D01*
X114110000Y-59920000D02*
X123000000Y-59920000D01*
X140780000Y-73890000D02*
X105220000Y-73890000D01*
X105220000Y-73890000D02*
X105220000Y-56110000D01*
X105220000Y-56110000D02*
X140780000Y-56110000D01*
X140780000Y-56110000D02*
X140780000Y-73890000D01*
D12*
X132650000Y-139220000D02*
X132650000Y-139090000D01*
X132650000Y-139090000D02*
X137970000Y-139090000D01*
X137970000Y-139090000D02*
X137970000Y-139220000D01*
X132650000Y-141780000D02*
X132650000Y-141910000D01*
X132650000Y-141910000D02*
X137970000Y-141910000D01*
X137970000Y-141910000D02*
X137970000Y-141780000D01*
X133490000Y-139090000D02*
X133490000Y-141910000D01*
X107150000Y-138720000D02*
X107150000Y-138590000D01*
X107150000Y-138590000D02*
X112470000Y-138590000D01*
X112470000Y-138590000D02*
X112470000Y-138720000D01*
X107150000Y-141280000D02*
X107150000Y-141410000D01*
X107150000Y-141410000D02*
X112470000Y-141410000D01*
X112470000Y-141410000D02*
X112470000Y-141280000D01*
X107990000Y-138590000D02*
X107990000Y-141410000D01*
X141305722Y-110320277D02*
G75*
G03X136694420Y-110320000I-2305722J-1179723D01*
G01*
X141305722Y-112679723D02*
G75*
G02X136694420Y-112680000I-2305722J1179723D01*
G01*
X141305722Y-112679723D02*
G75*
G03X141305580Y-110320000I-2305722J1179723D01*
G01*
X139000000Y-108950000D02*
X139000000Y-114050000D01*
X139040000Y-108950000D02*
X139040000Y-110520000D01*
X139040000Y-112480000D02*
X139040000Y-114050000D01*
X139080000Y-108951000D02*
X139080000Y-110520000D01*
X139080000Y-112480000D02*
X139080000Y-114049000D01*
X139120000Y-108952000D02*
X139120000Y-110520000D01*
X139120000Y-112480000D02*
X139120000Y-114048000D01*
X139160000Y-108954000D02*
X139160000Y-110520000D01*
X139160000Y-112480000D02*
X139160000Y-114046000D01*
X139200000Y-108957000D02*
X139200000Y-110520000D01*
X139200000Y-112480000D02*
X139200000Y-114043000D01*
X139240000Y-108961000D02*
X139240000Y-110520000D01*
X139240000Y-112480000D02*
X139240000Y-114039000D01*
X139280000Y-108965000D02*
X139280000Y-110520000D01*
X139280000Y-112480000D02*
X139280000Y-114035000D01*
X139320000Y-108969000D02*
X139320000Y-110520000D01*
X139320000Y-112480000D02*
X139320000Y-114031000D01*
X139360000Y-108975000D02*
X139360000Y-110520000D01*
X139360000Y-112480000D02*
X139360000Y-114025000D01*
X139400000Y-108981000D02*
X139400000Y-110520000D01*
X139400000Y-112480000D02*
X139400000Y-114019000D01*
X139440000Y-108987000D02*
X139440000Y-110520000D01*
X139440000Y-112480000D02*
X139440000Y-114013000D01*
X139480000Y-108994000D02*
X139480000Y-110520000D01*
X139480000Y-112480000D02*
X139480000Y-114006000D01*
X139520000Y-109002000D02*
X139520000Y-110520000D01*
X139520000Y-112480000D02*
X139520000Y-113998000D01*
X139560000Y-109011000D02*
X139560000Y-110520000D01*
X139560000Y-112480000D02*
X139560000Y-113989000D01*
X139600000Y-109020000D02*
X139600000Y-110520000D01*
X139600000Y-112480000D02*
X139600000Y-113980000D01*
X139640000Y-109030000D02*
X139640000Y-110520000D01*
X139640000Y-112480000D02*
X139640000Y-113970000D01*
X139680000Y-109040000D02*
X139680000Y-110520000D01*
X139680000Y-112480000D02*
X139680000Y-113960000D01*
X139721000Y-109052000D02*
X139721000Y-110520000D01*
X139721000Y-112480000D02*
X139721000Y-113948000D01*
X139761000Y-109064000D02*
X139761000Y-110520000D01*
X139761000Y-112480000D02*
X139761000Y-113936000D01*
X139801000Y-109076000D02*
X139801000Y-110520000D01*
X139801000Y-112480000D02*
X139801000Y-113924000D01*
X139841000Y-109090000D02*
X139841000Y-110520000D01*
X139841000Y-112480000D02*
X139841000Y-113910000D01*
X139881000Y-109104000D02*
X139881000Y-110520000D01*
X139881000Y-112480000D02*
X139881000Y-113896000D01*
X139921000Y-109118000D02*
X139921000Y-110520000D01*
X139921000Y-112480000D02*
X139921000Y-113882000D01*
X139961000Y-109134000D02*
X139961000Y-110520000D01*
X139961000Y-112480000D02*
X139961000Y-113866000D01*
X140001000Y-109150000D02*
X140001000Y-110520000D01*
X140001000Y-112480000D02*
X140001000Y-113850000D01*
X140041000Y-109167000D02*
X140041000Y-110520000D01*
X140041000Y-112480000D02*
X140041000Y-113833000D01*
X140081000Y-109185000D02*
X140081000Y-110520000D01*
X140081000Y-112480000D02*
X140081000Y-113815000D01*
X140121000Y-109204000D02*
X140121000Y-110520000D01*
X140121000Y-112480000D02*
X140121000Y-113796000D01*
X140161000Y-109224000D02*
X140161000Y-110520000D01*
X140161000Y-112480000D02*
X140161000Y-113776000D01*
X140201000Y-109244000D02*
X140201000Y-110520000D01*
X140201000Y-112480000D02*
X140201000Y-113756000D01*
X140241000Y-109266000D02*
X140241000Y-110520000D01*
X140241000Y-112480000D02*
X140241000Y-113734000D01*
X140281000Y-109288000D02*
X140281000Y-110520000D01*
X140281000Y-112480000D02*
X140281000Y-113712000D01*
X140321000Y-109311000D02*
X140321000Y-110520000D01*
X140321000Y-112480000D02*
X140321000Y-113689000D01*
X140361000Y-109335000D02*
X140361000Y-110520000D01*
X140361000Y-112480000D02*
X140361000Y-113665000D01*
X140401000Y-109360000D02*
X140401000Y-110520000D01*
X140401000Y-112480000D02*
X140401000Y-113640000D01*
X140441000Y-109387000D02*
X140441000Y-110520000D01*
X140441000Y-112480000D02*
X140441000Y-113613000D01*
X140481000Y-109414000D02*
X140481000Y-110520000D01*
X140481000Y-112480000D02*
X140481000Y-113586000D01*
X140521000Y-109442000D02*
X140521000Y-110520000D01*
X140521000Y-112480000D02*
X140521000Y-113558000D01*
X140561000Y-109472000D02*
X140561000Y-110520000D01*
X140561000Y-112480000D02*
X140561000Y-113528000D01*
X140601000Y-109503000D02*
X140601000Y-110520000D01*
X140601000Y-112480000D02*
X140601000Y-113497000D01*
X140641000Y-109535000D02*
X140641000Y-110520000D01*
X140641000Y-112480000D02*
X140641000Y-113465000D01*
X140681000Y-109568000D02*
X140681000Y-110520000D01*
X140681000Y-112480000D02*
X140681000Y-113432000D01*
X140721000Y-109603000D02*
X140721000Y-110520000D01*
X140721000Y-112480000D02*
X140721000Y-113397000D01*
X140761000Y-109639000D02*
X140761000Y-110520000D01*
X140761000Y-112480000D02*
X140761000Y-113361000D01*
X140801000Y-109677000D02*
X140801000Y-110520000D01*
X140801000Y-112480000D02*
X140801000Y-113323000D01*
X140841000Y-109717000D02*
X140841000Y-110520000D01*
X140841000Y-112480000D02*
X140841000Y-113283000D01*
X140881000Y-109758000D02*
X140881000Y-110520000D01*
X140881000Y-112480000D02*
X140881000Y-113242000D01*
X140921000Y-109801000D02*
X140921000Y-110520000D01*
X140921000Y-112480000D02*
X140921000Y-113199000D01*
X140961000Y-109846000D02*
X140961000Y-110520000D01*
X140961000Y-112480000D02*
X140961000Y-113154000D01*
X141001000Y-109894000D02*
X141001000Y-113106000D01*
X141041000Y-109944000D02*
X141041000Y-113056000D01*
X141081000Y-109996000D02*
X141081000Y-113004000D01*
X141121000Y-110052000D02*
X141121000Y-112948000D01*
X141161000Y-110110000D02*
X141161000Y-112890000D01*
X141201000Y-110173000D02*
X141201000Y-112827000D01*
X141241000Y-110239000D02*
X141241000Y-112761000D01*
X141281000Y-110311000D02*
X141281000Y-112689000D01*
X141321000Y-110388000D02*
X141321000Y-112612000D01*
X141361000Y-110472000D02*
X141361000Y-112528000D01*
X141401000Y-110566000D02*
X141401000Y-112434000D01*
X141441000Y-110671000D02*
X141441000Y-112329000D01*
X141481000Y-110793000D02*
X141481000Y-112207000D01*
X141521000Y-110941000D02*
X141521000Y-112059000D01*
X141561000Y-111146000D02*
X141561000Y-111854000D01*
X135800000Y-111500000D02*
X137000000Y-111500000D01*
X136400000Y-110850000D02*
X136400000Y-112150000D01*
X113305722Y-118820277D02*
G75*
G03X108694420Y-118820000I-2305722J-1179723D01*
G01*
X113305722Y-121179723D02*
G75*
G02X108694420Y-121180000I-2305722J1179723D01*
G01*
X113305722Y-121179723D02*
G75*
G03X113305580Y-118820000I-2305722J1179723D01*
G01*
X111000000Y-117450000D02*
X111000000Y-122550000D01*
X111040000Y-117450000D02*
X111040000Y-119020000D01*
X111040000Y-120980000D02*
X111040000Y-122550000D01*
X111080000Y-117451000D02*
X111080000Y-119020000D01*
X111080000Y-120980000D02*
X111080000Y-122549000D01*
X111120000Y-117452000D02*
X111120000Y-119020000D01*
X111120000Y-120980000D02*
X111120000Y-122548000D01*
X111160000Y-117454000D02*
X111160000Y-119020000D01*
X111160000Y-120980000D02*
X111160000Y-122546000D01*
X111200000Y-117457000D02*
X111200000Y-119020000D01*
X111200000Y-120980000D02*
X111200000Y-122543000D01*
X111240000Y-117461000D02*
X111240000Y-119020000D01*
X111240000Y-120980000D02*
X111240000Y-122539000D01*
X111280000Y-117465000D02*
X111280000Y-119020000D01*
X111280000Y-120980000D02*
X111280000Y-122535000D01*
X111320000Y-117469000D02*
X111320000Y-119020000D01*
X111320000Y-120980000D02*
X111320000Y-122531000D01*
X111360000Y-117475000D02*
X111360000Y-119020000D01*
X111360000Y-120980000D02*
X111360000Y-122525000D01*
X111400000Y-117481000D02*
X111400000Y-119020000D01*
X111400000Y-120980000D02*
X111400000Y-122519000D01*
X111440000Y-117487000D02*
X111440000Y-119020000D01*
X111440000Y-120980000D02*
X111440000Y-122513000D01*
X111480000Y-117494000D02*
X111480000Y-119020000D01*
X111480000Y-120980000D02*
X111480000Y-122506000D01*
X111520000Y-117502000D02*
X111520000Y-119020000D01*
X111520000Y-120980000D02*
X111520000Y-122498000D01*
X111560000Y-117511000D02*
X111560000Y-119020000D01*
X111560000Y-120980000D02*
X111560000Y-122489000D01*
X111600000Y-117520000D02*
X111600000Y-119020000D01*
X111600000Y-120980000D02*
X111600000Y-122480000D01*
X111640000Y-117530000D02*
X111640000Y-119020000D01*
X111640000Y-120980000D02*
X111640000Y-122470000D01*
X111680000Y-117540000D02*
X111680000Y-119020000D01*
X111680000Y-120980000D02*
X111680000Y-122460000D01*
X111721000Y-117552000D02*
X111721000Y-119020000D01*
X111721000Y-120980000D02*
X111721000Y-122448000D01*
X111761000Y-117564000D02*
X111761000Y-119020000D01*
X111761000Y-120980000D02*
X111761000Y-122436000D01*
X111801000Y-117576000D02*
X111801000Y-119020000D01*
X111801000Y-120980000D02*
X111801000Y-122424000D01*
X111841000Y-117590000D02*
X111841000Y-119020000D01*
X111841000Y-120980000D02*
X111841000Y-122410000D01*
X111881000Y-117604000D02*
X111881000Y-119020000D01*
X111881000Y-120980000D02*
X111881000Y-122396000D01*
X111921000Y-117618000D02*
X111921000Y-119020000D01*
X111921000Y-120980000D02*
X111921000Y-122382000D01*
X111961000Y-117634000D02*
X111961000Y-119020000D01*
X111961000Y-120980000D02*
X111961000Y-122366000D01*
X112001000Y-117650000D02*
X112001000Y-119020000D01*
X112001000Y-120980000D02*
X112001000Y-122350000D01*
X112041000Y-117667000D02*
X112041000Y-119020000D01*
X112041000Y-120980000D02*
X112041000Y-122333000D01*
X112081000Y-117685000D02*
X112081000Y-119020000D01*
X112081000Y-120980000D02*
X112081000Y-122315000D01*
X112121000Y-117704000D02*
X112121000Y-119020000D01*
X112121000Y-120980000D02*
X112121000Y-122296000D01*
X112161000Y-117724000D02*
X112161000Y-119020000D01*
X112161000Y-120980000D02*
X112161000Y-122276000D01*
X112201000Y-117744000D02*
X112201000Y-119020000D01*
X112201000Y-120980000D02*
X112201000Y-122256000D01*
X112241000Y-117766000D02*
X112241000Y-119020000D01*
X112241000Y-120980000D02*
X112241000Y-122234000D01*
X112281000Y-117788000D02*
X112281000Y-119020000D01*
X112281000Y-120980000D02*
X112281000Y-122212000D01*
X112321000Y-117811000D02*
X112321000Y-119020000D01*
X112321000Y-120980000D02*
X112321000Y-122189000D01*
X112361000Y-117835000D02*
X112361000Y-119020000D01*
X112361000Y-120980000D02*
X112361000Y-122165000D01*
X112401000Y-117860000D02*
X112401000Y-119020000D01*
X112401000Y-120980000D02*
X112401000Y-122140000D01*
X112441000Y-117887000D02*
X112441000Y-119020000D01*
X112441000Y-120980000D02*
X112441000Y-122113000D01*
X112481000Y-117914000D02*
X112481000Y-119020000D01*
X112481000Y-120980000D02*
X112481000Y-122086000D01*
X112521000Y-117942000D02*
X112521000Y-119020000D01*
X112521000Y-120980000D02*
X112521000Y-122058000D01*
X112561000Y-117972000D02*
X112561000Y-119020000D01*
X112561000Y-120980000D02*
X112561000Y-122028000D01*
X112601000Y-118003000D02*
X112601000Y-119020000D01*
X112601000Y-120980000D02*
X112601000Y-121997000D01*
X112641000Y-118035000D02*
X112641000Y-119020000D01*
X112641000Y-120980000D02*
X112641000Y-121965000D01*
X112681000Y-118068000D02*
X112681000Y-119020000D01*
X112681000Y-120980000D02*
X112681000Y-121932000D01*
X112721000Y-118103000D02*
X112721000Y-119020000D01*
X112721000Y-120980000D02*
X112721000Y-121897000D01*
X112761000Y-118139000D02*
X112761000Y-119020000D01*
X112761000Y-120980000D02*
X112761000Y-121861000D01*
X112801000Y-118177000D02*
X112801000Y-119020000D01*
X112801000Y-120980000D02*
X112801000Y-121823000D01*
X112841000Y-118217000D02*
X112841000Y-119020000D01*
X112841000Y-120980000D02*
X112841000Y-121783000D01*
X112881000Y-118258000D02*
X112881000Y-119020000D01*
X112881000Y-120980000D02*
X112881000Y-121742000D01*
X112921000Y-118301000D02*
X112921000Y-119020000D01*
X112921000Y-120980000D02*
X112921000Y-121699000D01*
X112961000Y-118346000D02*
X112961000Y-119020000D01*
X112961000Y-120980000D02*
X112961000Y-121654000D01*
X113001000Y-118394000D02*
X113001000Y-121606000D01*
X113041000Y-118444000D02*
X113041000Y-121556000D01*
X113081000Y-118496000D02*
X113081000Y-121504000D01*
X113121000Y-118552000D02*
X113121000Y-121448000D01*
X113161000Y-118610000D02*
X113161000Y-121390000D01*
X113201000Y-118673000D02*
X113201000Y-121327000D01*
X113241000Y-118739000D02*
X113241000Y-121261000D01*
X113281000Y-118811000D02*
X113281000Y-121189000D01*
X113321000Y-118888000D02*
X113321000Y-121112000D01*
X113361000Y-118972000D02*
X113361000Y-121028000D01*
X113401000Y-119066000D02*
X113401000Y-120934000D01*
X113441000Y-119171000D02*
X113441000Y-120829000D01*
X113481000Y-119293000D02*
X113481000Y-120707000D01*
X113521000Y-119441000D02*
X113521000Y-120559000D01*
X113561000Y-119646000D02*
X113561000Y-120354000D01*
X107800000Y-120000000D02*
X109000000Y-120000000D01*
X108400000Y-119350000D02*
X108400000Y-120650000D01*
X116620000Y-154600000D02*
X116620000Y-153400000D01*
X118380000Y-153400000D02*
X118380000Y-154600000D01*
X138600000Y-124880000D02*
X137400000Y-124880000D01*
X137400000Y-123120000D02*
X138600000Y-123120000D01*
X138600000Y-122380000D02*
X137400000Y-122380000D01*
X137400000Y-120620000D02*
X138600000Y-120620000D01*
X122400000Y-111120000D02*
X123600000Y-111120000D01*
X123600000Y-112880000D02*
X122400000Y-112880000D01*
X107380000Y-112900000D02*
X107380000Y-114100000D01*
X105620000Y-114100000D02*
X105620000Y-112900000D01*
X122380000Y-115400000D02*
X122380000Y-116600000D01*
X120620000Y-116600000D02*
X120620000Y-115400000D01*
X109880000Y-112900000D02*
X109880000Y-114100000D01*
X108120000Y-114100000D02*
X108120000Y-112900000D01*
X115880000Y-150400000D02*
X115880000Y-151600000D01*
X114120000Y-151600000D02*
X114120000Y-150400000D01*
X118580000Y-143240000D02*
X117650000Y-143240000D01*
X115420000Y-143240000D02*
X116350000Y-143240000D01*
X115420000Y-143240000D02*
X115420000Y-146400000D01*
X118580000Y-143240000D02*
X118580000Y-144700000D01*
X134080000Y-120740000D02*
X133150000Y-120740000D01*
X130920000Y-120740000D02*
X131850000Y-120740000D01*
X130920000Y-120740000D02*
X130920000Y-123900000D01*
X134080000Y-120740000D02*
X134080000Y-122200000D01*
X132910000Y-117410000D02*
X132910000Y-116150000D01*
X132910000Y-110590000D02*
X132910000Y-111850000D01*
X129150000Y-117410000D02*
X132910000Y-117410000D01*
X126900000Y-110590000D02*
X132910000Y-110590000D01*
D11*
X118075000Y-116075000D02*
X118075000Y-116025000D01*
X113925000Y-116075000D02*
X113925000Y-115930000D01*
X113925000Y-110925000D02*
X113925000Y-111070000D01*
X118075000Y-110925000D02*
X118075000Y-111070000D01*
X118075000Y-116075000D02*
X113925000Y-116075000D01*
X118075000Y-110925000D02*
X113925000Y-110925000D01*
X118075000Y-116025000D02*
X119475000Y-116025000D01*
D12*
X116850000Y-120000000D02*
X116850000Y-119000000D01*
X115150000Y-119000000D02*
X115150000Y-120000000D01*
X123650000Y-115500000D02*
X123650000Y-116500000D01*
X125350000Y-116500000D02*
X125350000Y-115500000D01*
D11*
X116452381Y-138333333D02*
X117166667Y-138333333D01*
X117309524Y-138380953D01*
X117404762Y-138476191D01*
X117452381Y-138619048D01*
X117452381Y-138714286D01*
X116547619Y-137904762D02*
X116500000Y-137857143D01*
X116452381Y-137761905D01*
X116452381Y-137523809D01*
X116500000Y-137428571D01*
X116547619Y-137380952D01*
X116642857Y-137333333D01*
X116738095Y-137333333D01*
X116880952Y-137380952D01*
X117452381Y-137952381D01*
X117452381Y-137333333D01*
X122238095Y-74612381D02*
X122238095Y-75421905D01*
X122285714Y-75517143D01*
X122333333Y-75564762D01*
X122428571Y-75612381D01*
X122619048Y-75612381D01*
X122714286Y-75564762D01*
X122761905Y-75517143D01*
X122809524Y-75421905D01*
X122809524Y-74612381D01*
X123238095Y-74707619D02*
X123285714Y-74660000D01*
X123380952Y-74612381D01*
X123619048Y-74612381D01*
X123714286Y-74660000D01*
X123761905Y-74707619D01*
X123809524Y-74802857D01*
X123809524Y-74898095D01*
X123761905Y-75040952D01*
X123190476Y-75612381D01*
X123809524Y-75612381D01*
X134571905Y-138542381D02*
X134571905Y-137542381D01*
X134810000Y-137542381D01*
X134952858Y-137590000D01*
X135048096Y-137685238D01*
X135095715Y-137780476D01*
X135143334Y-137970952D01*
X135143334Y-138113810D01*
X135095715Y-138304286D01*
X135048096Y-138399524D01*
X134952858Y-138494762D01*
X134810000Y-138542381D01*
X134571905Y-138542381D01*
X135524286Y-137637619D02*
X135571905Y-137590000D01*
X135667143Y-137542381D01*
X135905239Y-137542381D01*
X136000477Y-137590000D01*
X136048096Y-137637619D01*
X136095715Y-137732857D01*
X136095715Y-137828095D01*
X136048096Y-137970952D01*
X135476667Y-138542381D01*
X136095715Y-138542381D01*
X109071905Y-138042381D02*
X109071905Y-137042381D01*
X109310000Y-137042381D01*
X109452858Y-137090000D01*
X109548096Y-137185238D01*
X109595715Y-137280476D01*
X109643334Y-137470952D01*
X109643334Y-137613810D01*
X109595715Y-137804286D01*
X109548096Y-137899524D01*
X109452858Y-137994762D01*
X109310000Y-138042381D01*
X109071905Y-138042381D01*
X110595715Y-138042381D02*
X110024286Y-138042381D01*
X110310000Y-138042381D02*
X110310000Y-137042381D01*
X110214762Y-137185238D01*
X110119524Y-137280476D01*
X110024286Y-137328095D01*
X138833334Y-108047143D02*
X138785715Y-108094762D01*
X138642858Y-108142381D01*
X138547620Y-108142381D01*
X138404762Y-108094762D01*
X138309524Y-107999524D01*
X138261905Y-107904286D01*
X138214286Y-107713810D01*
X138214286Y-107570952D01*
X138261905Y-107380476D01*
X138309524Y-107285238D01*
X138404762Y-107190000D01*
X138547620Y-107142381D01*
X138642858Y-107142381D01*
X138785715Y-107190000D01*
X138833334Y-107237619D01*
X139166667Y-107142381D02*
X139785715Y-107142381D01*
X139452381Y-107523333D01*
X139595239Y-107523333D01*
X139690477Y-107570952D01*
X139738096Y-107618571D01*
X139785715Y-107713810D01*
X139785715Y-107951905D01*
X139738096Y-108047143D01*
X139690477Y-108094762D01*
X139595239Y-108142381D01*
X139309524Y-108142381D01*
X139214286Y-108094762D01*
X139166667Y-108047143D01*
X110833334Y-116547143D02*
X110785715Y-116594762D01*
X110642858Y-116642381D01*
X110547620Y-116642381D01*
X110404762Y-116594762D01*
X110309524Y-116499524D01*
X110261905Y-116404286D01*
X110214286Y-116213810D01*
X110214286Y-116070952D01*
X110261905Y-115880476D01*
X110309524Y-115785238D01*
X110404762Y-115690000D01*
X110547620Y-115642381D01*
X110642858Y-115642381D01*
X110785715Y-115690000D01*
X110833334Y-115737619D01*
X111214286Y-115737619D02*
X111261905Y-115690000D01*
X111357143Y-115642381D01*
X111595239Y-115642381D01*
X111690477Y-115690000D01*
X111738096Y-115737619D01*
X111785715Y-115832857D01*
X111785715Y-115928095D01*
X111738096Y-116070952D01*
X111166667Y-116642381D01*
X111785715Y-116642381D01*
X119652381Y-154166666D02*
X119176190Y-154500000D01*
X119652381Y-154738095D02*
X118652381Y-154738095D01*
X118652381Y-154357142D01*
X118700000Y-154261904D01*
X118747619Y-154214285D01*
X118842857Y-154166666D01*
X118985714Y-154166666D01*
X119080952Y-154214285D01*
X119128571Y-154261904D01*
X119176190Y-154357142D01*
X119176190Y-154738095D01*
X118747619Y-153785714D02*
X118700000Y-153738095D01*
X118652381Y-153642857D01*
X118652381Y-153404761D01*
X118700000Y-153309523D01*
X118747619Y-153261904D01*
X118842857Y-153214285D01*
X118938095Y-153214285D01*
X119080952Y-153261904D01*
X119652381Y-153833333D01*
X119652381Y-153214285D01*
X137833334Y-122752381D02*
X137500000Y-122276190D01*
X137261905Y-122752381D02*
X137261905Y-121752381D01*
X137642858Y-121752381D01*
X137738096Y-121800000D01*
X137785715Y-121847619D01*
X137833334Y-121942857D01*
X137833334Y-122085714D01*
X137785715Y-122180952D01*
X137738096Y-122228571D01*
X137642858Y-122276190D01*
X137261905Y-122276190D01*
X138166667Y-121752381D02*
X138785715Y-121752381D01*
X138452381Y-122133333D01*
X138595239Y-122133333D01*
X138690477Y-122180952D01*
X138738096Y-122228571D01*
X138785715Y-122323810D01*
X138785715Y-122561905D01*
X138738096Y-122657143D01*
X138690477Y-122704762D01*
X138595239Y-122752381D01*
X138309524Y-122752381D01*
X138214286Y-122704762D01*
X138166667Y-122657143D01*
X137833334Y-120252381D02*
X137500000Y-119776190D01*
X137261905Y-120252381D02*
X137261905Y-119252381D01*
X137642858Y-119252381D01*
X137738096Y-119300000D01*
X137785715Y-119347619D01*
X137833334Y-119442857D01*
X137833334Y-119585714D01*
X137785715Y-119680952D01*
X137738096Y-119728571D01*
X137642858Y-119776190D01*
X137261905Y-119776190D01*
X138690477Y-119585714D02*
X138690477Y-120252381D01*
X138452381Y-119204762D02*
X138214286Y-119919048D01*
X138833334Y-119919048D01*
X122833334Y-114152381D02*
X122500000Y-113676190D01*
X122261905Y-114152381D02*
X122261905Y-113152381D01*
X122642858Y-113152381D01*
X122738096Y-113200000D01*
X122785715Y-113247619D01*
X122833334Y-113342857D01*
X122833334Y-113485714D01*
X122785715Y-113580952D01*
X122738096Y-113628571D01*
X122642858Y-113676190D01*
X122261905Y-113676190D01*
X123738096Y-113152381D02*
X123261905Y-113152381D01*
X123214286Y-113628571D01*
X123261905Y-113580952D01*
X123357143Y-113533333D01*
X123595239Y-113533333D01*
X123690477Y-113580952D01*
X123738096Y-113628571D01*
X123785715Y-113723810D01*
X123785715Y-113961905D01*
X123738096Y-114057143D01*
X123690477Y-114104762D01*
X123595239Y-114152381D01*
X123357143Y-114152381D01*
X123261905Y-114104762D01*
X123214286Y-114057143D01*
X105252381Y-113666666D02*
X104776190Y-114000000D01*
X105252381Y-114238095D02*
X104252381Y-114238095D01*
X104252381Y-113857142D01*
X104300000Y-113761904D01*
X104347619Y-113714285D01*
X104442857Y-113666666D01*
X104585714Y-113666666D01*
X104680952Y-113714285D01*
X104728571Y-113761904D01*
X104776190Y-113857142D01*
X104776190Y-114238095D01*
X104252381Y-112809523D02*
X104252381Y-113000000D01*
X104300000Y-113095238D01*
X104347619Y-113142857D01*
X104490476Y-113238095D01*
X104680952Y-113285714D01*
X105061905Y-113285714D01*
X105157143Y-113238095D01*
X105204762Y-113190476D01*
X105252381Y-113095238D01*
X105252381Y-112904761D01*
X105204762Y-112809523D01*
X105157143Y-112761904D01*
X105061905Y-112714285D01*
X104823810Y-112714285D01*
X104728571Y-112761904D01*
X104680952Y-112809523D01*
X104633333Y-112904761D01*
X104633333Y-113095238D01*
X104680952Y-113190476D01*
X104728571Y-113238095D01*
X104823810Y-113285714D01*
X120252381Y-116166666D02*
X119776190Y-116500000D01*
X120252381Y-116738095D02*
X119252381Y-116738095D01*
X119252381Y-116357142D01*
X119300000Y-116261904D01*
X119347619Y-116214285D01*
X119442857Y-116166666D01*
X119585714Y-116166666D01*
X119680952Y-116214285D01*
X119728571Y-116261904D01*
X119776190Y-116357142D01*
X119776190Y-116738095D01*
X119252381Y-115833333D02*
X119252381Y-115166666D01*
X120252381Y-115595238D01*
X107752381Y-113666666D02*
X107276190Y-114000000D01*
X107752381Y-114238095D02*
X106752381Y-114238095D01*
X106752381Y-113857142D01*
X106800000Y-113761904D01*
X106847619Y-113714285D01*
X106942857Y-113666666D01*
X107085714Y-113666666D01*
X107180952Y-113714285D01*
X107228571Y-113761904D01*
X107276190Y-113857142D01*
X107276190Y-114238095D01*
X107180952Y-113095238D02*
X107133333Y-113190476D01*
X107085714Y-113238095D01*
X106990476Y-113285714D01*
X106942857Y-113285714D01*
X106847619Y-113238095D01*
X106800000Y-113190476D01*
X106752381Y-113095238D01*
X106752381Y-112904761D01*
X106800000Y-112809523D01*
X106847619Y-112761904D01*
X106942857Y-112714285D01*
X106990476Y-112714285D01*
X107085714Y-112761904D01*
X107133333Y-112809523D01*
X107180952Y-112904761D01*
X107180952Y-113095238D01*
X107228571Y-113190476D01*
X107276190Y-113238095D01*
X107371429Y-113285714D01*
X107561905Y-113285714D01*
X107657143Y-113238095D01*
X107704762Y-113190476D01*
X107752381Y-113095238D01*
X107752381Y-112904761D01*
X107704762Y-112809523D01*
X107657143Y-112761904D01*
X107561905Y-112714285D01*
X107371429Y-112714285D01*
X107276190Y-112761904D01*
X107228571Y-112809523D01*
X107180952Y-112904761D01*
X113752381Y-151166666D02*
X113276190Y-151500000D01*
X113752381Y-151738095D02*
X112752381Y-151738095D01*
X112752381Y-151357142D01*
X112800000Y-151261904D01*
X112847619Y-151214285D01*
X112942857Y-151166666D01*
X113085714Y-151166666D01*
X113180952Y-151214285D01*
X113228571Y-151261904D01*
X113276190Y-151357142D01*
X113276190Y-151738095D01*
X113752381Y-150214285D02*
X113752381Y-150785714D01*
X113752381Y-150500000D02*
X112752381Y-150500000D01*
X112895238Y-150595238D01*
X112990476Y-150690476D01*
X113038095Y-150785714D01*
X115047619Y-144095238D02*
X115000000Y-144190476D01*
X114904762Y-144285714D01*
X114761905Y-144428571D01*
X114714286Y-144523810D01*
X114714286Y-144619048D01*
X114952381Y-144571429D02*
X114904762Y-144666667D01*
X114809524Y-144761905D01*
X114619048Y-144809524D01*
X114285714Y-144809524D01*
X114095238Y-144761905D01*
X114000000Y-144666667D01*
X113952381Y-144571429D01*
X113952381Y-144380952D01*
X114000000Y-144285714D01*
X114095238Y-144190476D01*
X114285714Y-144142857D01*
X114619048Y-144142857D01*
X114809524Y-144190476D01*
X114904762Y-144285714D01*
X114952381Y-144380952D01*
X114952381Y-144571429D01*
X114952381Y-143190476D02*
X114952381Y-143761905D01*
X114952381Y-143476191D02*
X113952381Y-143476191D01*
X114095238Y-143571429D01*
X114190476Y-143666667D01*
X114238095Y-143761905D01*
X130547619Y-121595238D02*
X130500000Y-121690476D01*
X130404762Y-121785714D01*
X130261905Y-121928571D01*
X130214286Y-122023810D01*
X130214286Y-122119048D01*
X130452381Y-122071429D02*
X130404762Y-122166667D01*
X130309524Y-122261905D01*
X130119048Y-122309524D01*
X129785714Y-122309524D01*
X129595238Y-122261905D01*
X129500000Y-122166667D01*
X129452381Y-122071429D01*
X129452381Y-121880952D01*
X129500000Y-121785714D01*
X129595238Y-121690476D01*
X129785714Y-121642857D01*
X130119048Y-121642857D01*
X130309524Y-121690476D01*
X130404762Y-121785714D01*
X130452381Y-121880952D01*
X130452381Y-122071429D01*
X129547619Y-121261905D02*
X129500000Y-121214286D01*
X129452381Y-121119048D01*
X129452381Y-120880952D01*
X129500000Y-120785714D01*
X129547619Y-120738095D01*
X129642857Y-120690476D01*
X129738095Y-120690476D01*
X129880952Y-120738095D01*
X130452381Y-121309524D01*
X130452381Y-120690476D01*
X130238095Y-108952381D02*
X130238095Y-109761905D01*
X130285714Y-109857143D01*
X130333333Y-109904762D01*
X130428571Y-109952381D01*
X130619048Y-109952381D01*
X130714286Y-109904762D01*
X130761905Y-109857143D01*
X130809524Y-109761905D01*
X130809524Y-108952381D01*
X131809524Y-109952381D02*
X131238095Y-109952381D01*
X131523809Y-109952381D02*
X131523809Y-108952381D01*
X131428571Y-109095238D01*
X131333333Y-109190476D01*
X131238095Y-109238095D01*
X115238095Y-116452381D02*
X115238095Y-117261905D01*
X115285714Y-117357143D01*
X115333333Y-117404762D01*
X115428571Y-117452381D01*
X115619048Y-117452381D01*
X115714286Y-117404762D01*
X115761905Y-117357143D01*
X115809524Y-117261905D01*
X115809524Y-116452381D01*
X116190476Y-116452381D02*
X116809524Y-116452381D01*
X116476190Y-116833333D01*
X116619048Y-116833333D01*
X116714286Y-116880952D01*
X116761905Y-116928571D01*
X116809524Y-117023810D01*
X116809524Y-117261905D01*
X116761905Y-117357143D01*
X116714286Y-117404762D01*
X116619048Y-117452381D01*
X116333333Y-117452381D01*
X116238095Y-117404762D01*
X116190476Y-117357143D01*
X118107143Y-119666666D02*
X118154762Y-119714285D01*
X118202381Y-119857142D01*
X118202381Y-119952380D01*
X118154762Y-120095238D01*
X118059524Y-120190476D01*
X117964286Y-120238095D01*
X117773810Y-120285714D01*
X117630952Y-120285714D01*
X117440476Y-120238095D01*
X117345238Y-120190476D01*
X117250000Y-120095238D01*
X117202381Y-119952380D01*
X117202381Y-119857142D01*
X117250000Y-119714285D01*
X117297619Y-119666666D01*
X118202381Y-118714285D02*
X118202381Y-119285714D01*
X118202381Y-119000000D02*
X117202381Y-119000000D01*
X117345238Y-119095238D01*
X117440476Y-119190476D01*
X117488095Y-119285714D01*
X123107143Y-116166666D02*
X123154762Y-116214285D01*
X123202381Y-116357142D01*
X123202381Y-116452380D01*
X123154762Y-116595238D01*
X123059524Y-116690476D01*
X122964286Y-116738095D01*
X122773810Y-116785714D01*
X122630952Y-116785714D01*
X122440476Y-116738095D01*
X122345238Y-116690476D01*
X122250000Y-116595238D01*
X122202381Y-116452380D01*
X122202381Y-116357142D01*
X122250000Y-116214285D01*
X122297619Y-116166666D01*
X122535714Y-115309523D02*
X123202381Y-115309523D01*
X122154762Y-115547619D02*
X122869048Y-115785714D01*
X122869048Y-115166666D01*
M02*
