M48
;DRILL file {KiCad 4.0.7} date 07/15/18 23:17:53
;FORMAT={-:-/ absolute / inch / decimal}
FMAT,2
INCH,TZ
T1C0.016
T2C0.020
T3C0.031
T4C0.035
T5C0.039
T6C0.043
T7C0.098
%
G90
G05
M72
T1
X4.0945Y-5.6102
X4.1929Y-4.7244
X4.6457Y-4.626
X4.8622Y-4.2717
X5.1181Y-4.311
X5.2953Y-4.2913
T3
X4.3307Y-4.7244
X4.4094Y-4.7244
X5.4331Y-4.3898
X5.5118Y-4.3898
T4
X4.1732Y-3.0472
X4.1732Y-3.5039
X4.2323Y-4.9173
X4.2323Y-5.374
X4.4724Y-3.0472
X4.4724Y-3.5039
X4.5315Y-4.9173
X4.5315Y-5.374
X4.685Y-3.0472
X4.685Y-3.5039
X4.9843Y-3.0472
X4.9843Y-3.5039
X5.1969Y-3.0472
X5.1969Y-3.5039
X5.4961Y-3.0472
X5.4961Y-3.5039
T5
X4.5425Y-2.0622
X4.6425Y-2.0622
X4.7425Y-2.0622
X4.7819Y-4.915
X4.7819Y-5.015
X4.7819Y-5.115
X4.7819Y-5.215
X4.7819Y-5.315
X4.8425Y-2.0622
X4.8819Y-4.915
X4.8819Y-5.015
X4.8819Y-5.115
X4.8819Y-5.215
X4.8819Y-5.315
X4.9425Y-2.0622
X5.0425Y-2.0622
X5.1181Y-3.7008
X5.1425Y-2.0622
X5.2165Y-3.7008
X5.315Y-3.7008
T6
X4.1732Y-5.5118
X4.1925Y-2.2591
X4.1925Y-2.3591
X4.1925Y-2.4591
X4.1925Y-2.5591
X4.1925Y-2.6591
X4.1925Y-2.7591
X4.1925Y-2.8591
X4.2925Y-2.2591
X4.2925Y-2.8591
X4.3701Y-3.7008
X4.3701Y-4.2717
X4.3925Y-2.2591
X4.3925Y-2.8591
X4.4685Y-3.7008
X4.4732Y-5.5118
X4.4925Y-2.2591
X4.4925Y-2.8591
X4.5669Y-3.7008
X4.5669Y-4.2717
X4.5925Y-2.2591
X4.5925Y-2.8591
X4.6925Y-2.2591
X4.6925Y-2.8591
X4.7925Y-2.2591
X4.7925Y-2.8591
X4.8925Y-2.2591
X4.8925Y-2.8591
X4.9925Y-2.2591
X4.9925Y-2.8591
X5.0925Y-2.2591
X5.0925Y-2.8591
X5.1772Y-5.5315
X5.1925Y-2.2591
X5.1925Y-2.8591
X5.2925Y-2.2591
X5.2925Y-2.8591
X5.3925Y-2.2591
X5.3925Y-2.8591
X5.4772Y-5.5315
X5.4925Y-2.2591
X5.4925Y-2.8591
T7
X4.2244Y-3.9961
X4.7126Y-3.9961
T2
X4.3504Y-5.7118G85X4.311Y-5.7118
G05
X4.3504Y-6.0386G85X4.311Y-6.0386
G05
X4.3504Y-6.1606G85X4.311Y-6.1606
G05
X4.8622Y-5.7118G85X4.8228Y-5.7118
G05
X4.8622Y-6.0386G85X4.8228Y-6.0386
G05
X4.8622Y-6.1606G85X4.8228Y-6.1606
G05
X5.374Y-4.9835G85X5.3346Y-4.9835
G05
X5.374Y-5.3102G85X5.3346Y-5.3102
G05
X5.374Y-5.4323G85X5.3346Y-5.4323
G05
X5.374Y-5.7118G85X5.3346Y-5.7118
G05
X5.374Y-6.0386G85X5.3346Y-6.0386
G05
X5.374Y-6.1606G85X5.3346Y-6.1606
G05
T0
M30
