G04 #@! TF.FileFunction,Legend,Bot*
%FSLAX46Y46*%
G04 Gerber Fmt 4.6, Leading zero omitted, Abs format (unit mm)*
G04 Created by KiCad (PCBNEW 4.0.7) date 07/15/18 23:17:43*
%MOMM*%
%LPD*%
G01*
G04 APERTURE LIST*
%ADD10C,0.100000*%
%ADD11C,0.120000*%
%ADD12C,0.200000*%
%ADD13C,0.150000*%
G04 APERTURE END LIST*
D10*
D11*
X116650000Y-51050000D02*
X131950000Y-51050000D01*
X131950000Y-51050000D02*
X131950000Y-53710000D01*
X131950000Y-53710000D02*
X116650000Y-53710000D01*
X116650000Y-53710000D02*
X116650000Y-51050000D01*
X115380000Y-51050000D02*
X114050000Y-51050000D01*
X114050000Y-51050000D02*
X114050000Y-52380000D01*
X116000000Y-135950000D02*
X116550000Y-135950000D01*
X116550000Y-135950000D02*
X116550000Y-134700000D01*
X116000000Y-125450000D02*
X116550000Y-125450000D01*
X116550000Y-125450000D02*
X116550000Y-126700000D01*
X106600000Y-135950000D02*
X106050000Y-135950000D01*
X106050000Y-135950000D02*
X106050000Y-130700000D01*
X106600000Y-125450000D02*
X106050000Y-125450000D01*
X106050000Y-125450000D02*
X106050000Y-126700000D01*
X127500000Y-88450000D02*
X128050000Y-88450000D01*
X128050000Y-88450000D02*
X128050000Y-87200000D01*
X127500000Y-77950000D02*
X128050000Y-77950000D01*
X128050000Y-77950000D02*
X128050000Y-79200000D01*
X118100000Y-88450000D02*
X117550000Y-88450000D01*
X117550000Y-88450000D02*
X117550000Y-83200000D01*
X118100000Y-77950000D02*
X117550000Y-77950000D01*
X117550000Y-77950000D02*
X117550000Y-79200000D01*
X140500000Y-88450000D02*
X141050000Y-88450000D01*
X141050000Y-88450000D02*
X141050000Y-87200000D01*
X140500000Y-77950000D02*
X141050000Y-77950000D01*
X141050000Y-77950000D02*
X141050000Y-79200000D01*
X131100000Y-88450000D02*
X130550000Y-88450000D01*
X130550000Y-88450000D02*
X130550000Y-83200000D01*
X131100000Y-77950000D02*
X130550000Y-77950000D01*
X130550000Y-77950000D02*
X130550000Y-79200000D01*
X114500000Y-88450000D02*
X115050000Y-88450000D01*
X115050000Y-88450000D02*
X115050000Y-87200000D01*
X114500000Y-77950000D02*
X115050000Y-77950000D01*
X115050000Y-77950000D02*
X115050000Y-79200000D01*
X105100000Y-88450000D02*
X104550000Y-88450000D01*
X104550000Y-88450000D02*
X104550000Y-83200000D01*
X105100000Y-77950000D02*
X104550000Y-77950000D01*
X104550000Y-77950000D02*
X104550000Y-79200000D01*
D12*
X109900000Y-96350000D02*
G75*
G03X109900000Y-96350000I-500000J0D01*
G01*
X118100000Y-96350000D02*
G75*
G03X118100000Y-96350000I-500000J0D01*
G01*
X118100000Y-106550000D02*
G75*
G03X118100000Y-106550000I-500000J0D01*
G01*
X109900000Y-106550000D02*
G75*
G03X109900000Y-106550000I-500000J0D01*
G01*
X107300000Y-95700000D02*
X107300000Y-107300000D01*
X119700000Y-107300000D02*
X119700000Y-95700000D01*
X108100000Y-108100000D02*
X118900000Y-108100000D01*
X108100000Y-94900000D02*
X118900000Y-94900000D01*
X108100000Y-108100000D02*
G75*
G02X107300000Y-107300000I0J800000D01*
G01*
X107300000Y-95700000D02*
G75*
G02X108100000Y-94900000I800000J0D01*
G01*
X118900000Y-94900000D02*
G75*
G02X119700000Y-95700000I0J-800000D01*
G01*
X119700000Y-107300000D02*
G75*
G02X118900000Y-108100000I-800000J0D01*
G01*
X110900000Y-103000000D02*
X116100000Y-103000000D01*
X116500000Y-101500000D02*
G75*
G03X116500000Y-101500000I-3000000J0D01*
G01*
D11*
X129737568Y-102671982D02*
G75*
G03X135262000Y-102673000I2762432J1171982D01*
G01*
X134797753Y-99571705D02*
G75*
G03X130202000Y-99572000I-2297753J-1928295D01*
G01*
X127539000Y-94940000D02*
X127539000Y-98806000D01*
X127539000Y-103195000D02*
X127539000Y-107060000D01*
X137460000Y-94940000D02*
X137460000Y-98806000D01*
X137460000Y-103195000D02*
X137460000Y-107060000D01*
X127539000Y-94940000D02*
X129175000Y-94940000D01*
X130825000Y-94940000D02*
X131675000Y-94940000D01*
X133325000Y-94940000D02*
X134175000Y-94940000D01*
X135825000Y-94940000D02*
X137460000Y-94940000D01*
X127539000Y-107060000D02*
X137460000Y-107060000D01*
D13*
X140445000Y-153810000D02*
X137905000Y-153810000D01*
X137905000Y-153810000D02*
X137905000Y-154445000D01*
X137905000Y-154445000D02*
X134095000Y-154445000D01*
X134095000Y-154445000D02*
X134095000Y-153810000D01*
X134095000Y-153810000D02*
X131555000Y-153810000D01*
X134095000Y-151905000D02*
G75*
G02X134095000Y-148095000I1905000J1905000D01*
G01*
X137905000Y-148095000D02*
G75*
G02X137905000Y-151905000I-1905000J-1905000D01*
G01*
X134095000Y-151905000D02*
X137905000Y-151905000D01*
X137905000Y-148095000D02*
X134095000Y-148095000D01*
X137796051Y-150000000D02*
G75*
G03X137796051Y-150000000I-1796051J0D01*
G01*
X131500000Y-144000000D02*
X131500000Y-154500000D01*
X140500000Y-144000000D02*
X140500000Y-154500000D01*
X140500000Y-154500000D02*
X131500000Y-154500000D01*
X140500000Y-144000000D02*
X131500000Y-144000000D01*
X137300000Y-150000000D02*
G75*
G03X137300000Y-150000000I-1300000J0D01*
G01*
X114445000Y-153810000D02*
X111905000Y-153810000D01*
X111905000Y-153810000D02*
X111905000Y-154445000D01*
X111905000Y-154445000D02*
X108095000Y-154445000D01*
X108095000Y-154445000D02*
X108095000Y-153810000D01*
X108095000Y-153810000D02*
X105555000Y-153810000D01*
X108095000Y-151905000D02*
G75*
G02X108095000Y-148095000I1905000J1905000D01*
G01*
X111905000Y-148095000D02*
G75*
G02X111905000Y-151905000I-1905000J-1905000D01*
G01*
X108095000Y-151905000D02*
X111905000Y-151905000D01*
X111905000Y-148095000D02*
X108095000Y-148095000D01*
X111796051Y-150000000D02*
G75*
G03X111796051Y-150000000I-1796051J0D01*
G01*
X105500000Y-144000000D02*
X105500000Y-154500000D01*
X114500000Y-144000000D02*
X114500000Y-154500000D01*
X114500000Y-154500000D02*
X105500000Y-154500000D01*
X114500000Y-144000000D02*
X105500000Y-144000000D01*
X111300000Y-150000000D02*
G75*
G03X111300000Y-150000000I-1300000J0D01*
G01*
X140445000Y-135310000D02*
X137905000Y-135310000D01*
X137905000Y-135310000D02*
X137905000Y-135945000D01*
X137905000Y-135945000D02*
X134095000Y-135945000D01*
X134095000Y-135945000D02*
X134095000Y-135310000D01*
X134095000Y-135310000D02*
X131555000Y-135310000D01*
X134095000Y-133405000D02*
G75*
G02X134095000Y-129595000I1905000J1905000D01*
G01*
X137905000Y-129595000D02*
G75*
G02X137905000Y-133405000I-1905000J-1905000D01*
G01*
X134095000Y-133405000D02*
X137905000Y-133405000D01*
X137905000Y-129595000D02*
X134095000Y-129595000D01*
X137796051Y-131500000D02*
G75*
G03X137796051Y-131500000I-1796051J0D01*
G01*
X131500000Y-125500000D02*
X131500000Y-136000000D01*
X140500000Y-125500000D02*
X140500000Y-136000000D01*
X140500000Y-136000000D02*
X131500000Y-136000000D01*
X140500000Y-125500000D02*
X131500000Y-125500000D01*
X137300000Y-131500000D02*
G75*
G03X137300000Y-131500000I-1300000J0D01*
G01*
X127445000Y-153810000D02*
X124905000Y-153810000D01*
X124905000Y-153810000D02*
X124905000Y-154445000D01*
X124905000Y-154445000D02*
X121095000Y-154445000D01*
X121095000Y-154445000D02*
X121095000Y-153810000D01*
X121095000Y-153810000D02*
X118555000Y-153810000D01*
X121095000Y-151905000D02*
G75*
G02X121095000Y-148095000I1905000J1905000D01*
G01*
X124905000Y-148095000D02*
G75*
G02X124905000Y-151905000I-1905000J-1905000D01*
G01*
X121095000Y-151905000D02*
X124905000Y-151905000D01*
X124905000Y-148095000D02*
X121095000Y-148095000D01*
X124796051Y-150000000D02*
G75*
G03X124796051Y-150000000I-1796051J0D01*
G01*
X118500000Y-144000000D02*
X118500000Y-154500000D01*
X127500000Y-144000000D02*
X127500000Y-154500000D01*
X127500000Y-154500000D02*
X118500000Y-154500000D01*
X127500000Y-144000000D02*
X118500000Y-144000000D01*
X124300000Y-150000000D02*
G75*
G03X124300000Y-150000000I-1300000J0D01*
G01*
X118253333Y-54372381D02*
X118253333Y-55086667D01*
X118300953Y-55229524D01*
X118396191Y-55324762D01*
X118539048Y-55372381D01*
X118634286Y-55372381D01*
X117348571Y-54705714D02*
X117348571Y-55372381D01*
X117586667Y-54324762D02*
X117824762Y-55039048D01*
X117205714Y-55039048D01*
X109308333Y-138754762D02*
X109165476Y-138802381D01*
X108927380Y-138802381D01*
X108832142Y-138754762D01*
X108784523Y-138707143D01*
X108736904Y-138611905D01*
X108736904Y-138516667D01*
X108784523Y-138421429D01*
X108832142Y-138373810D01*
X108927380Y-138326190D01*
X109117857Y-138278571D01*
X109213095Y-138230952D01*
X109260714Y-138183333D01*
X109308333Y-138088095D01*
X109308333Y-137992857D01*
X109260714Y-137897619D01*
X109213095Y-137850000D01*
X109117857Y-137802381D01*
X108879761Y-137802381D01*
X108736904Y-137850000D01*
X108403571Y-137802381D02*
X108165476Y-138802381D01*
X107974999Y-138088095D01*
X107784523Y-138802381D01*
X107546428Y-137802381D01*
X106641666Y-138802381D02*
X107213095Y-138802381D01*
X106927381Y-138802381D02*
X106927381Y-137802381D01*
X107022619Y-137945238D01*
X107117857Y-138040476D01*
X107213095Y-138088095D01*
X120808333Y-91254762D02*
X120665476Y-91302381D01*
X120427380Y-91302381D01*
X120332142Y-91254762D01*
X120284523Y-91207143D01*
X120236904Y-91111905D01*
X120236904Y-91016667D01*
X120284523Y-90921429D01*
X120332142Y-90873810D01*
X120427380Y-90826190D01*
X120617857Y-90778571D01*
X120713095Y-90730952D01*
X120760714Y-90683333D01*
X120808333Y-90588095D01*
X120808333Y-90492857D01*
X120760714Y-90397619D01*
X120713095Y-90350000D01*
X120617857Y-90302381D01*
X120379761Y-90302381D01*
X120236904Y-90350000D01*
X119903571Y-90302381D02*
X119665476Y-91302381D01*
X119474999Y-90588095D01*
X119284523Y-91302381D01*
X119046428Y-90302381D01*
X118713095Y-90397619D02*
X118665476Y-90350000D01*
X118570238Y-90302381D01*
X118332142Y-90302381D01*
X118236904Y-90350000D01*
X118189285Y-90397619D01*
X118141666Y-90492857D01*
X118141666Y-90588095D01*
X118189285Y-90730952D01*
X118760714Y-91302381D01*
X118141666Y-91302381D01*
X133808333Y-91254762D02*
X133665476Y-91302381D01*
X133427380Y-91302381D01*
X133332142Y-91254762D01*
X133284523Y-91207143D01*
X133236904Y-91111905D01*
X133236904Y-91016667D01*
X133284523Y-90921429D01*
X133332142Y-90873810D01*
X133427380Y-90826190D01*
X133617857Y-90778571D01*
X133713095Y-90730952D01*
X133760714Y-90683333D01*
X133808333Y-90588095D01*
X133808333Y-90492857D01*
X133760714Y-90397619D01*
X133713095Y-90350000D01*
X133617857Y-90302381D01*
X133379761Y-90302381D01*
X133236904Y-90350000D01*
X132903571Y-90302381D02*
X132665476Y-91302381D01*
X132474999Y-90588095D01*
X132284523Y-91302381D01*
X132046428Y-90302381D01*
X131760714Y-90302381D02*
X131141666Y-90302381D01*
X131475000Y-90683333D01*
X131332142Y-90683333D01*
X131236904Y-90730952D01*
X131189285Y-90778571D01*
X131141666Y-90873810D01*
X131141666Y-91111905D01*
X131189285Y-91207143D01*
X131236904Y-91254762D01*
X131332142Y-91302381D01*
X131617857Y-91302381D01*
X131713095Y-91254762D01*
X131760714Y-91207143D01*
X107808333Y-91254762D02*
X107665476Y-91302381D01*
X107427380Y-91302381D01*
X107332142Y-91254762D01*
X107284523Y-91207143D01*
X107236904Y-91111905D01*
X107236904Y-91016667D01*
X107284523Y-90921429D01*
X107332142Y-90873810D01*
X107427380Y-90826190D01*
X107617857Y-90778571D01*
X107713095Y-90730952D01*
X107760714Y-90683333D01*
X107808333Y-90588095D01*
X107808333Y-90492857D01*
X107760714Y-90397619D01*
X107713095Y-90350000D01*
X107617857Y-90302381D01*
X107379761Y-90302381D01*
X107236904Y-90350000D01*
X106903571Y-90302381D02*
X106665476Y-91302381D01*
X106474999Y-90588095D01*
X106284523Y-91302381D01*
X106046428Y-90302381D01*
X105236904Y-90635714D02*
X105236904Y-91302381D01*
X105475000Y-90254762D02*
X105713095Y-90969048D01*
X105094047Y-90969048D01*
D12*
X114833333Y-111004762D02*
X114690476Y-111052381D01*
X114452380Y-111052381D01*
X114357142Y-111004762D01*
X114309523Y-110957143D01*
X114261904Y-110861905D01*
X114261904Y-110766667D01*
X114309523Y-110671429D01*
X114357142Y-110623810D01*
X114452380Y-110576190D01*
X114642857Y-110528571D01*
X114738095Y-110480952D01*
X114785714Y-110433333D01*
X114833333Y-110338095D01*
X114833333Y-110242857D01*
X114785714Y-110147619D01*
X114738095Y-110100000D01*
X114642857Y-110052381D01*
X114404761Y-110052381D01*
X114261904Y-110100000D01*
X113928571Y-110052381D02*
X113690476Y-111052381D01*
X113499999Y-110338095D01*
X113309523Y-111052381D01*
X113071428Y-110052381D01*
X112214285Y-110052381D02*
X112690476Y-110052381D01*
X112738095Y-110528571D01*
X112690476Y-110480952D01*
X112595238Y-110433333D01*
X112357142Y-110433333D01*
X112261904Y-110480952D01*
X112214285Y-110528571D01*
X112166666Y-110623810D01*
X112166666Y-110861905D01*
X112214285Y-110957143D01*
X112261904Y-111004762D01*
X112357142Y-111052381D01*
X112595238Y-111052381D01*
X112690476Y-111004762D01*
X112738095Y-110957143D01*
D13*
X125254762Y-97526190D02*
X125302381Y-97669047D01*
X125302381Y-97907143D01*
X125254762Y-98002381D01*
X125207143Y-98050000D01*
X125111905Y-98097619D01*
X125016667Y-98097619D01*
X124921429Y-98050000D01*
X124873810Y-98002381D01*
X124826190Y-97907143D01*
X124778571Y-97716666D01*
X124730952Y-97621428D01*
X124683333Y-97573809D01*
X124588095Y-97526190D01*
X124492857Y-97526190D01*
X124397619Y-97573809D01*
X124350000Y-97621428D01*
X124302381Y-97716666D01*
X124302381Y-97954762D01*
X124350000Y-98097619D01*
X124635714Y-98526190D02*
X125635714Y-98526190D01*
X124683333Y-98526190D02*
X124635714Y-98621428D01*
X124635714Y-98811905D01*
X124683333Y-98907143D01*
X124730952Y-98954762D01*
X124826190Y-99002381D01*
X125111905Y-99002381D01*
X125207143Y-98954762D01*
X125254762Y-98907143D01*
X125302381Y-98811905D01*
X125302381Y-98621428D01*
X125254762Y-98526190D01*
X125254762Y-99811905D02*
X125302381Y-99716667D01*
X125302381Y-99526190D01*
X125254762Y-99430952D01*
X125159524Y-99383333D01*
X124778571Y-99383333D01*
X124683333Y-99430952D01*
X124635714Y-99526190D01*
X124635714Y-99716667D01*
X124683333Y-99811905D01*
X124778571Y-99859524D01*
X124873810Y-99859524D01*
X124969048Y-99383333D01*
X125254762Y-100669048D02*
X125302381Y-100573810D01*
X125302381Y-100383333D01*
X125254762Y-100288095D01*
X125159524Y-100240476D01*
X124778571Y-100240476D01*
X124683333Y-100288095D01*
X124635714Y-100383333D01*
X124635714Y-100573810D01*
X124683333Y-100669048D01*
X124778571Y-100716667D01*
X124873810Y-100716667D01*
X124969048Y-100240476D01*
X125302381Y-101573810D02*
X124302381Y-101573810D01*
X125254762Y-101573810D02*
X125302381Y-101478572D01*
X125302381Y-101288095D01*
X125254762Y-101192857D01*
X125207143Y-101145238D01*
X125111905Y-101097619D01*
X124826190Y-101097619D01*
X124730952Y-101145238D01*
X124683333Y-101192857D01*
X124635714Y-101288095D01*
X124635714Y-101478572D01*
X124683333Y-101573810D01*
X125302381Y-102573810D02*
X125302381Y-102002381D01*
X125302381Y-102288095D02*
X124302381Y-102288095D01*
X124445238Y-102192857D01*
X124540476Y-102097619D01*
X124588095Y-102002381D01*
X132523333Y-155802381D02*
X132523333Y-156516667D01*
X132570953Y-156659524D01*
X132666191Y-156754762D01*
X132809048Y-156802381D01*
X132904286Y-156802381D01*
X131570952Y-155802381D02*
X132047143Y-155802381D01*
X132094762Y-156278571D01*
X132047143Y-156230952D01*
X131951905Y-156183333D01*
X131713809Y-156183333D01*
X131618571Y-156230952D01*
X131570952Y-156278571D01*
X131523333Y-156373810D01*
X131523333Y-156611905D01*
X131570952Y-156707143D01*
X131618571Y-156754762D01*
X131713809Y-156802381D01*
X131951905Y-156802381D01*
X132047143Y-156754762D01*
X132094762Y-156707143D01*
X106523333Y-155802381D02*
X106523333Y-156516667D01*
X106570953Y-156659524D01*
X106666191Y-156754762D01*
X106809048Y-156802381D01*
X106904286Y-156802381D01*
X105523333Y-156802381D02*
X106094762Y-156802381D01*
X105809048Y-156802381D02*
X105809048Y-155802381D01*
X105904286Y-155945238D01*
X105999524Y-156040476D01*
X106094762Y-156088095D01*
X132523333Y-137302381D02*
X132523333Y-138016667D01*
X132570953Y-138159524D01*
X132666191Y-138254762D01*
X132809048Y-138302381D01*
X132904286Y-138302381D01*
X132142381Y-137302381D02*
X131523333Y-137302381D01*
X131856667Y-137683333D01*
X131713809Y-137683333D01*
X131618571Y-137730952D01*
X131570952Y-137778571D01*
X131523333Y-137873810D01*
X131523333Y-138111905D01*
X131570952Y-138207143D01*
X131618571Y-138254762D01*
X131713809Y-138302381D01*
X131999524Y-138302381D01*
X132094762Y-138254762D01*
X132142381Y-138207143D01*
X119523333Y-155802381D02*
X119523333Y-156516667D01*
X119570953Y-156659524D01*
X119666191Y-156754762D01*
X119809048Y-156802381D01*
X119904286Y-156802381D01*
X118618571Y-155802381D02*
X118809048Y-155802381D01*
X118904286Y-155850000D01*
X118951905Y-155897619D01*
X119047143Y-156040476D01*
X119094762Y-156230952D01*
X119094762Y-156611905D01*
X119047143Y-156707143D01*
X118999524Y-156754762D01*
X118904286Y-156802381D01*
X118713809Y-156802381D01*
X118618571Y-156754762D01*
X118570952Y-156707143D01*
X118523333Y-156611905D01*
X118523333Y-156373810D01*
X118570952Y-156278571D01*
X118618571Y-156230952D01*
X118713809Y-156183333D01*
X118904286Y-156183333D01*
X118999524Y-156230952D01*
X119047143Y-156278571D01*
X119094762Y-156373810D01*
M02*
