G04 #@! TF.FileFunction,Legend,Top*
%FSLAX46Y46*%
G04 Gerber Fmt 4.6, Leading zero omitted, Abs format (unit mm)*
G04 Created by KiCad (PCBNEW 4.0.7) date 11/03/18 15:49:09*
%MOMM*%
%LPD*%
G01*
G04 APERTURE LIST*
%ADD10C,0.100000*%
%ADD11C,0.200000*%
%ADD12C,0.300000*%
%ADD13C,0.150000*%
%ADD14C,0.120000*%
%ADD15C,0.254000*%
G04 APERTURE END LIST*
D10*
X118052381Y-120771428D02*
X118052381Y-121342857D01*
X118052381Y-121057143D02*
X117052381Y-121057143D01*
X117195238Y-121152381D01*
X117290476Y-121247619D01*
X117338095Y-121342857D01*
X117052381Y-120152381D02*
X117052381Y-120057142D01*
X117100000Y-119961904D01*
X117147619Y-119914285D01*
X117242857Y-119866666D01*
X117433333Y-119819047D01*
X117671429Y-119819047D01*
X117861905Y-119866666D01*
X117957143Y-119914285D01*
X118004762Y-119961904D01*
X118052381Y-120057142D01*
X118052381Y-120152381D01*
X118004762Y-120247619D01*
X117957143Y-120295238D01*
X117861905Y-120342857D01*
X117671429Y-120390476D01*
X117433333Y-120390476D01*
X117242857Y-120342857D01*
X117147619Y-120295238D01*
X117100000Y-120247619D01*
X117052381Y-120152381D01*
X117385714Y-118961904D02*
X118052381Y-118961904D01*
X117385714Y-119390476D02*
X117909524Y-119390476D01*
X118004762Y-119342857D01*
X118052381Y-119247619D01*
X118052381Y-119104761D01*
X118004762Y-119009523D01*
X117957143Y-118961904D01*
X117528571Y-118152380D02*
X117528571Y-118485714D01*
X118052381Y-118485714D02*
X117052381Y-118485714D01*
X117052381Y-118009523D01*
X138857143Y-107347619D02*
X138904762Y-107300000D01*
X139000000Y-107252381D01*
X139238096Y-107252381D01*
X139333334Y-107300000D01*
X139380953Y-107347619D01*
X139428572Y-107442857D01*
X139428572Y-107538095D01*
X139380953Y-107680952D01*
X138809524Y-108252381D01*
X139428572Y-108252381D01*
X139809524Y-107347619D02*
X139857143Y-107300000D01*
X139952381Y-107252381D01*
X140190477Y-107252381D01*
X140285715Y-107300000D01*
X140333334Y-107347619D01*
X140380953Y-107442857D01*
X140380953Y-107538095D01*
X140333334Y-107680952D01*
X139761905Y-108252381D01*
X140380953Y-108252381D01*
X141238096Y-107585714D02*
X141238096Y-108252381D01*
X140809524Y-107585714D02*
X140809524Y-108109524D01*
X140857143Y-108204762D01*
X140952381Y-108252381D01*
X141095239Y-108252381D01*
X141190477Y-108204762D01*
X141238096Y-108157143D01*
X142047620Y-107728571D02*
X141714286Y-107728571D01*
X141714286Y-108252381D02*
X141714286Y-107252381D01*
X142190477Y-107252381D01*
X104457143Y-121147619D02*
X104504762Y-121100000D01*
X104600000Y-121052381D01*
X104838096Y-121052381D01*
X104933334Y-121100000D01*
X104980953Y-121147619D01*
X105028572Y-121242857D01*
X105028572Y-121338095D01*
X104980953Y-121480952D01*
X104409524Y-122052381D01*
X105028572Y-122052381D01*
X105409524Y-121147619D02*
X105457143Y-121100000D01*
X105552381Y-121052381D01*
X105790477Y-121052381D01*
X105885715Y-121100000D01*
X105933334Y-121147619D01*
X105980953Y-121242857D01*
X105980953Y-121338095D01*
X105933334Y-121480952D01*
X105361905Y-122052381D01*
X105980953Y-122052381D01*
X106838096Y-121385714D02*
X106838096Y-122052381D01*
X106409524Y-121385714D02*
X106409524Y-121909524D01*
X106457143Y-122004762D01*
X106552381Y-122052381D01*
X106695239Y-122052381D01*
X106790477Y-122004762D01*
X106838096Y-121957143D01*
X107647620Y-121528571D02*
X107314286Y-121528571D01*
X107314286Y-122052381D02*
X107314286Y-121052381D01*
X107790477Y-121052381D01*
X114338095Y-147652381D02*
X114957143Y-147652381D01*
X114623809Y-148033333D01*
X114766667Y-148033333D01*
X114861905Y-148080952D01*
X114909524Y-148128571D01*
X114957143Y-148223810D01*
X114957143Y-148461905D01*
X114909524Y-148557143D01*
X114861905Y-148604762D01*
X114766667Y-148652381D01*
X114480952Y-148652381D01*
X114385714Y-148604762D01*
X114338095Y-148557143D01*
X115433333Y-148652381D02*
X115623809Y-148652381D01*
X115719048Y-148604762D01*
X115766667Y-148557143D01*
X115861905Y-148414286D01*
X115909524Y-148223810D01*
X115909524Y-147842857D01*
X115861905Y-147747619D01*
X115814286Y-147700000D01*
X115719048Y-147652381D01*
X115528571Y-147652381D01*
X115433333Y-147700000D01*
X115385714Y-147747619D01*
X115338095Y-147842857D01*
X115338095Y-148080952D01*
X115385714Y-148176190D01*
X115433333Y-148223810D01*
X115528571Y-148271429D01*
X115719048Y-148271429D01*
X115814286Y-148223810D01*
X115861905Y-148176190D01*
X115909524Y-148080952D01*
X116528571Y-147652381D02*
X116623810Y-147652381D01*
X116719048Y-147700000D01*
X116766667Y-147747619D01*
X116814286Y-147842857D01*
X116861905Y-148033333D01*
X116861905Y-148271429D01*
X116814286Y-148461905D01*
X116766667Y-148557143D01*
X116719048Y-148604762D01*
X116623810Y-148652381D01*
X116528571Y-148652381D01*
X116433333Y-148604762D01*
X116385714Y-148557143D01*
X116338095Y-148461905D01*
X116290476Y-148271429D01*
X116290476Y-148033333D01*
X116338095Y-147842857D01*
X116385714Y-147747619D01*
X116433333Y-147700000D01*
X116528571Y-147652381D01*
X117719048Y-147985714D02*
X117719048Y-148652381D01*
X117480952Y-147604762D02*
X117242857Y-148319048D01*
X117861905Y-148319048D01*
X138538095Y-116752381D02*
X139157143Y-116752381D01*
X138823809Y-117133333D01*
X138966667Y-117133333D01*
X139061905Y-117180952D01*
X139109524Y-117228571D01*
X139157143Y-117323810D01*
X139157143Y-117561905D01*
X139109524Y-117657143D01*
X139061905Y-117704762D01*
X138966667Y-117752381D01*
X138680952Y-117752381D01*
X138585714Y-117704762D01*
X138538095Y-117657143D01*
X139633333Y-117752381D02*
X139823809Y-117752381D01*
X139919048Y-117704762D01*
X139966667Y-117657143D01*
X140061905Y-117514286D01*
X140109524Y-117323810D01*
X140109524Y-116942857D01*
X140061905Y-116847619D01*
X140014286Y-116800000D01*
X139919048Y-116752381D01*
X139728571Y-116752381D01*
X139633333Y-116800000D01*
X139585714Y-116847619D01*
X139538095Y-116942857D01*
X139538095Y-117180952D01*
X139585714Y-117276190D01*
X139633333Y-117323810D01*
X139728571Y-117371429D01*
X139919048Y-117371429D01*
X140014286Y-117323810D01*
X140061905Y-117276190D01*
X140109524Y-117180952D01*
X140728571Y-116752381D02*
X140823810Y-116752381D01*
X140919048Y-116800000D01*
X140966667Y-116847619D01*
X141014286Y-116942857D01*
X141061905Y-117133333D01*
X141061905Y-117371429D01*
X141014286Y-117561905D01*
X140966667Y-117657143D01*
X140919048Y-117704762D01*
X140823810Y-117752381D01*
X140728571Y-117752381D01*
X140633333Y-117704762D01*
X140585714Y-117657143D01*
X140538095Y-117561905D01*
X140490476Y-117371429D01*
X140490476Y-117133333D01*
X140538095Y-116942857D01*
X140585714Y-116847619D01*
X140633333Y-116800000D01*
X140728571Y-116752381D01*
X141919048Y-117085714D02*
X141919048Y-117752381D01*
X141680952Y-116704762D02*
X141442857Y-117419048D01*
X142061905Y-117419048D01*
X130857143Y-112852381D02*
X130380952Y-112852381D01*
X130333333Y-113328571D01*
X130380952Y-113280952D01*
X130476190Y-113233333D01*
X130714286Y-113233333D01*
X130809524Y-113280952D01*
X130857143Y-113328571D01*
X130904762Y-113423810D01*
X130904762Y-113661905D01*
X130857143Y-113757143D01*
X130809524Y-113804762D01*
X130714286Y-113852381D01*
X130476190Y-113852381D01*
X130380952Y-113804762D01*
X130333333Y-113757143D01*
X131238095Y-113185714D02*
X131476190Y-113852381D01*
X131714286Y-113185714D01*
X130428572Y-115452381D02*
X130095238Y-114976190D01*
X129857143Y-115452381D02*
X129857143Y-114452381D01*
X130238096Y-114452381D01*
X130333334Y-114500000D01*
X130380953Y-114547619D01*
X130428572Y-114642857D01*
X130428572Y-114785714D01*
X130380953Y-114880952D01*
X130333334Y-114928571D01*
X130238096Y-114976190D01*
X129857143Y-114976190D01*
X131238096Y-115404762D02*
X131142858Y-115452381D01*
X130952381Y-115452381D01*
X130857143Y-115404762D01*
X130809524Y-115309524D01*
X130809524Y-114928571D01*
X130857143Y-114833333D01*
X130952381Y-114785714D01*
X131142858Y-114785714D01*
X131238096Y-114833333D01*
X131285715Y-114928571D01*
X131285715Y-115023810D01*
X130809524Y-115119048D01*
X132142858Y-114785714D02*
X132142858Y-115595238D01*
X132095239Y-115690476D01*
X132047620Y-115738095D01*
X131952381Y-115785714D01*
X131809524Y-115785714D01*
X131714286Y-115738095D01*
X132142858Y-115404762D02*
X132047620Y-115452381D01*
X131857143Y-115452381D01*
X131761905Y-115404762D01*
X131714286Y-115357143D01*
X131666667Y-115261905D01*
X131666667Y-114976190D01*
X131714286Y-114880952D01*
X131761905Y-114833333D01*
X131857143Y-114785714D01*
X132047620Y-114785714D01*
X132142858Y-114833333D01*
X115309524Y-111952381D02*
X115880953Y-111952381D01*
X115595238Y-112952381D02*
X115595238Y-111952381D01*
X116690477Y-112952381D02*
X116214286Y-112952381D01*
X116214286Y-111952381D01*
X115190476Y-113552381D02*
X115857143Y-113552381D01*
X115428571Y-114552381D01*
X116190476Y-113647619D02*
X116238095Y-113600000D01*
X116333333Y-113552381D01*
X116571429Y-113552381D01*
X116666667Y-113600000D01*
X116714286Y-113647619D01*
X116761905Y-113742857D01*
X116761905Y-113838095D01*
X116714286Y-113980952D01*
X116142857Y-114552381D01*
X116761905Y-114552381D01*
X108704762Y-117152381D02*
X108133333Y-117152381D01*
X108419047Y-117152381D02*
X108419047Y-116152381D01*
X108323809Y-116295238D01*
X108228571Y-116390476D01*
X108133333Y-116438095D01*
X109323809Y-116152381D02*
X109419048Y-116152381D01*
X109514286Y-116200000D01*
X109561905Y-116247619D01*
X109609524Y-116342857D01*
X109657143Y-116533333D01*
X109657143Y-116771429D01*
X109609524Y-116961905D01*
X109561905Y-117057143D01*
X109514286Y-117104762D01*
X109419048Y-117152381D01*
X109323809Y-117152381D01*
X109228571Y-117104762D01*
X109180952Y-117057143D01*
X109133333Y-116961905D01*
X109085714Y-116771429D01*
X109085714Y-116533333D01*
X109133333Y-116342857D01*
X109180952Y-116247619D01*
X109228571Y-116200000D01*
X109323809Y-116152381D01*
X110085714Y-117152381D02*
X110085714Y-116152381D01*
X110180952Y-116771429D02*
X110466667Y-117152381D01*
X110466667Y-116485714D02*
X110085714Y-116866667D01*
X105233333Y-116247619D02*
X105280952Y-116200000D01*
X105376190Y-116152381D01*
X105614286Y-116152381D01*
X105709524Y-116200000D01*
X105757143Y-116247619D01*
X105804762Y-116342857D01*
X105804762Y-116438095D01*
X105757143Y-116580952D01*
X105185714Y-117152381D01*
X105804762Y-117152381D01*
X106423809Y-116152381D02*
X106519048Y-116152381D01*
X106614286Y-116200000D01*
X106661905Y-116247619D01*
X106709524Y-116342857D01*
X106757143Y-116533333D01*
X106757143Y-116771429D01*
X106709524Y-116961905D01*
X106661905Y-117057143D01*
X106614286Y-117104762D01*
X106519048Y-117152381D01*
X106423809Y-117152381D01*
X106328571Y-117104762D01*
X106280952Y-117057143D01*
X106233333Y-116961905D01*
X106185714Y-116771429D01*
X106185714Y-116533333D01*
X106233333Y-116342857D01*
X106280952Y-116247619D01*
X106328571Y-116200000D01*
X106423809Y-116152381D01*
X107185714Y-117152381D02*
X107185714Y-116152381D01*
X107280952Y-116771429D02*
X107566667Y-117152381D01*
X107566667Y-116485714D02*
X107185714Y-116866667D01*
X123633333Y-109647619D02*
X123680952Y-109600000D01*
X123776190Y-109552381D01*
X124014286Y-109552381D01*
X124109524Y-109600000D01*
X124157143Y-109647619D01*
X124204762Y-109742857D01*
X124204762Y-109838095D01*
X124157143Y-109980952D01*
X123585714Y-110552381D01*
X124204762Y-110552381D01*
X124823809Y-109552381D02*
X124919048Y-109552381D01*
X125014286Y-109600000D01*
X125061905Y-109647619D01*
X125109524Y-109742857D01*
X125157143Y-109933333D01*
X125157143Y-110171429D01*
X125109524Y-110361905D01*
X125061905Y-110457143D01*
X125014286Y-110504762D01*
X124919048Y-110552381D01*
X124823809Y-110552381D01*
X124728571Y-110504762D01*
X124680952Y-110457143D01*
X124633333Y-110361905D01*
X124585714Y-110171429D01*
X124585714Y-109933333D01*
X124633333Y-109742857D01*
X124680952Y-109647619D01*
X124728571Y-109600000D01*
X124823809Y-109552381D01*
X125585714Y-110552381D02*
X125585714Y-109552381D01*
X125680952Y-110171429D02*
X125966667Y-110552381D01*
X125966667Y-109885714D02*
X125585714Y-110266667D01*
X125785714Y-143252381D02*
X126404762Y-143252381D01*
X126071428Y-143633333D01*
X126214286Y-143633333D01*
X126309524Y-143680952D01*
X126357143Y-143728571D01*
X126404762Y-143823810D01*
X126404762Y-144061905D01*
X126357143Y-144157143D01*
X126309524Y-144204762D01*
X126214286Y-144252381D01*
X125928571Y-144252381D01*
X125833333Y-144204762D01*
X125785714Y-144157143D01*
X126738095Y-143252381D02*
X127357143Y-143252381D01*
X127023809Y-143633333D01*
X127166667Y-143633333D01*
X127261905Y-143680952D01*
X127309524Y-143728571D01*
X127357143Y-143823810D01*
X127357143Y-144061905D01*
X127309524Y-144157143D01*
X127261905Y-144204762D01*
X127166667Y-144252381D01*
X126880952Y-144252381D01*
X126785714Y-144204762D01*
X126738095Y-144157143D01*
X127785714Y-144252381D02*
X127785714Y-143252381D01*
X127880952Y-143871429D02*
X128166667Y-144252381D01*
X128166667Y-143585714D02*
X127785714Y-143966667D01*
X129885714Y-126252381D02*
X130504762Y-126252381D01*
X130171428Y-126633333D01*
X130314286Y-126633333D01*
X130409524Y-126680952D01*
X130457143Y-126728571D01*
X130504762Y-126823810D01*
X130504762Y-127061905D01*
X130457143Y-127157143D01*
X130409524Y-127204762D01*
X130314286Y-127252381D01*
X130028571Y-127252381D01*
X129933333Y-127204762D01*
X129885714Y-127157143D01*
X130838095Y-126252381D02*
X131457143Y-126252381D01*
X131123809Y-126633333D01*
X131266667Y-126633333D01*
X131361905Y-126680952D01*
X131409524Y-126728571D01*
X131457143Y-126823810D01*
X131457143Y-127061905D01*
X131409524Y-127157143D01*
X131361905Y-127204762D01*
X131266667Y-127252381D01*
X130980952Y-127252381D01*
X130885714Y-127204762D01*
X130838095Y-127157143D01*
X131885714Y-127252381D02*
X131885714Y-126252381D01*
X131980952Y-126871429D02*
X132266667Y-127252381D01*
X132266667Y-126585714D02*
X131885714Y-126966667D01*
X138228572Y-125152381D02*
X137657143Y-125152381D01*
X137942857Y-125152381D02*
X137942857Y-124152381D01*
X137847619Y-124295238D01*
X137752381Y-124390476D01*
X137657143Y-124438095D01*
X138847619Y-124152381D02*
X138942858Y-124152381D01*
X139038096Y-124200000D01*
X139085715Y-124247619D01*
X139133334Y-124342857D01*
X139180953Y-124533333D01*
X139180953Y-124771429D01*
X139133334Y-124961905D01*
X139085715Y-125057143D01*
X139038096Y-125104762D01*
X138942858Y-125152381D01*
X138847619Y-125152381D01*
X138752381Y-125104762D01*
X138704762Y-125057143D01*
X138657143Y-124961905D01*
X138609524Y-124771429D01*
X138609524Y-124533333D01*
X138657143Y-124342857D01*
X138704762Y-124247619D01*
X138752381Y-124200000D01*
X138847619Y-124152381D01*
X139800000Y-124152381D02*
X139895239Y-124152381D01*
X139990477Y-124200000D01*
X140038096Y-124247619D01*
X140085715Y-124342857D01*
X140133334Y-124533333D01*
X140133334Y-124771429D01*
X140085715Y-124961905D01*
X140038096Y-125057143D01*
X139990477Y-125104762D01*
X139895239Y-125152381D01*
X139800000Y-125152381D01*
X139704762Y-125104762D01*
X139657143Y-125057143D01*
X139609524Y-124961905D01*
X139561905Y-124771429D01*
X139561905Y-124533333D01*
X139609524Y-124342857D01*
X139657143Y-124247619D01*
X139704762Y-124200000D01*
X139800000Y-124152381D01*
X140561905Y-125152381D02*
X140561905Y-124152381D01*
X140657143Y-124771429D02*
X140942858Y-125152381D01*
X140942858Y-124485714D02*
X140561905Y-124866667D01*
X128628572Y-150352381D02*
X128057143Y-150352381D01*
X128342857Y-150352381D02*
X128342857Y-149352381D01*
X128247619Y-149495238D01*
X128152381Y-149590476D01*
X128057143Y-149638095D01*
X129247619Y-149352381D02*
X129342858Y-149352381D01*
X129438096Y-149400000D01*
X129485715Y-149447619D01*
X129533334Y-149542857D01*
X129580953Y-149733333D01*
X129580953Y-149971429D01*
X129533334Y-150161905D01*
X129485715Y-150257143D01*
X129438096Y-150304762D01*
X129342858Y-150352381D01*
X129247619Y-150352381D01*
X129152381Y-150304762D01*
X129104762Y-150257143D01*
X129057143Y-150161905D01*
X129009524Y-149971429D01*
X129009524Y-149733333D01*
X129057143Y-149542857D01*
X129104762Y-149447619D01*
X129152381Y-149400000D01*
X129247619Y-149352381D01*
X130200000Y-149352381D02*
X130295239Y-149352381D01*
X130390477Y-149400000D01*
X130438096Y-149447619D01*
X130485715Y-149542857D01*
X130533334Y-149733333D01*
X130533334Y-149971429D01*
X130485715Y-150161905D01*
X130438096Y-150257143D01*
X130390477Y-150304762D01*
X130295239Y-150352381D01*
X130200000Y-150352381D01*
X130104762Y-150304762D01*
X130057143Y-150257143D01*
X130009524Y-150161905D01*
X129961905Y-149971429D01*
X129961905Y-149733333D01*
X130009524Y-149542857D01*
X130057143Y-149447619D01*
X130104762Y-149400000D01*
X130200000Y-149352381D01*
X130961905Y-150352381D02*
X130961905Y-149352381D01*
X131057143Y-149971429D02*
X131342858Y-150352381D01*
X131342858Y-149685714D02*
X130961905Y-150066667D01*
D11*
X127200000Y-140000000D02*
X118300000Y-140000000D01*
X127200000Y-137600000D02*
X127200000Y-140000000D01*
X118300000Y-137600000D02*
X127200000Y-137600000D01*
D10*
X133838095Y-83952381D02*
X133361904Y-83952381D01*
X133361904Y-82952381D01*
X134552381Y-83904762D02*
X134457143Y-83952381D01*
X134266666Y-83952381D01*
X134171428Y-83904762D01*
X134123809Y-83809524D01*
X134123809Y-83428571D01*
X134171428Y-83333333D01*
X134266666Y-83285714D01*
X134457143Y-83285714D01*
X134552381Y-83333333D01*
X134600000Y-83428571D01*
X134600000Y-83523810D01*
X134123809Y-83619048D01*
X134885714Y-83285714D02*
X135266666Y-83285714D01*
X135028571Y-83952381D02*
X135028571Y-83095238D01*
X135076190Y-83000000D01*
X135171428Y-82952381D01*
X135266666Y-82952381D01*
X135457143Y-83285714D02*
X135838095Y-83285714D01*
X135600000Y-82952381D02*
X135600000Y-83809524D01*
X135647619Y-83904762D01*
X135742857Y-83952381D01*
X135838095Y-83952381D01*
X136933334Y-83952381D02*
X136933334Y-82952381D01*
X136933334Y-83333333D02*
X137028572Y-83285714D01*
X137219049Y-83285714D01*
X137314287Y-83333333D01*
X137361906Y-83380952D01*
X137409525Y-83476190D01*
X137409525Y-83761905D01*
X137361906Y-83857143D01*
X137314287Y-83904762D01*
X137219049Y-83952381D01*
X137028572Y-83952381D01*
X136933334Y-83904762D01*
X137695239Y-83285714D02*
X138076191Y-83285714D01*
X137838096Y-82952381D02*
X137838096Y-83809524D01*
X137885715Y-83904762D01*
X137980953Y-83952381D01*
X138076191Y-83952381D01*
X138409525Y-83285714D02*
X138409525Y-83952381D01*
X138409525Y-83380952D02*
X138457144Y-83333333D01*
X138552382Y-83285714D01*
X138695240Y-83285714D01*
X138790478Y-83333333D01*
X138838097Y-83428571D01*
X138838097Y-83952381D01*
X120804762Y-83952381D02*
X120328571Y-83952381D01*
X120328571Y-82952381D01*
X121566667Y-83952381D02*
X121566667Y-83428571D01*
X121519048Y-83333333D01*
X121423810Y-83285714D01*
X121233333Y-83285714D01*
X121138095Y-83333333D01*
X121566667Y-83904762D02*
X121471429Y-83952381D01*
X121233333Y-83952381D01*
X121138095Y-83904762D01*
X121090476Y-83809524D01*
X121090476Y-83714286D01*
X121138095Y-83619048D01*
X121233333Y-83571429D01*
X121471429Y-83571429D01*
X121566667Y-83523810D01*
X122042857Y-83285714D02*
X122042857Y-83952381D01*
X122042857Y-83380952D02*
X122090476Y-83333333D01*
X122185714Y-83285714D01*
X122328572Y-83285714D01*
X122423810Y-83333333D01*
X122471429Y-83428571D01*
X122471429Y-83952381D01*
X123328572Y-83904762D02*
X123233334Y-83952381D01*
X123042857Y-83952381D01*
X122947619Y-83904762D01*
X122900000Y-83809524D01*
X122900000Y-83428571D01*
X122947619Y-83333333D01*
X123042857Y-83285714D01*
X123233334Y-83285714D01*
X123328572Y-83333333D01*
X123376191Y-83428571D01*
X123376191Y-83523810D01*
X122900000Y-83619048D01*
X124566667Y-83952381D02*
X124566667Y-82952381D01*
X124566667Y-83333333D02*
X124661905Y-83285714D01*
X124852382Y-83285714D01*
X124947620Y-83333333D01*
X124995239Y-83380952D01*
X125042858Y-83476190D01*
X125042858Y-83761905D01*
X124995239Y-83857143D01*
X124947620Y-83904762D01*
X124852382Y-83952381D01*
X124661905Y-83952381D01*
X124566667Y-83904762D01*
X125328572Y-83285714D02*
X125709524Y-83285714D01*
X125471429Y-82952381D02*
X125471429Y-83809524D01*
X125519048Y-83904762D01*
X125614286Y-83952381D01*
X125709524Y-83952381D01*
X126042858Y-83285714D02*
X126042858Y-83952381D01*
X126042858Y-83380952D02*
X126090477Y-83333333D01*
X126185715Y-83285714D01*
X126328573Y-83285714D01*
X126423811Y-83333333D01*
X126471430Y-83428571D01*
X126471430Y-83952381D01*
X107409524Y-83952381D02*
X107076190Y-83476190D01*
X106838095Y-83952381D02*
X106838095Y-82952381D01*
X107219048Y-82952381D01*
X107314286Y-83000000D01*
X107361905Y-83047619D01*
X107409524Y-83142857D01*
X107409524Y-83285714D01*
X107361905Y-83380952D01*
X107314286Y-83428571D01*
X107219048Y-83476190D01*
X106838095Y-83476190D01*
X107838095Y-83952381D02*
X107838095Y-83285714D01*
X107838095Y-82952381D02*
X107790476Y-83000000D01*
X107838095Y-83047619D01*
X107885714Y-83000000D01*
X107838095Y-82952381D01*
X107838095Y-83047619D01*
X108742857Y-83285714D02*
X108742857Y-84095238D01*
X108695238Y-84190476D01*
X108647619Y-84238095D01*
X108552380Y-84285714D01*
X108409523Y-84285714D01*
X108314285Y-84238095D01*
X108742857Y-83904762D02*
X108647619Y-83952381D01*
X108457142Y-83952381D01*
X108361904Y-83904762D01*
X108314285Y-83857143D01*
X108266666Y-83761905D01*
X108266666Y-83476190D01*
X108314285Y-83380952D01*
X108361904Y-83333333D01*
X108457142Y-83285714D01*
X108647619Y-83285714D01*
X108742857Y-83333333D01*
X109219047Y-83952381D02*
X109219047Y-82952381D01*
X109647619Y-83952381D02*
X109647619Y-83428571D01*
X109600000Y-83333333D01*
X109504762Y-83285714D01*
X109361904Y-83285714D01*
X109266666Y-83333333D01*
X109219047Y-83380952D01*
X109980952Y-83285714D02*
X110361904Y-83285714D01*
X110123809Y-82952381D02*
X110123809Y-83809524D01*
X110171428Y-83904762D01*
X110266666Y-83952381D01*
X110361904Y-83952381D01*
X111457143Y-83952381D02*
X111457143Y-82952381D01*
X111457143Y-83333333D02*
X111552381Y-83285714D01*
X111742858Y-83285714D01*
X111838096Y-83333333D01*
X111885715Y-83380952D01*
X111933334Y-83476190D01*
X111933334Y-83761905D01*
X111885715Y-83857143D01*
X111838096Y-83904762D01*
X111742858Y-83952381D01*
X111552381Y-83952381D01*
X111457143Y-83904762D01*
X112219048Y-83285714D02*
X112600000Y-83285714D01*
X112361905Y-82952381D02*
X112361905Y-83809524D01*
X112409524Y-83904762D01*
X112504762Y-83952381D01*
X112600000Y-83952381D01*
X112933334Y-83285714D02*
X112933334Y-83952381D01*
X112933334Y-83380952D02*
X112980953Y-83333333D01*
X113076191Y-83285714D01*
X113219049Y-83285714D01*
X113314287Y-83333333D01*
X113361906Y-83428571D01*
X113361906Y-83952381D01*
X130314286Y-97952381D02*
X130885715Y-97952381D01*
X130600000Y-98952381D02*
X130600000Y-97952381D01*
X131600001Y-98904762D02*
X131504763Y-98952381D01*
X131314286Y-98952381D01*
X131219048Y-98904762D01*
X131171429Y-98809524D01*
X131171429Y-98428571D01*
X131219048Y-98333333D01*
X131314286Y-98285714D01*
X131504763Y-98285714D01*
X131600001Y-98333333D01*
X131647620Y-98428571D01*
X131647620Y-98523810D01*
X131171429Y-98619048D01*
X132076191Y-98952381D02*
X132076191Y-98285714D01*
X132076191Y-98380952D02*
X132123810Y-98333333D01*
X132219048Y-98285714D01*
X132361906Y-98285714D01*
X132457144Y-98333333D01*
X132504763Y-98428571D01*
X132504763Y-98952381D01*
X132504763Y-98428571D02*
X132552382Y-98333333D01*
X132647620Y-98285714D01*
X132790477Y-98285714D01*
X132885715Y-98333333D01*
X132933334Y-98428571D01*
X132933334Y-98952381D01*
X133409524Y-98285714D02*
X133409524Y-99285714D01*
X133409524Y-98333333D02*
X133504762Y-98285714D01*
X133695239Y-98285714D01*
X133790477Y-98333333D01*
X133838096Y-98380952D01*
X133885715Y-98476190D01*
X133885715Y-98761905D01*
X133838096Y-98857143D01*
X133790477Y-98904762D01*
X133695239Y-98952381D01*
X133504762Y-98952381D01*
X133409524Y-98904762D01*
X134457143Y-98952381D02*
X134361905Y-98904762D01*
X134314286Y-98857143D01*
X134266667Y-98761905D01*
X134266667Y-98476190D01*
X134314286Y-98380952D01*
X134361905Y-98333333D01*
X134457143Y-98285714D01*
X134600001Y-98285714D01*
X134695239Y-98333333D01*
X134742858Y-98380952D01*
X134790477Y-98476190D01*
X134790477Y-98761905D01*
X134742858Y-98857143D01*
X134695239Y-98904762D01*
X134600001Y-98952381D01*
X134457143Y-98952381D01*
X110861904Y-98628571D02*
X111195238Y-98628571D01*
X111338095Y-99152381D02*
X110861904Y-99152381D01*
X110861904Y-98152381D01*
X111338095Y-98152381D01*
X111766666Y-98485714D02*
X111766666Y-99152381D01*
X111766666Y-98580952D02*
X111814285Y-98533333D01*
X111909523Y-98485714D01*
X112052381Y-98485714D01*
X112147619Y-98533333D01*
X112195238Y-98628571D01*
X112195238Y-99152381D01*
X113100000Y-99104762D02*
X113004762Y-99152381D01*
X112814285Y-99152381D01*
X112719047Y-99104762D01*
X112671428Y-99057143D01*
X112623809Y-98961905D01*
X112623809Y-98676190D01*
X112671428Y-98580952D01*
X112719047Y-98533333D01*
X112814285Y-98485714D01*
X113004762Y-98485714D01*
X113100000Y-98533333D01*
X113671428Y-99152381D02*
X113576190Y-99104762D01*
X113528571Y-99057143D01*
X113480952Y-98961905D01*
X113480952Y-98676190D01*
X113528571Y-98580952D01*
X113576190Y-98533333D01*
X113671428Y-98485714D01*
X113814286Y-98485714D01*
X113909524Y-98533333D01*
X113957143Y-98580952D01*
X114004762Y-98676190D01*
X114004762Y-98961905D01*
X113957143Y-99057143D01*
X113909524Y-99104762D01*
X113814286Y-99152381D01*
X113671428Y-99152381D01*
X114861905Y-99152381D02*
X114861905Y-98152381D01*
X114861905Y-99104762D02*
X114766667Y-99152381D01*
X114576190Y-99152381D01*
X114480952Y-99104762D01*
X114433333Y-99057143D01*
X114385714Y-98961905D01*
X114385714Y-98676190D01*
X114433333Y-98580952D01*
X114480952Y-98533333D01*
X114576190Y-98485714D01*
X114766667Y-98485714D01*
X114861905Y-98533333D01*
X115719048Y-99104762D02*
X115623810Y-99152381D01*
X115433333Y-99152381D01*
X115338095Y-99104762D01*
X115290476Y-99009524D01*
X115290476Y-98628571D01*
X115338095Y-98533333D01*
X115433333Y-98485714D01*
X115623810Y-98485714D01*
X115719048Y-98533333D01*
X115766667Y-98628571D01*
X115766667Y-98723810D01*
X115290476Y-98819048D01*
X116195238Y-99152381D02*
X116195238Y-98485714D01*
X116195238Y-98676190D02*
X116242857Y-98580952D01*
X116290476Y-98533333D01*
X116385714Y-98485714D01*
X116480953Y-98485714D01*
X132595238Y-128866667D02*
X133071429Y-128866667D01*
X132500000Y-129152381D02*
X132833333Y-128152381D01*
X133166667Y-129152381D01*
X133928572Y-129104762D02*
X133833334Y-129152381D01*
X133642857Y-129152381D01*
X133547619Y-129104762D01*
X133500000Y-129057143D01*
X133452381Y-128961905D01*
X133452381Y-128676190D01*
X133500000Y-128580952D01*
X133547619Y-128533333D01*
X133642857Y-128485714D01*
X133833334Y-128485714D01*
X133928572Y-128533333D01*
X134214286Y-128485714D02*
X134595238Y-128485714D01*
X134357143Y-128152381D02*
X134357143Y-129009524D01*
X134404762Y-129104762D01*
X134500000Y-129152381D01*
X134595238Y-129152381D01*
X134928572Y-129152381D02*
X134928572Y-128485714D01*
X134928572Y-128152381D02*
X134880953Y-128200000D01*
X134928572Y-128247619D01*
X134976191Y-128200000D01*
X134928572Y-128152381D01*
X134928572Y-128247619D01*
X135547619Y-129152381D02*
X135452381Y-129104762D01*
X135404762Y-129057143D01*
X135357143Y-128961905D01*
X135357143Y-128676190D01*
X135404762Y-128580952D01*
X135452381Y-128533333D01*
X135547619Y-128485714D01*
X135690477Y-128485714D01*
X135785715Y-128533333D01*
X135833334Y-128580952D01*
X135880953Y-128676190D01*
X135880953Y-128961905D01*
X135833334Y-129057143D01*
X135785715Y-129104762D01*
X135690477Y-129152381D01*
X135547619Y-129152381D01*
X136309524Y-128485714D02*
X136309524Y-129152381D01*
X136309524Y-128580952D02*
X136357143Y-128533333D01*
X136452381Y-128485714D01*
X136595239Y-128485714D01*
X136690477Y-128533333D01*
X136738096Y-128628571D01*
X136738096Y-129152381D01*
X138547620Y-129057143D02*
X138500001Y-129104762D01*
X138357144Y-129152381D01*
X138261906Y-129152381D01*
X138119048Y-129104762D01*
X138023810Y-129009524D01*
X137976191Y-128914286D01*
X137928572Y-128723810D01*
X137928572Y-128580952D01*
X137976191Y-128390476D01*
X138023810Y-128295238D01*
X138119048Y-128200000D01*
X138261906Y-128152381D01*
X138357144Y-128152381D01*
X138500001Y-128200000D01*
X138547620Y-128247619D01*
X138833334Y-128152381D02*
X139166667Y-129152381D01*
X139500001Y-128152381D01*
X107785714Y-130466667D02*
X108261905Y-130466667D01*
X107690476Y-130752381D02*
X108023809Y-129752381D01*
X108357143Y-130752381D01*
X109119048Y-130704762D02*
X109023810Y-130752381D01*
X108833333Y-130752381D01*
X108738095Y-130704762D01*
X108690476Y-130657143D01*
X108642857Y-130561905D01*
X108642857Y-130276190D01*
X108690476Y-130180952D01*
X108738095Y-130133333D01*
X108833333Y-130085714D01*
X109023810Y-130085714D01*
X109119048Y-130133333D01*
X109404762Y-130085714D02*
X109785714Y-130085714D01*
X109547619Y-129752381D02*
X109547619Y-130609524D01*
X109595238Y-130704762D01*
X109690476Y-130752381D01*
X109785714Y-130752381D01*
X110119048Y-130752381D02*
X110119048Y-130085714D01*
X110119048Y-129752381D02*
X110071429Y-129800000D01*
X110119048Y-129847619D01*
X110166667Y-129800000D01*
X110119048Y-129752381D01*
X110119048Y-129847619D01*
X110738095Y-130752381D02*
X110642857Y-130704762D01*
X110595238Y-130657143D01*
X110547619Y-130561905D01*
X110547619Y-130276190D01*
X110595238Y-130180952D01*
X110642857Y-130133333D01*
X110738095Y-130085714D01*
X110880953Y-130085714D01*
X110976191Y-130133333D01*
X111023810Y-130180952D01*
X111071429Y-130276190D01*
X111071429Y-130561905D01*
X111023810Y-130657143D01*
X110976191Y-130704762D01*
X110880953Y-130752381D01*
X110738095Y-130752381D01*
X111500000Y-130085714D02*
X111500000Y-130752381D01*
X111500000Y-130180952D02*
X111547619Y-130133333D01*
X111642857Y-130085714D01*
X111785715Y-130085714D01*
X111880953Y-130133333D01*
X111928572Y-130228571D01*
X111928572Y-130752381D01*
X113500001Y-130228571D02*
X113642858Y-130276190D01*
X113690477Y-130323810D01*
X113738096Y-130419048D01*
X113738096Y-130561905D01*
X113690477Y-130657143D01*
X113642858Y-130704762D01*
X113547620Y-130752381D01*
X113166667Y-130752381D01*
X113166667Y-129752381D01*
X113500001Y-129752381D01*
X113595239Y-129800000D01*
X113642858Y-129847619D01*
X113690477Y-129942857D01*
X113690477Y-130038095D01*
X113642858Y-130133333D01*
X113595239Y-130180952D01*
X113500001Y-130228571D01*
X113166667Y-130228571D01*
X114023810Y-130085714D02*
X114404762Y-130085714D01*
X114166667Y-129752381D02*
X114166667Y-130609524D01*
X114214286Y-130704762D01*
X114309524Y-130752381D01*
X114404762Y-130752381D01*
X114738096Y-130085714D02*
X114738096Y-130752381D01*
X114738096Y-130180952D02*
X114785715Y-130133333D01*
X114880953Y-130085714D01*
X115023811Y-130085714D01*
X115119049Y-130133333D01*
X115166668Y-130228571D01*
X115166668Y-130752381D01*
X108238095Y-147857143D02*
X108190476Y-147904762D01*
X108047619Y-147952381D01*
X107952381Y-147952381D01*
X107809523Y-147904762D01*
X107714285Y-147809524D01*
X107666666Y-147714286D01*
X107619047Y-147523810D01*
X107619047Y-147380952D01*
X107666666Y-147190476D01*
X107714285Y-147095238D01*
X107809523Y-147000000D01*
X107952381Y-146952381D01*
X108047619Y-146952381D01*
X108190476Y-147000000D01*
X108238095Y-147047619D01*
X108523809Y-146952381D02*
X108857142Y-147952381D01*
X109190476Y-146952381D01*
X110476190Y-146952381D02*
X110666667Y-146952381D01*
X110761905Y-147000000D01*
X110857143Y-147095238D01*
X110904762Y-147285714D01*
X110904762Y-147619048D01*
X110857143Y-147809524D01*
X110761905Y-147904762D01*
X110666667Y-147952381D01*
X110476190Y-147952381D01*
X110380952Y-147904762D01*
X110285714Y-147809524D01*
X110238095Y-147619048D01*
X110238095Y-147285714D01*
X110285714Y-147095238D01*
X110380952Y-147000000D01*
X110476190Y-146952381D01*
X111761905Y-147285714D02*
X111761905Y-147952381D01*
X111333333Y-147285714D02*
X111333333Y-147809524D01*
X111380952Y-147904762D01*
X111476190Y-147952381D01*
X111619048Y-147952381D01*
X111714286Y-147904762D01*
X111761905Y-147857143D01*
X112095238Y-147285714D02*
X112476190Y-147285714D01*
X112238095Y-146952381D02*
X112238095Y-147809524D01*
X112285714Y-147904762D01*
X112380952Y-147952381D01*
X112476190Y-147952381D01*
X120452381Y-147000000D02*
X120357143Y-146952381D01*
X120214286Y-146952381D01*
X120071428Y-147000000D01*
X119976190Y-147095238D01*
X119928571Y-147190476D01*
X119880952Y-147380952D01*
X119880952Y-147523810D01*
X119928571Y-147714286D01*
X119976190Y-147809524D01*
X120071428Y-147904762D01*
X120214286Y-147952381D01*
X120309524Y-147952381D01*
X120452381Y-147904762D01*
X120500000Y-147857143D01*
X120500000Y-147523810D01*
X120309524Y-147523810D01*
X121357143Y-147952381D02*
X121357143Y-147428571D01*
X121309524Y-147333333D01*
X121214286Y-147285714D01*
X121023809Y-147285714D01*
X120928571Y-147333333D01*
X121357143Y-147904762D02*
X121261905Y-147952381D01*
X121023809Y-147952381D01*
X120928571Y-147904762D01*
X120880952Y-147809524D01*
X120880952Y-147714286D01*
X120928571Y-147619048D01*
X121023809Y-147571429D01*
X121261905Y-147571429D01*
X121357143Y-147523810D01*
X121690476Y-147285714D02*
X122071428Y-147285714D01*
X121833333Y-146952381D02*
X121833333Y-147809524D01*
X121880952Y-147904762D01*
X121976190Y-147952381D01*
X122071428Y-147952381D01*
X122785715Y-147904762D02*
X122690477Y-147952381D01*
X122500000Y-147952381D01*
X122404762Y-147904762D01*
X122357143Y-147809524D01*
X122357143Y-147428571D01*
X122404762Y-147333333D01*
X122500000Y-147285714D01*
X122690477Y-147285714D01*
X122785715Y-147333333D01*
X122833334Y-147428571D01*
X122833334Y-147523810D01*
X122357143Y-147619048D01*
X124214286Y-146952381D02*
X124404763Y-146952381D01*
X124500001Y-147000000D01*
X124595239Y-147095238D01*
X124642858Y-147285714D01*
X124642858Y-147619048D01*
X124595239Y-147809524D01*
X124500001Y-147904762D01*
X124404763Y-147952381D01*
X124214286Y-147952381D01*
X124119048Y-147904762D01*
X124023810Y-147809524D01*
X123976191Y-147619048D01*
X123976191Y-147285714D01*
X124023810Y-147095238D01*
X124119048Y-147000000D01*
X124214286Y-146952381D01*
X125500001Y-147285714D02*
X125500001Y-147952381D01*
X125071429Y-147285714D02*
X125071429Y-147809524D01*
X125119048Y-147904762D01*
X125214286Y-147952381D01*
X125357144Y-147952381D01*
X125452382Y-147904762D01*
X125500001Y-147857143D01*
X125833334Y-147285714D02*
X126214286Y-147285714D01*
X125976191Y-146952381D02*
X125976191Y-147809524D01*
X126023810Y-147904762D01*
X126119048Y-147952381D01*
X126214286Y-147952381D01*
X133690476Y-147857143D02*
X133642857Y-147904762D01*
X133500000Y-147952381D01*
X133404762Y-147952381D01*
X133261904Y-147904762D01*
X133166666Y-147809524D01*
X133119047Y-147714286D01*
X133071428Y-147523810D01*
X133071428Y-147380952D01*
X133119047Y-147190476D01*
X133166666Y-147095238D01*
X133261904Y-147000000D01*
X133404762Y-146952381D01*
X133500000Y-146952381D01*
X133642857Y-147000000D01*
X133690476Y-147047619D01*
X134261904Y-147952381D02*
X134166666Y-147904762D01*
X134119047Y-147809524D01*
X134119047Y-146952381D01*
X134785714Y-147952381D02*
X134690476Y-147904762D01*
X134642857Y-147857143D01*
X134595238Y-147761905D01*
X134595238Y-147476190D01*
X134642857Y-147380952D01*
X134690476Y-147333333D01*
X134785714Y-147285714D01*
X134928572Y-147285714D01*
X135023810Y-147333333D01*
X135071429Y-147380952D01*
X135119048Y-147476190D01*
X135119048Y-147761905D01*
X135071429Y-147857143D01*
X135023810Y-147904762D01*
X134928572Y-147952381D01*
X134785714Y-147952381D01*
X135976191Y-147904762D02*
X135880953Y-147952381D01*
X135690476Y-147952381D01*
X135595238Y-147904762D01*
X135547619Y-147857143D01*
X135500000Y-147761905D01*
X135500000Y-147476190D01*
X135547619Y-147380952D01*
X135595238Y-147333333D01*
X135690476Y-147285714D01*
X135880953Y-147285714D01*
X135976191Y-147333333D01*
X136404762Y-147952381D02*
X136404762Y-146952381D01*
X136500000Y-147571429D02*
X136785715Y-147952381D01*
X136785715Y-147285714D02*
X136404762Y-147666667D01*
X137976191Y-147952381D02*
X137976191Y-146952381D01*
X138452381Y-147285714D02*
X138452381Y-147952381D01*
X138452381Y-147380952D02*
X138500000Y-147333333D01*
X138595238Y-147285714D01*
X138738096Y-147285714D01*
X138833334Y-147333333D01*
X138880953Y-147428571D01*
X138880953Y-147952381D01*
D11*
X120500000Y-113250000D02*
X125500000Y-113250000D01*
X123000000Y-118500000D02*
X123000000Y-117500000D01*
X123000000Y-113500000D02*
X123000000Y-118000000D01*
D12*
X105000000Y-51992857D02*
X105000000Y-50792857D01*
X105457143Y-50792857D01*
X105571429Y-50850000D01*
X105628572Y-50907143D01*
X105685715Y-51021429D01*
X105685715Y-51192857D01*
X105628572Y-51307143D01*
X105571429Y-51364286D01*
X105457143Y-51421429D01*
X105000000Y-51421429D01*
X106371429Y-51992857D02*
X106257143Y-51935714D01*
X106200000Y-51821429D01*
X106200000Y-50792857D01*
X107342857Y-51992857D02*
X107342857Y-51364286D01*
X107285714Y-51250000D01*
X107171428Y-51192857D01*
X106942857Y-51192857D01*
X106828571Y-51250000D01*
X107342857Y-51935714D02*
X107228571Y-51992857D01*
X106942857Y-51992857D01*
X106828571Y-51935714D01*
X106771428Y-51821429D01*
X106771428Y-51707143D01*
X106828571Y-51592857D01*
X106942857Y-51535714D01*
X107228571Y-51535714D01*
X107342857Y-51478571D01*
X107800000Y-51192857D02*
X108085714Y-51992857D01*
X108371428Y-51192857D02*
X108085714Y-51992857D01*
X107971428Y-52278571D01*
X107914285Y-52335714D01*
X107800000Y-52392857D01*
X109742857Y-51992857D02*
X109742857Y-50792857D01*
X110028572Y-50792857D01*
X110200000Y-50850000D01*
X110314286Y-50964286D01*
X110371429Y-51078571D01*
X110428572Y-51307143D01*
X110428572Y-51478571D01*
X110371429Y-51707143D01*
X110314286Y-51821429D01*
X110200000Y-51935714D01*
X110028572Y-51992857D01*
X109742857Y-51992857D01*
X110942857Y-51992857D02*
X110942857Y-51192857D01*
X110942857Y-50792857D02*
X110885714Y-50850000D01*
X110942857Y-50907143D01*
X111000000Y-50850000D01*
X110942857Y-50792857D01*
X110942857Y-50907143D01*
X112028572Y-51935714D02*
X111914286Y-51992857D01*
X111685715Y-51992857D01*
X111571429Y-51935714D01*
X111514286Y-51878571D01*
X111457143Y-51764286D01*
X111457143Y-51421429D01*
X111514286Y-51307143D01*
X111571429Y-51250000D01*
X111685715Y-51192857D01*
X111914286Y-51192857D01*
X112028572Y-51250000D01*
X113000000Y-51935714D02*
X112885714Y-51992857D01*
X112657143Y-51992857D01*
X112542857Y-51935714D01*
X112485714Y-51821429D01*
X112485714Y-51364286D01*
X112542857Y-51250000D01*
X112657143Y-51192857D01*
X112885714Y-51192857D01*
X113000000Y-51250000D01*
X113057143Y-51364286D01*
X113057143Y-51478571D01*
X112485714Y-51592857D01*
X106828572Y-53292857D02*
X107114286Y-54092857D01*
X107400000Y-53292857D01*
X109000001Y-52892857D02*
X109114286Y-52892857D01*
X109228572Y-52950000D01*
X109285715Y-53007143D01*
X109342858Y-53121429D01*
X109400001Y-53350000D01*
X109400001Y-53635714D01*
X109342858Y-53864286D01*
X109285715Y-53978571D01*
X109228572Y-54035714D01*
X109114286Y-54092857D01*
X109000001Y-54092857D01*
X108885715Y-54035714D01*
X108828572Y-53978571D01*
X108771429Y-53864286D01*
X108714286Y-53635714D01*
X108714286Y-53350000D01*
X108771429Y-53121429D01*
X108828572Y-53007143D01*
X108885715Y-52950000D01*
X109000001Y-52892857D01*
X109914286Y-53978571D02*
X109971429Y-54035714D01*
X109914286Y-54092857D01*
X109857143Y-54035714D01*
X109914286Y-53978571D01*
X109914286Y-54092857D01*
X111000001Y-53292857D02*
X111000001Y-54092857D01*
X110714287Y-52835714D02*
X110428572Y-53692857D01*
X111171430Y-53692857D01*
D11*
X117600000Y-116100000D02*
G75*
G03X117600000Y-116100000I-500000J0D01*
G01*
D13*
X121166667Y-122571429D02*
X121928572Y-122571429D01*
X121547620Y-122952381D02*
X121547620Y-122190476D01*
X122928572Y-122952381D02*
X122357143Y-122952381D01*
X122642857Y-122952381D02*
X122642857Y-121952381D01*
X122547619Y-122095238D01*
X122452381Y-122190476D01*
X122357143Y-122238095D01*
X123309524Y-122047619D02*
X123357143Y-122000000D01*
X123452381Y-121952381D01*
X123690477Y-121952381D01*
X123785715Y-122000000D01*
X123833334Y-122047619D01*
X123880953Y-122142857D01*
X123880953Y-122238095D01*
X123833334Y-122380952D01*
X123261905Y-122952381D01*
X123880953Y-122952381D01*
X128857143Y-134627381D02*
X128523809Y-134151190D01*
X128285714Y-134627381D02*
X128285714Y-133627381D01*
X128666667Y-133627381D01*
X128761905Y-133675000D01*
X128809524Y-133722619D01*
X128857143Y-133817857D01*
X128857143Y-133960714D01*
X128809524Y-134055952D01*
X128761905Y-134103571D01*
X128666667Y-134151190D01*
X128285714Y-134151190D01*
X129285714Y-134103571D02*
X129619048Y-134103571D01*
X129761905Y-134627381D02*
X129285714Y-134627381D01*
X129285714Y-133627381D01*
X129761905Y-133627381D01*
X130190476Y-134627381D02*
X130190476Y-133627381D01*
X130428571Y-133627381D01*
X130571429Y-133675000D01*
X130666667Y-133770238D01*
X130714286Y-133865476D01*
X130761905Y-134055952D01*
X130761905Y-134198810D01*
X130714286Y-134389286D01*
X130666667Y-134484524D01*
X130571429Y-134579762D01*
X130428571Y-134627381D01*
X130190476Y-134627381D01*
X127785714Y-135896429D02*
X128547619Y-135896429D01*
X129547619Y-136277381D02*
X128976190Y-136277381D01*
X129261904Y-136277381D02*
X129261904Y-135277381D01*
X129166666Y-135420238D01*
X129071428Y-135515476D01*
X128976190Y-135563095D01*
X129928571Y-135372619D02*
X129976190Y-135325000D01*
X130071428Y-135277381D01*
X130309524Y-135277381D01*
X130404762Y-135325000D01*
X130452381Y-135372619D01*
X130500000Y-135467857D01*
X130500000Y-135563095D01*
X130452381Y-135705952D01*
X129880952Y-136277381D01*
X130500000Y-136277381D01*
X130833333Y-135610714D02*
X131071428Y-136277381D01*
X131309524Y-135610714D01*
X127200000Y-140070000D02*
X118260000Y-140070000D01*
X118260000Y-140070000D02*
X118260000Y-119770000D01*
X118260000Y-119770000D02*
X127200000Y-119770000D01*
X127200000Y-119770000D02*
X127200000Y-140070000D01*
X127200000Y-132145000D02*
X125900000Y-132145000D01*
X125900000Y-132145000D02*
X125900000Y-138870000D01*
X125900000Y-138870000D02*
X119560000Y-138870000D01*
X119560000Y-138870000D02*
X119560000Y-120970000D01*
X119560000Y-120970000D02*
X125900000Y-120970000D01*
X125900000Y-120970000D02*
X125900000Y-127695000D01*
X125900000Y-127695000D02*
X127200000Y-127695000D01*
X118260000Y-130170000D02*
X118060000Y-130170000D01*
X118060000Y-130170000D02*
X118060000Y-129670000D01*
X118060000Y-129670000D02*
X118260000Y-129670000D01*
X118160000Y-130170000D02*
X118160000Y-129670000D01*
X118260000Y-122690000D02*
X118060000Y-122690000D01*
X118060000Y-122690000D02*
X118060000Y-122190000D01*
X118060000Y-122190000D02*
X118260000Y-122190000D01*
X118160000Y-122690000D02*
X118160000Y-122190000D01*
X118260000Y-137650000D02*
X118060000Y-137650000D01*
X118060000Y-137650000D02*
X118060000Y-137150000D01*
X118060000Y-137150000D02*
X118260000Y-137150000D01*
X118160000Y-137650000D02*
X118160000Y-137150000D01*
X124600000Y-137200000D02*
X123400000Y-137200000D01*
X123400000Y-137200000D02*
X124000000Y-136600000D01*
X124000000Y-136600000D02*
X124600000Y-137200000D01*
X140780000Y-61190000D02*
X142050000Y-61190000D01*
X142050000Y-61190000D02*
X142050000Y-68810000D01*
X142050000Y-68810000D02*
X140780000Y-68810000D01*
X129350000Y-59920000D02*
X125540000Y-59920000D01*
X125540000Y-59920000D02*
X125540000Y-62460000D01*
X125540000Y-62460000D02*
X129350000Y-62460000D01*
X129350000Y-62460000D02*
X129350000Y-59920000D01*
X135700000Y-61190000D02*
X135700000Y-68810000D01*
X135700000Y-68810000D02*
X140780000Y-68810000D01*
X135700000Y-61190000D02*
X140780000Y-61190000D01*
X134430000Y-59920000D02*
X131890000Y-59920000D01*
X131890000Y-59920000D02*
X131890000Y-62460000D01*
X131890000Y-62460000D02*
X134430000Y-62460000D01*
X134430000Y-62460000D02*
X134430000Y-59920000D01*
X107760000Y-67540000D02*
X107760000Y-62460000D01*
X107760000Y-62460000D02*
X110300000Y-62460000D01*
X110300000Y-62460000D02*
X110300000Y-67540000D01*
X110300000Y-67540000D02*
X107760000Y-67540000D01*
X114110000Y-59920000D02*
X114110000Y-70080000D01*
X123000000Y-70080000D02*
X123000000Y-59920000D01*
X114110000Y-70080000D02*
X123000000Y-70080000D01*
X114110000Y-59920000D02*
X123000000Y-59920000D01*
X140780000Y-73890000D02*
X105220000Y-73890000D01*
X105220000Y-73890000D02*
X105220000Y-56110000D01*
X105220000Y-56110000D02*
X140780000Y-56110000D01*
X140780000Y-56110000D02*
X140780000Y-73890000D01*
D14*
X132650000Y-139220000D02*
X132650000Y-139090000D01*
X132650000Y-139090000D02*
X137970000Y-139090000D01*
X137970000Y-139090000D02*
X137970000Y-139220000D01*
X132650000Y-141780000D02*
X132650000Y-141910000D01*
X132650000Y-141910000D02*
X137970000Y-141910000D01*
X137970000Y-141910000D02*
X137970000Y-141780000D01*
X133490000Y-139090000D02*
X133490000Y-141910000D01*
X107150000Y-138720000D02*
X107150000Y-138590000D01*
X107150000Y-138590000D02*
X112470000Y-138590000D01*
X112470000Y-138590000D02*
X112470000Y-138720000D01*
X107150000Y-141280000D02*
X107150000Y-141410000D01*
X107150000Y-141410000D02*
X112470000Y-141410000D01*
X112470000Y-141410000D02*
X112470000Y-141280000D01*
X107990000Y-138590000D02*
X107990000Y-141410000D01*
X141305722Y-110320277D02*
G75*
G03X136694420Y-110320000I-2305722J-1179723D01*
G01*
X141305722Y-112679723D02*
G75*
G02X136694420Y-112680000I-2305722J1179723D01*
G01*
X141305722Y-112679723D02*
G75*
G03X141305580Y-110320000I-2305722J1179723D01*
G01*
X139000000Y-108950000D02*
X139000000Y-114050000D01*
X139040000Y-108950000D02*
X139040000Y-110520000D01*
X139040000Y-112480000D02*
X139040000Y-114050000D01*
X139080000Y-108951000D02*
X139080000Y-110520000D01*
X139080000Y-112480000D02*
X139080000Y-114049000D01*
X139120000Y-108952000D02*
X139120000Y-110520000D01*
X139120000Y-112480000D02*
X139120000Y-114048000D01*
X139160000Y-108954000D02*
X139160000Y-110520000D01*
X139160000Y-112480000D02*
X139160000Y-114046000D01*
X139200000Y-108957000D02*
X139200000Y-110520000D01*
X139200000Y-112480000D02*
X139200000Y-114043000D01*
X139240000Y-108961000D02*
X139240000Y-110520000D01*
X139240000Y-112480000D02*
X139240000Y-114039000D01*
X139280000Y-108965000D02*
X139280000Y-110520000D01*
X139280000Y-112480000D02*
X139280000Y-114035000D01*
X139320000Y-108969000D02*
X139320000Y-110520000D01*
X139320000Y-112480000D02*
X139320000Y-114031000D01*
X139360000Y-108975000D02*
X139360000Y-110520000D01*
X139360000Y-112480000D02*
X139360000Y-114025000D01*
X139400000Y-108981000D02*
X139400000Y-110520000D01*
X139400000Y-112480000D02*
X139400000Y-114019000D01*
X139440000Y-108987000D02*
X139440000Y-110520000D01*
X139440000Y-112480000D02*
X139440000Y-114013000D01*
X139480000Y-108994000D02*
X139480000Y-110520000D01*
X139480000Y-112480000D02*
X139480000Y-114006000D01*
X139520000Y-109002000D02*
X139520000Y-110520000D01*
X139520000Y-112480000D02*
X139520000Y-113998000D01*
X139560000Y-109011000D02*
X139560000Y-110520000D01*
X139560000Y-112480000D02*
X139560000Y-113989000D01*
X139600000Y-109020000D02*
X139600000Y-110520000D01*
X139600000Y-112480000D02*
X139600000Y-113980000D01*
X139640000Y-109030000D02*
X139640000Y-110520000D01*
X139640000Y-112480000D02*
X139640000Y-113970000D01*
X139680000Y-109040000D02*
X139680000Y-110520000D01*
X139680000Y-112480000D02*
X139680000Y-113960000D01*
X139721000Y-109052000D02*
X139721000Y-110520000D01*
X139721000Y-112480000D02*
X139721000Y-113948000D01*
X139761000Y-109064000D02*
X139761000Y-110520000D01*
X139761000Y-112480000D02*
X139761000Y-113936000D01*
X139801000Y-109076000D02*
X139801000Y-110520000D01*
X139801000Y-112480000D02*
X139801000Y-113924000D01*
X139841000Y-109090000D02*
X139841000Y-110520000D01*
X139841000Y-112480000D02*
X139841000Y-113910000D01*
X139881000Y-109104000D02*
X139881000Y-110520000D01*
X139881000Y-112480000D02*
X139881000Y-113896000D01*
X139921000Y-109118000D02*
X139921000Y-110520000D01*
X139921000Y-112480000D02*
X139921000Y-113882000D01*
X139961000Y-109134000D02*
X139961000Y-110520000D01*
X139961000Y-112480000D02*
X139961000Y-113866000D01*
X140001000Y-109150000D02*
X140001000Y-110520000D01*
X140001000Y-112480000D02*
X140001000Y-113850000D01*
X140041000Y-109167000D02*
X140041000Y-110520000D01*
X140041000Y-112480000D02*
X140041000Y-113833000D01*
X140081000Y-109185000D02*
X140081000Y-110520000D01*
X140081000Y-112480000D02*
X140081000Y-113815000D01*
X140121000Y-109204000D02*
X140121000Y-110520000D01*
X140121000Y-112480000D02*
X140121000Y-113796000D01*
X140161000Y-109224000D02*
X140161000Y-110520000D01*
X140161000Y-112480000D02*
X140161000Y-113776000D01*
X140201000Y-109244000D02*
X140201000Y-110520000D01*
X140201000Y-112480000D02*
X140201000Y-113756000D01*
X140241000Y-109266000D02*
X140241000Y-110520000D01*
X140241000Y-112480000D02*
X140241000Y-113734000D01*
X140281000Y-109288000D02*
X140281000Y-110520000D01*
X140281000Y-112480000D02*
X140281000Y-113712000D01*
X140321000Y-109311000D02*
X140321000Y-110520000D01*
X140321000Y-112480000D02*
X140321000Y-113689000D01*
X140361000Y-109335000D02*
X140361000Y-110520000D01*
X140361000Y-112480000D02*
X140361000Y-113665000D01*
X140401000Y-109360000D02*
X140401000Y-110520000D01*
X140401000Y-112480000D02*
X140401000Y-113640000D01*
X140441000Y-109387000D02*
X140441000Y-110520000D01*
X140441000Y-112480000D02*
X140441000Y-113613000D01*
X140481000Y-109414000D02*
X140481000Y-110520000D01*
X140481000Y-112480000D02*
X140481000Y-113586000D01*
X140521000Y-109442000D02*
X140521000Y-110520000D01*
X140521000Y-112480000D02*
X140521000Y-113558000D01*
X140561000Y-109472000D02*
X140561000Y-110520000D01*
X140561000Y-112480000D02*
X140561000Y-113528000D01*
X140601000Y-109503000D02*
X140601000Y-110520000D01*
X140601000Y-112480000D02*
X140601000Y-113497000D01*
X140641000Y-109535000D02*
X140641000Y-110520000D01*
X140641000Y-112480000D02*
X140641000Y-113465000D01*
X140681000Y-109568000D02*
X140681000Y-110520000D01*
X140681000Y-112480000D02*
X140681000Y-113432000D01*
X140721000Y-109603000D02*
X140721000Y-110520000D01*
X140721000Y-112480000D02*
X140721000Y-113397000D01*
X140761000Y-109639000D02*
X140761000Y-110520000D01*
X140761000Y-112480000D02*
X140761000Y-113361000D01*
X140801000Y-109677000D02*
X140801000Y-110520000D01*
X140801000Y-112480000D02*
X140801000Y-113323000D01*
X140841000Y-109717000D02*
X140841000Y-110520000D01*
X140841000Y-112480000D02*
X140841000Y-113283000D01*
X140881000Y-109758000D02*
X140881000Y-110520000D01*
X140881000Y-112480000D02*
X140881000Y-113242000D01*
X140921000Y-109801000D02*
X140921000Y-110520000D01*
X140921000Y-112480000D02*
X140921000Y-113199000D01*
X140961000Y-109846000D02*
X140961000Y-110520000D01*
X140961000Y-112480000D02*
X140961000Y-113154000D01*
X141001000Y-109894000D02*
X141001000Y-113106000D01*
X141041000Y-109944000D02*
X141041000Y-113056000D01*
X141081000Y-109996000D02*
X141081000Y-113004000D01*
X141121000Y-110052000D02*
X141121000Y-112948000D01*
X141161000Y-110110000D02*
X141161000Y-112890000D01*
X141201000Y-110173000D02*
X141201000Y-112827000D01*
X141241000Y-110239000D02*
X141241000Y-112761000D01*
X141281000Y-110311000D02*
X141281000Y-112689000D01*
X141321000Y-110388000D02*
X141321000Y-112612000D01*
X141361000Y-110472000D02*
X141361000Y-112528000D01*
X141401000Y-110566000D02*
X141401000Y-112434000D01*
X141441000Y-110671000D02*
X141441000Y-112329000D01*
X141481000Y-110793000D02*
X141481000Y-112207000D01*
X141521000Y-110941000D02*
X141521000Y-112059000D01*
X141561000Y-111146000D02*
X141561000Y-111854000D01*
X135800000Y-111500000D02*
X137000000Y-111500000D01*
X136400000Y-110850000D02*
X136400000Y-112150000D01*
X113305722Y-118820277D02*
G75*
G03X108694420Y-118820000I-2305722J-1179723D01*
G01*
X113305722Y-121179723D02*
G75*
G02X108694420Y-121180000I-2305722J1179723D01*
G01*
X113305722Y-121179723D02*
G75*
G03X113305580Y-118820000I-2305722J1179723D01*
G01*
X111000000Y-117450000D02*
X111000000Y-122550000D01*
X111040000Y-117450000D02*
X111040000Y-119020000D01*
X111040000Y-120980000D02*
X111040000Y-122550000D01*
X111080000Y-117451000D02*
X111080000Y-119020000D01*
X111080000Y-120980000D02*
X111080000Y-122549000D01*
X111120000Y-117452000D02*
X111120000Y-119020000D01*
X111120000Y-120980000D02*
X111120000Y-122548000D01*
X111160000Y-117454000D02*
X111160000Y-119020000D01*
X111160000Y-120980000D02*
X111160000Y-122546000D01*
X111200000Y-117457000D02*
X111200000Y-119020000D01*
X111200000Y-120980000D02*
X111200000Y-122543000D01*
X111240000Y-117461000D02*
X111240000Y-119020000D01*
X111240000Y-120980000D02*
X111240000Y-122539000D01*
X111280000Y-117465000D02*
X111280000Y-119020000D01*
X111280000Y-120980000D02*
X111280000Y-122535000D01*
X111320000Y-117469000D02*
X111320000Y-119020000D01*
X111320000Y-120980000D02*
X111320000Y-122531000D01*
X111360000Y-117475000D02*
X111360000Y-119020000D01*
X111360000Y-120980000D02*
X111360000Y-122525000D01*
X111400000Y-117481000D02*
X111400000Y-119020000D01*
X111400000Y-120980000D02*
X111400000Y-122519000D01*
X111440000Y-117487000D02*
X111440000Y-119020000D01*
X111440000Y-120980000D02*
X111440000Y-122513000D01*
X111480000Y-117494000D02*
X111480000Y-119020000D01*
X111480000Y-120980000D02*
X111480000Y-122506000D01*
X111520000Y-117502000D02*
X111520000Y-119020000D01*
X111520000Y-120980000D02*
X111520000Y-122498000D01*
X111560000Y-117511000D02*
X111560000Y-119020000D01*
X111560000Y-120980000D02*
X111560000Y-122489000D01*
X111600000Y-117520000D02*
X111600000Y-119020000D01*
X111600000Y-120980000D02*
X111600000Y-122480000D01*
X111640000Y-117530000D02*
X111640000Y-119020000D01*
X111640000Y-120980000D02*
X111640000Y-122470000D01*
X111680000Y-117540000D02*
X111680000Y-119020000D01*
X111680000Y-120980000D02*
X111680000Y-122460000D01*
X111721000Y-117552000D02*
X111721000Y-119020000D01*
X111721000Y-120980000D02*
X111721000Y-122448000D01*
X111761000Y-117564000D02*
X111761000Y-119020000D01*
X111761000Y-120980000D02*
X111761000Y-122436000D01*
X111801000Y-117576000D02*
X111801000Y-119020000D01*
X111801000Y-120980000D02*
X111801000Y-122424000D01*
X111841000Y-117590000D02*
X111841000Y-119020000D01*
X111841000Y-120980000D02*
X111841000Y-122410000D01*
X111881000Y-117604000D02*
X111881000Y-119020000D01*
X111881000Y-120980000D02*
X111881000Y-122396000D01*
X111921000Y-117618000D02*
X111921000Y-119020000D01*
X111921000Y-120980000D02*
X111921000Y-122382000D01*
X111961000Y-117634000D02*
X111961000Y-119020000D01*
X111961000Y-120980000D02*
X111961000Y-122366000D01*
X112001000Y-117650000D02*
X112001000Y-119020000D01*
X112001000Y-120980000D02*
X112001000Y-122350000D01*
X112041000Y-117667000D02*
X112041000Y-119020000D01*
X112041000Y-120980000D02*
X112041000Y-122333000D01*
X112081000Y-117685000D02*
X112081000Y-119020000D01*
X112081000Y-120980000D02*
X112081000Y-122315000D01*
X112121000Y-117704000D02*
X112121000Y-119020000D01*
X112121000Y-120980000D02*
X112121000Y-122296000D01*
X112161000Y-117724000D02*
X112161000Y-119020000D01*
X112161000Y-120980000D02*
X112161000Y-122276000D01*
X112201000Y-117744000D02*
X112201000Y-119020000D01*
X112201000Y-120980000D02*
X112201000Y-122256000D01*
X112241000Y-117766000D02*
X112241000Y-119020000D01*
X112241000Y-120980000D02*
X112241000Y-122234000D01*
X112281000Y-117788000D02*
X112281000Y-119020000D01*
X112281000Y-120980000D02*
X112281000Y-122212000D01*
X112321000Y-117811000D02*
X112321000Y-119020000D01*
X112321000Y-120980000D02*
X112321000Y-122189000D01*
X112361000Y-117835000D02*
X112361000Y-119020000D01*
X112361000Y-120980000D02*
X112361000Y-122165000D01*
X112401000Y-117860000D02*
X112401000Y-119020000D01*
X112401000Y-120980000D02*
X112401000Y-122140000D01*
X112441000Y-117887000D02*
X112441000Y-119020000D01*
X112441000Y-120980000D02*
X112441000Y-122113000D01*
X112481000Y-117914000D02*
X112481000Y-119020000D01*
X112481000Y-120980000D02*
X112481000Y-122086000D01*
X112521000Y-117942000D02*
X112521000Y-119020000D01*
X112521000Y-120980000D02*
X112521000Y-122058000D01*
X112561000Y-117972000D02*
X112561000Y-119020000D01*
X112561000Y-120980000D02*
X112561000Y-122028000D01*
X112601000Y-118003000D02*
X112601000Y-119020000D01*
X112601000Y-120980000D02*
X112601000Y-121997000D01*
X112641000Y-118035000D02*
X112641000Y-119020000D01*
X112641000Y-120980000D02*
X112641000Y-121965000D01*
X112681000Y-118068000D02*
X112681000Y-119020000D01*
X112681000Y-120980000D02*
X112681000Y-121932000D01*
X112721000Y-118103000D02*
X112721000Y-119020000D01*
X112721000Y-120980000D02*
X112721000Y-121897000D01*
X112761000Y-118139000D02*
X112761000Y-119020000D01*
X112761000Y-120980000D02*
X112761000Y-121861000D01*
X112801000Y-118177000D02*
X112801000Y-119020000D01*
X112801000Y-120980000D02*
X112801000Y-121823000D01*
X112841000Y-118217000D02*
X112841000Y-119020000D01*
X112841000Y-120980000D02*
X112841000Y-121783000D01*
X112881000Y-118258000D02*
X112881000Y-119020000D01*
X112881000Y-120980000D02*
X112881000Y-121742000D01*
X112921000Y-118301000D02*
X112921000Y-119020000D01*
X112921000Y-120980000D02*
X112921000Y-121699000D01*
X112961000Y-118346000D02*
X112961000Y-119020000D01*
X112961000Y-120980000D02*
X112961000Y-121654000D01*
X113001000Y-118394000D02*
X113001000Y-121606000D01*
X113041000Y-118444000D02*
X113041000Y-121556000D01*
X113081000Y-118496000D02*
X113081000Y-121504000D01*
X113121000Y-118552000D02*
X113121000Y-121448000D01*
X113161000Y-118610000D02*
X113161000Y-121390000D01*
X113201000Y-118673000D02*
X113201000Y-121327000D01*
X113241000Y-118739000D02*
X113241000Y-121261000D01*
X113281000Y-118811000D02*
X113281000Y-121189000D01*
X113321000Y-118888000D02*
X113321000Y-121112000D01*
X113361000Y-118972000D02*
X113361000Y-121028000D01*
X113401000Y-119066000D02*
X113401000Y-120934000D01*
X113441000Y-119171000D02*
X113441000Y-120829000D01*
X113481000Y-119293000D02*
X113481000Y-120707000D01*
X113521000Y-119441000D02*
X113521000Y-120559000D01*
X113561000Y-119646000D02*
X113561000Y-120354000D01*
X107800000Y-120000000D02*
X109000000Y-120000000D01*
X108400000Y-119350000D02*
X108400000Y-120650000D01*
X123600000Y-143380000D02*
X122400000Y-143380000D01*
X122400000Y-141620000D02*
X123600000Y-141620000D01*
X135600000Y-124380000D02*
X134400000Y-124380000D01*
X134400000Y-122620000D02*
X135600000Y-122620000D01*
X130120000Y-122600000D02*
X130120000Y-121400000D01*
X131880000Y-121400000D02*
X131880000Y-122600000D01*
X122400000Y-111120000D02*
X123600000Y-111120000D01*
X123600000Y-112880000D02*
X122400000Y-112880000D01*
X107380000Y-112900000D02*
X107380000Y-114100000D01*
X105620000Y-114100000D02*
X105620000Y-112900000D01*
X122380000Y-115400000D02*
X122380000Y-116600000D01*
X120620000Y-116600000D02*
X120620000Y-115400000D01*
X109880000Y-112900000D02*
X109880000Y-114100000D01*
X108120000Y-114100000D02*
X108120000Y-112900000D01*
X130380000Y-144400000D02*
X130380000Y-145600000D01*
X128620000Y-145600000D02*
X128620000Y-144400000D01*
X115240000Y-143920000D02*
X115240000Y-144850000D01*
X115240000Y-147080000D02*
X115240000Y-146150000D01*
X115240000Y-147080000D02*
X118400000Y-147080000D01*
X115240000Y-143920000D02*
X116700000Y-143920000D01*
X139080000Y-118240000D02*
X138150000Y-118240000D01*
X135920000Y-118240000D02*
X136850000Y-118240000D01*
X135920000Y-118240000D02*
X135920000Y-121400000D01*
X139080000Y-118240000D02*
X139080000Y-119700000D01*
X132910000Y-117410000D02*
X132910000Y-116150000D01*
X132910000Y-110590000D02*
X132910000Y-111850000D01*
X129150000Y-117410000D02*
X132910000Y-117410000D01*
X126900000Y-110590000D02*
X132910000Y-110590000D01*
D13*
X118075000Y-116075000D02*
X118075000Y-116025000D01*
X113925000Y-116075000D02*
X113925000Y-115930000D01*
X113925000Y-110925000D02*
X113925000Y-111070000D01*
X118075000Y-110925000D02*
X118075000Y-111070000D01*
X118075000Y-116075000D02*
X113925000Y-116075000D01*
X118075000Y-110925000D02*
X113925000Y-110925000D01*
X118075000Y-116025000D02*
X119475000Y-116025000D01*
D14*
X116850000Y-120000000D02*
X116850000Y-119000000D01*
X115150000Y-119000000D02*
X115150000Y-120000000D01*
X123650000Y-115500000D02*
X123650000Y-116500000D01*
X125350000Y-116500000D02*
X125350000Y-115500000D01*
D13*
X120142857Y-74612381D02*
X120714286Y-74612381D01*
X120428571Y-75612381D02*
X120428571Y-74612381D01*
X121428572Y-75564762D02*
X121333334Y-75612381D01*
X121142857Y-75612381D01*
X121047619Y-75564762D01*
X121000000Y-75469524D01*
X121000000Y-75088571D01*
X121047619Y-74993333D01*
X121142857Y-74945714D01*
X121333334Y-74945714D01*
X121428572Y-74993333D01*
X121476191Y-75088571D01*
X121476191Y-75183810D01*
X121000000Y-75279048D01*
X122285715Y-75564762D02*
X122190477Y-75612381D01*
X122000000Y-75612381D01*
X121904762Y-75564762D01*
X121857143Y-75469524D01*
X121857143Y-75088571D01*
X121904762Y-74993333D01*
X122000000Y-74945714D01*
X122190477Y-74945714D01*
X122285715Y-74993333D01*
X122333334Y-75088571D01*
X122333334Y-75183810D01*
X121857143Y-75279048D01*
X122761905Y-74945714D02*
X122761905Y-75612381D01*
X122761905Y-75040952D02*
X122809524Y-74993333D01*
X122904762Y-74945714D01*
X123047620Y-74945714D01*
X123142858Y-74993333D01*
X123190477Y-75088571D01*
X123190477Y-75612381D01*
X123619048Y-75564762D02*
X123714286Y-75612381D01*
X123904762Y-75612381D01*
X124000001Y-75564762D01*
X124047620Y-75469524D01*
X124047620Y-75421905D01*
X124000001Y-75326667D01*
X123904762Y-75279048D01*
X123761905Y-75279048D01*
X123666667Y-75231429D01*
X123619048Y-75136190D01*
X123619048Y-75088571D01*
X123666667Y-74993333D01*
X123761905Y-74945714D01*
X123904762Y-74945714D01*
X124000001Y-74993333D01*
X124380953Y-74945714D02*
X124619048Y-75612381D01*
X124857144Y-74945714D02*
X124619048Y-75612381D01*
X124523810Y-75850476D01*
X124476191Y-75898095D01*
X124380953Y-75945714D01*
X125761906Y-75612381D02*
X125190477Y-75612381D01*
X125476191Y-75612381D02*
X125476191Y-74612381D01*
X125380953Y-74755238D01*
X125285715Y-74850476D01*
X125190477Y-74898095D01*
X134861905Y-143552381D02*
X134861905Y-142552381D01*
X135100000Y-142552381D01*
X135242858Y-142600000D01*
X135338096Y-142695238D01*
X135385715Y-142790476D01*
X135433334Y-142980952D01*
X135433334Y-143123810D01*
X135385715Y-143314286D01*
X135338096Y-143409524D01*
X135242858Y-143504762D01*
X135100000Y-143552381D01*
X134861905Y-143552381D01*
X135814286Y-142647619D02*
X135861905Y-142600000D01*
X135957143Y-142552381D01*
X136195239Y-142552381D01*
X136290477Y-142600000D01*
X136338096Y-142647619D01*
X136385715Y-142742857D01*
X136385715Y-142838095D01*
X136338096Y-142980952D01*
X135766667Y-143552381D01*
X136385715Y-143552381D01*
X109261905Y-142952381D02*
X109261905Y-141952381D01*
X109500000Y-141952381D01*
X109642858Y-142000000D01*
X109738096Y-142095238D01*
X109785715Y-142190476D01*
X109833334Y-142380952D01*
X109833334Y-142523810D01*
X109785715Y-142714286D01*
X109738096Y-142809524D01*
X109642858Y-142904762D01*
X109500000Y-142952381D01*
X109261905Y-142952381D01*
X110785715Y-142952381D02*
X110214286Y-142952381D01*
X110500000Y-142952381D02*
X110500000Y-141952381D01*
X110404762Y-142095238D01*
X110309524Y-142190476D01*
X110214286Y-142238095D01*
X136633334Y-108157143D02*
X136585715Y-108204762D01*
X136442858Y-108252381D01*
X136347620Y-108252381D01*
X136204762Y-108204762D01*
X136109524Y-108109524D01*
X136061905Y-108014286D01*
X136014286Y-107823810D01*
X136014286Y-107680952D01*
X136061905Y-107490476D01*
X136109524Y-107395238D01*
X136204762Y-107300000D01*
X136347620Y-107252381D01*
X136442858Y-107252381D01*
X136585715Y-107300000D01*
X136633334Y-107347619D01*
X136966667Y-107252381D02*
X137585715Y-107252381D01*
X137252381Y-107633333D01*
X137395239Y-107633333D01*
X137490477Y-107680952D01*
X137538096Y-107728571D01*
X137585715Y-107823810D01*
X137585715Y-108061905D01*
X137538096Y-108157143D01*
X137490477Y-108204762D01*
X137395239Y-108252381D01*
X137109524Y-108252381D01*
X137014286Y-108204762D01*
X136966667Y-108157143D01*
X106433334Y-120157143D02*
X106385715Y-120204762D01*
X106242858Y-120252381D01*
X106147620Y-120252381D01*
X106004762Y-120204762D01*
X105909524Y-120109524D01*
X105861905Y-120014286D01*
X105814286Y-119823810D01*
X105814286Y-119680952D01*
X105861905Y-119490476D01*
X105909524Y-119395238D01*
X106004762Y-119300000D01*
X106147620Y-119252381D01*
X106242858Y-119252381D01*
X106385715Y-119300000D01*
X106433334Y-119347619D01*
X106814286Y-119347619D02*
X106861905Y-119300000D01*
X106957143Y-119252381D01*
X107195239Y-119252381D01*
X107290477Y-119300000D01*
X107338096Y-119347619D01*
X107385715Y-119442857D01*
X107385715Y-119538095D01*
X107338096Y-119680952D01*
X106766667Y-120252381D01*
X107385715Y-120252381D01*
X126633334Y-142552381D02*
X126300000Y-142076190D01*
X126061905Y-142552381D02*
X126061905Y-141552381D01*
X126442858Y-141552381D01*
X126538096Y-141600000D01*
X126585715Y-141647619D01*
X126633334Y-141742857D01*
X126633334Y-141885714D01*
X126585715Y-141980952D01*
X126538096Y-142028571D01*
X126442858Y-142076190D01*
X126061905Y-142076190D01*
X127014286Y-141647619D02*
X127061905Y-141600000D01*
X127157143Y-141552381D01*
X127395239Y-141552381D01*
X127490477Y-141600000D01*
X127538096Y-141647619D01*
X127585715Y-141742857D01*
X127585715Y-141838095D01*
X127538096Y-141980952D01*
X126966667Y-142552381D01*
X127585715Y-142552381D01*
X138533334Y-123752381D02*
X138200000Y-123276190D01*
X137961905Y-123752381D02*
X137961905Y-122752381D01*
X138342858Y-122752381D01*
X138438096Y-122800000D01*
X138485715Y-122847619D01*
X138533334Y-122942857D01*
X138533334Y-123085714D01*
X138485715Y-123180952D01*
X138438096Y-123228571D01*
X138342858Y-123276190D01*
X137961905Y-123276190D01*
X138866667Y-122752381D02*
X139485715Y-122752381D01*
X139152381Y-123133333D01*
X139295239Y-123133333D01*
X139390477Y-123180952D01*
X139438096Y-123228571D01*
X139485715Y-123323810D01*
X139485715Y-123561905D01*
X139438096Y-123657143D01*
X139390477Y-123704762D01*
X139295239Y-123752381D01*
X139009524Y-123752381D01*
X138914286Y-123704762D01*
X138866667Y-123657143D01*
X130833334Y-125952381D02*
X130500000Y-125476190D01*
X130261905Y-125952381D02*
X130261905Y-124952381D01*
X130642858Y-124952381D01*
X130738096Y-125000000D01*
X130785715Y-125047619D01*
X130833334Y-125142857D01*
X130833334Y-125285714D01*
X130785715Y-125380952D01*
X130738096Y-125428571D01*
X130642858Y-125476190D01*
X130261905Y-125476190D01*
X131690477Y-125285714D02*
X131690477Y-125952381D01*
X131452381Y-124904762D02*
X131214286Y-125619048D01*
X131833334Y-125619048D01*
X121533334Y-110552381D02*
X121200000Y-110076190D01*
X120961905Y-110552381D02*
X120961905Y-109552381D01*
X121342858Y-109552381D01*
X121438096Y-109600000D01*
X121485715Y-109647619D01*
X121533334Y-109742857D01*
X121533334Y-109885714D01*
X121485715Y-109980952D01*
X121438096Y-110028571D01*
X121342858Y-110076190D01*
X120961905Y-110076190D01*
X122438096Y-109552381D02*
X121961905Y-109552381D01*
X121914286Y-110028571D01*
X121961905Y-109980952D01*
X122057143Y-109933333D01*
X122295239Y-109933333D01*
X122390477Y-109980952D01*
X122438096Y-110028571D01*
X122485715Y-110123810D01*
X122485715Y-110361905D01*
X122438096Y-110457143D01*
X122390477Y-110504762D01*
X122295239Y-110552381D01*
X122057143Y-110552381D01*
X121961905Y-110504762D01*
X121914286Y-110457143D01*
X106333334Y-110452381D02*
X106000000Y-109976190D01*
X105761905Y-110452381D02*
X105761905Y-109452381D01*
X106142858Y-109452381D01*
X106238096Y-109500000D01*
X106285715Y-109547619D01*
X106333334Y-109642857D01*
X106333334Y-109785714D01*
X106285715Y-109880952D01*
X106238096Y-109928571D01*
X106142858Y-109976190D01*
X105761905Y-109976190D01*
X107190477Y-109452381D02*
X107000000Y-109452381D01*
X106904762Y-109500000D01*
X106857143Y-109547619D01*
X106761905Y-109690476D01*
X106714286Y-109880952D01*
X106714286Y-110261905D01*
X106761905Y-110357143D01*
X106809524Y-110404762D01*
X106904762Y-110452381D01*
X107095239Y-110452381D01*
X107190477Y-110404762D01*
X107238096Y-110357143D01*
X107285715Y-110261905D01*
X107285715Y-110023810D01*
X107238096Y-109928571D01*
X107190477Y-109880952D01*
X107095239Y-109833333D01*
X106904762Y-109833333D01*
X106809524Y-109880952D01*
X106761905Y-109928571D01*
X106714286Y-110023810D01*
X120452381Y-117666666D02*
X119976190Y-118000000D01*
X120452381Y-118238095D02*
X119452381Y-118238095D01*
X119452381Y-117857142D01*
X119500000Y-117761904D01*
X119547619Y-117714285D01*
X119642857Y-117666666D01*
X119785714Y-117666666D01*
X119880952Y-117714285D01*
X119928571Y-117761904D01*
X119976190Y-117857142D01*
X119976190Y-118238095D01*
X119452381Y-117333333D02*
X119452381Y-116666666D01*
X120452381Y-117095238D01*
X108833334Y-110452381D02*
X108500000Y-109976190D01*
X108261905Y-110452381D02*
X108261905Y-109452381D01*
X108642858Y-109452381D01*
X108738096Y-109500000D01*
X108785715Y-109547619D01*
X108833334Y-109642857D01*
X108833334Y-109785714D01*
X108785715Y-109880952D01*
X108738096Y-109928571D01*
X108642858Y-109976190D01*
X108261905Y-109976190D01*
X109404762Y-109880952D02*
X109309524Y-109833333D01*
X109261905Y-109785714D01*
X109214286Y-109690476D01*
X109214286Y-109642857D01*
X109261905Y-109547619D01*
X109309524Y-109500000D01*
X109404762Y-109452381D01*
X109595239Y-109452381D01*
X109690477Y-109500000D01*
X109738096Y-109547619D01*
X109785715Y-109642857D01*
X109785715Y-109690476D01*
X109738096Y-109785714D01*
X109690477Y-109833333D01*
X109595239Y-109880952D01*
X109404762Y-109880952D01*
X109309524Y-109928571D01*
X109261905Y-109976190D01*
X109214286Y-110071429D01*
X109214286Y-110261905D01*
X109261905Y-110357143D01*
X109309524Y-110404762D01*
X109404762Y-110452381D01*
X109595239Y-110452381D01*
X109690477Y-110404762D01*
X109738096Y-110357143D01*
X109785715Y-110261905D01*
X109785715Y-110071429D01*
X109738096Y-109976190D01*
X109690477Y-109928571D01*
X109595239Y-109880952D01*
X129333334Y-148952381D02*
X129000000Y-148476190D01*
X128761905Y-148952381D02*
X128761905Y-147952381D01*
X129142858Y-147952381D01*
X129238096Y-148000000D01*
X129285715Y-148047619D01*
X129333334Y-148142857D01*
X129333334Y-148285714D01*
X129285715Y-148380952D01*
X129238096Y-148428571D01*
X129142858Y-148476190D01*
X128761905Y-148476190D01*
X130285715Y-148952381D02*
X129714286Y-148952381D01*
X130000000Y-148952381D02*
X130000000Y-147952381D01*
X129904762Y-148095238D01*
X129809524Y-148190476D01*
X129714286Y-148238095D01*
X116104762Y-143347619D02*
X116009524Y-143300000D01*
X115914286Y-143204762D01*
X115771429Y-143061905D01*
X115676190Y-143014286D01*
X115580952Y-143014286D01*
X115628571Y-143252381D02*
X115533333Y-143204762D01*
X115438095Y-143109524D01*
X115390476Y-142919048D01*
X115390476Y-142585714D01*
X115438095Y-142395238D01*
X115533333Y-142300000D01*
X115628571Y-142252381D01*
X115819048Y-142252381D01*
X115914286Y-142300000D01*
X116009524Y-142395238D01*
X116057143Y-142585714D01*
X116057143Y-142919048D01*
X116009524Y-143109524D01*
X115914286Y-143204762D01*
X115819048Y-143252381D01*
X115628571Y-143252381D01*
X117009524Y-143252381D02*
X116438095Y-143252381D01*
X116723809Y-143252381D02*
X116723809Y-142252381D01*
X116628571Y-142395238D01*
X116533333Y-142490476D01*
X116438095Y-142538095D01*
X140604762Y-120847619D02*
X140509524Y-120800000D01*
X140414286Y-120704762D01*
X140271429Y-120561905D01*
X140176190Y-120514286D01*
X140080952Y-120514286D01*
X140128571Y-120752381D02*
X140033333Y-120704762D01*
X139938095Y-120609524D01*
X139890476Y-120419048D01*
X139890476Y-120085714D01*
X139938095Y-119895238D01*
X140033333Y-119800000D01*
X140128571Y-119752381D01*
X140319048Y-119752381D01*
X140414286Y-119800000D01*
X140509524Y-119895238D01*
X140557143Y-120085714D01*
X140557143Y-120419048D01*
X140509524Y-120609524D01*
X140414286Y-120704762D01*
X140319048Y-120752381D01*
X140128571Y-120752381D01*
X140938095Y-119847619D02*
X140985714Y-119800000D01*
X141080952Y-119752381D01*
X141319048Y-119752381D01*
X141414286Y-119800000D01*
X141461905Y-119847619D01*
X141509524Y-119942857D01*
X141509524Y-120038095D01*
X141461905Y-120180952D01*
X140890476Y-120752381D01*
X141509524Y-120752381D01*
X130238095Y-108952381D02*
X130238095Y-109761905D01*
X130285714Y-109857143D01*
X130333333Y-109904762D01*
X130428571Y-109952381D01*
X130619048Y-109952381D01*
X130714286Y-109904762D01*
X130761905Y-109857143D01*
X130809524Y-109761905D01*
X130809524Y-108952381D01*
X131809524Y-109952381D02*
X131238095Y-109952381D01*
X131523809Y-109952381D02*
X131523809Y-108952381D01*
X131428571Y-109095238D01*
X131333333Y-109190476D01*
X131238095Y-109238095D01*
X112738095Y-109452381D02*
X112738095Y-110261905D01*
X112785714Y-110357143D01*
X112833333Y-110404762D01*
X112928571Y-110452381D01*
X113119048Y-110452381D01*
X113214286Y-110404762D01*
X113261905Y-110357143D01*
X113309524Y-110261905D01*
X113309524Y-109452381D01*
X113690476Y-109452381D02*
X114309524Y-109452381D01*
X113976190Y-109833333D01*
X114119048Y-109833333D01*
X114214286Y-109880952D01*
X114261905Y-109928571D01*
X114309524Y-110023810D01*
X114309524Y-110261905D01*
X114261905Y-110357143D01*
X114214286Y-110404762D01*
X114119048Y-110452381D01*
X113833333Y-110452381D01*
X113738095Y-110404762D01*
X113690476Y-110357143D01*
X115933334Y-122757143D02*
X115885715Y-122804762D01*
X115742858Y-122852381D01*
X115647620Y-122852381D01*
X115504762Y-122804762D01*
X115409524Y-122709524D01*
X115361905Y-122614286D01*
X115314286Y-122423810D01*
X115314286Y-122280952D01*
X115361905Y-122090476D01*
X115409524Y-121995238D01*
X115504762Y-121900000D01*
X115647620Y-121852381D01*
X115742858Y-121852381D01*
X115885715Y-121900000D01*
X115933334Y-121947619D01*
X116885715Y-122852381D02*
X116314286Y-122852381D01*
X116600000Y-122852381D02*
X116600000Y-121852381D01*
X116504762Y-121995238D01*
X116409524Y-122090476D01*
X116314286Y-122138095D01*
X126457143Y-117666666D02*
X126504762Y-117714285D01*
X126552381Y-117857142D01*
X126552381Y-117952380D01*
X126504762Y-118095238D01*
X126409524Y-118190476D01*
X126314286Y-118238095D01*
X126123810Y-118285714D01*
X125980952Y-118285714D01*
X125790476Y-118238095D01*
X125695238Y-118190476D01*
X125600000Y-118095238D01*
X125552381Y-117952380D01*
X125552381Y-117857142D01*
X125600000Y-117714285D01*
X125647619Y-117666666D01*
X125885714Y-116809523D02*
X126552381Y-116809523D01*
X125504762Y-117047619D02*
X126219048Y-117285714D01*
X126219048Y-116666666D01*
D15*
G36*
X125773000Y-138773000D02*
X119727000Y-138773000D01*
X119727000Y-137727000D01*
X125773000Y-137727000D01*
X125773000Y-138773000D01*
X125773000Y-138773000D01*
G37*
X125773000Y-138773000D02*
X119727000Y-138773000D01*
X119727000Y-137727000D01*
X125773000Y-137727000D01*
X125773000Y-138773000D01*
M02*
