%TF.GenerationSoftware,KiCad,Pcbnew,(5.99.0-12348-g4b436fb86d)*%
%TF.CreationDate,2021-09-23T15:24:10+01:00*%
%TF.ProjectId,Panel,50616e65-6c2e-46b6-9963-61645f706362,rev?*%
%TF.SameCoordinates,Original*%
%TF.FileFunction,Legend,Top*%
%TF.FilePolarity,Positive*%
%FSLAX46Y46*%
G04 Gerber Fmt 4.6, Leading zero omitted, Abs format (unit mm)*
G04 Created by KiCad (PCBNEW (5.99.0-12348-g4b436fb86d)) date 2021-09-23 15:24:10*
%MOMM*%
%LPD*%
G01*
G04 APERTURE LIST*
%ADD10C,0.150000*%
G04 APERTURE END LIST*
D10*
X115338095Y-45397380D02*
X115338095Y-44397380D01*
X115719047Y-44397380D01*
X115814285Y-44445000D01*
X115861904Y-44492619D01*
X115909523Y-44587857D01*
X115909523Y-44730714D01*
X115861904Y-44825952D01*
X115814285Y-44873571D01*
X115719047Y-44921190D01*
X115338095Y-44921190D01*
X116480952Y-45397380D02*
X116385714Y-45349761D01*
X116338095Y-45254523D01*
X116338095Y-44397380D01*
X117290476Y-45397380D02*
X117290476Y-44873571D01*
X117242857Y-44778333D01*
X117147619Y-44730714D01*
X116957142Y-44730714D01*
X116861904Y-44778333D01*
X117290476Y-45349761D02*
X117195238Y-45397380D01*
X116957142Y-45397380D01*
X116861904Y-45349761D01*
X116814285Y-45254523D01*
X116814285Y-45159285D01*
X116861904Y-45064047D01*
X116957142Y-45016428D01*
X117195238Y-45016428D01*
X117290476Y-44968809D01*
X117671428Y-44730714D02*
X117909523Y-45397380D01*
X118147619Y-44730714D02*
X117909523Y-45397380D01*
X117814285Y-45635476D01*
X117766666Y-45683095D01*
X117671428Y-45730714D01*
X119290476Y-45397380D02*
X119290476Y-44397380D01*
X119528571Y-44397380D01*
X119671428Y-44445000D01*
X119766666Y-44540238D01*
X119814285Y-44635476D01*
X119861904Y-44825952D01*
X119861904Y-44968809D01*
X119814285Y-45159285D01*
X119766666Y-45254523D01*
X119671428Y-45349761D01*
X119528571Y-45397380D01*
X119290476Y-45397380D01*
X120290476Y-45397380D02*
X120290476Y-44730714D01*
X120290476Y-44397380D02*
X120242857Y-44445000D01*
X120290476Y-44492619D01*
X120338095Y-44445000D01*
X120290476Y-44397380D01*
X120290476Y-44492619D01*
X121195238Y-45349761D02*
X121100000Y-45397380D01*
X120909523Y-45397380D01*
X120814285Y-45349761D01*
X120766666Y-45302142D01*
X120719047Y-45206904D01*
X120719047Y-44921190D01*
X120766666Y-44825952D01*
X120814285Y-44778333D01*
X120909523Y-44730714D01*
X121100000Y-44730714D01*
X121195238Y-44778333D01*
X122004761Y-45349761D02*
X121909523Y-45397380D01*
X121719047Y-45397380D01*
X121623809Y-45349761D01*
X121576190Y-45254523D01*
X121576190Y-44873571D01*
X121623809Y-44778333D01*
X121719047Y-44730714D01*
X121909523Y-44730714D01*
X122004761Y-44778333D01*
X122052380Y-44873571D01*
X122052380Y-44968809D01*
X121576190Y-45064047D01*
X123242857Y-45397380D02*
X123242857Y-44397380D01*
X123623809Y-44397380D01*
X123719047Y-44445000D01*
X123766666Y-44492619D01*
X123814285Y-44587857D01*
X123814285Y-44730714D01*
X123766666Y-44825952D01*
X123719047Y-44873571D01*
X123623809Y-44921190D01*
X123242857Y-44921190D01*
X124671428Y-45397380D02*
X124671428Y-44873571D01*
X124623809Y-44778333D01*
X124528571Y-44730714D01*
X124338095Y-44730714D01*
X124242857Y-44778333D01*
X124671428Y-45349761D02*
X124576190Y-45397380D01*
X124338095Y-45397380D01*
X124242857Y-45349761D01*
X124195238Y-45254523D01*
X124195238Y-45159285D01*
X124242857Y-45064047D01*
X124338095Y-45016428D01*
X124576190Y-45016428D01*
X124671428Y-44968809D01*
X125147619Y-44730714D02*
X125147619Y-45397380D01*
X125147619Y-44825952D02*
X125195238Y-44778333D01*
X125290476Y-44730714D01*
X125433333Y-44730714D01*
X125528571Y-44778333D01*
X125576190Y-44873571D01*
X125576190Y-45397380D01*
X126433333Y-45349761D02*
X126338095Y-45397380D01*
X126147619Y-45397380D01*
X126052380Y-45349761D01*
X126004761Y-45254523D01*
X126004761Y-44873571D01*
X126052380Y-44778333D01*
X126147619Y-44730714D01*
X126338095Y-44730714D01*
X126433333Y-44778333D01*
X126480952Y-44873571D01*
X126480952Y-44968809D01*
X126004761Y-45064047D01*
X127052380Y-45397380D02*
X126957142Y-45349761D01*
X126909523Y-45254523D01*
X126909523Y-44397380D01*
X128100000Y-44730714D02*
X128338095Y-45397380D01*
X128576190Y-44730714D01*
X128909523Y-44492619D02*
X128957142Y-44445000D01*
X129052380Y-44397380D01*
X129290476Y-44397380D01*
X129385714Y-44445000D01*
X129433333Y-44492619D01*
X129480952Y-44587857D01*
X129480952Y-44683095D01*
X129433333Y-44825952D01*
X128861904Y-45397380D01*
X129480952Y-45397380D01*
X129909523Y-45302142D02*
X129957142Y-45349761D01*
X129909523Y-45397380D01*
X129861904Y-45349761D01*
X129909523Y-45302142D01*
X129909523Y-45397380D01*
X130576190Y-44397380D02*
X130671428Y-44397380D01*
X130766666Y-44445000D01*
X130814285Y-44492619D01*
X130861904Y-44587857D01*
X130909523Y-44778333D01*
X130909523Y-45016428D01*
X130861904Y-45206904D01*
X130814285Y-45302142D01*
X130766666Y-45349761D01*
X130671428Y-45397380D01*
X130576190Y-45397380D01*
X130480952Y-45349761D01*
X130433333Y-45302142D01*
X130385714Y-45206904D01*
X130338095Y-45016428D01*
X130338095Y-44778333D01*
X130385714Y-44587857D01*
X130433333Y-44492619D01*
X130480952Y-44445000D01*
X130576190Y-44397380D01*
X114433333Y-47007380D02*
X114433333Y-46007380D01*
X114766666Y-46721666D01*
X115100000Y-46007380D01*
X115100000Y-47007380D01*
X115719047Y-47007380D02*
X115623809Y-46959761D01*
X115576190Y-46912142D01*
X115528571Y-46816904D01*
X115528571Y-46531190D01*
X115576190Y-46435952D01*
X115623809Y-46388333D01*
X115719047Y-46340714D01*
X115861904Y-46340714D01*
X115957142Y-46388333D01*
X116004761Y-46435952D01*
X116052380Y-46531190D01*
X116052380Y-46816904D01*
X116004761Y-46912142D01*
X115957142Y-46959761D01*
X115861904Y-47007380D01*
X115719047Y-47007380D01*
X116909523Y-46340714D02*
X116909523Y-47007380D01*
X116480952Y-46340714D02*
X116480952Y-46864523D01*
X116528571Y-46959761D01*
X116623809Y-47007380D01*
X116766666Y-47007380D01*
X116861904Y-46959761D01*
X116909523Y-46912142D01*
X117385714Y-46340714D02*
X117385714Y-47007380D01*
X117385714Y-46435952D02*
X117433333Y-46388333D01*
X117528571Y-46340714D01*
X117671428Y-46340714D01*
X117766666Y-46388333D01*
X117814285Y-46483571D01*
X117814285Y-47007380D01*
X118147619Y-46340714D02*
X118528571Y-46340714D01*
X118290476Y-46007380D02*
X118290476Y-46864523D01*
X118338095Y-46959761D01*
X118433333Y-47007380D01*
X118528571Y-47007380D01*
X118861904Y-46340714D02*
X118861904Y-47197857D01*
X118814285Y-47293095D01*
X118719047Y-47340714D01*
X118671428Y-47340714D01*
X118861904Y-46007380D02*
X118814285Y-46055000D01*
X118861904Y-46102619D01*
X118909523Y-46055000D01*
X118861904Y-46007380D01*
X118861904Y-46102619D01*
X119480952Y-47007380D02*
X119385714Y-46959761D01*
X119338095Y-46912142D01*
X119290476Y-46816904D01*
X119290476Y-46531190D01*
X119338095Y-46435952D01*
X119385714Y-46388333D01*
X119480952Y-46340714D01*
X119623809Y-46340714D01*
X119719047Y-46388333D01*
X119766666Y-46435952D01*
X119814285Y-46531190D01*
X119814285Y-46816904D01*
X119766666Y-46912142D01*
X119719047Y-46959761D01*
X119623809Y-47007380D01*
X119480952Y-47007380D01*
X120147619Y-46340714D02*
X120385714Y-47007380D01*
X120623809Y-46340714D02*
X120385714Y-47007380D01*
X120290476Y-47245476D01*
X120242857Y-47293095D01*
X120147619Y-47340714D01*
X121766666Y-47007380D02*
X121766666Y-46007380D01*
X122100000Y-46721666D01*
X122433333Y-46007380D01*
X122433333Y-47007380D01*
X123052380Y-47007380D02*
X122957142Y-46959761D01*
X122909523Y-46912142D01*
X122861904Y-46816904D01*
X122861904Y-46531190D01*
X122909523Y-46435952D01*
X122957142Y-46388333D01*
X123052380Y-46340714D01*
X123195238Y-46340714D01*
X123290476Y-46388333D01*
X123338095Y-46435952D01*
X123385714Y-46531190D01*
X123385714Y-46816904D01*
X123338095Y-46912142D01*
X123290476Y-46959761D01*
X123195238Y-47007380D01*
X123052380Y-47007380D01*
X124242857Y-47007380D02*
X124242857Y-46007380D01*
X124242857Y-46959761D02*
X124147619Y-47007380D01*
X123957142Y-47007380D01*
X123861904Y-46959761D01*
X123814285Y-46912142D01*
X123766666Y-46816904D01*
X123766666Y-46531190D01*
X123814285Y-46435952D01*
X123861904Y-46388333D01*
X123957142Y-46340714D01*
X124147619Y-46340714D01*
X124242857Y-46388333D01*
X125147619Y-46340714D02*
X125147619Y-47007380D01*
X124719047Y-46340714D02*
X124719047Y-46864523D01*
X124766666Y-46959761D01*
X124861904Y-47007380D01*
X125004761Y-47007380D01*
X125100000Y-46959761D01*
X125147619Y-46912142D01*
X125766666Y-47007380D02*
X125671428Y-46959761D01*
X125623809Y-46864523D01*
X125623809Y-46007380D01*
X126576190Y-47007380D02*
X126576190Y-46483571D01*
X126528571Y-46388333D01*
X126433333Y-46340714D01*
X126242857Y-46340714D01*
X126147619Y-46388333D01*
X126576190Y-46959761D02*
X126480952Y-47007380D01*
X126242857Y-47007380D01*
X126147619Y-46959761D01*
X126100000Y-46864523D01*
X126100000Y-46769285D01*
X126147619Y-46674047D01*
X126242857Y-46626428D01*
X126480952Y-46626428D01*
X126576190Y-46578809D01*
X127052380Y-47007380D02*
X127052380Y-46340714D01*
X127052380Y-46531190D02*
X127100000Y-46435952D01*
X127147619Y-46388333D01*
X127242857Y-46340714D01*
X127338095Y-46340714D01*
X128385714Y-46102619D02*
X128433333Y-46055000D01*
X128528571Y-46007380D01*
X128766666Y-46007380D01*
X128861904Y-46055000D01*
X128909523Y-46102619D01*
X128957142Y-46197857D01*
X128957142Y-46293095D01*
X128909523Y-46435952D01*
X128338095Y-47007380D01*
X128957142Y-47007380D01*
X129576190Y-46007380D02*
X129671428Y-46007380D01*
X129766666Y-46055000D01*
X129814285Y-46102619D01*
X129861904Y-46197857D01*
X129909523Y-46388333D01*
X129909523Y-46626428D01*
X129861904Y-46816904D01*
X129814285Y-46912142D01*
X129766666Y-46959761D01*
X129671428Y-47007380D01*
X129576190Y-47007380D01*
X129480952Y-46959761D01*
X129433333Y-46912142D01*
X129385714Y-46816904D01*
X129338095Y-46626428D01*
X129338095Y-46388333D01*
X129385714Y-46197857D01*
X129433333Y-46102619D01*
X129480952Y-46055000D01*
X129576190Y-46007380D01*
X130290476Y-46102619D02*
X130338095Y-46055000D01*
X130433333Y-46007380D01*
X130671428Y-46007380D01*
X130766666Y-46055000D01*
X130814285Y-46102619D01*
X130861904Y-46197857D01*
X130861904Y-46293095D01*
X130814285Y-46435952D01*
X130242857Y-47007380D01*
X130861904Y-47007380D01*
X131814285Y-47007380D02*
X131242857Y-47007380D01*
X131528571Y-47007380D02*
X131528571Y-46007380D01*
X131433333Y-46150238D01*
X131338095Y-46245476D01*
X131242857Y-46293095D01*
X127669047Y-163252380D02*
X127669047Y-163966666D01*
X127716666Y-164109523D01*
X127811904Y-164204761D01*
X127954761Y-164252380D01*
X128050000Y-164252380D01*
X126716666Y-164252380D02*
X127192857Y-164252380D01*
X127192857Y-163252380D01*
X125811904Y-164157142D02*
X125859523Y-164204761D01*
X126002380Y-164252380D01*
X126097619Y-164252380D01*
X126240476Y-164204761D01*
X126335714Y-164109523D01*
X126383333Y-164014285D01*
X126430952Y-163823809D01*
X126430952Y-163680952D01*
X126383333Y-163490476D01*
X126335714Y-163395238D01*
X126240476Y-163300000D01*
X126097619Y-163252380D01*
X126002380Y-163252380D01*
X125859523Y-163300000D01*
X125811904Y-163347619D01*
X125097619Y-163252380D02*
X125097619Y-163966666D01*
X125145238Y-164109523D01*
X125240476Y-164204761D01*
X125383333Y-164252380D01*
X125478571Y-164252380D01*
X124145238Y-164252380D02*
X124621428Y-164252380D01*
X124621428Y-163252380D01*
X123240476Y-164157142D02*
X123288095Y-164204761D01*
X123430952Y-164252380D01*
X123526190Y-164252380D01*
X123669047Y-164204761D01*
X123764285Y-164109523D01*
X123811904Y-164014285D01*
X123859523Y-163823809D01*
X123859523Y-163680952D01*
X123811904Y-163490476D01*
X123764285Y-163395238D01*
X123669047Y-163300000D01*
X123526190Y-163252380D01*
X123430952Y-163252380D01*
X123288095Y-163300000D01*
X123240476Y-163347619D01*
X122526190Y-163252380D02*
X122526190Y-163966666D01*
X122573809Y-164109523D01*
X122669047Y-164204761D01*
X122811904Y-164252380D01*
X122907142Y-164252380D01*
X121573809Y-164252380D02*
X122050000Y-164252380D01*
X122050000Y-163252380D01*
X120669047Y-164157142D02*
X120716666Y-164204761D01*
X120859523Y-164252380D01*
X120954761Y-164252380D01*
X121097619Y-164204761D01*
X121192857Y-164109523D01*
X121240476Y-164014285D01*
X121288095Y-163823809D01*
X121288095Y-163680952D01*
X121240476Y-163490476D01*
X121192857Y-163395238D01*
X121097619Y-163300000D01*
X120954761Y-163252380D01*
X120859523Y-163252380D01*
X120716666Y-163300000D01*
X120669047Y-163347619D01*
X119954761Y-163252380D02*
X119954761Y-163966666D01*
X120002380Y-164109523D01*
X120097619Y-164204761D01*
X120240476Y-164252380D01*
X120335714Y-164252380D01*
X119002380Y-164252380D02*
X119478571Y-164252380D01*
X119478571Y-163252380D01*
X118097619Y-164157142D02*
X118145238Y-164204761D01*
X118288095Y-164252380D01*
X118383333Y-164252380D01*
X118526190Y-164204761D01*
X118621428Y-164109523D01*
X118669047Y-164014285D01*
X118716666Y-163823809D01*
X118716666Y-163680952D01*
X118669047Y-163490476D01*
X118621428Y-163395238D01*
X118526190Y-163300000D01*
X118383333Y-163252380D01*
X118288095Y-163252380D01*
X118145238Y-163300000D01*
X118097619Y-163347619D01*
M02*
