G04 #@! TF.FileFunction,Soldermask,Bot*
%FSLAX46Y46*%
G04 Gerber Fmt 4.6, Leading zero omitted, Abs format (unit mm)*
G04 Created by KiCad (PCBNEW 4.0.7) date 11/03/18 15:48:41*
%MOMM*%
%LPD*%
G01*
G04 APERTURE LIST*
%ADD10C,0.100000*%
%ADD11C,0.300000*%
%ADD12C,7.100000*%
%ADD13C,7.400000*%
%ADD14C,6.400000*%
%ADD15C,3.600000*%
G04 APERTURE END LIST*
D10*
D11*
X125857143Y-94207143D02*
X125642857Y-94278571D01*
X125285714Y-94278571D01*
X125142857Y-94207143D01*
X125071428Y-94135714D01*
X125000000Y-93992857D01*
X125000000Y-93850000D01*
X125071428Y-93707143D01*
X125142857Y-93635714D01*
X125285714Y-93564286D01*
X125571428Y-93492857D01*
X125714286Y-93421429D01*
X125785714Y-93350000D01*
X125857143Y-93207143D01*
X125857143Y-93064286D01*
X125785714Y-92921429D01*
X125714286Y-92850000D01*
X125571428Y-92778571D01*
X125214286Y-92778571D01*
X125000000Y-92850000D01*
X123785715Y-94207143D02*
X123928572Y-94278571D01*
X124214286Y-94278571D01*
X124357143Y-94207143D01*
X124428572Y-94064286D01*
X124428572Y-93492857D01*
X124357143Y-93350000D01*
X124214286Y-93278571D01*
X123928572Y-93278571D01*
X123785715Y-93350000D01*
X123714286Y-93492857D01*
X123714286Y-93635714D01*
X124428572Y-93778571D01*
X123285715Y-93278571D02*
X122714286Y-93278571D01*
X123071429Y-92778571D02*
X123071429Y-94064286D01*
X123000001Y-94207143D01*
X122857143Y-94278571D01*
X122714286Y-94278571D01*
X121571429Y-93278571D02*
X121571429Y-94278571D01*
X122214286Y-93278571D02*
X122214286Y-94064286D01*
X122142858Y-94207143D01*
X122000000Y-94278571D01*
X121785715Y-94278571D01*
X121642858Y-94207143D01*
X121571429Y-94135714D01*
X120857143Y-93278571D02*
X120857143Y-94778571D01*
X120857143Y-93350000D02*
X120714286Y-93278571D01*
X120428572Y-93278571D01*
X120285715Y-93350000D01*
X120214286Y-93421429D01*
X120142857Y-93564286D01*
X120142857Y-93992857D01*
X120214286Y-94135714D01*
X120285715Y-94207143D01*
X120428572Y-94278571D01*
X120714286Y-94278571D01*
X120857143Y-94207143D01*
D12*
X122750000Y-83250000D03*
X135750000Y-83250000D03*
X109750000Y-83250000D03*
X111300000Y-130700000D03*
D13*
X132500000Y-101500000D03*
X113500000Y-101500000D03*
D14*
X136000000Y-131500000D03*
X110000000Y-150000000D03*
X136000000Y-150000000D03*
X123000000Y-150000000D03*
D15*
X110400000Y-43000000D03*
X135700000Y-165500000D03*
M02*
