G04 #@! TF.FileFunction,Legend,Bot*
%FSLAX46Y46*%
G04 Gerber Fmt 4.6, Leading zero omitted, Abs format (unit mm)*
G04 Created by KiCad (PCBNEW 4.0.7) date 11/03/18 15:48:41*
%MOMM*%
%LPD*%
G01*
G04 APERTURE LIST*
%ADD10C,0.100000*%
%ADD11C,0.250000*%
%ADD12C,0.300000*%
%ADD13C,0.010000*%
%ADD14C,0.254000*%
%ADD15C,7.100000*%
%ADD16C,7.400000*%
%ADD17C,6.400000*%
%ADD18C,3.600000*%
G04 APERTURE END LIST*
D10*
D11*
X129280953Y-43552381D02*
X129280953Y-42552381D01*
X128947619Y-43266667D01*
X128614286Y-42552381D01*
X128614286Y-43552381D01*
X127995239Y-43552381D02*
X128090477Y-43504762D01*
X128138096Y-43457143D01*
X128185715Y-43361905D01*
X128185715Y-43076190D01*
X128138096Y-42980952D01*
X128090477Y-42933333D01*
X127995239Y-42885714D01*
X127852381Y-42885714D01*
X127757143Y-42933333D01*
X127709524Y-42980952D01*
X127661905Y-43076190D01*
X127661905Y-43361905D01*
X127709524Y-43457143D01*
X127757143Y-43504762D01*
X127852381Y-43552381D01*
X127995239Y-43552381D01*
X126804762Y-42885714D02*
X126804762Y-43552381D01*
X127233334Y-42885714D02*
X127233334Y-43409524D01*
X127185715Y-43504762D01*
X127090477Y-43552381D01*
X126947619Y-43552381D01*
X126852381Y-43504762D01*
X126804762Y-43457143D01*
X126328572Y-42885714D02*
X126328572Y-43552381D01*
X126328572Y-42980952D02*
X126280953Y-42933333D01*
X126185715Y-42885714D01*
X126042857Y-42885714D01*
X125947619Y-42933333D01*
X125900000Y-43028571D01*
X125900000Y-43552381D01*
X125566667Y-42885714D02*
X125185715Y-42885714D01*
X125423810Y-42552381D02*
X125423810Y-43409524D01*
X125376191Y-43504762D01*
X125280953Y-43552381D01*
X125185715Y-43552381D01*
X124852381Y-42885714D02*
X124852381Y-43742857D01*
X124900000Y-43838095D01*
X124995238Y-43885714D01*
X125042857Y-43885714D01*
X124852381Y-42552381D02*
X124900000Y-42600000D01*
X124852381Y-42647619D01*
X124804762Y-42600000D01*
X124852381Y-42552381D01*
X124852381Y-42647619D01*
X124233334Y-43552381D02*
X124328572Y-43504762D01*
X124376191Y-43457143D01*
X124423810Y-43361905D01*
X124423810Y-43076190D01*
X124376191Y-42980952D01*
X124328572Y-42933333D01*
X124233334Y-42885714D01*
X124090476Y-42885714D01*
X123995238Y-42933333D01*
X123947619Y-42980952D01*
X123900000Y-43076190D01*
X123900000Y-43361905D01*
X123947619Y-43457143D01*
X123995238Y-43504762D01*
X124090476Y-43552381D01*
X124233334Y-43552381D01*
X123566667Y-42885714D02*
X123328572Y-43552381D01*
X123090476Y-42885714D02*
X123328572Y-43552381D01*
X123423810Y-43790476D01*
X123471429Y-43838095D01*
X123566667Y-43885714D01*
X121947619Y-43552381D02*
X121947619Y-42552381D01*
X121614285Y-43266667D01*
X121280952Y-42552381D01*
X121280952Y-43552381D01*
X120661905Y-43552381D02*
X120757143Y-43504762D01*
X120804762Y-43457143D01*
X120852381Y-43361905D01*
X120852381Y-43076190D01*
X120804762Y-42980952D01*
X120757143Y-42933333D01*
X120661905Y-42885714D01*
X120519047Y-42885714D01*
X120423809Y-42933333D01*
X120376190Y-42980952D01*
X120328571Y-43076190D01*
X120328571Y-43361905D01*
X120376190Y-43457143D01*
X120423809Y-43504762D01*
X120519047Y-43552381D01*
X120661905Y-43552381D01*
X119471428Y-43552381D02*
X119471428Y-42552381D01*
X119471428Y-43504762D02*
X119566666Y-43552381D01*
X119757143Y-43552381D01*
X119852381Y-43504762D01*
X119900000Y-43457143D01*
X119947619Y-43361905D01*
X119947619Y-43076190D01*
X119900000Y-42980952D01*
X119852381Y-42933333D01*
X119757143Y-42885714D01*
X119566666Y-42885714D01*
X119471428Y-42933333D01*
X118566666Y-42885714D02*
X118566666Y-43552381D01*
X118995238Y-42885714D02*
X118995238Y-43409524D01*
X118947619Y-43504762D01*
X118852381Y-43552381D01*
X118709523Y-43552381D01*
X118614285Y-43504762D01*
X118566666Y-43457143D01*
X117947619Y-43552381D02*
X118042857Y-43504762D01*
X118090476Y-43409524D01*
X118090476Y-42552381D01*
X117138094Y-43552381D02*
X117138094Y-43028571D01*
X117185713Y-42933333D01*
X117280951Y-42885714D01*
X117471428Y-42885714D01*
X117566666Y-42933333D01*
X117138094Y-43504762D02*
X117233332Y-43552381D01*
X117471428Y-43552381D01*
X117566666Y-43504762D01*
X117614285Y-43409524D01*
X117614285Y-43314286D01*
X117566666Y-43219048D01*
X117471428Y-43171429D01*
X117233332Y-43171429D01*
X117138094Y-43123810D01*
X116661904Y-43552381D02*
X116661904Y-42885714D01*
X116661904Y-43076190D02*
X116614285Y-42980952D01*
X116566666Y-42933333D01*
X116471428Y-42885714D01*
X116376189Y-42885714D01*
D12*
X114042857Y-139450000D02*
X113328571Y-139450000D01*
X114185714Y-139878571D02*
X113685714Y-138378571D01*
X113185714Y-139878571D01*
X112042857Y-139807143D02*
X112185714Y-139878571D01*
X112471428Y-139878571D01*
X112614286Y-139807143D01*
X112685714Y-139735714D01*
X112757143Y-139592857D01*
X112757143Y-139164286D01*
X112685714Y-139021429D01*
X112614286Y-138950000D01*
X112471428Y-138878571D01*
X112185714Y-138878571D01*
X112042857Y-138950000D01*
X111614286Y-138878571D02*
X111042857Y-138878571D01*
X111400000Y-138378571D02*
X111400000Y-139664286D01*
X111328572Y-139807143D01*
X111185714Y-139878571D01*
X111042857Y-139878571D01*
X110542857Y-139878571D02*
X110542857Y-138878571D01*
X110542857Y-138378571D02*
X110614286Y-138450000D01*
X110542857Y-138521429D01*
X110471429Y-138450000D01*
X110542857Y-138378571D01*
X110542857Y-138521429D01*
X109614285Y-139878571D02*
X109757143Y-139807143D01*
X109828571Y-139735714D01*
X109900000Y-139592857D01*
X109900000Y-139164286D01*
X109828571Y-139021429D01*
X109757143Y-138950000D01*
X109614285Y-138878571D01*
X109400000Y-138878571D01*
X109257143Y-138950000D01*
X109185714Y-139021429D01*
X109114285Y-139164286D01*
X109114285Y-139592857D01*
X109185714Y-139735714D01*
X109257143Y-139807143D01*
X109400000Y-139878571D01*
X109614285Y-139878571D01*
X108471428Y-138878571D02*
X108471428Y-139878571D01*
X108471428Y-139021429D02*
X108400000Y-138950000D01*
X108257142Y-138878571D01*
X108042857Y-138878571D01*
X107900000Y-138950000D01*
X107828571Y-139092857D01*
X107828571Y-139878571D01*
X141207143Y-139950000D02*
X140492857Y-139950000D01*
X141350000Y-140378571D02*
X140850000Y-138878571D01*
X140350000Y-140378571D01*
X139207143Y-140307143D02*
X139350000Y-140378571D01*
X139635714Y-140378571D01*
X139778572Y-140307143D01*
X139850000Y-140235714D01*
X139921429Y-140092857D01*
X139921429Y-139664286D01*
X139850000Y-139521429D01*
X139778572Y-139450000D01*
X139635714Y-139378571D01*
X139350000Y-139378571D01*
X139207143Y-139450000D01*
X138778572Y-139378571D02*
X138207143Y-139378571D01*
X138564286Y-138878571D02*
X138564286Y-140164286D01*
X138492858Y-140307143D01*
X138350000Y-140378571D01*
X138207143Y-140378571D01*
X137707143Y-140378571D02*
X137707143Y-139378571D01*
X137707143Y-138878571D02*
X137778572Y-138950000D01*
X137707143Y-139021429D01*
X137635715Y-138950000D01*
X137707143Y-138878571D01*
X137707143Y-139021429D01*
X136778571Y-140378571D02*
X136921429Y-140307143D01*
X136992857Y-140235714D01*
X137064286Y-140092857D01*
X137064286Y-139664286D01*
X136992857Y-139521429D01*
X136921429Y-139450000D01*
X136778571Y-139378571D01*
X136564286Y-139378571D01*
X136421429Y-139450000D01*
X136350000Y-139521429D01*
X136278571Y-139664286D01*
X136278571Y-140092857D01*
X136350000Y-140235714D01*
X136421429Y-140307143D01*
X136564286Y-140378571D01*
X136778571Y-140378571D01*
X135635714Y-139378571D02*
X135635714Y-140378571D01*
X135635714Y-139521429D02*
X135564286Y-139450000D01*
X135421428Y-139378571D01*
X135207143Y-139378571D01*
X135064286Y-139450000D01*
X134992857Y-139592857D01*
X134992857Y-140378571D01*
X132278571Y-140235714D02*
X132350000Y-140307143D01*
X132564286Y-140378571D01*
X132707143Y-140378571D01*
X132921428Y-140307143D01*
X133064286Y-140164286D01*
X133135714Y-140021429D01*
X133207143Y-139735714D01*
X133207143Y-139521429D01*
X133135714Y-139235714D01*
X133064286Y-139092857D01*
X132921428Y-138950000D01*
X132707143Y-138878571D01*
X132564286Y-138878571D01*
X132350000Y-138950000D01*
X132278571Y-139021429D01*
X131850000Y-138878571D02*
X131350000Y-140378571D01*
X130850000Y-138878571D01*
X115285714Y-111792857D02*
X114785714Y-111792857D01*
X114571428Y-112578571D02*
X115285714Y-112578571D01*
X115285714Y-111078571D01*
X114571428Y-111078571D01*
X113285714Y-112578571D02*
X113285714Y-111078571D01*
X113285714Y-112507143D02*
X113428571Y-112578571D01*
X113714285Y-112578571D01*
X113857143Y-112507143D01*
X113928571Y-112435714D01*
X114000000Y-112292857D01*
X114000000Y-111864286D01*
X113928571Y-111721429D01*
X113857143Y-111650000D01*
X113714285Y-111578571D01*
X113428571Y-111578571D01*
X113285714Y-111650000D01*
X112571428Y-112578571D02*
X112571428Y-111578571D01*
X112571428Y-111078571D02*
X112642857Y-111150000D01*
X112571428Y-111221429D01*
X112500000Y-111150000D01*
X112571428Y-111078571D01*
X112571428Y-111221429D01*
X112071428Y-111578571D02*
X111499999Y-111578571D01*
X111857142Y-111078571D02*
X111857142Y-112364286D01*
X111785714Y-112507143D01*
X111642856Y-112578571D01*
X111499999Y-112578571D01*
X135928571Y-111078571D02*
X135071428Y-111078571D01*
X135499999Y-112578571D02*
X135499999Y-111078571D01*
X134000000Y-112507143D02*
X134142857Y-112578571D01*
X134428571Y-112578571D01*
X134571428Y-112507143D01*
X134642857Y-112364286D01*
X134642857Y-111792857D01*
X134571428Y-111650000D01*
X134428571Y-111578571D01*
X134142857Y-111578571D01*
X134000000Y-111650000D01*
X133928571Y-111792857D01*
X133928571Y-111935714D01*
X134642857Y-112078571D01*
X133285714Y-112578571D02*
X133285714Y-111578571D01*
X133285714Y-111721429D02*
X133214286Y-111650000D01*
X133071428Y-111578571D01*
X132857143Y-111578571D01*
X132714286Y-111650000D01*
X132642857Y-111792857D01*
X132642857Y-112578571D01*
X132642857Y-111792857D02*
X132571428Y-111650000D01*
X132428571Y-111578571D01*
X132214286Y-111578571D01*
X132071428Y-111650000D01*
X132000000Y-111792857D01*
X132000000Y-112578571D01*
X131285714Y-111578571D02*
X131285714Y-113078571D01*
X131285714Y-111650000D02*
X131142857Y-111578571D01*
X130857143Y-111578571D01*
X130714286Y-111650000D01*
X130642857Y-111721429D01*
X130571428Y-111864286D01*
X130571428Y-112292857D01*
X130642857Y-112435714D01*
X130714286Y-112507143D01*
X130857143Y-112578571D01*
X131142857Y-112578571D01*
X131285714Y-112507143D01*
X129714285Y-112578571D02*
X129857143Y-112507143D01*
X129928571Y-112435714D01*
X130000000Y-112292857D01*
X130000000Y-111864286D01*
X129928571Y-111721429D01*
X129857143Y-111650000D01*
X129714285Y-111578571D01*
X129500000Y-111578571D01*
X129357143Y-111650000D01*
X129285714Y-111721429D01*
X129214285Y-111864286D01*
X129214285Y-112292857D01*
X129285714Y-112435714D01*
X129357143Y-112507143D01*
X129500000Y-112578571D01*
X129714285Y-112578571D01*
X124435714Y-90178571D02*
X125150000Y-90178571D01*
X125150000Y-88678571D01*
X123292857Y-90178571D02*
X123292857Y-89392857D01*
X123364286Y-89250000D01*
X123507143Y-89178571D01*
X123792857Y-89178571D01*
X123935714Y-89250000D01*
X123292857Y-90107143D02*
X123435714Y-90178571D01*
X123792857Y-90178571D01*
X123935714Y-90107143D01*
X124007143Y-89964286D01*
X124007143Y-89821429D01*
X123935714Y-89678571D01*
X123792857Y-89607143D01*
X123435714Y-89607143D01*
X123292857Y-89535714D01*
X122578571Y-89178571D02*
X122578571Y-90178571D01*
X122578571Y-89321429D02*
X122507143Y-89250000D01*
X122364285Y-89178571D01*
X122150000Y-89178571D01*
X122007143Y-89250000D01*
X121935714Y-89392857D01*
X121935714Y-90178571D01*
X120650000Y-90107143D02*
X120792857Y-90178571D01*
X121078571Y-90178571D01*
X121221428Y-90107143D01*
X121292857Y-89964286D01*
X121292857Y-89392857D01*
X121221428Y-89250000D01*
X121078571Y-89178571D01*
X120792857Y-89178571D01*
X120650000Y-89250000D01*
X120578571Y-89392857D01*
X120578571Y-89535714D01*
X121292857Y-89678571D01*
X111278571Y-91678571D02*
X111778571Y-90964286D01*
X112135714Y-91678571D02*
X112135714Y-90178571D01*
X111564286Y-90178571D01*
X111421428Y-90250000D01*
X111350000Y-90321429D01*
X111278571Y-90464286D01*
X111278571Y-90678571D01*
X111350000Y-90821429D01*
X111421428Y-90892857D01*
X111564286Y-90964286D01*
X112135714Y-90964286D01*
X110635714Y-91678571D02*
X110635714Y-90678571D01*
X110635714Y-90178571D02*
X110707143Y-90250000D01*
X110635714Y-90321429D01*
X110564286Y-90250000D01*
X110635714Y-90178571D01*
X110635714Y-90321429D01*
X109278571Y-90678571D02*
X109278571Y-91892857D01*
X109350000Y-92035714D01*
X109421428Y-92107143D01*
X109564285Y-92178571D01*
X109778571Y-92178571D01*
X109921428Y-92107143D01*
X109278571Y-91607143D02*
X109421428Y-91678571D01*
X109707142Y-91678571D01*
X109850000Y-91607143D01*
X109921428Y-91535714D01*
X109992857Y-91392857D01*
X109992857Y-90964286D01*
X109921428Y-90821429D01*
X109850000Y-90750000D01*
X109707142Y-90678571D01*
X109421428Y-90678571D01*
X109278571Y-90750000D01*
X108564285Y-91678571D02*
X108564285Y-90178571D01*
X107921428Y-91678571D02*
X107921428Y-90892857D01*
X107992857Y-90750000D01*
X108135714Y-90678571D01*
X108349999Y-90678571D01*
X108492857Y-90750000D01*
X108564285Y-90821429D01*
X107421428Y-90678571D02*
X106849999Y-90678571D01*
X107207142Y-90178571D02*
X107207142Y-91464286D01*
X107135714Y-91607143D01*
X106992856Y-91678571D01*
X106849999Y-91678571D01*
X136735714Y-91678571D02*
X137450000Y-91678571D01*
X137450000Y-90178571D01*
X135664286Y-91607143D02*
X135807143Y-91678571D01*
X136092857Y-91678571D01*
X136235714Y-91607143D01*
X136307143Y-91464286D01*
X136307143Y-90892857D01*
X136235714Y-90750000D01*
X136092857Y-90678571D01*
X135807143Y-90678571D01*
X135664286Y-90750000D01*
X135592857Y-90892857D01*
X135592857Y-91035714D01*
X136307143Y-91178571D01*
X135164286Y-90678571D02*
X134592857Y-90678571D01*
X134950000Y-91678571D02*
X134950000Y-90392857D01*
X134878572Y-90250000D01*
X134735714Y-90178571D01*
X134592857Y-90178571D01*
X134307143Y-90678571D02*
X133735714Y-90678571D01*
X134092857Y-90178571D02*
X134092857Y-91464286D01*
X134021429Y-91607143D01*
X133878571Y-91678571D01*
X133735714Y-91678571D01*
X126821429Y-157050000D02*
X126964286Y-156978571D01*
X127178572Y-156978571D01*
X127392857Y-157050000D01*
X127535715Y-157192857D01*
X127607143Y-157335714D01*
X127678572Y-157621429D01*
X127678572Y-157835714D01*
X127607143Y-158121429D01*
X127535715Y-158264286D01*
X127392857Y-158407143D01*
X127178572Y-158478571D01*
X127035715Y-158478571D01*
X126821429Y-158407143D01*
X126750000Y-158335714D01*
X126750000Y-157835714D01*
X127035715Y-157835714D01*
X125464286Y-158478571D02*
X125464286Y-157692857D01*
X125535715Y-157550000D01*
X125678572Y-157478571D01*
X125964286Y-157478571D01*
X126107143Y-157550000D01*
X125464286Y-158407143D02*
X125607143Y-158478571D01*
X125964286Y-158478571D01*
X126107143Y-158407143D01*
X126178572Y-158264286D01*
X126178572Y-158121429D01*
X126107143Y-157978571D01*
X125964286Y-157907143D01*
X125607143Y-157907143D01*
X125464286Y-157835714D01*
X124964286Y-157478571D02*
X124392857Y-157478571D01*
X124750000Y-156978571D02*
X124750000Y-158264286D01*
X124678572Y-158407143D01*
X124535714Y-158478571D01*
X124392857Y-158478571D01*
X123321429Y-158407143D02*
X123464286Y-158478571D01*
X123750000Y-158478571D01*
X123892857Y-158407143D01*
X123964286Y-158264286D01*
X123964286Y-157692857D01*
X123892857Y-157550000D01*
X123750000Y-157478571D01*
X123464286Y-157478571D01*
X123321429Y-157550000D01*
X123250000Y-157692857D01*
X123250000Y-157835714D01*
X123964286Y-157978571D01*
X121178572Y-156978571D02*
X120892858Y-156978571D01*
X120750000Y-157050000D01*
X120607143Y-157192857D01*
X120535715Y-157478571D01*
X120535715Y-157978571D01*
X120607143Y-158264286D01*
X120750000Y-158407143D01*
X120892858Y-158478571D01*
X121178572Y-158478571D01*
X121321429Y-158407143D01*
X121464286Y-158264286D01*
X121535715Y-157978571D01*
X121535715Y-157478571D01*
X121464286Y-157192857D01*
X121321429Y-157050000D01*
X121178572Y-156978571D01*
X119250000Y-157478571D02*
X119250000Y-158478571D01*
X119892857Y-157478571D02*
X119892857Y-158264286D01*
X119821429Y-158407143D01*
X119678571Y-158478571D01*
X119464286Y-158478571D01*
X119321429Y-158407143D01*
X119250000Y-158335714D01*
X118750000Y-157478571D02*
X118178571Y-157478571D01*
X118535714Y-156978571D02*
X118535714Y-158264286D01*
X118464286Y-158407143D01*
X118321428Y-158478571D01*
X118178571Y-158478571D01*
X112442857Y-158535714D02*
X112514286Y-158607143D01*
X112728572Y-158678571D01*
X112871429Y-158678571D01*
X113085714Y-158607143D01*
X113228572Y-158464286D01*
X113300000Y-158321429D01*
X113371429Y-158035714D01*
X113371429Y-157821429D01*
X113300000Y-157535714D01*
X113228572Y-157392857D01*
X113085714Y-157250000D01*
X112871429Y-157178571D01*
X112728572Y-157178571D01*
X112514286Y-157250000D01*
X112442857Y-157321429D01*
X112014286Y-157178571D02*
X111514286Y-158678571D01*
X111014286Y-157178571D01*
X109085715Y-157178571D02*
X108800001Y-157178571D01*
X108657143Y-157250000D01*
X108514286Y-157392857D01*
X108442858Y-157678571D01*
X108442858Y-158178571D01*
X108514286Y-158464286D01*
X108657143Y-158607143D01*
X108800001Y-158678571D01*
X109085715Y-158678571D01*
X109228572Y-158607143D01*
X109371429Y-158464286D01*
X109442858Y-158178571D01*
X109442858Y-157678571D01*
X109371429Y-157392857D01*
X109228572Y-157250000D01*
X109085715Y-157178571D01*
X107157143Y-157678571D02*
X107157143Y-158678571D01*
X107800000Y-157678571D02*
X107800000Y-158464286D01*
X107728572Y-158607143D01*
X107585714Y-158678571D01*
X107371429Y-158678571D01*
X107228572Y-158607143D01*
X107157143Y-158535714D01*
X106657143Y-157678571D02*
X106085714Y-157678571D01*
X106442857Y-157178571D02*
X106442857Y-158464286D01*
X106371429Y-158607143D01*
X106228571Y-158678571D01*
X106085714Y-158678571D01*
X139364285Y-158335714D02*
X139435714Y-158407143D01*
X139650000Y-158478571D01*
X139792857Y-158478571D01*
X140007142Y-158407143D01*
X140150000Y-158264286D01*
X140221428Y-158121429D01*
X140292857Y-157835714D01*
X140292857Y-157621429D01*
X140221428Y-157335714D01*
X140150000Y-157192857D01*
X140007142Y-157050000D01*
X139792857Y-156978571D01*
X139650000Y-156978571D01*
X139435714Y-157050000D01*
X139364285Y-157121429D01*
X138507142Y-158478571D02*
X138650000Y-158407143D01*
X138721428Y-158264286D01*
X138721428Y-156978571D01*
X137721428Y-158478571D02*
X137864286Y-158407143D01*
X137935714Y-158335714D01*
X138007143Y-158192857D01*
X138007143Y-157764286D01*
X137935714Y-157621429D01*
X137864286Y-157550000D01*
X137721428Y-157478571D01*
X137507143Y-157478571D01*
X137364286Y-157550000D01*
X137292857Y-157621429D01*
X137221428Y-157764286D01*
X137221428Y-158192857D01*
X137292857Y-158335714D01*
X137364286Y-158407143D01*
X137507143Y-158478571D01*
X137721428Y-158478571D01*
X135935714Y-158407143D02*
X136078571Y-158478571D01*
X136364285Y-158478571D01*
X136507143Y-158407143D01*
X136578571Y-158335714D01*
X136650000Y-158192857D01*
X136650000Y-157764286D01*
X136578571Y-157621429D01*
X136507143Y-157550000D01*
X136364285Y-157478571D01*
X136078571Y-157478571D01*
X135935714Y-157550000D01*
X135292857Y-158478571D02*
X135292857Y-156978571D01*
X135150000Y-157907143D02*
X134721429Y-158478571D01*
X134721429Y-157478571D02*
X135292857Y-158050000D01*
X132935714Y-158478571D02*
X132935714Y-156978571D01*
X132221428Y-157478571D02*
X132221428Y-158478571D01*
X132221428Y-157621429D02*
X132150000Y-157550000D01*
X132007142Y-157478571D01*
X131792857Y-157478571D01*
X131650000Y-157550000D01*
X131578571Y-157692857D01*
X131578571Y-158478571D01*
D13*
G36*
X118197985Y-117182178D02*
X116846266Y-117545699D01*
X115304942Y-118016276D01*
X113728790Y-118542989D01*
X112272586Y-119074921D01*
X111091106Y-119561155D01*
X110339127Y-119950772D01*
X110155309Y-120124393D01*
X110119064Y-120727802D01*
X110214660Y-121809528D01*
X110408959Y-123161890D01*
X110668825Y-124577208D01*
X110961118Y-125847803D01*
X111188563Y-126600000D01*
X111635758Y-127582129D01*
X112324881Y-128807825D01*
X113159095Y-130136049D01*
X114041560Y-131425764D01*
X114875436Y-132535933D01*
X115563886Y-133325519D01*
X116010071Y-133653483D01*
X116033037Y-133655556D01*
X116675184Y-133535813D01*
X117735137Y-133222916D01*
X118900020Y-132815006D01*
X120087203Y-132379026D01*
X120785203Y-132184352D01*
X121164522Y-132222037D01*
X121395661Y-132483136D01*
X121500606Y-132678564D01*
X121944318Y-133052420D01*
X122909509Y-133605475D01*
X124255523Y-134273228D01*
X125841706Y-134991181D01*
X127527401Y-135694836D01*
X129171955Y-136319695D01*
X130203766Y-136669469D01*
X130770273Y-136591116D01*
X131441864Y-135960018D01*
X131815449Y-135460472D01*
X133209063Y-133412703D01*
X134237033Y-131734817D01*
X134983421Y-130253033D01*
X135532290Y-128793568D01*
X135967701Y-127182639D01*
X136095689Y-126611908D01*
X136434731Y-124838942D01*
X136575453Y-123605397D01*
X136152777Y-123605397D01*
X136076152Y-124160395D01*
X135871865Y-125209065D01*
X135578300Y-126559339D01*
X135456588Y-127088997D01*
X134977630Y-128842719D01*
X134370909Y-130369141D01*
X133507903Y-131957816D01*
X132788527Y-133099881D01*
X131935214Y-134362655D01*
X131199131Y-135366911D01*
X130675888Y-135986930D01*
X130487894Y-136125000D01*
X130050511Y-136000374D01*
X129097588Y-135660516D01*
X127766969Y-135156453D01*
X126196499Y-134539216D01*
X126100401Y-134500796D01*
X122041666Y-132876592D01*
X122041666Y-124179028D01*
X124706540Y-122232893D01*
X125719051Y-121531773D01*
X124303785Y-121531773D01*
X124021285Y-121827681D01*
X123516443Y-121949824D01*
X122702901Y-122267942D01*
X122146034Y-122998650D01*
X121811500Y-124227494D01*
X121664961Y-126040022D01*
X121653724Y-126590301D01*
X121614555Y-128466652D01*
X121499036Y-129780061D01*
X121232807Y-130673139D01*
X120741508Y-131288496D01*
X119950780Y-131768745D01*
X118786265Y-132256496D01*
X118677027Y-132299215D01*
X117461830Y-132765169D01*
X116513276Y-133112867D01*
X116012676Y-133276143D01*
X115987873Y-133280597D01*
X115704738Y-133013780D01*
X115160051Y-132285583D01*
X114458003Y-131237984D01*
X114256709Y-130921528D01*
X113470591Y-129675041D01*
X112769025Y-128567824D01*
X112286813Y-127812530D01*
X112240298Y-127740520D01*
X111915069Y-127184109D01*
X112012283Y-127068207D01*
X112295768Y-127160902D01*
X112781588Y-127161892D01*
X112820127Y-126619098D01*
X112655312Y-126099687D01*
X112274852Y-125588072D01*
X111898919Y-125730590D01*
X111747495Y-126140631D01*
X111633562Y-126091783D01*
X111422612Y-125467365D01*
X111150267Y-124384785D01*
X110985988Y-123630716D01*
X110730228Y-122222711D01*
X110591145Y-121078672D01*
X110586564Y-120370600D01*
X110634499Y-120238676D01*
X111069551Y-120032966D01*
X112040770Y-119678722D01*
X113406902Y-119224672D01*
X115026694Y-118719539D01*
X115121329Y-118690943D01*
X119313491Y-117426370D01*
X121906071Y-119279157D01*
X123277371Y-120309243D01*
X124066212Y-121042871D01*
X124303785Y-121531773D01*
X125719051Y-121531773D01*
X125911283Y-121398661D01*
X126930795Y-120776384D01*
X127616878Y-120452569D01*
X127793345Y-120431080D01*
X128280935Y-120590450D01*
X129290627Y-120915670D01*
X130672232Y-121358495D01*
X132184028Y-121841482D01*
X134114727Y-122500140D01*
X135421375Y-123042952D01*
X136077095Y-123457974D01*
X136152777Y-123605397D01*
X136575453Y-123605397D01*
X136577770Y-123585091D01*
X136517314Y-122921602D01*
X136488567Y-122875364D01*
X136042398Y-122627930D01*
X135056981Y-122234066D01*
X133670458Y-121744700D01*
X132020970Y-121210765D01*
X131730333Y-121121063D01*
X129923529Y-120572677D01*
X128657096Y-120215708D01*
X127797691Y-120032005D01*
X127211972Y-120003418D01*
X126766596Y-120111795D01*
X126328220Y-120338987D01*
X126263704Y-120376945D01*
X125225775Y-120990065D01*
X122663582Y-119101902D01*
X121478936Y-118234408D01*
X120488741Y-117519432D01*
X119845905Y-117066956D01*
X119713503Y-116979970D01*
X119205323Y-116976629D01*
X118197985Y-117182178D01*
X118197985Y-117182178D01*
G37*
X118197985Y-117182178D02*
X116846266Y-117545699D01*
X115304942Y-118016276D01*
X113728790Y-118542989D01*
X112272586Y-119074921D01*
X111091106Y-119561155D01*
X110339127Y-119950772D01*
X110155309Y-120124393D01*
X110119064Y-120727802D01*
X110214660Y-121809528D01*
X110408959Y-123161890D01*
X110668825Y-124577208D01*
X110961118Y-125847803D01*
X111188563Y-126600000D01*
X111635758Y-127582129D01*
X112324881Y-128807825D01*
X113159095Y-130136049D01*
X114041560Y-131425764D01*
X114875436Y-132535933D01*
X115563886Y-133325519D01*
X116010071Y-133653483D01*
X116033037Y-133655556D01*
X116675184Y-133535813D01*
X117735137Y-133222916D01*
X118900020Y-132815006D01*
X120087203Y-132379026D01*
X120785203Y-132184352D01*
X121164522Y-132222037D01*
X121395661Y-132483136D01*
X121500606Y-132678564D01*
X121944318Y-133052420D01*
X122909509Y-133605475D01*
X124255523Y-134273228D01*
X125841706Y-134991181D01*
X127527401Y-135694836D01*
X129171955Y-136319695D01*
X130203766Y-136669469D01*
X130770273Y-136591116D01*
X131441864Y-135960018D01*
X131815449Y-135460472D01*
X133209063Y-133412703D01*
X134237033Y-131734817D01*
X134983421Y-130253033D01*
X135532290Y-128793568D01*
X135967701Y-127182639D01*
X136095689Y-126611908D01*
X136434731Y-124838942D01*
X136575453Y-123605397D01*
X136152777Y-123605397D01*
X136076152Y-124160395D01*
X135871865Y-125209065D01*
X135578300Y-126559339D01*
X135456588Y-127088997D01*
X134977630Y-128842719D01*
X134370909Y-130369141D01*
X133507903Y-131957816D01*
X132788527Y-133099881D01*
X131935214Y-134362655D01*
X131199131Y-135366911D01*
X130675888Y-135986930D01*
X130487894Y-136125000D01*
X130050511Y-136000374D01*
X129097588Y-135660516D01*
X127766969Y-135156453D01*
X126196499Y-134539216D01*
X126100401Y-134500796D01*
X122041666Y-132876592D01*
X122041666Y-124179028D01*
X124706540Y-122232893D01*
X125719051Y-121531773D01*
X124303785Y-121531773D01*
X124021285Y-121827681D01*
X123516443Y-121949824D01*
X122702901Y-122267942D01*
X122146034Y-122998650D01*
X121811500Y-124227494D01*
X121664961Y-126040022D01*
X121653724Y-126590301D01*
X121614555Y-128466652D01*
X121499036Y-129780061D01*
X121232807Y-130673139D01*
X120741508Y-131288496D01*
X119950780Y-131768745D01*
X118786265Y-132256496D01*
X118677027Y-132299215D01*
X117461830Y-132765169D01*
X116513276Y-133112867D01*
X116012676Y-133276143D01*
X115987873Y-133280597D01*
X115704738Y-133013780D01*
X115160051Y-132285583D01*
X114458003Y-131237984D01*
X114256709Y-130921528D01*
X113470591Y-129675041D01*
X112769025Y-128567824D01*
X112286813Y-127812530D01*
X112240298Y-127740520D01*
X111915069Y-127184109D01*
X112012283Y-127068207D01*
X112295768Y-127160902D01*
X112781588Y-127161892D01*
X112820127Y-126619098D01*
X112655312Y-126099687D01*
X112274852Y-125588072D01*
X111898919Y-125730590D01*
X111747495Y-126140631D01*
X111633562Y-126091783D01*
X111422612Y-125467365D01*
X111150267Y-124384785D01*
X110985988Y-123630716D01*
X110730228Y-122222711D01*
X110591145Y-121078672D01*
X110586564Y-120370600D01*
X110634499Y-120238676D01*
X111069551Y-120032966D01*
X112040770Y-119678722D01*
X113406902Y-119224672D01*
X115026694Y-118719539D01*
X115121329Y-118690943D01*
X119313491Y-117426370D01*
X121906071Y-119279157D01*
X123277371Y-120309243D01*
X124066212Y-121042871D01*
X124303785Y-121531773D01*
X125719051Y-121531773D01*
X125911283Y-121398661D01*
X126930795Y-120776384D01*
X127616878Y-120452569D01*
X127793345Y-120431080D01*
X128280935Y-120590450D01*
X129290627Y-120915670D01*
X130672232Y-121358495D01*
X132184028Y-121841482D01*
X134114727Y-122500140D01*
X135421375Y-123042952D01*
X136077095Y-123457974D01*
X136152777Y-123605397D01*
X136575453Y-123605397D01*
X136577770Y-123585091D01*
X136517314Y-122921602D01*
X136488567Y-122875364D01*
X136042398Y-122627930D01*
X135056981Y-122234066D01*
X133670458Y-121744700D01*
X132020970Y-121210765D01*
X131730333Y-121121063D01*
X129923529Y-120572677D01*
X128657096Y-120215708D01*
X127797691Y-120032005D01*
X127211972Y-120003418D01*
X126766596Y-120111795D01*
X126328220Y-120338987D01*
X126263704Y-120376945D01*
X125225775Y-120990065D01*
X122663582Y-119101902D01*
X121478936Y-118234408D01*
X120488741Y-117519432D01*
X119845905Y-117066956D01*
X119713503Y-116979970D01*
X119205323Y-116976629D01*
X118197985Y-117182178D01*
G36*
X128383137Y-133143510D02*
X128157907Y-133682450D01*
X128345901Y-134402856D01*
X128579946Y-134727029D01*
X129285792Y-135327174D01*
X129778349Y-135285559D01*
X130046382Y-134842328D01*
X130038834Y-134012208D01*
X129540636Y-133290656D01*
X128970149Y-133012122D01*
X128383137Y-133143510D01*
X128383137Y-133143510D01*
G37*
X128383137Y-133143510D02*
X128157907Y-133682450D01*
X128345901Y-134402856D01*
X128579946Y-134727029D01*
X129285792Y-135327174D01*
X129778349Y-135285559D01*
X130046382Y-134842328D01*
X130038834Y-134012208D01*
X129540636Y-133290656D01*
X128970149Y-133012122D01*
X128383137Y-133143510D01*
G36*
X132083244Y-127353295D02*
X131875421Y-127964443D01*
X131617287Y-129087838D01*
X131327775Y-130661769D01*
X131213380Y-131365738D01*
X130935311Y-133239504D01*
X130789640Y-134475849D01*
X130777248Y-135059347D01*
X130899013Y-134974568D01*
X131027355Y-134625695D01*
X131216204Y-133890735D01*
X131466103Y-132717518D01*
X131736723Y-131323457D01*
X131987737Y-129925963D01*
X132178815Y-128742446D01*
X132269630Y-127990319D01*
X132272222Y-127914581D01*
X132221822Y-127316104D01*
X132083244Y-127353295D01*
X132083244Y-127353295D01*
G37*
X132083244Y-127353295D02*
X131875421Y-127964443D01*
X131617287Y-129087838D01*
X131327775Y-130661769D01*
X131213380Y-131365738D01*
X130935311Y-133239504D01*
X130789640Y-134475849D01*
X130777248Y-135059347D01*
X130899013Y-134974568D01*
X131027355Y-134625695D01*
X131216204Y-133890735D01*
X131466103Y-132717518D01*
X131736723Y-131323457D01*
X131987737Y-129925963D01*
X132178815Y-128742446D01*
X132269630Y-127990319D01*
X132272222Y-127914581D01*
X132221822Y-127316104D01*
X132083244Y-127353295D01*
G36*
X122989321Y-130576080D02*
X122566249Y-131003674D01*
X122453508Y-131320487D01*
X122549234Y-132081088D01*
X123010792Y-132664436D01*
X123632372Y-132933247D01*
X124208161Y-132750238D01*
X124344310Y-132581709D01*
X124340273Y-132046794D01*
X123997032Y-131353430D01*
X123496433Y-130770784D01*
X123020323Y-130568023D01*
X122989321Y-130576080D01*
X122989321Y-130576080D01*
G37*
X122989321Y-130576080D02*
X122566249Y-131003674D01*
X122453508Y-131320487D01*
X122549234Y-132081088D01*
X123010792Y-132664436D01*
X123632372Y-132933247D01*
X124208161Y-132750238D01*
X124344310Y-132581709D01*
X124340273Y-132046794D01*
X123997032Y-131353430D01*
X123496433Y-130770784D01*
X123020323Y-130568023D01*
X122989321Y-130576080D01*
G36*
X125848792Y-129343387D02*
X125673404Y-130025549D01*
X125907469Y-130805767D01*
X126467410Y-131402499D01*
X127092028Y-131493879D01*
X127544387Y-131046468D01*
X127547959Y-131037289D01*
X127542843Y-130305710D01*
X127171444Y-129556307D01*
X126611677Y-129101662D01*
X126427905Y-129069445D01*
X125848792Y-129343387D01*
X125848792Y-129343387D01*
G37*
X125848792Y-129343387D02*
X125673404Y-130025549D01*
X125907469Y-130805767D01*
X126467410Y-131402499D01*
X127092028Y-131493879D01*
X127544387Y-131046468D01*
X127547959Y-131037289D01*
X127542843Y-130305710D01*
X127171444Y-129556307D01*
X126611677Y-129101662D01*
X126427905Y-129069445D01*
X125848792Y-129343387D01*
G36*
X133706847Y-127927624D02*
X133453095Y-128201484D01*
X133064321Y-129005276D01*
X132977777Y-129489649D01*
X133164185Y-130033639D01*
X133580379Y-130075772D01*
X134011811Y-129662262D01*
X134185049Y-129229610D01*
X134282445Y-128340927D01*
X134096275Y-127869331D01*
X133706847Y-127927624D01*
X133706847Y-127927624D01*
G37*
X133706847Y-127927624D02*
X133453095Y-128201484D01*
X133064321Y-129005276D01*
X132977777Y-129489649D01*
X133164185Y-130033639D01*
X133580379Y-130075772D01*
X134011811Y-129662262D01*
X134185049Y-129229610D01*
X134282445Y-128340927D01*
X134096275Y-127869331D01*
X133706847Y-127927624D01*
G36*
X129425674Y-127245275D02*
X129244443Y-127909411D01*
X129312812Y-128625159D01*
X129464050Y-128909985D01*
X130113197Y-129359520D01*
X130769586Y-129374479D01*
X131177284Y-128979451D01*
X131213889Y-128741865D01*
X130985422Y-127998233D01*
X130456559Y-127304149D01*
X129862106Y-126957014D01*
X129801352Y-126952778D01*
X129425674Y-127245275D01*
X129425674Y-127245275D01*
G37*
X129425674Y-127245275D02*
X129244443Y-127909411D01*
X129312812Y-128625159D01*
X129464050Y-128909985D01*
X130113197Y-129359520D01*
X130769586Y-129374479D01*
X131177284Y-128979451D01*
X131213889Y-128741865D01*
X130985422Y-127998233D01*
X130456559Y-127304149D01*
X129862106Y-126957014D01*
X129801352Y-126952778D01*
X129425674Y-127245275D01*
G36*
X122865109Y-125433255D02*
X122747222Y-125823889D01*
X122974785Y-126600906D01*
X123514831Y-127134725D01*
X124153390Y-127299760D01*
X124676495Y-126970424D01*
X124682994Y-126960069D01*
X124703053Y-126408525D01*
X124515013Y-125901736D01*
X123985831Y-125356930D01*
X123351735Y-125197065D01*
X122865109Y-125433255D01*
X122865109Y-125433255D01*
G37*
X122865109Y-125433255D02*
X122747222Y-125823889D01*
X122974785Y-126600906D01*
X123514831Y-127134725D01*
X124153390Y-127299760D01*
X124676495Y-126970424D01*
X124682994Y-126960069D01*
X124703053Y-126408525D01*
X124515013Y-125901736D01*
X123985831Y-125356930D01*
X123351735Y-125197065D01*
X122865109Y-125433255D01*
G36*
X135439667Y-123753955D02*
X134789321Y-124287906D01*
X134036111Y-125012500D01*
X133261810Y-125853373D01*
X132771023Y-126488844D01*
X132669004Y-126761597D01*
X132985333Y-126623823D01*
X133635678Y-126089873D01*
X134388889Y-125365278D01*
X135163189Y-124524406D01*
X135653977Y-123888934D01*
X135755996Y-123616182D01*
X135439667Y-123753955D01*
X135439667Y-123753955D01*
G37*
X135439667Y-123753955D02*
X134789321Y-124287906D01*
X134036111Y-125012500D01*
X133261810Y-125853373D01*
X132771023Y-126488844D01*
X132669004Y-126761597D01*
X132985333Y-126623823D01*
X133635678Y-126089873D01*
X134388889Y-125365278D01*
X135163189Y-124524406D01*
X135653977Y-123888934D01*
X135755996Y-123616182D01*
X135439667Y-123753955D01*
G36*
X123162684Y-123950279D02*
X123279153Y-124186695D01*
X123490480Y-124287272D01*
X124013604Y-124471928D01*
X125038679Y-124833892D01*
X126402377Y-125315487D01*
X127509722Y-125706581D01*
X129345197Y-126343042D01*
X130586807Y-126741387D01*
X131299021Y-126917283D01*
X131546307Y-126886399D01*
X131393134Y-126664401D01*
X131372639Y-126645366D01*
X130910377Y-126406264D01*
X129968177Y-126034036D01*
X128705782Y-125581121D01*
X127282935Y-125099957D01*
X125859378Y-124642984D01*
X124594854Y-124262640D01*
X123649107Y-124011365D01*
X123181878Y-123941597D01*
X123162684Y-123950279D01*
X123162684Y-123950279D01*
G37*
X123162684Y-123950279D02*
X123279153Y-124186695D01*
X123490480Y-124287272D01*
X124013604Y-124471928D01*
X125038679Y-124833892D01*
X126402377Y-125315487D01*
X127509722Y-125706581D01*
X129345197Y-126343042D01*
X130586807Y-126741387D01*
X131299021Y-126917283D01*
X131546307Y-126886399D01*
X131393134Y-126664401D01*
X131372639Y-126645366D01*
X130910377Y-126406264D01*
X129968177Y-126034036D01*
X128705782Y-125581121D01*
X127282935Y-125099957D01*
X125859378Y-124642984D01*
X124594854Y-124262640D01*
X123649107Y-124011365D01*
X123181878Y-123941597D01*
X123162684Y-123950279D01*
G36*
X130089909Y-124407869D02*
X129874885Y-124936707D01*
X130253218Y-125350947D01*
X131112715Y-125539478D01*
X131234708Y-125541667D01*
X132056351Y-125382826D01*
X132272222Y-125019222D01*
X131973809Y-124560257D01*
X131288540Y-124262103D01*
X130531373Y-124212993D01*
X130089909Y-124407869D01*
X130089909Y-124407869D01*
G37*
X130089909Y-124407869D02*
X129874885Y-124936707D01*
X130253218Y-125350947D01*
X131112715Y-125539478D01*
X131234708Y-125541667D01*
X132056351Y-125382826D01*
X132272222Y-125019222D01*
X131973809Y-124560257D01*
X131288540Y-124262103D01*
X130531373Y-124212993D01*
X130089909Y-124407869D01*
G36*
X132132090Y-122879859D02*
X131919444Y-123248611D01*
X132094617Y-123718301D01*
X132243369Y-123777778D01*
X132851920Y-123889973D01*
X133037119Y-123950461D01*
X133728808Y-123932701D01*
X133993113Y-123813514D01*
X134313961Y-123376543D01*
X134051468Y-122977920D01*
X133322681Y-122741232D01*
X132956958Y-122719445D01*
X132132090Y-122879859D01*
X132132090Y-122879859D01*
G37*
X132132090Y-122879859D02*
X131919444Y-123248611D01*
X132094617Y-123718301D01*
X132243369Y-123777778D01*
X132851920Y-123889973D01*
X133037119Y-123950461D01*
X133728808Y-123932701D01*
X133993113Y-123813514D01*
X134313961Y-123376543D01*
X134051468Y-122977920D01*
X133322681Y-122741232D01*
X132956958Y-122719445D01*
X132132090Y-122879859D01*
G36*
X124924350Y-122857967D02*
X124691456Y-123252803D01*
X124910145Y-123657125D01*
X125560623Y-124054820D01*
X126320865Y-124085566D01*
X126804166Y-123777778D01*
X126862489Y-123197209D01*
X126356174Y-122804911D01*
X125783809Y-122719445D01*
X124924350Y-122857967D01*
X124924350Y-122857967D01*
G37*
X124924350Y-122857967D02*
X124691456Y-123252803D01*
X124910145Y-123657125D01*
X125560623Y-124054820D01*
X126320865Y-124085566D01*
X126804166Y-123777778D01*
X126862489Y-123197209D01*
X126356174Y-122804911D01*
X125783809Y-122719445D01*
X124924350Y-122857967D01*
G36*
X127113135Y-121115421D02*
X126854622Y-121293156D01*
X126729415Y-121747216D01*
X127165550Y-122132886D01*
X128019703Y-122346359D01*
X128329339Y-122361265D01*
X128947816Y-122211159D01*
X129031291Y-121749306D01*
X128628887Y-121234928D01*
X127880485Y-121000787D01*
X127113135Y-121115421D01*
X127113135Y-121115421D01*
G37*
X127113135Y-121115421D02*
X126854622Y-121293156D01*
X126729415Y-121747216D01*
X127165550Y-122132886D01*
X128019703Y-122346359D01*
X128329339Y-122361265D01*
X128947816Y-122211159D01*
X129031291Y-121749306D01*
X128628887Y-121234928D01*
X127880485Y-121000787D01*
X127113135Y-121115421D01*
G36*
X116977452Y-130504142D02*
X116532090Y-131194465D01*
X116460880Y-131486723D01*
X116597074Y-132073387D01*
X117087640Y-132259732D01*
X117704657Y-132043866D01*
X118181380Y-131501015D01*
X118399998Y-130780047D01*
X118184083Y-130362417D01*
X117602048Y-130178555D01*
X116977452Y-130504142D01*
X116977452Y-130504142D01*
G37*
X116977452Y-130504142D02*
X116532090Y-131194465D01*
X116460880Y-131486723D01*
X116597074Y-132073387D01*
X117087640Y-132259732D01*
X117704657Y-132043866D01*
X118181380Y-131501015D01*
X118399998Y-130780047D01*
X118184083Y-130362417D01*
X117602048Y-130178555D01*
X116977452Y-130504142D01*
G36*
X114158170Y-124489887D02*
X114133172Y-124513125D01*
X114137905Y-124899918D01*
X114274185Y-125796473D01*
X114504681Y-127027503D01*
X114792060Y-128417723D01*
X115098991Y-129791848D01*
X115388141Y-130974592D01*
X115622179Y-131790670D01*
X115739976Y-132057569D01*
X115771393Y-131827018D01*
X115687829Y-131032773D01*
X115505924Y-129804309D01*
X115280388Y-128481777D01*
X114945971Y-126669341D01*
X114693990Y-125458893D01*
X114496996Y-124755473D01*
X114327539Y-124464124D01*
X114158170Y-124489887D01*
X114158170Y-124489887D01*
G37*
X114158170Y-124489887D02*
X114133172Y-124513125D01*
X114137905Y-124899918D01*
X114274185Y-125796473D01*
X114504681Y-127027503D01*
X114792060Y-128417723D01*
X115098991Y-129791848D01*
X115388141Y-130974592D01*
X115622179Y-131790670D01*
X115739976Y-132057569D01*
X115771393Y-131827018D01*
X115687829Y-131032773D01*
X115505924Y-129804309D01*
X115280388Y-128481777D01*
X114945971Y-126669341D01*
X114693990Y-125458893D01*
X114496996Y-124755473D01*
X114327539Y-124464124D01*
X114158170Y-124489887D01*
G36*
X113890812Y-128210346D02*
X113590632Y-128756790D01*
X113837874Y-129585106D01*
X114092947Y-129972157D01*
X114480412Y-130438784D01*
X114606155Y-130313803D01*
X114622114Y-129892048D01*
X114525570Y-128940951D01*
X114259172Y-128315611D01*
X113904054Y-128202605D01*
X113890812Y-128210346D01*
X113890812Y-128210346D01*
G37*
X113890812Y-128210346D02*
X113590632Y-128756790D01*
X113837874Y-129585106D01*
X114092947Y-129972157D01*
X114480412Y-130438784D01*
X114606155Y-130313803D01*
X114622114Y-129892048D01*
X114525570Y-128940951D01*
X114259172Y-128315611D01*
X113904054Y-128202605D01*
X113890812Y-128210346D01*
G36*
X112907764Y-124346740D02*
X112949652Y-124985295D01*
X113140786Y-125674911D01*
X113469762Y-126132939D01*
X113783184Y-126229276D01*
X113927656Y-125833824D01*
X113927778Y-125814880D01*
X113723046Y-125168787D01*
X113390624Y-124638954D01*
X113018803Y-124212943D01*
X112907764Y-124346740D01*
X112907764Y-124346740D01*
G37*
X112907764Y-124346740D02*
X112949652Y-124985295D01*
X113140786Y-125674911D01*
X113469762Y-126132939D01*
X113783184Y-126229276D01*
X113927656Y-125833824D01*
X113927778Y-125814880D01*
X113723046Y-125168787D01*
X113390624Y-124638954D01*
X113018803Y-124212943D01*
X112907764Y-124346740D01*
G36*
X111135043Y-122646887D02*
X111105555Y-122828407D01*
X111267481Y-123419974D01*
X111634912Y-123994530D01*
X112030324Y-124327141D01*
X112245008Y-124272193D01*
X112285044Y-123708016D01*
X112050453Y-122991330D01*
X111678275Y-122458950D01*
X111469701Y-122366667D01*
X111135043Y-122646887D01*
X111135043Y-122646887D01*
G37*
X111135043Y-122646887D02*
X111105555Y-122828407D01*
X111267481Y-123419974D01*
X111634912Y-123994530D01*
X112030324Y-124327141D01*
X112245008Y-124272193D01*
X112285044Y-123708016D01*
X112050453Y-122991330D01*
X111678275Y-122458950D01*
X111469701Y-122366667D01*
X111135043Y-122646887D01*
G36*
X123014684Y-121169064D02*
X122127997Y-121390221D01*
X120898368Y-121747765D01*
X119486055Y-122189850D01*
X118051313Y-122664631D01*
X116754400Y-123120261D01*
X115755572Y-123504896D01*
X115215085Y-123766689D01*
X115181045Y-123794511D01*
X115047706Y-124061514D01*
X115453230Y-124072458D01*
X116427797Y-123820376D01*
X118001589Y-123298301D01*
X119219444Y-122862262D01*
X120687140Y-122327652D01*
X121934921Y-121873984D01*
X122794654Y-121562345D01*
X123062298Y-121466100D01*
X123413442Y-121229434D01*
X123398175Y-121136138D01*
X123014684Y-121169064D01*
X123014684Y-121169064D01*
G37*
X123014684Y-121169064D02*
X122127997Y-121390221D01*
X120898368Y-121747765D01*
X119486055Y-122189850D01*
X118051313Y-122664631D01*
X116754400Y-123120261D01*
X115755572Y-123504896D01*
X115215085Y-123766689D01*
X115181045Y-123794511D01*
X115047706Y-124061514D01*
X115453230Y-124072458D01*
X116427797Y-123820376D01*
X118001589Y-123298301D01*
X119219444Y-122862262D01*
X120687140Y-122327652D01*
X121934921Y-121873984D01*
X122794654Y-121562345D01*
X123062298Y-121466100D01*
X123413442Y-121229434D01*
X123398175Y-121136138D01*
X123014684Y-121169064D01*
G36*
X110976488Y-120828014D02*
X111410770Y-121392906D01*
X112043015Y-122131230D01*
X112726290Y-122876763D01*
X113313661Y-123463280D01*
X113641654Y-123718982D01*
X113917986Y-123579767D01*
X113927778Y-123495449D01*
X113685913Y-123103912D01*
X113085469Y-122444462D01*
X112314168Y-121695683D01*
X111559732Y-121036160D01*
X111009885Y-120644479D01*
X110887100Y-120602778D01*
X110976488Y-120828014D01*
X110976488Y-120828014D01*
G37*
X110976488Y-120828014D02*
X111410770Y-121392906D01*
X112043015Y-122131230D01*
X112726290Y-122876763D01*
X113313661Y-123463280D01*
X113641654Y-123718982D01*
X113917986Y-123579767D01*
X113927778Y-123495449D01*
X113685913Y-123103912D01*
X113085469Y-122444462D01*
X112314168Y-121695683D01*
X111559732Y-121036160D01*
X111009885Y-120644479D01*
X110887100Y-120602778D01*
X110976488Y-120828014D01*
G36*
X114916342Y-121712117D02*
X114490354Y-122100422D01*
X114467883Y-122384367D01*
X114950314Y-122675636D01*
X115646043Y-122704205D01*
X116229387Y-122499321D01*
X116397222Y-122211098D01*
X116186949Y-121613578D01*
X116051735Y-121489229D01*
X115531493Y-121454870D01*
X114916342Y-121712117D01*
X114916342Y-121712117D01*
G37*
X114916342Y-121712117D02*
X114490354Y-122100422D01*
X114467883Y-122384367D01*
X114950314Y-122675636D01*
X115646043Y-122704205D01*
X116229387Y-122499321D01*
X116397222Y-122211098D01*
X116186949Y-121613578D01*
X116051735Y-121489229D01*
X115531493Y-121454870D01*
X114916342Y-121712117D01*
G36*
X117676797Y-120770164D02*
X117293392Y-121195141D01*
X117279166Y-121313165D01*
X117564345Y-121753805D01*
X118193623Y-121954687D01*
X118827611Y-121851135D01*
X119049584Y-121650547D01*
X119068740Y-121075831D01*
X118943956Y-120891734D01*
X118337570Y-120641035D01*
X117676797Y-120770164D01*
X117676797Y-120770164D01*
G37*
X117676797Y-120770164D02*
X117293392Y-121195141D01*
X117279166Y-121313165D01*
X117564345Y-121753805D01*
X118193623Y-121954687D01*
X118827611Y-121851135D01*
X119049584Y-121650547D01*
X119068740Y-121075831D01*
X118943956Y-120891734D01*
X118337570Y-120641035D01*
X117676797Y-120770164D01*
G36*
X112708618Y-120022071D02*
X112516666Y-120365214D01*
X112805388Y-120928512D01*
X113581096Y-121099979D01*
X114035494Y-121037209D01*
X114519613Y-120755549D01*
X114437108Y-120371566D01*
X113875193Y-120048090D01*
X113459599Y-119961985D01*
X112708618Y-120022071D01*
X112708618Y-120022071D01*
G37*
X112708618Y-120022071D02*
X112516666Y-120365214D01*
X112805388Y-120928512D01*
X113581096Y-121099979D01*
X114035494Y-121037209D01*
X114519613Y-120755549D01*
X114437108Y-120371566D01*
X113875193Y-120048090D01*
X113459599Y-119961985D01*
X112708618Y-120022071D01*
G36*
X120143116Y-120054990D02*
X119925000Y-120426389D01*
X120214842Y-120797697D01*
X120865542Y-120966217D01*
X121548859Y-120880662D01*
X121806481Y-120720371D01*
X122035477Y-120239575D01*
X121616940Y-119956382D01*
X120983333Y-119897223D01*
X120143116Y-120054990D01*
X120143116Y-120054990D01*
G37*
X120143116Y-120054990D02*
X119925000Y-120426389D01*
X120214842Y-120797697D01*
X120865542Y-120966217D01*
X121548859Y-120880662D01*
X121806481Y-120720371D01*
X122035477Y-120239575D01*
X121616940Y-119956382D01*
X120983333Y-119897223D01*
X120143116Y-120054990D01*
G36*
X115870028Y-119250026D02*
X115379220Y-119532344D01*
X115309287Y-119720834D01*
X115607962Y-120035379D01*
X116263445Y-120180654D01*
X116940225Y-120123411D01*
X117268211Y-119914949D01*
X117217528Y-119519067D01*
X116694081Y-119256749D01*
X115930282Y-119238521D01*
X115870028Y-119250026D01*
X115870028Y-119250026D01*
G37*
X115870028Y-119250026D02*
X115379220Y-119532344D01*
X115309287Y-119720834D01*
X115607962Y-120035379D01*
X116263445Y-120180654D01*
X116940225Y-120123411D01*
X117268211Y-119914949D01*
X117217528Y-119519067D01*
X116694081Y-119256749D01*
X115930282Y-119238521D01*
X115870028Y-119250026D01*
G36*
X118401821Y-118285847D02*
X118004342Y-118697132D01*
X117984722Y-118838889D01*
X118257683Y-119331648D01*
X118905425Y-119450263D01*
X119569273Y-119205915D01*
X119894713Y-118807930D01*
X119694939Y-118467718D01*
X119071312Y-118186379D01*
X118401821Y-118285847D01*
X118401821Y-118285847D01*
G37*
X118401821Y-118285847D02*
X118004342Y-118697132D01*
X117984722Y-118838889D01*
X118257683Y-119331648D01*
X118905425Y-119450263D01*
X119569273Y-119205915D01*
X119894713Y-118807930D01*
X119694939Y-118467718D01*
X119071312Y-118186379D01*
X118401821Y-118285847D01*
G36*
X131638207Y-49026395D02*
X131303218Y-49184467D01*
X131046757Y-49428083D01*
X130957470Y-49570910D01*
X130890274Y-49793378D01*
X130867781Y-50074906D01*
X130890048Y-50356066D01*
X130956507Y-50576227D01*
X131124089Y-50804719D01*
X131364833Y-51020282D01*
X131628347Y-51180587D01*
X131718763Y-51216513D01*
X131875222Y-51287377D01*
X131922653Y-51367607D01*
X131917725Y-51397860D01*
X131857333Y-51605963D01*
X131838952Y-51738522D01*
X131880903Y-51821038D01*
X132001509Y-51879009D01*
X132219092Y-51937932D01*
X132324744Y-51964302D01*
X132604182Y-52027947D01*
X132777772Y-52050589D01*
X132859362Y-52033673D01*
X132868026Y-52020942D01*
X132908582Y-51901792D01*
X132976995Y-51694115D01*
X133066449Y-51419201D01*
X133170126Y-51098342D01*
X133281209Y-50752829D01*
X133392880Y-50403952D01*
X133451854Y-50218847D01*
X132186174Y-50218847D01*
X132148776Y-50403078D01*
X132126645Y-50492138D01*
X132055290Y-50775515D01*
X131856770Y-50659917D01*
X131715576Y-50542647D01*
X131639602Y-50412235D01*
X131637501Y-50401164D01*
X131661319Y-50220755D01*
X131787683Y-50108941D01*
X131983526Y-50074500D01*
X132112796Y-50081543D01*
X132177263Y-50120664D01*
X132186174Y-50218847D01*
X133451854Y-50218847D01*
X133498321Y-50073004D01*
X133590715Y-49781273D01*
X133663245Y-49550053D01*
X133709094Y-49400633D01*
X133722000Y-49353973D01*
X133664745Y-49314513D01*
X133511902Y-49255825D01*
X133291858Y-49186241D01*
X133032998Y-49114095D01*
X132763709Y-49047719D01*
X132512377Y-48995447D01*
X132482659Y-48990150D01*
X132036447Y-48959683D01*
X131638207Y-49026395D01*
X131638207Y-49026395D01*
G37*
X131638207Y-49026395D02*
X131303218Y-49184467D01*
X131046757Y-49428083D01*
X130957470Y-49570910D01*
X130890274Y-49793378D01*
X130867781Y-50074906D01*
X130890048Y-50356066D01*
X130956507Y-50576227D01*
X131124089Y-50804719D01*
X131364833Y-51020282D01*
X131628347Y-51180587D01*
X131718763Y-51216513D01*
X131875222Y-51287377D01*
X131922653Y-51367607D01*
X131917725Y-51397860D01*
X131857333Y-51605963D01*
X131838952Y-51738522D01*
X131880903Y-51821038D01*
X132001509Y-51879009D01*
X132219092Y-51937932D01*
X132324744Y-51964302D01*
X132604182Y-52027947D01*
X132777772Y-52050589D01*
X132859362Y-52033673D01*
X132868026Y-52020942D01*
X132908582Y-51901792D01*
X132976995Y-51694115D01*
X133066449Y-51419201D01*
X133170126Y-51098342D01*
X133281209Y-50752829D01*
X133392880Y-50403952D01*
X133451854Y-50218847D01*
X132186174Y-50218847D01*
X132148776Y-50403078D01*
X132126645Y-50492138D01*
X132055290Y-50775515D01*
X131856770Y-50659917D01*
X131715576Y-50542647D01*
X131639602Y-50412235D01*
X131637501Y-50401164D01*
X131661319Y-50220755D01*
X131787683Y-50108941D01*
X131983526Y-50074500D01*
X132112796Y-50081543D01*
X132177263Y-50120664D01*
X132186174Y-50218847D01*
X133451854Y-50218847D01*
X133498321Y-50073004D01*
X133590715Y-49781273D01*
X133663245Y-49550053D01*
X133709094Y-49400633D01*
X133722000Y-49353973D01*
X133664745Y-49314513D01*
X133511902Y-49255825D01*
X133291858Y-49186241D01*
X133032998Y-49114095D01*
X132763709Y-49047719D01*
X132512377Y-48995447D01*
X132482659Y-48990150D01*
X132036447Y-48959683D01*
X131638207Y-49026395D01*
G36*
X115117548Y-48857715D02*
X115115327Y-48858039D01*
X114975603Y-48884738D01*
X114756852Y-48933575D01*
X114485557Y-48997876D01*
X114188203Y-49070967D01*
X113891271Y-49146175D01*
X113621248Y-49216826D01*
X113404616Y-49276248D01*
X113267859Y-49317765D01*
X113234302Y-49332031D01*
X113240082Y-49399409D01*
X113276362Y-49553486D01*
X113333139Y-49760594D01*
X113400411Y-49987065D01*
X113468176Y-50199231D01*
X113526431Y-50363422D01*
X113565173Y-50445971D01*
X113565278Y-50446094D01*
X113630614Y-50440186D01*
X113778854Y-50401356D01*
X113913332Y-50359143D01*
X114110692Y-50299843D01*
X114223481Y-50287132D01*
X114284500Y-50319100D01*
X114297413Y-50336798D01*
X114336137Y-50442474D01*
X114285458Y-50521462D01*
X114130456Y-50588638D01*
X114011478Y-50621857D01*
X113830196Y-50672160D01*
X113707118Y-50713891D01*
X113679654Y-50728180D01*
X113685166Y-50798376D01*
X113734628Y-50929424D01*
X113805408Y-51074025D01*
X113874876Y-51184881D01*
X113913778Y-51217500D01*
X113995963Y-51198033D01*
X114149711Y-51149216D01*
X114214485Y-51126842D01*
X114378929Y-51075069D01*
X114463180Y-51073189D01*
X114504115Y-51121854D01*
X114508219Y-51132035D01*
X114542592Y-51293077D01*
X114481293Y-51388765D01*
X114309481Y-51441975D01*
X114306875Y-51442417D01*
X114068027Y-51484216D01*
X113935210Y-51522261D01*
X113889668Y-51576401D01*
X113912645Y-51666485D01*
X113975559Y-51793035D01*
X114069046Y-51943236D01*
X114154929Y-52028326D01*
X114181166Y-52035967D01*
X114271003Y-52018659D01*
X114456269Y-51976930D01*
X114709195Y-51917200D01*
X114977822Y-51851854D01*
X115261534Y-51780530D01*
X115495916Y-51718942D01*
X115655857Y-51673871D01*
X115715993Y-51652512D01*
X115711555Y-51586252D01*
X115688280Y-51412951D01*
X115648928Y-51150719D01*
X115596256Y-50817664D01*
X115533026Y-50431896D01*
X115499724Y-50233250D01*
X115422972Y-49781022D01*
X115362920Y-49439000D01*
X115315359Y-49192121D01*
X115276077Y-49025324D01*
X115240865Y-48923546D01*
X115205513Y-48871727D01*
X115165811Y-48854804D01*
X115117548Y-48857715D01*
X115117548Y-48857715D01*
G37*
X115117548Y-48857715D02*
X115115327Y-48858039D01*
X114975603Y-48884738D01*
X114756852Y-48933575D01*
X114485557Y-48997876D01*
X114188203Y-49070967D01*
X113891271Y-49146175D01*
X113621248Y-49216826D01*
X113404616Y-49276248D01*
X113267859Y-49317765D01*
X113234302Y-49332031D01*
X113240082Y-49399409D01*
X113276362Y-49553486D01*
X113333139Y-49760594D01*
X113400411Y-49987065D01*
X113468176Y-50199231D01*
X113526431Y-50363422D01*
X113565173Y-50445971D01*
X113565278Y-50446094D01*
X113630614Y-50440186D01*
X113778854Y-50401356D01*
X113913332Y-50359143D01*
X114110692Y-50299843D01*
X114223481Y-50287132D01*
X114284500Y-50319100D01*
X114297413Y-50336798D01*
X114336137Y-50442474D01*
X114285458Y-50521462D01*
X114130456Y-50588638D01*
X114011478Y-50621857D01*
X113830196Y-50672160D01*
X113707118Y-50713891D01*
X113679654Y-50728180D01*
X113685166Y-50798376D01*
X113734628Y-50929424D01*
X113805408Y-51074025D01*
X113874876Y-51184881D01*
X113913778Y-51217500D01*
X113995963Y-51198033D01*
X114149711Y-51149216D01*
X114214485Y-51126842D01*
X114378929Y-51075069D01*
X114463180Y-51073189D01*
X114504115Y-51121854D01*
X114508219Y-51132035D01*
X114542592Y-51293077D01*
X114481293Y-51388765D01*
X114309481Y-51441975D01*
X114306875Y-51442417D01*
X114068027Y-51484216D01*
X113935210Y-51522261D01*
X113889668Y-51576401D01*
X113912645Y-51666485D01*
X113975559Y-51793035D01*
X114069046Y-51943236D01*
X114154929Y-52028326D01*
X114181166Y-52035967D01*
X114271003Y-52018659D01*
X114456269Y-51976930D01*
X114709195Y-51917200D01*
X114977822Y-51851854D01*
X115261534Y-51780530D01*
X115495916Y-51718942D01*
X115655857Y-51673871D01*
X115715993Y-51652512D01*
X115711555Y-51586252D01*
X115688280Y-51412951D01*
X115648928Y-51150719D01*
X115596256Y-50817664D01*
X115533026Y-50431896D01*
X115499724Y-50233250D01*
X115422972Y-49781022D01*
X115362920Y-49439000D01*
X115315359Y-49192121D01*
X115276077Y-49025324D01*
X115240865Y-48923546D01*
X115205513Y-48871727D01*
X115165811Y-48854804D01*
X115117548Y-48857715D01*
G36*
X116264997Y-48577044D02*
X116006590Y-48615982D01*
X115765054Y-48667188D01*
X115570837Y-48722538D01*
X115454388Y-48773905D01*
X115434480Y-48798676D01*
X115444427Y-48883808D01*
X115469455Y-49055458D01*
X115503454Y-49274923D01*
X115540317Y-49503499D01*
X115573934Y-49702485D01*
X115596383Y-49824377D01*
X115621953Y-49913679D01*
X115673756Y-49959289D01*
X115784082Y-49971661D01*
X115985219Y-49961247D01*
X116013010Y-49959251D01*
X116332963Y-49960405D01*
X116556437Y-50023606D01*
X116702051Y-50157222D01*
X116768105Y-50298580D01*
X116791927Y-50542666D01*
X116705849Y-50753786D01*
X116525953Y-50915017D01*
X116268320Y-51009436D01*
X116075903Y-51027000D01*
X115816651Y-51027000D01*
X115955479Y-51312750D01*
X116048196Y-51484697D01*
X116132658Y-51568823D01*
X116247600Y-51595292D01*
X116319779Y-51596426D01*
X116513874Y-51573683D01*
X116753490Y-51518193D01*
X116873390Y-51480957D01*
X117275420Y-51294609D01*
X117580016Y-51041028D01*
X117805741Y-50704690D01*
X117808686Y-50698807D01*
X117945090Y-50299909D01*
X117973152Y-49890451D01*
X117896386Y-49496935D01*
X117718307Y-49145860D01*
X117581150Y-48983149D01*
X117266727Y-48754232D01*
X116881676Y-48611715D01*
X116456335Y-48564958D01*
X116264997Y-48577044D01*
X116264997Y-48577044D01*
G37*
X116264997Y-48577044D02*
X116006590Y-48615982D01*
X115765054Y-48667188D01*
X115570837Y-48722538D01*
X115454388Y-48773905D01*
X115434480Y-48798676D01*
X115444427Y-48883808D01*
X115469455Y-49055458D01*
X115503454Y-49274923D01*
X115540317Y-49503499D01*
X115573934Y-49702485D01*
X115596383Y-49824377D01*
X115621953Y-49913679D01*
X115673756Y-49959289D01*
X115784082Y-49971661D01*
X115985219Y-49961247D01*
X116013010Y-49959251D01*
X116332963Y-49960405D01*
X116556437Y-50023606D01*
X116702051Y-50157222D01*
X116768105Y-50298580D01*
X116791927Y-50542666D01*
X116705849Y-50753786D01*
X116525953Y-50915017D01*
X116268320Y-51009436D01*
X116075903Y-51027000D01*
X115816651Y-51027000D01*
X115955479Y-51312750D01*
X116048196Y-51484697D01*
X116132658Y-51568823D01*
X116247600Y-51595292D01*
X116319779Y-51596426D01*
X116513874Y-51573683D01*
X116753490Y-51518193D01*
X116873390Y-51480957D01*
X117275420Y-51294609D01*
X117580016Y-51041028D01*
X117805741Y-50704690D01*
X117808686Y-50698807D01*
X117945090Y-50299909D01*
X117973152Y-49890451D01*
X117896386Y-49496935D01*
X117718307Y-49145860D01*
X117581150Y-48983149D01*
X117266727Y-48754232D01*
X116881676Y-48611715D01*
X116456335Y-48564958D01*
X116264997Y-48577044D01*
G36*
X129661593Y-48498504D02*
X129580100Y-48541661D01*
X129539650Y-48633786D01*
X129519148Y-48782130D01*
X129509370Y-48883875D01*
X129486677Y-49113323D01*
X129455886Y-49424025D01*
X129421468Y-49770858D01*
X129395370Y-50033563D01*
X129320540Y-50786377D01*
X129108270Y-50747938D01*
X128884819Y-50707444D01*
X128688700Y-50671867D01*
X128481400Y-50634234D01*
X128504594Y-50925867D01*
X128526348Y-51098417D01*
X128555046Y-51203274D01*
X128569020Y-51217921D01*
X128644418Y-51228311D01*
X128818530Y-51256242D01*
X129064968Y-51297385D01*
X129340500Y-51344500D01*
X129701049Y-51406389D01*
X129956214Y-51445508D01*
X130125937Y-51459656D01*
X130230159Y-51446629D01*
X130288821Y-51404225D01*
X130321863Y-51330240D01*
X130346535Y-51233375D01*
X130509942Y-50564906D01*
X130648154Y-49994193D01*
X130760057Y-49525958D01*
X130844536Y-49164926D01*
X130900478Y-48915823D01*
X130926768Y-48783372D01*
X130928757Y-48764943D01*
X130870206Y-48722639D01*
X130713617Y-48669676D01*
X130486498Y-48614548D01*
X130363274Y-48590318D01*
X130032085Y-48530084D01*
X129805223Y-48497062D01*
X129661593Y-48498504D01*
X129661593Y-48498504D01*
G37*
X129661593Y-48498504D02*
X129580100Y-48541661D01*
X129539650Y-48633786D01*
X129519148Y-48782130D01*
X129509370Y-48883875D01*
X129486677Y-49113323D01*
X129455886Y-49424025D01*
X129421468Y-49770858D01*
X129395370Y-50033563D01*
X129320540Y-50786377D01*
X129108270Y-50747938D01*
X128884819Y-50707444D01*
X128688700Y-50671867D01*
X128481400Y-50634234D01*
X128504594Y-50925867D01*
X128526348Y-51098417D01*
X128555046Y-51203274D01*
X128569020Y-51217921D01*
X128644418Y-51228311D01*
X128818530Y-51256242D01*
X129064968Y-51297385D01*
X129340500Y-51344500D01*
X129701049Y-51406389D01*
X129956214Y-51445508D01*
X130125937Y-51459656D01*
X130230159Y-51446629D01*
X130288821Y-51404225D01*
X130321863Y-51330240D01*
X130346535Y-51233375D01*
X130509942Y-50564906D01*
X130648154Y-49994193D01*
X130760057Y-49525958D01*
X130844536Y-49164926D01*
X130900478Y-48915823D01*
X130926768Y-48783372D01*
X130928757Y-48764943D01*
X130870206Y-48722639D01*
X130713617Y-48669676D01*
X130486498Y-48614548D01*
X130363274Y-48590318D01*
X130032085Y-48530084D01*
X129805223Y-48497062D01*
X129661593Y-48498504D01*
G36*
X126997502Y-48142193D02*
X126941147Y-48212134D01*
X126870115Y-48355395D01*
X126777375Y-48586703D01*
X126655895Y-48920784D01*
X126618922Y-49025766D01*
X126455498Y-49500176D01*
X126313278Y-49929307D01*
X126196478Y-50299221D01*
X126109313Y-50595981D01*
X126055999Y-50805648D01*
X126040752Y-50914284D01*
X126044409Y-50925264D01*
X126115351Y-50941490D01*
X126281268Y-50963490D01*
X126510513Y-50987249D01*
X126587923Y-50994207D01*
X126843268Y-51014544D01*
X127000051Y-51017772D01*
X127086131Y-50998919D01*
X127129365Y-50953013D01*
X127151789Y-50893578D01*
X127184895Y-50806494D01*
X127226155Y-50795987D01*
X127305589Y-50869203D01*
X127375649Y-50946880D01*
X127553316Y-51145724D01*
X127654622Y-50991112D01*
X127763565Y-50864344D01*
X127842121Y-50851274D01*
X127878725Y-50952033D01*
X127880000Y-50988580D01*
X127897659Y-51088660D01*
X127973772Y-51139772D01*
X128137300Y-51165197D01*
X128301789Y-51176951D01*
X128400467Y-51176534D01*
X128410837Y-51173496D01*
X128409391Y-51108196D01*
X128394412Y-50939660D01*
X128368211Y-50690660D01*
X128349287Y-50525353D01*
X127799483Y-50525353D01*
X127601617Y-50482959D01*
X127448973Y-50445142D01*
X127357165Y-50413155D01*
X127356598Y-50412826D01*
X127353896Y-50346937D01*
X127399665Y-50218075D01*
X127472533Y-50069336D01*
X127551123Y-49943818D01*
X127614064Y-49884614D01*
X127618877Y-49884000D01*
X127660455Y-49940512D01*
X127708587Y-50085303D01*
X127736077Y-50204676D01*
X127799483Y-50525353D01*
X128349287Y-50525353D01*
X128333101Y-50383966D01*
X128317143Y-50250754D01*
X128272073Y-49865209D01*
X128228494Y-49467940D01*
X128191114Y-49103377D01*
X128164637Y-48815949D01*
X128162782Y-48793309D01*
X128118352Y-48242369D01*
X127634051Y-48200902D01*
X127386480Y-48177221D01*
X127180050Y-48152991D01*
X127054785Y-48132981D01*
X127046212Y-48130846D01*
X126997502Y-48142193D01*
X126997502Y-48142193D01*
G37*
X126997502Y-48142193D02*
X126941147Y-48212134D01*
X126870115Y-48355395D01*
X126777375Y-48586703D01*
X126655895Y-48920784D01*
X126618922Y-49025766D01*
X126455498Y-49500176D01*
X126313278Y-49929307D01*
X126196478Y-50299221D01*
X126109313Y-50595981D01*
X126055999Y-50805648D01*
X126040752Y-50914284D01*
X126044409Y-50925264D01*
X126115351Y-50941490D01*
X126281268Y-50963490D01*
X126510513Y-50987249D01*
X126587923Y-50994207D01*
X126843268Y-51014544D01*
X127000051Y-51017772D01*
X127086131Y-50998919D01*
X127129365Y-50953013D01*
X127151789Y-50893578D01*
X127184895Y-50806494D01*
X127226155Y-50795987D01*
X127305589Y-50869203D01*
X127375649Y-50946880D01*
X127553316Y-51145724D01*
X127654622Y-50991112D01*
X127763565Y-50864344D01*
X127842121Y-50851274D01*
X127878725Y-50952033D01*
X127880000Y-50988580D01*
X127897659Y-51088660D01*
X127973772Y-51139772D01*
X128137300Y-51165197D01*
X128301789Y-51176951D01*
X128400467Y-51176534D01*
X128410837Y-51173496D01*
X128409391Y-51108196D01*
X128394412Y-50939660D01*
X128368211Y-50690660D01*
X128349287Y-50525353D01*
X127799483Y-50525353D01*
X127601617Y-50482959D01*
X127448973Y-50445142D01*
X127357165Y-50413155D01*
X127356598Y-50412826D01*
X127353896Y-50346937D01*
X127399665Y-50218075D01*
X127472533Y-50069336D01*
X127551123Y-49943818D01*
X127614064Y-49884614D01*
X127618877Y-49884000D01*
X127660455Y-49940512D01*
X127708587Y-50085303D01*
X127736077Y-50204676D01*
X127799483Y-50525353D01*
X128349287Y-50525353D01*
X128333101Y-50383966D01*
X128317143Y-50250754D01*
X128272073Y-49865209D01*
X128228494Y-49467940D01*
X128191114Y-49103377D01*
X128164637Y-48815949D01*
X128162782Y-48793309D01*
X128118352Y-48242369D01*
X127634051Y-48200902D01*
X127386480Y-48177221D01*
X127180050Y-48152991D01*
X127054785Y-48132981D01*
X127046212Y-48130846D01*
X126997502Y-48142193D01*
G36*
X119284839Y-48191090D02*
X119128041Y-48205241D01*
X118910419Y-48228417D01*
X118664526Y-48256902D01*
X118422916Y-48286984D01*
X118218141Y-48314946D01*
X118127904Y-48328926D01*
X117932558Y-48361616D01*
X118139991Y-49424433D01*
X118212826Y-49804384D01*
X118279958Y-50167038D01*
X118336091Y-50482852D01*
X118375929Y-50722288D01*
X118390278Y-50820625D01*
X118433134Y-51154000D01*
X118695692Y-51142906D01*
X118943219Y-51129063D01*
X119200758Y-51109911D01*
X119228125Y-51107504D01*
X119498000Y-51083197D01*
X119498000Y-50771484D01*
X119494511Y-50626835D01*
X119484935Y-50395511D01*
X119470611Y-50100597D01*
X119452878Y-49765182D01*
X119433077Y-49412353D01*
X119412544Y-49065197D01*
X119392620Y-48746801D01*
X119374643Y-48480252D01*
X119359953Y-48288638D01*
X119349889Y-48195046D01*
X119348261Y-48189679D01*
X119284839Y-48191090D01*
X119284839Y-48191090D01*
G37*
X119284839Y-48191090D02*
X119128041Y-48205241D01*
X118910419Y-48228417D01*
X118664526Y-48256902D01*
X118422916Y-48286984D01*
X118218141Y-48314946D01*
X118127904Y-48328926D01*
X117932558Y-48361616D01*
X118139991Y-49424433D01*
X118212826Y-49804384D01*
X118279958Y-50167038D01*
X118336091Y-50482852D01*
X118375929Y-50722288D01*
X118390278Y-50820625D01*
X118433134Y-51154000D01*
X118695692Y-51142906D01*
X118943219Y-51129063D01*
X119200758Y-51109911D01*
X119228125Y-51107504D01*
X119498000Y-51083197D01*
X119498000Y-50771484D01*
X119494511Y-50626835D01*
X119484935Y-50395511D01*
X119470611Y-50100597D01*
X119452878Y-49765182D01*
X119433077Y-49412353D01*
X119412544Y-49065197D01*
X119392620Y-48746801D01*
X119374643Y-48480252D01*
X119359953Y-48288638D01*
X119349889Y-48195046D01*
X119348261Y-48189679D01*
X119284839Y-48191090D01*
G36*
X121097158Y-48012716D02*
X120610599Y-48115095D01*
X120227022Y-48287982D01*
X119943918Y-48533221D01*
X119758777Y-48852658D01*
X119669090Y-49248136D01*
X119659234Y-49471250D01*
X119707195Y-49913951D01*
X119850153Y-50276747D01*
X120094871Y-50571083D01*
X120448115Y-50808399D01*
X120450500Y-50809635D01*
X120620301Y-50863361D01*
X120879731Y-50906289D01*
X121191684Y-50935846D01*
X121519056Y-50949460D01*
X121824743Y-50944560D01*
X122057626Y-50921035D01*
X122194996Y-50875388D01*
X122259666Y-50816045D01*
X122267726Y-50732900D01*
X122276970Y-50542334D01*
X122286745Y-50263912D01*
X122296396Y-49917199D01*
X122297461Y-49869717D01*
X121149000Y-49869717D01*
X121149000Y-50405767D01*
X120974375Y-50364743D01*
X120806767Y-50287332D01*
X120656875Y-50163818D01*
X120547368Y-49965380D01*
X120515585Y-49734666D01*
X120566604Y-49526110D01*
X120593375Y-49483155D01*
X120695517Y-49400679D01*
X120847758Y-49329205D01*
X121000337Y-49286565D01*
X121103493Y-49290592D01*
X121112471Y-49297136D01*
X121129145Y-49373290D01*
X121141826Y-49544457D01*
X121148476Y-49778665D01*
X121149000Y-49869717D01*
X122297461Y-49869717D01*
X122305269Y-49521760D01*
X122308349Y-49360125D01*
X122333368Y-47979000D01*
X121689210Y-47979000D01*
X121097158Y-48012716D01*
X121097158Y-48012716D01*
G37*
X121097158Y-48012716D02*
X120610599Y-48115095D01*
X120227022Y-48287982D01*
X119943918Y-48533221D01*
X119758777Y-48852658D01*
X119669090Y-49248136D01*
X119659234Y-49471250D01*
X119707195Y-49913951D01*
X119850153Y-50276747D01*
X120094871Y-50571083D01*
X120448115Y-50808399D01*
X120450500Y-50809635D01*
X120620301Y-50863361D01*
X120879731Y-50906289D01*
X121191684Y-50935846D01*
X121519056Y-50949460D01*
X121824743Y-50944560D01*
X122057626Y-50921035D01*
X122194996Y-50875388D01*
X122259666Y-50816045D01*
X122267726Y-50732900D01*
X122276970Y-50542334D01*
X122286745Y-50263912D01*
X122296396Y-49917199D01*
X122297461Y-49869717D01*
X121149000Y-49869717D01*
X121149000Y-50405767D01*
X120974375Y-50364743D01*
X120806767Y-50287332D01*
X120656875Y-50163818D01*
X120547368Y-49965380D01*
X120515585Y-49734666D01*
X120566604Y-49526110D01*
X120593375Y-49483155D01*
X120695517Y-49400679D01*
X120847758Y-49329205D01*
X121000337Y-49286565D01*
X121103493Y-49290592D01*
X121112471Y-49297136D01*
X121129145Y-49373290D01*
X121141826Y-49544457D01*
X121148476Y-49778665D01*
X121149000Y-49869717D01*
X122297461Y-49869717D01*
X122305269Y-49521760D01*
X122308349Y-49360125D01*
X122333368Y-47979000D01*
X121689210Y-47979000D01*
X121097158Y-48012716D01*
G36*
X124445778Y-48403388D02*
X124252966Y-48833130D01*
X124140294Y-48580690D01*
X124057381Y-48376661D01*
X123993541Y-48188375D01*
X123984101Y-48153625D01*
X123953550Y-48060046D01*
X123899704Y-48007762D01*
X123790886Y-47984783D01*
X123595417Y-47979117D01*
X123522768Y-47979000D01*
X123104956Y-47979000D01*
X123248885Y-48217125D01*
X123492131Y-48623982D01*
X123675835Y-48948208D01*
X123808488Y-49214412D01*
X123898581Y-49447203D01*
X123954604Y-49671190D01*
X123985048Y-49910983D01*
X123998403Y-50191192D01*
X124001865Y-50399566D01*
X124006500Y-50819883D01*
X124244625Y-50859242D01*
X124470785Y-50885895D01*
X124709048Y-50897395D01*
X124920776Y-50893812D01*
X125067334Y-50875217D01*
X125107167Y-50857666D01*
X125134622Y-50772502D01*
X125151164Y-50612082D01*
X125152841Y-50556041D01*
X125166200Y-50357658D01*
X125197804Y-50094365D01*
X125237322Y-49843759D01*
X125285255Y-49634609D01*
X125358764Y-49426522D01*
X125468647Y-49199614D01*
X125625706Y-48933999D01*
X125840741Y-48609792D01*
X126124552Y-48207109D01*
X126131505Y-48197421D01*
X126169757Y-48110356D01*
X126163255Y-48085901D01*
X126091918Y-48072222D01*
X125919791Y-48054494D01*
X125672919Y-48035038D01*
X125386170Y-48016678D01*
X124638590Y-47973647D01*
X124445778Y-48403388D01*
X124445778Y-48403388D01*
G37*
X124445778Y-48403388D02*
X124252966Y-48833130D01*
X124140294Y-48580690D01*
X124057381Y-48376661D01*
X123993541Y-48188375D01*
X123984101Y-48153625D01*
X123953550Y-48060046D01*
X123899704Y-48007762D01*
X123790886Y-47984783D01*
X123595417Y-47979117D01*
X123522768Y-47979000D01*
X123104956Y-47979000D01*
X123248885Y-48217125D01*
X123492131Y-48623982D01*
X123675835Y-48948208D01*
X123808488Y-49214412D01*
X123898581Y-49447203D01*
X123954604Y-49671190D01*
X123985048Y-49910983D01*
X123998403Y-50191192D01*
X124001865Y-50399566D01*
X124006500Y-50819883D01*
X124244625Y-50859242D01*
X124470785Y-50885895D01*
X124709048Y-50897395D01*
X124920776Y-50893812D01*
X125067334Y-50875217D01*
X125107167Y-50857666D01*
X125134622Y-50772502D01*
X125151164Y-50612082D01*
X125152841Y-50556041D01*
X125166200Y-50357658D01*
X125197804Y-50094365D01*
X125237322Y-49843759D01*
X125285255Y-49634609D01*
X125358764Y-49426522D01*
X125468647Y-49199614D01*
X125625706Y-48933999D01*
X125840741Y-48609792D01*
X126124552Y-48207109D01*
X126131505Y-48197421D01*
X126169757Y-48110356D01*
X126163255Y-48085901D01*
X126091918Y-48072222D01*
X125919791Y-48054494D01*
X125672919Y-48035038D01*
X125386170Y-48016678D01*
X124638590Y-47973647D01*
X124445778Y-48403388D01*
D14*
G36*
X126273000Y-95373000D02*
X119727000Y-95373000D01*
X119727000Y-92327000D01*
X126273000Y-92327000D01*
X126273000Y-95373000D01*
X126273000Y-95373000D01*
G37*
X126273000Y-95373000D02*
X119727000Y-95373000D01*
X119727000Y-92327000D01*
X126273000Y-92327000D01*
X126273000Y-95373000D01*
%LPC*%
D12*
X125857143Y-94207143D02*
X125642857Y-94278571D01*
X125285714Y-94278571D01*
X125142857Y-94207143D01*
X125071428Y-94135714D01*
X125000000Y-93992857D01*
X125000000Y-93850000D01*
X125071428Y-93707143D01*
X125142857Y-93635714D01*
X125285714Y-93564286D01*
X125571428Y-93492857D01*
X125714286Y-93421429D01*
X125785714Y-93350000D01*
X125857143Y-93207143D01*
X125857143Y-93064286D01*
X125785714Y-92921429D01*
X125714286Y-92850000D01*
X125571428Y-92778571D01*
X125214286Y-92778571D01*
X125000000Y-92850000D01*
X123785715Y-94207143D02*
X123928572Y-94278571D01*
X124214286Y-94278571D01*
X124357143Y-94207143D01*
X124428572Y-94064286D01*
X124428572Y-93492857D01*
X124357143Y-93350000D01*
X124214286Y-93278571D01*
X123928572Y-93278571D01*
X123785715Y-93350000D01*
X123714286Y-93492857D01*
X123714286Y-93635714D01*
X124428572Y-93778571D01*
X123285715Y-93278571D02*
X122714286Y-93278571D01*
X123071429Y-92778571D02*
X123071429Y-94064286D01*
X123000001Y-94207143D01*
X122857143Y-94278571D01*
X122714286Y-94278571D01*
X121571429Y-93278571D02*
X121571429Y-94278571D01*
X122214286Y-93278571D02*
X122214286Y-94064286D01*
X122142858Y-94207143D01*
X122000000Y-94278571D01*
X121785715Y-94278571D01*
X121642858Y-94207143D01*
X121571429Y-94135714D01*
X120857143Y-93278571D02*
X120857143Y-94778571D01*
X120857143Y-93350000D02*
X120714286Y-93278571D01*
X120428572Y-93278571D01*
X120285715Y-93350000D01*
X120214286Y-93421429D01*
X120142857Y-93564286D01*
X120142857Y-93992857D01*
X120214286Y-94135714D01*
X120285715Y-94207143D01*
X120428572Y-94278571D01*
X120714286Y-94278571D01*
X120857143Y-94207143D01*
D15*
X122750000Y-83250000D03*
X135750000Y-83250000D03*
X109750000Y-83250000D03*
X111300000Y-130700000D03*
D16*
X132500000Y-101500000D03*
X113500000Y-101500000D03*
D17*
X136000000Y-131500000D03*
X110000000Y-150000000D03*
X136000000Y-150000000D03*
X123000000Y-150000000D03*
D18*
X110400000Y-43000000D03*
X135700000Y-165500000D03*
M02*
