G04 #@! TF.FileFunction,Soldermask,Bot*
%FSLAX46Y46*%
G04 Gerber Fmt 4.6, Leading zero omitted, Abs format (unit mm)*
G04 Created by KiCad (PCBNEW 4.0.7) date 07/17/18 14:31:30*
%MOMM*%
%LPD*%
G01*
G04 APERTURE LIST*
%ADD10C,0.100000*%
%ADD11R,2.100000X2.100000*%
%ADD12C,2.100000*%
%ADD13C,2.200000*%
%ADD14R,2.200000X2.200000*%
%ADD15O,2.100000X2.100000*%
%ADD16C,2.150000*%
%ADD17O,4.400000X4.400000*%
%ADD18C,2.000000*%
%ADD19R,2.000000X2.000000*%
%ADD20C,4.400000*%
%ADD21R,2.600000X2.600000*%
%ADD22O,2.600000X2.600000*%
%ADD23R,2.900000X1.400000*%
%ADD24C,2.900000*%
G04 APERTURE END LIST*
D10*
D11*
X124000000Y-135000000D03*
D12*
X121460000Y-135000000D03*
X124000000Y-132460000D03*
X121460000Y-132460000D03*
X124000000Y-129920000D03*
X121460000Y-129920000D03*
X124000000Y-127380000D03*
X121460000Y-127380000D03*
X124000000Y-124840000D03*
X121460000Y-124840000D03*
D13*
X115100000Y-136500000D03*
X115100000Y-124900000D03*
D14*
X107500000Y-136500000D03*
D13*
X107500000Y-124900000D03*
D11*
X130620000Y-52120000D03*
D15*
X128080000Y-52120000D03*
X125540000Y-52120000D03*
X123000000Y-52120000D03*
X120460000Y-52120000D03*
X117920000Y-52120000D03*
X115380000Y-52120000D03*
D13*
X126600000Y-89000000D03*
X126600000Y-77400000D03*
D14*
X119000000Y-89000000D03*
D13*
X119000000Y-77400000D03*
X113600000Y-89000000D03*
X113600000Y-77400000D03*
D14*
X106000000Y-89000000D03*
D13*
X106000000Y-77400000D03*
X139600000Y-89000000D03*
X139600000Y-77400000D03*
D14*
X132000000Y-89000000D03*
D13*
X132000000Y-77400000D03*
D16*
X111000000Y-94000000D03*
X116000000Y-94000000D03*
X113500000Y-94000000D03*
X116000000Y-108500000D03*
X111000000Y-108500000D03*
D17*
X119700000Y-101500000D03*
X107300000Y-101500000D03*
D18*
X106490000Y-65000000D03*
X106490000Y-67540000D03*
X106490000Y-70080000D03*
X106490000Y-72620000D03*
X106490000Y-62460000D03*
X106490000Y-59920000D03*
X106490000Y-57380000D03*
X109030000Y-72620000D03*
X111570000Y-72620000D03*
X114110000Y-72620000D03*
X116650000Y-72620000D03*
X119190000Y-72620000D03*
X121730000Y-72620000D03*
X124270000Y-72620000D03*
X126810000Y-72620000D03*
X129350000Y-72620000D03*
X131890000Y-72620000D03*
X134430000Y-72620000D03*
X136970000Y-72620000D03*
X139510000Y-72620000D03*
X109030000Y-57380000D03*
X111570000Y-57380000D03*
X114110000Y-57380000D03*
X116650000Y-57380000D03*
X119190000Y-57380000D03*
X121730000Y-57380000D03*
X124270000Y-57380000D03*
X126810000Y-57380000D03*
X129350000Y-57380000D03*
X131890000Y-57380000D03*
X134430000Y-57380000D03*
X136970000Y-57380000D03*
D19*
X139510000Y-57380000D03*
D13*
X130000000Y-94000000D03*
X132500000Y-94000000D03*
X135000000Y-94000000D03*
D20*
X128100000Y-101000000D03*
X136900000Y-101000000D03*
D21*
X131500000Y-140500000D03*
D22*
X139120000Y-140500000D03*
D21*
X106000000Y-140000000D03*
D22*
X113620000Y-140000000D03*
D19*
X138000000Y-111500000D03*
D18*
X140000000Y-111500000D03*
D19*
X110000000Y-120000000D03*
D18*
X112000000Y-120000000D03*
D23*
X123000000Y-145080000D03*
X123000000Y-153380000D03*
X123000000Y-156480000D03*
D24*
X123000000Y-150000000D03*
D23*
X136000000Y-145080000D03*
X136000000Y-153380000D03*
X136000000Y-156480000D03*
D24*
X136000000Y-150000000D03*
D23*
X136000000Y-126580000D03*
X136000000Y-134880000D03*
X136000000Y-137980000D03*
D24*
X136000000Y-131500000D03*
D23*
X110000000Y-145080000D03*
X110000000Y-153380000D03*
X110000000Y-156480000D03*
D24*
X110000000Y-150000000D03*
M02*
