G04 #@! TF.FileFunction,Legend,Bot*
%FSLAX46Y46*%
G04 Gerber Fmt 4.6, Leading zero omitted, Abs format (unit mm)*
G04 Created by KiCad (PCBNEW 4.0.7) date 07/17/18 14:31:30*
%MOMM*%
%LPD*%
G01*
G04 APERTURE LIST*
%ADD10C,0.100000*%
%ADD11C,0.120000*%
%ADD12C,0.200000*%
%ADD13C,0.150000*%
G04 APERTURE END LIST*
D10*
D11*
X116000000Y-135950000D02*
X116550000Y-135950000D01*
X116550000Y-135950000D02*
X116550000Y-134700000D01*
X116000000Y-125450000D02*
X116550000Y-125450000D01*
X116550000Y-125450000D02*
X116550000Y-126700000D01*
X106600000Y-135950000D02*
X106050000Y-135950000D01*
X106050000Y-135950000D02*
X106050000Y-130700000D01*
X106600000Y-125450000D02*
X106050000Y-125450000D01*
X106050000Y-125450000D02*
X106050000Y-126700000D01*
X129350000Y-53450000D02*
X114050000Y-53450000D01*
X114050000Y-53450000D02*
X114050000Y-50790000D01*
X114050000Y-50790000D02*
X129350000Y-50790000D01*
X129350000Y-50790000D02*
X129350000Y-53450000D01*
X130620000Y-53450000D02*
X131950000Y-53450000D01*
X131950000Y-53450000D02*
X131950000Y-52120000D01*
X127500000Y-88450000D02*
X128050000Y-88450000D01*
X128050000Y-88450000D02*
X128050000Y-87200000D01*
X127500000Y-77950000D02*
X128050000Y-77950000D01*
X128050000Y-77950000D02*
X128050000Y-79200000D01*
X118100000Y-88450000D02*
X117550000Y-88450000D01*
X117550000Y-88450000D02*
X117550000Y-83200000D01*
X118100000Y-77950000D02*
X117550000Y-77950000D01*
X117550000Y-77950000D02*
X117550000Y-79200000D01*
X114500000Y-88450000D02*
X115050000Y-88450000D01*
X115050000Y-88450000D02*
X115050000Y-87200000D01*
X114500000Y-77950000D02*
X115050000Y-77950000D01*
X115050000Y-77950000D02*
X115050000Y-79200000D01*
X105100000Y-88450000D02*
X104550000Y-88450000D01*
X104550000Y-88450000D02*
X104550000Y-83200000D01*
X105100000Y-77950000D02*
X104550000Y-77950000D01*
X104550000Y-77950000D02*
X104550000Y-79200000D01*
X140500000Y-88450000D02*
X141050000Y-88450000D01*
X141050000Y-88450000D02*
X141050000Y-87200000D01*
X140500000Y-77950000D02*
X141050000Y-77950000D01*
X141050000Y-77950000D02*
X141050000Y-79200000D01*
X131100000Y-88450000D02*
X130550000Y-88450000D01*
X130550000Y-88450000D02*
X130550000Y-83200000D01*
X131100000Y-77950000D02*
X130550000Y-77950000D01*
X130550000Y-77950000D02*
X130550000Y-79200000D01*
D12*
X109900000Y-96350000D02*
G75*
G03X109900000Y-96350000I-500000J0D01*
G01*
X118100000Y-96350000D02*
G75*
G03X118100000Y-96350000I-500000J0D01*
G01*
X118100000Y-106550000D02*
G75*
G03X118100000Y-106550000I-500000J0D01*
G01*
X109900000Y-106550000D02*
G75*
G03X109900000Y-106550000I-500000J0D01*
G01*
X107300000Y-95700000D02*
X107300000Y-107300000D01*
X119700000Y-107300000D02*
X119700000Y-95700000D01*
X108100000Y-108100000D02*
X118900000Y-108100000D01*
X108100000Y-94900000D02*
X118900000Y-94900000D01*
X108100000Y-108100000D02*
G75*
G02X107300000Y-107300000I0J800000D01*
G01*
X107300000Y-95700000D02*
G75*
G02X108100000Y-94900000I800000J0D01*
G01*
X118900000Y-94900000D02*
G75*
G02X119700000Y-95700000I0J-800000D01*
G01*
X119700000Y-107300000D02*
G75*
G02X118900000Y-108100000I-800000J0D01*
G01*
X110900000Y-103000000D02*
X116100000Y-103000000D01*
X116500000Y-101500000D02*
G75*
G03X116500000Y-101500000I-3000000J0D01*
G01*
D11*
X129737568Y-102671982D02*
G75*
G03X135262000Y-102673000I2762432J1171982D01*
G01*
X134797753Y-99571705D02*
G75*
G03X130202000Y-99572000I-2297753J-1928295D01*
G01*
X127539000Y-94940000D02*
X127539000Y-98806000D01*
X127539000Y-103195000D02*
X127539000Y-107060000D01*
X137460000Y-94940000D02*
X137460000Y-98806000D01*
X137460000Y-103195000D02*
X137460000Y-107060000D01*
X127539000Y-94940000D02*
X129175000Y-94940000D01*
X130825000Y-94940000D02*
X131675000Y-94940000D01*
X133325000Y-94940000D02*
X134175000Y-94940000D01*
X135825000Y-94940000D02*
X137460000Y-94940000D01*
X127539000Y-107060000D02*
X137460000Y-107060000D01*
D13*
X127445000Y-153810000D02*
X124905000Y-153810000D01*
X124905000Y-153810000D02*
X124905000Y-154445000D01*
X124905000Y-154445000D02*
X121095000Y-154445000D01*
X121095000Y-154445000D02*
X121095000Y-153810000D01*
X121095000Y-153810000D02*
X118555000Y-153810000D01*
X121095000Y-151905000D02*
G75*
G02X121095000Y-148095000I1905000J1905000D01*
G01*
X124905000Y-148095000D02*
G75*
G02X124905000Y-151905000I-1905000J-1905000D01*
G01*
X121095000Y-151905000D02*
X124905000Y-151905000D01*
X124905000Y-148095000D02*
X121095000Y-148095000D01*
X124796051Y-150000000D02*
G75*
G03X124796051Y-150000000I-1796051J0D01*
G01*
X118500000Y-144000000D02*
X118500000Y-154500000D01*
X127500000Y-144000000D02*
X127500000Y-154500000D01*
X127500000Y-154500000D02*
X118500000Y-154500000D01*
X127500000Y-144000000D02*
X118500000Y-144000000D01*
X124300000Y-150000000D02*
G75*
G03X124300000Y-150000000I-1300000J0D01*
G01*
X140445000Y-153810000D02*
X137905000Y-153810000D01*
X137905000Y-153810000D02*
X137905000Y-154445000D01*
X137905000Y-154445000D02*
X134095000Y-154445000D01*
X134095000Y-154445000D02*
X134095000Y-153810000D01*
X134095000Y-153810000D02*
X131555000Y-153810000D01*
X134095000Y-151905000D02*
G75*
G02X134095000Y-148095000I1905000J1905000D01*
G01*
X137905000Y-148095000D02*
G75*
G02X137905000Y-151905000I-1905000J-1905000D01*
G01*
X134095000Y-151905000D02*
X137905000Y-151905000D01*
X137905000Y-148095000D02*
X134095000Y-148095000D01*
X137796051Y-150000000D02*
G75*
G03X137796051Y-150000000I-1796051J0D01*
G01*
X131500000Y-144000000D02*
X131500000Y-154500000D01*
X140500000Y-144000000D02*
X140500000Y-154500000D01*
X140500000Y-154500000D02*
X131500000Y-154500000D01*
X140500000Y-144000000D02*
X131500000Y-144000000D01*
X137300000Y-150000000D02*
G75*
G03X137300000Y-150000000I-1300000J0D01*
G01*
X140445000Y-135310000D02*
X137905000Y-135310000D01*
X137905000Y-135310000D02*
X137905000Y-135945000D01*
X137905000Y-135945000D02*
X134095000Y-135945000D01*
X134095000Y-135945000D02*
X134095000Y-135310000D01*
X134095000Y-135310000D02*
X131555000Y-135310000D01*
X134095000Y-133405000D02*
G75*
G02X134095000Y-129595000I1905000J1905000D01*
G01*
X137905000Y-129595000D02*
G75*
G02X137905000Y-133405000I-1905000J-1905000D01*
G01*
X134095000Y-133405000D02*
X137905000Y-133405000D01*
X137905000Y-129595000D02*
X134095000Y-129595000D01*
X137796051Y-131500000D02*
G75*
G03X137796051Y-131500000I-1796051J0D01*
G01*
X131500000Y-125500000D02*
X131500000Y-136000000D01*
X140500000Y-125500000D02*
X140500000Y-136000000D01*
X140500000Y-136000000D02*
X131500000Y-136000000D01*
X140500000Y-125500000D02*
X131500000Y-125500000D01*
X137300000Y-131500000D02*
G75*
G03X137300000Y-131500000I-1300000J0D01*
G01*
X114445000Y-153810000D02*
X111905000Y-153810000D01*
X111905000Y-153810000D02*
X111905000Y-154445000D01*
X111905000Y-154445000D02*
X108095000Y-154445000D01*
X108095000Y-154445000D02*
X108095000Y-153810000D01*
X108095000Y-153810000D02*
X105555000Y-153810000D01*
X108095000Y-151905000D02*
G75*
G02X108095000Y-148095000I1905000J1905000D01*
G01*
X111905000Y-148095000D02*
G75*
G02X111905000Y-151905000I-1905000J-1905000D01*
G01*
X108095000Y-151905000D02*
X111905000Y-151905000D01*
X111905000Y-148095000D02*
X108095000Y-148095000D01*
X111796051Y-150000000D02*
G75*
G03X111796051Y-150000000I-1796051J0D01*
G01*
X105500000Y-144000000D02*
X105500000Y-154500000D01*
X114500000Y-144000000D02*
X114500000Y-154500000D01*
X114500000Y-154500000D02*
X105500000Y-154500000D01*
X114500000Y-144000000D02*
X105500000Y-144000000D01*
X111300000Y-150000000D02*
G75*
G03X111300000Y-150000000I-1300000J0D01*
G01*
X114071429Y-130666667D02*
X113595238Y-130666667D01*
X114166667Y-130952381D02*
X113833334Y-129952381D01*
X113500000Y-130952381D01*
X112738095Y-130904762D02*
X112833333Y-130952381D01*
X113023810Y-130952381D01*
X113119048Y-130904762D01*
X113166667Y-130857143D01*
X113214286Y-130761905D01*
X113214286Y-130476190D01*
X113166667Y-130380952D01*
X113119048Y-130333333D01*
X113023810Y-130285714D01*
X112833333Y-130285714D01*
X112738095Y-130333333D01*
X112452381Y-130285714D02*
X112071429Y-130285714D01*
X112309524Y-129952381D02*
X112309524Y-130809524D01*
X112261905Y-130904762D01*
X112166667Y-130952381D01*
X112071429Y-130952381D01*
X111738095Y-130952381D02*
X111738095Y-130285714D01*
X111738095Y-129952381D02*
X111785714Y-130000000D01*
X111738095Y-130047619D01*
X111690476Y-130000000D01*
X111738095Y-129952381D01*
X111738095Y-130047619D01*
X111119048Y-130952381D02*
X111214286Y-130904762D01*
X111261905Y-130857143D01*
X111309524Y-130761905D01*
X111309524Y-130476190D01*
X111261905Y-130380952D01*
X111214286Y-130333333D01*
X111119048Y-130285714D01*
X110976190Y-130285714D01*
X110880952Y-130333333D01*
X110833333Y-130380952D01*
X110785714Y-130476190D01*
X110785714Y-130761905D01*
X110833333Y-130857143D01*
X110880952Y-130904762D01*
X110976190Y-130952381D01*
X111119048Y-130952381D01*
X110357143Y-130285714D02*
X110357143Y-130952381D01*
X110357143Y-130380952D02*
X110309524Y-130333333D01*
X110214286Y-130285714D01*
X110071428Y-130285714D01*
X109976190Y-130333333D01*
X109928571Y-130428571D01*
X109928571Y-130952381D01*
X108928571Y-130952381D02*
X109500000Y-130952381D01*
X109214286Y-130952381D02*
X109214286Y-129952381D01*
X109309524Y-130095238D01*
X109404762Y-130190476D01*
X109500000Y-130238095D01*
X128413333Y-49032381D02*
X128413333Y-49746667D01*
X128460953Y-49889524D01*
X128556191Y-49984762D01*
X128699048Y-50032381D01*
X128794286Y-50032381D01*
X127508571Y-49365714D02*
X127508571Y-50032381D01*
X127746667Y-48984762D02*
X127984762Y-49699048D01*
X127365714Y-49699048D01*
X124500000Y-83952381D02*
X124976191Y-83952381D01*
X124976191Y-82952381D01*
X123738095Y-83952381D02*
X123738095Y-83428571D01*
X123785714Y-83333333D01*
X123880952Y-83285714D01*
X124071429Y-83285714D01*
X124166667Y-83333333D01*
X123738095Y-83904762D02*
X123833333Y-83952381D01*
X124071429Y-83952381D01*
X124166667Y-83904762D01*
X124214286Y-83809524D01*
X124214286Y-83714286D01*
X124166667Y-83619048D01*
X124071429Y-83571429D01*
X123833333Y-83571429D01*
X123738095Y-83523810D01*
X123261905Y-83285714D02*
X123261905Y-83952381D01*
X123261905Y-83380952D02*
X123214286Y-83333333D01*
X123119048Y-83285714D01*
X122976190Y-83285714D01*
X122880952Y-83333333D01*
X122833333Y-83428571D01*
X122833333Y-83952381D01*
X121976190Y-83904762D02*
X122071428Y-83952381D01*
X122261905Y-83952381D01*
X122357143Y-83904762D01*
X122404762Y-83809524D01*
X122404762Y-83428571D01*
X122357143Y-83333333D01*
X122261905Y-83285714D01*
X122071428Y-83285714D01*
X121976190Y-83333333D01*
X121928571Y-83428571D01*
X121928571Y-83523810D01*
X122404762Y-83619048D01*
X120976190Y-83952381D02*
X121547619Y-83952381D01*
X121261905Y-83952381D02*
X121261905Y-82952381D01*
X121357143Y-83095238D01*
X121452381Y-83190476D01*
X121547619Y-83238095D01*
X111595238Y-83952381D02*
X111928572Y-83476190D01*
X112166667Y-83952381D02*
X112166667Y-82952381D01*
X111785714Y-82952381D01*
X111690476Y-83000000D01*
X111642857Y-83047619D01*
X111595238Y-83142857D01*
X111595238Y-83285714D01*
X111642857Y-83380952D01*
X111690476Y-83428571D01*
X111785714Y-83476190D01*
X112166667Y-83476190D01*
X111166667Y-83952381D02*
X111166667Y-83285714D01*
X111166667Y-82952381D02*
X111214286Y-83000000D01*
X111166667Y-83047619D01*
X111119048Y-83000000D01*
X111166667Y-82952381D01*
X111166667Y-83047619D01*
X110261905Y-83285714D02*
X110261905Y-84095238D01*
X110309524Y-84190476D01*
X110357143Y-84238095D01*
X110452382Y-84285714D01*
X110595239Y-84285714D01*
X110690477Y-84238095D01*
X110261905Y-83904762D02*
X110357143Y-83952381D01*
X110547620Y-83952381D01*
X110642858Y-83904762D01*
X110690477Y-83857143D01*
X110738096Y-83761905D01*
X110738096Y-83476190D01*
X110690477Y-83380952D01*
X110642858Y-83333333D01*
X110547620Y-83285714D01*
X110357143Y-83285714D01*
X110261905Y-83333333D01*
X109785715Y-83952381D02*
X109785715Y-82952381D01*
X109357143Y-83952381D02*
X109357143Y-83428571D01*
X109404762Y-83333333D01*
X109500000Y-83285714D01*
X109642858Y-83285714D01*
X109738096Y-83333333D01*
X109785715Y-83380952D01*
X109023810Y-83285714D02*
X108642858Y-83285714D01*
X108880953Y-82952381D02*
X108880953Y-83809524D01*
X108833334Y-83904762D01*
X108738096Y-83952381D01*
X108642858Y-83952381D01*
X107785714Y-83952381D02*
X108357143Y-83952381D01*
X108071429Y-83952381D02*
X108071429Y-82952381D01*
X108166667Y-83095238D01*
X108261905Y-83190476D01*
X108357143Y-83238095D01*
X137166667Y-83952381D02*
X137642858Y-83952381D01*
X137642858Y-82952381D01*
X136452381Y-83904762D02*
X136547619Y-83952381D01*
X136738096Y-83952381D01*
X136833334Y-83904762D01*
X136880953Y-83809524D01*
X136880953Y-83428571D01*
X136833334Y-83333333D01*
X136738096Y-83285714D01*
X136547619Y-83285714D01*
X136452381Y-83333333D01*
X136404762Y-83428571D01*
X136404762Y-83523810D01*
X136880953Y-83619048D01*
X136119048Y-83285714D02*
X135738096Y-83285714D01*
X135976191Y-83952381D02*
X135976191Y-83095238D01*
X135928572Y-83000000D01*
X135833334Y-82952381D01*
X135738096Y-82952381D01*
X135547619Y-83285714D02*
X135166667Y-83285714D01*
X135404762Y-82952381D02*
X135404762Y-83809524D01*
X135357143Y-83904762D01*
X135261905Y-83952381D01*
X135166667Y-83952381D01*
X134309523Y-83952381D02*
X134880952Y-83952381D01*
X134595238Y-83952381D02*
X134595238Y-82952381D01*
X134690476Y-83095238D01*
X134785714Y-83190476D01*
X134880952Y-83238095D01*
D12*
X116714286Y-110428571D02*
X116380952Y-110428571D01*
X116238095Y-110952381D02*
X116714286Y-110952381D01*
X116714286Y-109952381D01*
X116238095Y-109952381D01*
X115809524Y-110285714D02*
X115809524Y-110952381D01*
X115809524Y-110380952D02*
X115761905Y-110333333D01*
X115666667Y-110285714D01*
X115523809Y-110285714D01*
X115428571Y-110333333D01*
X115380952Y-110428571D01*
X115380952Y-110952381D01*
X114476190Y-110904762D02*
X114571428Y-110952381D01*
X114761905Y-110952381D01*
X114857143Y-110904762D01*
X114904762Y-110857143D01*
X114952381Y-110761905D01*
X114952381Y-110476190D01*
X114904762Y-110380952D01*
X114857143Y-110333333D01*
X114761905Y-110285714D01*
X114571428Y-110285714D01*
X114476190Y-110333333D01*
X113904762Y-110952381D02*
X114000000Y-110904762D01*
X114047619Y-110857143D01*
X114095238Y-110761905D01*
X114095238Y-110476190D01*
X114047619Y-110380952D01*
X114000000Y-110333333D01*
X113904762Y-110285714D01*
X113761904Y-110285714D01*
X113666666Y-110333333D01*
X113619047Y-110380952D01*
X113571428Y-110476190D01*
X113571428Y-110761905D01*
X113619047Y-110857143D01*
X113666666Y-110904762D01*
X113761904Y-110952381D01*
X113904762Y-110952381D01*
X112714285Y-110952381D02*
X112714285Y-109952381D01*
X112714285Y-110904762D02*
X112809523Y-110952381D01*
X113000000Y-110952381D01*
X113095238Y-110904762D01*
X113142857Y-110857143D01*
X113190476Y-110761905D01*
X113190476Y-110476190D01*
X113142857Y-110380952D01*
X113095238Y-110333333D01*
X113000000Y-110285714D01*
X112809523Y-110285714D01*
X112714285Y-110333333D01*
X111857142Y-110904762D02*
X111952380Y-110952381D01*
X112142857Y-110952381D01*
X112238095Y-110904762D01*
X112285714Y-110809524D01*
X112285714Y-110428571D01*
X112238095Y-110333333D01*
X112142857Y-110285714D01*
X111952380Y-110285714D01*
X111857142Y-110333333D01*
X111809523Y-110428571D01*
X111809523Y-110523810D01*
X112285714Y-110619048D01*
X111380952Y-110952381D02*
X111380952Y-110285714D01*
X111380952Y-110476190D02*
X111333333Y-110380952D01*
X111285714Y-110333333D01*
X111190476Y-110285714D01*
X111095237Y-110285714D01*
X110238094Y-110952381D02*
X110809523Y-110952381D01*
X110523809Y-110952381D02*
X110523809Y-109952381D01*
X110619047Y-110095238D01*
X110714285Y-110190476D01*
X110809523Y-110238095D01*
D13*
X135261905Y-107952381D02*
X134690476Y-107952381D01*
X134976191Y-108952381D02*
X134976191Y-107952381D01*
X133976190Y-108904762D02*
X134071428Y-108952381D01*
X134261905Y-108952381D01*
X134357143Y-108904762D01*
X134404762Y-108809524D01*
X134404762Y-108428571D01*
X134357143Y-108333333D01*
X134261905Y-108285714D01*
X134071428Y-108285714D01*
X133976190Y-108333333D01*
X133928571Y-108428571D01*
X133928571Y-108523810D01*
X134404762Y-108619048D01*
X133500000Y-108952381D02*
X133500000Y-108285714D01*
X133500000Y-108380952D02*
X133452381Y-108333333D01*
X133357143Y-108285714D01*
X133214285Y-108285714D01*
X133119047Y-108333333D01*
X133071428Y-108428571D01*
X133071428Y-108952381D01*
X133071428Y-108428571D02*
X133023809Y-108333333D01*
X132928571Y-108285714D01*
X132785714Y-108285714D01*
X132690476Y-108333333D01*
X132642857Y-108428571D01*
X132642857Y-108952381D01*
X132166667Y-108285714D02*
X132166667Y-109285714D01*
X132166667Y-108333333D02*
X132071429Y-108285714D01*
X131880952Y-108285714D01*
X131785714Y-108333333D01*
X131738095Y-108380952D01*
X131690476Y-108476190D01*
X131690476Y-108761905D01*
X131738095Y-108857143D01*
X131785714Y-108904762D01*
X131880952Y-108952381D01*
X132071429Y-108952381D01*
X132166667Y-108904762D01*
X131119048Y-108952381D02*
X131214286Y-108904762D01*
X131261905Y-108857143D01*
X131309524Y-108761905D01*
X131309524Y-108476190D01*
X131261905Y-108380952D01*
X131214286Y-108333333D01*
X131119048Y-108285714D01*
X130976190Y-108285714D01*
X130880952Y-108333333D01*
X130833333Y-108380952D01*
X130785714Y-108476190D01*
X130785714Y-108761905D01*
X130833333Y-108857143D01*
X130880952Y-108904762D01*
X130976190Y-108952381D01*
X131119048Y-108952381D01*
X129833333Y-108952381D02*
X130404762Y-108952381D01*
X130119048Y-108952381D02*
X130119048Y-107952381D01*
X130214286Y-108095238D01*
X130309524Y-108190476D01*
X130404762Y-108238095D01*
X123333333Y-142452381D02*
X123333333Y-143166667D01*
X123380953Y-143309524D01*
X123476191Y-143404762D01*
X123619048Y-143452381D01*
X123714286Y-143452381D01*
X122380952Y-142452381D02*
X122857143Y-142452381D01*
X122904762Y-142928571D01*
X122857143Y-142880952D01*
X122761905Y-142833333D01*
X122523809Y-142833333D01*
X122428571Y-142880952D01*
X122380952Y-142928571D01*
X122333333Y-143023810D01*
X122333333Y-143261905D01*
X122380952Y-143357143D01*
X122428571Y-143404762D01*
X122523809Y-143452381D01*
X122761905Y-143452381D01*
X122857143Y-143404762D01*
X122904762Y-143357143D01*
X136333333Y-142452381D02*
X136333333Y-143166667D01*
X136380953Y-143309524D01*
X136476191Y-143404762D01*
X136619048Y-143452381D01*
X136714286Y-143452381D01*
X135333333Y-143452381D02*
X135904762Y-143452381D01*
X135619048Y-143452381D02*
X135619048Y-142452381D01*
X135714286Y-142595238D01*
X135809524Y-142690476D01*
X135904762Y-142738095D01*
X136333333Y-123952381D02*
X136333333Y-124666667D01*
X136380953Y-124809524D01*
X136476191Y-124904762D01*
X136619048Y-124952381D01*
X136714286Y-124952381D01*
X135952381Y-123952381D02*
X135333333Y-123952381D01*
X135666667Y-124333333D01*
X135523809Y-124333333D01*
X135428571Y-124380952D01*
X135380952Y-124428571D01*
X135333333Y-124523810D01*
X135333333Y-124761905D01*
X135380952Y-124857143D01*
X135428571Y-124904762D01*
X135523809Y-124952381D01*
X135809524Y-124952381D01*
X135904762Y-124904762D01*
X135952381Y-124857143D01*
X110833333Y-142452381D02*
X110833333Y-143166667D01*
X110880953Y-143309524D01*
X110976191Y-143404762D01*
X111119048Y-143452381D01*
X111214286Y-143452381D01*
X109928571Y-142452381D02*
X110119048Y-142452381D01*
X110214286Y-142500000D01*
X110261905Y-142547619D01*
X110357143Y-142690476D01*
X110404762Y-142880952D01*
X110404762Y-143261905D01*
X110357143Y-143357143D01*
X110309524Y-143404762D01*
X110214286Y-143452381D01*
X110023809Y-143452381D01*
X109928571Y-143404762D01*
X109880952Y-143357143D01*
X109833333Y-143261905D01*
X109833333Y-143023810D01*
X109880952Y-142928571D01*
X109928571Y-142880952D01*
X110023809Y-142833333D01*
X110214286Y-142833333D01*
X110309524Y-142880952D01*
X110357143Y-142928571D01*
X110404762Y-143023810D01*
M02*
