G04 #@! TF.FileFunction,Copper,L2,Bot,Signal*
%FSLAX46Y46*%
G04 Gerber Fmt 4.6, Leading zero omitted, Abs format (unit mm)*
G04 Created by KiCad (PCBNEW 4.0.7) date 07/21/18 13:32:25*
%MOMM*%
%LPD*%
G01*
G04 APERTURE LIST*
%ADD10C,0.100000*%
%ADD11R,1.700000X1.700000*%
%ADD12C,1.700000*%
%ADD13C,1.800000*%
%ADD14R,1.800000X1.800000*%
%ADD15O,1.700000X1.700000*%
%ADD16C,1.750000*%
%ADD17O,4.000000X4.000000*%
%ADD18C,1.600000*%
%ADD19R,1.600000X1.600000*%
%ADD20C,4.000000*%
%ADD21R,2.200000X2.200000*%
%ADD22O,2.200000X2.200000*%
%ADD23R,2.500000X1.000000*%
%ADD24C,0.600000*%
%ADD25C,0.250000*%
G04 APERTURE END LIST*
D10*
D11*
X124000000Y-135000000D03*
D12*
X121460000Y-135000000D03*
X124000000Y-132460000D03*
X121460000Y-132460000D03*
X124000000Y-129920000D03*
X121460000Y-129920000D03*
X124000000Y-127380000D03*
X121460000Y-127380000D03*
X124000000Y-124840000D03*
X121460000Y-124840000D03*
D13*
X115100000Y-136500000D03*
X115100000Y-124900000D03*
D14*
X107500000Y-136500000D03*
D13*
X107500000Y-124900000D03*
D11*
X130620000Y-52120000D03*
D15*
X128080000Y-52120000D03*
X125540000Y-52120000D03*
X123000000Y-52120000D03*
X120460000Y-52120000D03*
X117920000Y-52120000D03*
X115380000Y-52120000D03*
D13*
X126600000Y-89000000D03*
X126600000Y-77400000D03*
D14*
X119000000Y-89000000D03*
D13*
X119000000Y-77400000D03*
X113600000Y-89000000D03*
X113600000Y-77400000D03*
D14*
X106000000Y-89000000D03*
D13*
X106000000Y-77400000D03*
X139600000Y-89000000D03*
X139600000Y-77400000D03*
D14*
X132000000Y-89000000D03*
D13*
X132000000Y-77400000D03*
D16*
X111000000Y-94000000D03*
X116000000Y-94000000D03*
X113500000Y-94000000D03*
X116000000Y-108500000D03*
X111000000Y-108500000D03*
D17*
X119700000Y-101500000D03*
X107300000Y-101500000D03*
D18*
X106490000Y-65000000D03*
X106490000Y-67540000D03*
X106490000Y-70080000D03*
X106490000Y-72620000D03*
X106490000Y-62460000D03*
X106490000Y-59920000D03*
X106490000Y-57380000D03*
X109030000Y-72620000D03*
X111570000Y-72620000D03*
X114110000Y-72620000D03*
X116650000Y-72620000D03*
X119190000Y-72620000D03*
X121730000Y-72620000D03*
X124270000Y-72620000D03*
X126810000Y-72620000D03*
X129350000Y-72620000D03*
X131890000Y-72620000D03*
X134430000Y-72620000D03*
X136970000Y-72620000D03*
X139510000Y-72620000D03*
X109030000Y-57380000D03*
X111570000Y-57380000D03*
X114110000Y-57380000D03*
X116650000Y-57380000D03*
X119190000Y-57380000D03*
X121730000Y-57380000D03*
X124270000Y-57380000D03*
X126810000Y-57380000D03*
X129350000Y-57380000D03*
X131890000Y-57380000D03*
X134430000Y-57380000D03*
X136970000Y-57380000D03*
D19*
X139510000Y-57380000D03*
D13*
X130000000Y-94000000D03*
X132500000Y-94000000D03*
X135000000Y-94000000D03*
D20*
X128100000Y-101000000D03*
X136900000Y-101000000D03*
D21*
X131500000Y-140500000D03*
D22*
X139120000Y-140500000D03*
D21*
X106000000Y-140000000D03*
D22*
X113620000Y-140000000D03*
D19*
X138000000Y-111500000D03*
D18*
X140000000Y-111500000D03*
D19*
X110000000Y-120000000D03*
D18*
X112000000Y-120000000D03*
D23*
X123000000Y-145080000D03*
X123000000Y-153380000D03*
X123000000Y-156480000D03*
X136000000Y-145080000D03*
X136000000Y-153380000D03*
X136000000Y-156480000D03*
X136000000Y-126580000D03*
X136000000Y-134880000D03*
X136000000Y-137980000D03*
X110000000Y-145080000D03*
X110000000Y-153380000D03*
X110000000Y-156480000D03*
D24*
X104000000Y-142500000D03*
X130000000Y-109500000D03*
X123500000Y-108500000D03*
X134500000Y-109000000D03*
X119500000Y-118000000D03*
X107000000Y-117500000D03*
D25*
X109030000Y-94970000D02*
X104500000Y-99500000D01*
X104500000Y-99500000D02*
X104000000Y-100000000D01*
X104000000Y-100000000D02*
X104000000Y-142500000D01*
X109030000Y-94970000D02*
X109030000Y-72620000D01*
X138000000Y-111500000D02*
X132000000Y-111500000D01*
X132000000Y-111500000D02*
X130000000Y-109500000D01*
X116000000Y-108500000D02*
X116000000Y-116000000D01*
X116000000Y-116000000D02*
X112000000Y-120000000D01*
X107500000Y-124900000D02*
X107500000Y-123000000D01*
X124270000Y-88730000D02*
X124270000Y-72620000D01*
X105000000Y-108000000D02*
X124270000Y-88730000D01*
X105000000Y-120500000D02*
X105000000Y-108000000D01*
X107500000Y-123000000D02*
X105000000Y-120500000D01*
X140000000Y-111500000D02*
X140000000Y-112000000D01*
X140000000Y-112000000D02*
X138000000Y-114000000D01*
X129000000Y-114000000D02*
X123500000Y-108500000D01*
X138000000Y-114000000D02*
X129000000Y-114000000D01*
X140000000Y-111500000D02*
X140000000Y-139620000D01*
X140000000Y-139620000D02*
X139120000Y-140500000D01*
X139510000Y-72620000D02*
X139510000Y-73990000D01*
X140000000Y-103500000D02*
X134500000Y-109000000D01*
X140000000Y-99500000D02*
X140000000Y-103500000D01*
X137000000Y-96500000D02*
X140000000Y-99500000D01*
X137000000Y-76500000D02*
X137000000Y-96500000D01*
X139510000Y-73990000D02*
X137000000Y-76500000D01*
X119500000Y-142500000D02*
X122080000Y-145080000D01*
X119500000Y-139000000D02*
X119500000Y-142500000D01*
X119500000Y-118000000D02*
X119500000Y-139000000D01*
X122080000Y-145080000D02*
X123000000Y-145080000D01*
X123000000Y-145080000D02*
X122580000Y-145080000D01*
X110000000Y-123500000D02*
X110000000Y-145080000D01*
X107000000Y-120500000D02*
X110000000Y-123500000D01*
X107000000Y-120000000D02*
X107000000Y-120500000D01*
X107000000Y-117500000D02*
X107000000Y-120000000D01*
X129350000Y-74750000D02*
X132000000Y-77400000D01*
X129350000Y-72620000D02*
X129350000Y-74750000D01*
M02*
