G04 #@! TF.FileFunction,Legend,Top*
%FSLAX46Y46*%
G04 Gerber Fmt 4.6, Leading zero omitted, Abs format (unit mm)*
G04 Created by KiCad (PCBNEW 4.0.7) date 07/17/18 14:31:30*
%MOMM*%
%LPD*%
G01*
G04 APERTURE LIST*
%ADD10C,0.100000*%
%ADD11C,0.150000*%
%ADD12C,0.300000*%
%ADD13C,0.120000*%
G04 APERTURE END LIST*
D10*
D11*
X121166667Y-122571429D02*
X121928572Y-122571429D01*
X121547620Y-122952381D02*
X121547620Y-122190476D01*
X122928572Y-122952381D02*
X122357143Y-122952381D01*
X122642857Y-122952381D02*
X122642857Y-121952381D01*
X122547619Y-122095238D01*
X122452381Y-122190476D01*
X122357143Y-122238095D01*
X123309524Y-122047619D02*
X123357143Y-122000000D01*
X123452381Y-121952381D01*
X123690477Y-121952381D01*
X123785715Y-122000000D01*
X123833334Y-122047619D01*
X123880953Y-122142857D01*
X123880953Y-122238095D01*
X123833334Y-122380952D01*
X123261905Y-122952381D01*
X123880953Y-122952381D01*
X120166667Y-137571429D02*
X120928572Y-137571429D01*
X121928572Y-137952381D02*
X121357143Y-137952381D01*
X121642857Y-137952381D02*
X121642857Y-136952381D01*
X121547619Y-137095238D01*
X121452381Y-137190476D01*
X121357143Y-137238095D01*
X122309524Y-137047619D02*
X122357143Y-137000000D01*
X122452381Y-136952381D01*
X122690477Y-136952381D01*
X122785715Y-137000000D01*
X122833334Y-137047619D01*
X122880953Y-137142857D01*
X122880953Y-137238095D01*
X122833334Y-137380952D01*
X122261905Y-137952381D01*
X122880953Y-137952381D01*
D12*
X135428572Y-111107143D02*
X136571429Y-111107143D01*
X136000000Y-111678571D02*
X136000000Y-110535714D01*
X107428572Y-119607143D02*
X108571429Y-119607143D01*
X108000000Y-120178571D02*
X108000000Y-119035714D01*
D11*
X127200000Y-140070000D02*
X118260000Y-140070000D01*
X118260000Y-140070000D02*
X118260000Y-119770000D01*
X118260000Y-119770000D02*
X127200000Y-119770000D01*
X127200000Y-119770000D02*
X127200000Y-140070000D01*
X127200000Y-132145000D02*
X125900000Y-132145000D01*
X125900000Y-132145000D02*
X125900000Y-138870000D01*
X125900000Y-138870000D02*
X119560000Y-138870000D01*
X119560000Y-138870000D02*
X119560000Y-120970000D01*
X119560000Y-120970000D02*
X125900000Y-120970000D01*
X125900000Y-120970000D02*
X125900000Y-127695000D01*
X125900000Y-127695000D02*
X127200000Y-127695000D01*
X118260000Y-130170000D02*
X118060000Y-130170000D01*
X118060000Y-130170000D02*
X118060000Y-129670000D01*
X118060000Y-129670000D02*
X118260000Y-129670000D01*
X118160000Y-130170000D02*
X118160000Y-129670000D01*
X118260000Y-122690000D02*
X118060000Y-122690000D01*
X118060000Y-122690000D02*
X118060000Y-122190000D01*
X118060000Y-122190000D02*
X118260000Y-122190000D01*
X118160000Y-122690000D02*
X118160000Y-122190000D01*
X118260000Y-137650000D02*
X118060000Y-137650000D01*
X118060000Y-137650000D02*
X118060000Y-137150000D01*
X118060000Y-137150000D02*
X118260000Y-137150000D01*
X118160000Y-137650000D02*
X118160000Y-137150000D01*
X124600000Y-137200000D02*
X123400000Y-137200000D01*
X123400000Y-137200000D02*
X124000000Y-136600000D01*
X124000000Y-136600000D02*
X124600000Y-137200000D01*
X140780000Y-61190000D02*
X142050000Y-61190000D01*
X142050000Y-61190000D02*
X142050000Y-68810000D01*
X142050000Y-68810000D02*
X140780000Y-68810000D01*
X129350000Y-59920000D02*
X125540000Y-59920000D01*
X125540000Y-59920000D02*
X125540000Y-62460000D01*
X125540000Y-62460000D02*
X129350000Y-62460000D01*
X129350000Y-62460000D02*
X129350000Y-59920000D01*
X135700000Y-61190000D02*
X135700000Y-68810000D01*
X135700000Y-68810000D02*
X140780000Y-68810000D01*
X135700000Y-61190000D02*
X140780000Y-61190000D01*
X134430000Y-59920000D02*
X131890000Y-59920000D01*
X131890000Y-59920000D02*
X131890000Y-62460000D01*
X131890000Y-62460000D02*
X134430000Y-62460000D01*
X134430000Y-62460000D02*
X134430000Y-59920000D01*
X107760000Y-67540000D02*
X107760000Y-62460000D01*
X107760000Y-62460000D02*
X110300000Y-62460000D01*
X110300000Y-62460000D02*
X110300000Y-67540000D01*
X110300000Y-67540000D02*
X107760000Y-67540000D01*
X114110000Y-59920000D02*
X114110000Y-70080000D01*
X123000000Y-70080000D02*
X123000000Y-59920000D01*
X114110000Y-70080000D02*
X123000000Y-70080000D01*
X114110000Y-59920000D02*
X123000000Y-59920000D01*
X140780000Y-73890000D02*
X105220000Y-73890000D01*
X105220000Y-73890000D02*
X105220000Y-56110000D01*
X105220000Y-56110000D02*
X140780000Y-56110000D01*
X140780000Y-56110000D02*
X140780000Y-73890000D01*
D13*
X132650000Y-139220000D02*
X132650000Y-139090000D01*
X132650000Y-139090000D02*
X137970000Y-139090000D01*
X137970000Y-139090000D02*
X137970000Y-139220000D01*
X132650000Y-141780000D02*
X132650000Y-141910000D01*
X132650000Y-141910000D02*
X137970000Y-141910000D01*
X137970000Y-141910000D02*
X137970000Y-141780000D01*
X133490000Y-139090000D02*
X133490000Y-141910000D01*
X107150000Y-138720000D02*
X107150000Y-138590000D01*
X107150000Y-138590000D02*
X112470000Y-138590000D01*
X112470000Y-138590000D02*
X112470000Y-138720000D01*
X107150000Y-141280000D02*
X107150000Y-141410000D01*
X107150000Y-141410000D02*
X112470000Y-141410000D01*
X112470000Y-141410000D02*
X112470000Y-141280000D01*
X107990000Y-138590000D02*
X107990000Y-141410000D01*
X141305722Y-110320277D02*
G75*
G03X136694420Y-110320000I-2305722J-1179723D01*
G01*
X141305722Y-112679723D02*
G75*
G02X136694420Y-112680000I-2305722J1179723D01*
G01*
X141305722Y-112679723D02*
G75*
G03X141305580Y-110320000I-2305722J1179723D01*
G01*
X139000000Y-108950000D02*
X139000000Y-114050000D01*
X139040000Y-108950000D02*
X139040000Y-110520000D01*
X139040000Y-112480000D02*
X139040000Y-114050000D01*
X139080000Y-108951000D02*
X139080000Y-110520000D01*
X139080000Y-112480000D02*
X139080000Y-114049000D01*
X139120000Y-108952000D02*
X139120000Y-110520000D01*
X139120000Y-112480000D02*
X139120000Y-114048000D01*
X139160000Y-108954000D02*
X139160000Y-110520000D01*
X139160000Y-112480000D02*
X139160000Y-114046000D01*
X139200000Y-108957000D02*
X139200000Y-110520000D01*
X139200000Y-112480000D02*
X139200000Y-114043000D01*
X139240000Y-108961000D02*
X139240000Y-110520000D01*
X139240000Y-112480000D02*
X139240000Y-114039000D01*
X139280000Y-108965000D02*
X139280000Y-110520000D01*
X139280000Y-112480000D02*
X139280000Y-114035000D01*
X139320000Y-108969000D02*
X139320000Y-110520000D01*
X139320000Y-112480000D02*
X139320000Y-114031000D01*
X139360000Y-108975000D02*
X139360000Y-110520000D01*
X139360000Y-112480000D02*
X139360000Y-114025000D01*
X139400000Y-108981000D02*
X139400000Y-110520000D01*
X139400000Y-112480000D02*
X139400000Y-114019000D01*
X139440000Y-108987000D02*
X139440000Y-110520000D01*
X139440000Y-112480000D02*
X139440000Y-114013000D01*
X139480000Y-108994000D02*
X139480000Y-110520000D01*
X139480000Y-112480000D02*
X139480000Y-114006000D01*
X139520000Y-109002000D02*
X139520000Y-110520000D01*
X139520000Y-112480000D02*
X139520000Y-113998000D01*
X139560000Y-109011000D02*
X139560000Y-110520000D01*
X139560000Y-112480000D02*
X139560000Y-113989000D01*
X139600000Y-109020000D02*
X139600000Y-110520000D01*
X139600000Y-112480000D02*
X139600000Y-113980000D01*
X139640000Y-109030000D02*
X139640000Y-110520000D01*
X139640000Y-112480000D02*
X139640000Y-113970000D01*
X139680000Y-109040000D02*
X139680000Y-110520000D01*
X139680000Y-112480000D02*
X139680000Y-113960000D01*
X139721000Y-109052000D02*
X139721000Y-110520000D01*
X139721000Y-112480000D02*
X139721000Y-113948000D01*
X139761000Y-109064000D02*
X139761000Y-110520000D01*
X139761000Y-112480000D02*
X139761000Y-113936000D01*
X139801000Y-109076000D02*
X139801000Y-110520000D01*
X139801000Y-112480000D02*
X139801000Y-113924000D01*
X139841000Y-109090000D02*
X139841000Y-110520000D01*
X139841000Y-112480000D02*
X139841000Y-113910000D01*
X139881000Y-109104000D02*
X139881000Y-110520000D01*
X139881000Y-112480000D02*
X139881000Y-113896000D01*
X139921000Y-109118000D02*
X139921000Y-110520000D01*
X139921000Y-112480000D02*
X139921000Y-113882000D01*
X139961000Y-109134000D02*
X139961000Y-110520000D01*
X139961000Y-112480000D02*
X139961000Y-113866000D01*
X140001000Y-109150000D02*
X140001000Y-110520000D01*
X140001000Y-112480000D02*
X140001000Y-113850000D01*
X140041000Y-109167000D02*
X140041000Y-110520000D01*
X140041000Y-112480000D02*
X140041000Y-113833000D01*
X140081000Y-109185000D02*
X140081000Y-110520000D01*
X140081000Y-112480000D02*
X140081000Y-113815000D01*
X140121000Y-109204000D02*
X140121000Y-110520000D01*
X140121000Y-112480000D02*
X140121000Y-113796000D01*
X140161000Y-109224000D02*
X140161000Y-110520000D01*
X140161000Y-112480000D02*
X140161000Y-113776000D01*
X140201000Y-109244000D02*
X140201000Y-110520000D01*
X140201000Y-112480000D02*
X140201000Y-113756000D01*
X140241000Y-109266000D02*
X140241000Y-110520000D01*
X140241000Y-112480000D02*
X140241000Y-113734000D01*
X140281000Y-109288000D02*
X140281000Y-110520000D01*
X140281000Y-112480000D02*
X140281000Y-113712000D01*
X140321000Y-109311000D02*
X140321000Y-110520000D01*
X140321000Y-112480000D02*
X140321000Y-113689000D01*
X140361000Y-109335000D02*
X140361000Y-110520000D01*
X140361000Y-112480000D02*
X140361000Y-113665000D01*
X140401000Y-109360000D02*
X140401000Y-110520000D01*
X140401000Y-112480000D02*
X140401000Y-113640000D01*
X140441000Y-109387000D02*
X140441000Y-110520000D01*
X140441000Y-112480000D02*
X140441000Y-113613000D01*
X140481000Y-109414000D02*
X140481000Y-110520000D01*
X140481000Y-112480000D02*
X140481000Y-113586000D01*
X140521000Y-109442000D02*
X140521000Y-110520000D01*
X140521000Y-112480000D02*
X140521000Y-113558000D01*
X140561000Y-109472000D02*
X140561000Y-110520000D01*
X140561000Y-112480000D02*
X140561000Y-113528000D01*
X140601000Y-109503000D02*
X140601000Y-110520000D01*
X140601000Y-112480000D02*
X140601000Y-113497000D01*
X140641000Y-109535000D02*
X140641000Y-110520000D01*
X140641000Y-112480000D02*
X140641000Y-113465000D01*
X140681000Y-109568000D02*
X140681000Y-110520000D01*
X140681000Y-112480000D02*
X140681000Y-113432000D01*
X140721000Y-109603000D02*
X140721000Y-110520000D01*
X140721000Y-112480000D02*
X140721000Y-113397000D01*
X140761000Y-109639000D02*
X140761000Y-110520000D01*
X140761000Y-112480000D02*
X140761000Y-113361000D01*
X140801000Y-109677000D02*
X140801000Y-110520000D01*
X140801000Y-112480000D02*
X140801000Y-113323000D01*
X140841000Y-109717000D02*
X140841000Y-110520000D01*
X140841000Y-112480000D02*
X140841000Y-113283000D01*
X140881000Y-109758000D02*
X140881000Y-110520000D01*
X140881000Y-112480000D02*
X140881000Y-113242000D01*
X140921000Y-109801000D02*
X140921000Y-110520000D01*
X140921000Y-112480000D02*
X140921000Y-113199000D01*
X140961000Y-109846000D02*
X140961000Y-110520000D01*
X140961000Y-112480000D02*
X140961000Y-113154000D01*
X141001000Y-109894000D02*
X141001000Y-113106000D01*
X141041000Y-109944000D02*
X141041000Y-113056000D01*
X141081000Y-109996000D02*
X141081000Y-113004000D01*
X141121000Y-110052000D02*
X141121000Y-112948000D01*
X141161000Y-110110000D02*
X141161000Y-112890000D01*
X141201000Y-110173000D02*
X141201000Y-112827000D01*
X141241000Y-110239000D02*
X141241000Y-112761000D01*
X141281000Y-110311000D02*
X141281000Y-112689000D01*
X141321000Y-110388000D02*
X141321000Y-112612000D01*
X141361000Y-110472000D02*
X141361000Y-112528000D01*
X141401000Y-110566000D02*
X141401000Y-112434000D01*
X141441000Y-110671000D02*
X141441000Y-112329000D01*
X141481000Y-110793000D02*
X141481000Y-112207000D01*
X141521000Y-110941000D02*
X141521000Y-112059000D01*
X141561000Y-111146000D02*
X141561000Y-111854000D01*
X135800000Y-111500000D02*
X137000000Y-111500000D01*
X136400000Y-110850000D02*
X136400000Y-112150000D01*
X113305722Y-118820277D02*
G75*
G03X108694420Y-118820000I-2305722J-1179723D01*
G01*
X113305722Y-121179723D02*
G75*
G02X108694420Y-121180000I-2305722J1179723D01*
G01*
X113305722Y-121179723D02*
G75*
G03X113305580Y-118820000I-2305722J1179723D01*
G01*
X111000000Y-117450000D02*
X111000000Y-122550000D01*
X111040000Y-117450000D02*
X111040000Y-119020000D01*
X111040000Y-120980000D02*
X111040000Y-122550000D01*
X111080000Y-117451000D02*
X111080000Y-119020000D01*
X111080000Y-120980000D02*
X111080000Y-122549000D01*
X111120000Y-117452000D02*
X111120000Y-119020000D01*
X111120000Y-120980000D02*
X111120000Y-122548000D01*
X111160000Y-117454000D02*
X111160000Y-119020000D01*
X111160000Y-120980000D02*
X111160000Y-122546000D01*
X111200000Y-117457000D02*
X111200000Y-119020000D01*
X111200000Y-120980000D02*
X111200000Y-122543000D01*
X111240000Y-117461000D02*
X111240000Y-119020000D01*
X111240000Y-120980000D02*
X111240000Y-122539000D01*
X111280000Y-117465000D02*
X111280000Y-119020000D01*
X111280000Y-120980000D02*
X111280000Y-122535000D01*
X111320000Y-117469000D02*
X111320000Y-119020000D01*
X111320000Y-120980000D02*
X111320000Y-122531000D01*
X111360000Y-117475000D02*
X111360000Y-119020000D01*
X111360000Y-120980000D02*
X111360000Y-122525000D01*
X111400000Y-117481000D02*
X111400000Y-119020000D01*
X111400000Y-120980000D02*
X111400000Y-122519000D01*
X111440000Y-117487000D02*
X111440000Y-119020000D01*
X111440000Y-120980000D02*
X111440000Y-122513000D01*
X111480000Y-117494000D02*
X111480000Y-119020000D01*
X111480000Y-120980000D02*
X111480000Y-122506000D01*
X111520000Y-117502000D02*
X111520000Y-119020000D01*
X111520000Y-120980000D02*
X111520000Y-122498000D01*
X111560000Y-117511000D02*
X111560000Y-119020000D01*
X111560000Y-120980000D02*
X111560000Y-122489000D01*
X111600000Y-117520000D02*
X111600000Y-119020000D01*
X111600000Y-120980000D02*
X111600000Y-122480000D01*
X111640000Y-117530000D02*
X111640000Y-119020000D01*
X111640000Y-120980000D02*
X111640000Y-122470000D01*
X111680000Y-117540000D02*
X111680000Y-119020000D01*
X111680000Y-120980000D02*
X111680000Y-122460000D01*
X111721000Y-117552000D02*
X111721000Y-119020000D01*
X111721000Y-120980000D02*
X111721000Y-122448000D01*
X111761000Y-117564000D02*
X111761000Y-119020000D01*
X111761000Y-120980000D02*
X111761000Y-122436000D01*
X111801000Y-117576000D02*
X111801000Y-119020000D01*
X111801000Y-120980000D02*
X111801000Y-122424000D01*
X111841000Y-117590000D02*
X111841000Y-119020000D01*
X111841000Y-120980000D02*
X111841000Y-122410000D01*
X111881000Y-117604000D02*
X111881000Y-119020000D01*
X111881000Y-120980000D02*
X111881000Y-122396000D01*
X111921000Y-117618000D02*
X111921000Y-119020000D01*
X111921000Y-120980000D02*
X111921000Y-122382000D01*
X111961000Y-117634000D02*
X111961000Y-119020000D01*
X111961000Y-120980000D02*
X111961000Y-122366000D01*
X112001000Y-117650000D02*
X112001000Y-119020000D01*
X112001000Y-120980000D02*
X112001000Y-122350000D01*
X112041000Y-117667000D02*
X112041000Y-119020000D01*
X112041000Y-120980000D02*
X112041000Y-122333000D01*
X112081000Y-117685000D02*
X112081000Y-119020000D01*
X112081000Y-120980000D02*
X112081000Y-122315000D01*
X112121000Y-117704000D02*
X112121000Y-119020000D01*
X112121000Y-120980000D02*
X112121000Y-122296000D01*
X112161000Y-117724000D02*
X112161000Y-119020000D01*
X112161000Y-120980000D02*
X112161000Y-122276000D01*
X112201000Y-117744000D02*
X112201000Y-119020000D01*
X112201000Y-120980000D02*
X112201000Y-122256000D01*
X112241000Y-117766000D02*
X112241000Y-119020000D01*
X112241000Y-120980000D02*
X112241000Y-122234000D01*
X112281000Y-117788000D02*
X112281000Y-119020000D01*
X112281000Y-120980000D02*
X112281000Y-122212000D01*
X112321000Y-117811000D02*
X112321000Y-119020000D01*
X112321000Y-120980000D02*
X112321000Y-122189000D01*
X112361000Y-117835000D02*
X112361000Y-119020000D01*
X112361000Y-120980000D02*
X112361000Y-122165000D01*
X112401000Y-117860000D02*
X112401000Y-119020000D01*
X112401000Y-120980000D02*
X112401000Y-122140000D01*
X112441000Y-117887000D02*
X112441000Y-119020000D01*
X112441000Y-120980000D02*
X112441000Y-122113000D01*
X112481000Y-117914000D02*
X112481000Y-119020000D01*
X112481000Y-120980000D02*
X112481000Y-122086000D01*
X112521000Y-117942000D02*
X112521000Y-119020000D01*
X112521000Y-120980000D02*
X112521000Y-122058000D01*
X112561000Y-117972000D02*
X112561000Y-119020000D01*
X112561000Y-120980000D02*
X112561000Y-122028000D01*
X112601000Y-118003000D02*
X112601000Y-119020000D01*
X112601000Y-120980000D02*
X112601000Y-121997000D01*
X112641000Y-118035000D02*
X112641000Y-119020000D01*
X112641000Y-120980000D02*
X112641000Y-121965000D01*
X112681000Y-118068000D02*
X112681000Y-119020000D01*
X112681000Y-120980000D02*
X112681000Y-121932000D01*
X112721000Y-118103000D02*
X112721000Y-119020000D01*
X112721000Y-120980000D02*
X112721000Y-121897000D01*
X112761000Y-118139000D02*
X112761000Y-119020000D01*
X112761000Y-120980000D02*
X112761000Y-121861000D01*
X112801000Y-118177000D02*
X112801000Y-119020000D01*
X112801000Y-120980000D02*
X112801000Y-121823000D01*
X112841000Y-118217000D02*
X112841000Y-119020000D01*
X112841000Y-120980000D02*
X112841000Y-121783000D01*
X112881000Y-118258000D02*
X112881000Y-119020000D01*
X112881000Y-120980000D02*
X112881000Y-121742000D01*
X112921000Y-118301000D02*
X112921000Y-119020000D01*
X112921000Y-120980000D02*
X112921000Y-121699000D01*
X112961000Y-118346000D02*
X112961000Y-119020000D01*
X112961000Y-120980000D02*
X112961000Y-121654000D01*
X113001000Y-118394000D02*
X113001000Y-121606000D01*
X113041000Y-118444000D02*
X113041000Y-121556000D01*
X113081000Y-118496000D02*
X113081000Y-121504000D01*
X113121000Y-118552000D02*
X113121000Y-121448000D01*
X113161000Y-118610000D02*
X113161000Y-121390000D01*
X113201000Y-118673000D02*
X113201000Y-121327000D01*
X113241000Y-118739000D02*
X113241000Y-121261000D01*
X113281000Y-118811000D02*
X113281000Y-121189000D01*
X113321000Y-118888000D02*
X113321000Y-121112000D01*
X113361000Y-118972000D02*
X113361000Y-121028000D01*
X113401000Y-119066000D02*
X113401000Y-120934000D01*
X113441000Y-119171000D02*
X113441000Y-120829000D01*
X113481000Y-119293000D02*
X113481000Y-120707000D01*
X113521000Y-119441000D02*
X113521000Y-120559000D01*
X113561000Y-119646000D02*
X113561000Y-120354000D01*
X107800000Y-120000000D02*
X109000000Y-120000000D01*
X108400000Y-119350000D02*
X108400000Y-120650000D01*
X123600000Y-143380000D02*
X122400000Y-143380000D01*
X122400000Y-141620000D02*
X123600000Y-141620000D01*
X138600000Y-124880000D02*
X137400000Y-124880000D01*
X137400000Y-123120000D02*
X138600000Y-123120000D01*
X138600000Y-122380000D02*
X137400000Y-122380000D01*
X137400000Y-120620000D02*
X138600000Y-120620000D01*
X122400000Y-111120000D02*
X123600000Y-111120000D01*
X123600000Y-112880000D02*
X122400000Y-112880000D01*
X107380000Y-112900000D02*
X107380000Y-114100000D01*
X105620000Y-114100000D02*
X105620000Y-112900000D01*
X122380000Y-115400000D02*
X122380000Y-116600000D01*
X120620000Y-116600000D02*
X120620000Y-115400000D01*
X109880000Y-112900000D02*
X109880000Y-114100000D01*
X108120000Y-114100000D02*
X108120000Y-112900000D01*
X130380000Y-144400000D02*
X130380000Y-145600000D01*
X128620000Y-145600000D02*
X128620000Y-144400000D01*
X118080000Y-143240000D02*
X117150000Y-143240000D01*
X114920000Y-143240000D02*
X115850000Y-143240000D01*
X114920000Y-143240000D02*
X114920000Y-146400000D01*
X118080000Y-143240000D02*
X118080000Y-144700000D01*
X134080000Y-120740000D02*
X133150000Y-120740000D01*
X130920000Y-120740000D02*
X131850000Y-120740000D01*
X130920000Y-120740000D02*
X130920000Y-123900000D01*
X134080000Y-120740000D02*
X134080000Y-122200000D01*
X132910000Y-117410000D02*
X132910000Y-116150000D01*
X132910000Y-110590000D02*
X132910000Y-111850000D01*
X129150000Y-117410000D02*
X132910000Y-117410000D01*
X126900000Y-110590000D02*
X132910000Y-110590000D01*
D11*
X118075000Y-116075000D02*
X118075000Y-116025000D01*
X113925000Y-116075000D02*
X113925000Y-115930000D01*
X113925000Y-110925000D02*
X113925000Y-111070000D01*
X118075000Y-110925000D02*
X118075000Y-111070000D01*
X118075000Y-116075000D02*
X113925000Y-116075000D01*
X118075000Y-110925000D02*
X113925000Y-110925000D01*
X118075000Y-116025000D02*
X119475000Y-116025000D01*
D13*
X116850000Y-120000000D02*
X116850000Y-119000000D01*
X115150000Y-119000000D02*
X115150000Y-120000000D01*
X123650000Y-115500000D02*
X123650000Y-116500000D01*
X125350000Y-116500000D02*
X125350000Y-115500000D01*
D11*
X120142857Y-74612381D02*
X120714286Y-74612381D01*
X120428571Y-75612381D02*
X120428571Y-74612381D01*
X121428572Y-75564762D02*
X121333334Y-75612381D01*
X121142857Y-75612381D01*
X121047619Y-75564762D01*
X121000000Y-75469524D01*
X121000000Y-75088571D01*
X121047619Y-74993333D01*
X121142857Y-74945714D01*
X121333334Y-74945714D01*
X121428572Y-74993333D01*
X121476191Y-75088571D01*
X121476191Y-75183810D01*
X121000000Y-75279048D01*
X122285715Y-75564762D02*
X122190477Y-75612381D01*
X122000000Y-75612381D01*
X121904762Y-75564762D01*
X121857143Y-75469524D01*
X121857143Y-75088571D01*
X121904762Y-74993333D01*
X122000000Y-74945714D01*
X122190477Y-74945714D01*
X122285715Y-74993333D01*
X122333334Y-75088571D01*
X122333334Y-75183810D01*
X121857143Y-75279048D01*
X122761905Y-74945714D02*
X122761905Y-75612381D01*
X122761905Y-75040952D02*
X122809524Y-74993333D01*
X122904762Y-74945714D01*
X123047620Y-74945714D01*
X123142858Y-74993333D01*
X123190477Y-75088571D01*
X123190477Y-75612381D01*
X123619048Y-75564762D02*
X123714286Y-75612381D01*
X123904762Y-75612381D01*
X124000001Y-75564762D01*
X124047620Y-75469524D01*
X124047620Y-75421905D01*
X124000001Y-75326667D01*
X123904762Y-75279048D01*
X123761905Y-75279048D01*
X123666667Y-75231429D01*
X123619048Y-75136190D01*
X123619048Y-75088571D01*
X123666667Y-74993333D01*
X123761905Y-74945714D01*
X123904762Y-74945714D01*
X124000001Y-74993333D01*
X124380953Y-74945714D02*
X124619048Y-75612381D01*
X124857144Y-74945714D02*
X124619048Y-75612381D01*
X124523810Y-75850476D01*
X124476191Y-75898095D01*
X124380953Y-75945714D01*
X125761906Y-75612381D02*
X125190477Y-75612381D01*
X125476191Y-75612381D02*
X125476191Y-74612381D01*
X125380953Y-74755238D01*
X125285715Y-74850476D01*
X125190477Y-74898095D01*
X131261905Y-137952381D02*
X131261905Y-136952381D01*
X131500000Y-136952381D01*
X131642858Y-137000000D01*
X131738096Y-137095238D01*
X131785715Y-137190476D01*
X131833334Y-137380952D01*
X131833334Y-137523810D01*
X131785715Y-137714286D01*
X131738096Y-137809524D01*
X131642858Y-137904762D01*
X131500000Y-137952381D01*
X131261905Y-137952381D01*
X132214286Y-137047619D02*
X132261905Y-137000000D01*
X132357143Y-136952381D01*
X132595239Y-136952381D01*
X132690477Y-137000000D01*
X132738096Y-137047619D01*
X132785715Y-137142857D01*
X132785715Y-137238095D01*
X132738096Y-137380952D01*
X132166667Y-137952381D01*
X132785715Y-137952381D01*
X109261905Y-142952381D02*
X109261905Y-141952381D01*
X109500000Y-141952381D01*
X109642858Y-142000000D01*
X109738096Y-142095238D01*
X109785715Y-142190476D01*
X109833334Y-142380952D01*
X109833334Y-142523810D01*
X109785715Y-142714286D01*
X109738096Y-142809524D01*
X109642858Y-142904762D01*
X109500000Y-142952381D01*
X109261905Y-142952381D01*
X110785715Y-142952381D02*
X110214286Y-142952381D01*
X110500000Y-142952381D02*
X110500000Y-141952381D01*
X110404762Y-142095238D01*
X110309524Y-142190476D01*
X110214286Y-142238095D01*
X138833334Y-115857143D02*
X138785715Y-115904762D01*
X138642858Y-115952381D01*
X138547620Y-115952381D01*
X138404762Y-115904762D01*
X138309524Y-115809524D01*
X138261905Y-115714286D01*
X138214286Y-115523810D01*
X138214286Y-115380952D01*
X138261905Y-115190476D01*
X138309524Y-115095238D01*
X138404762Y-115000000D01*
X138547620Y-114952381D01*
X138642858Y-114952381D01*
X138785715Y-115000000D01*
X138833334Y-115047619D01*
X139166667Y-114952381D02*
X139785715Y-114952381D01*
X139452381Y-115333333D01*
X139595239Y-115333333D01*
X139690477Y-115380952D01*
X139738096Y-115428571D01*
X139785715Y-115523810D01*
X139785715Y-115761905D01*
X139738096Y-115857143D01*
X139690477Y-115904762D01*
X139595239Y-115952381D01*
X139309524Y-115952381D01*
X139214286Y-115904762D01*
X139166667Y-115857143D01*
X108333334Y-117357143D02*
X108285715Y-117404762D01*
X108142858Y-117452381D01*
X108047620Y-117452381D01*
X107904762Y-117404762D01*
X107809524Y-117309524D01*
X107761905Y-117214286D01*
X107714286Y-117023810D01*
X107714286Y-116880952D01*
X107761905Y-116690476D01*
X107809524Y-116595238D01*
X107904762Y-116500000D01*
X108047620Y-116452381D01*
X108142858Y-116452381D01*
X108285715Y-116500000D01*
X108333334Y-116547619D01*
X108714286Y-116547619D02*
X108761905Y-116500000D01*
X108857143Y-116452381D01*
X109095239Y-116452381D01*
X109190477Y-116500000D01*
X109238096Y-116547619D01*
X109285715Y-116642857D01*
X109285715Y-116738095D01*
X109238096Y-116880952D01*
X108666667Y-117452381D01*
X109285715Y-117452381D01*
X126833334Y-142952381D02*
X126500000Y-142476190D01*
X126261905Y-142952381D02*
X126261905Y-141952381D01*
X126642858Y-141952381D01*
X126738096Y-142000000D01*
X126785715Y-142047619D01*
X126833334Y-142142857D01*
X126833334Y-142285714D01*
X126785715Y-142380952D01*
X126738096Y-142428571D01*
X126642858Y-142476190D01*
X126261905Y-142476190D01*
X127214286Y-142047619D02*
X127261905Y-142000000D01*
X127357143Y-141952381D01*
X127595239Y-141952381D01*
X127690477Y-142000000D01*
X127738096Y-142047619D01*
X127785715Y-142142857D01*
X127785715Y-142238095D01*
X127738096Y-142380952D01*
X127166667Y-142952381D01*
X127785715Y-142952381D01*
X141333334Y-124452381D02*
X141000000Y-123976190D01*
X140761905Y-124452381D02*
X140761905Y-123452381D01*
X141142858Y-123452381D01*
X141238096Y-123500000D01*
X141285715Y-123547619D01*
X141333334Y-123642857D01*
X141333334Y-123785714D01*
X141285715Y-123880952D01*
X141238096Y-123928571D01*
X141142858Y-123976190D01*
X140761905Y-123976190D01*
X141666667Y-123452381D02*
X142285715Y-123452381D01*
X141952381Y-123833333D01*
X142095239Y-123833333D01*
X142190477Y-123880952D01*
X142238096Y-123928571D01*
X142285715Y-124023810D01*
X142285715Y-124261905D01*
X142238096Y-124357143D01*
X142190477Y-124404762D01*
X142095239Y-124452381D01*
X141809524Y-124452381D01*
X141714286Y-124404762D01*
X141666667Y-124357143D01*
X141333334Y-121952381D02*
X141000000Y-121476190D01*
X140761905Y-121952381D02*
X140761905Y-120952381D01*
X141142858Y-120952381D01*
X141238096Y-121000000D01*
X141285715Y-121047619D01*
X141333334Y-121142857D01*
X141333334Y-121285714D01*
X141285715Y-121380952D01*
X141238096Y-121428571D01*
X141142858Y-121476190D01*
X140761905Y-121476190D01*
X142190477Y-121285714D02*
X142190477Y-121952381D01*
X141952381Y-120904762D02*
X141714286Y-121619048D01*
X142333334Y-121619048D01*
X122833334Y-110452381D02*
X122500000Y-109976190D01*
X122261905Y-110452381D02*
X122261905Y-109452381D01*
X122642858Y-109452381D01*
X122738096Y-109500000D01*
X122785715Y-109547619D01*
X122833334Y-109642857D01*
X122833334Y-109785714D01*
X122785715Y-109880952D01*
X122738096Y-109928571D01*
X122642858Y-109976190D01*
X122261905Y-109976190D01*
X123738096Y-109452381D02*
X123261905Y-109452381D01*
X123214286Y-109928571D01*
X123261905Y-109880952D01*
X123357143Y-109833333D01*
X123595239Y-109833333D01*
X123690477Y-109880952D01*
X123738096Y-109928571D01*
X123785715Y-110023810D01*
X123785715Y-110261905D01*
X123738096Y-110357143D01*
X123690477Y-110404762D01*
X123595239Y-110452381D01*
X123357143Y-110452381D01*
X123261905Y-110404762D01*
X123214286Y-110357143D01*
X106333334Y-110452381D02*
X106000000Y-109976190D01*
X105761905Y-110452381D02*
X105761905Y-109452381D01*
X106142858Y-109452381D01*
X106238096Y-109500000D01*
X106285715Y-109547619D01*
X106333334Y-109642857D01*
X106333334Y-109785714D01*
X106285715Y-109880952D01*
X106238096Y-109928571D01*
X106142858Y-109976190D01*
X105761905Y-109976190D01*
X107190477Y-109452381D02*
X107000000Y-109452381D01*
X106904762Y-109500000D01*
X106857143Y-109547619D01*
X106761905Y-109690476D01*
X106714286Y-109880952D01*
X106714286Y-110261905D01*
X106761905Y-110357143D01*
X106809524Y-110404762D01*
X106904762Y-110452381D01*
X107095239Y-110452381D01*
X107190477Y-110404762D01*
X107238096Y-110357143D01*
X107285715Y-110261905D01*
X107285715Y-110023810D01*
X107238096Y-109928571D01*
X107190477Y-109880952D01*
X107095239Y-109833333D01*
X106904762Y-109833333D01*
X106809524Y-109880952D01*
X106761905Y-109928571D01*
X106714286Y-110023810D01*
X119333334Y-117452381D02*
X119000000Y-116976190D01*
X118761905Y-117452381D02*
X118761905Y-116452381D01*
X119142858Y-116452381D01*
X119238096Y-116500000D01*
X119285715Y-116547619D01*
X119333334Y-116642857D01*
X119333334Y-116785714D01*
X119285715Y-116880952D01*
X119238096Y-116928571D01*
X119142858Y-116976190D01*
X118761905Y-116976190D01*
X119666667Y-116452381D02*
X120333334Y-116452381D01*
X119904762Y-117452381D01*
X108833334Y-110452381D02*
X108500000Y-109976190D01*
X108261905Y-110452381D02*
X108261905Y-109452381D01*
X108642858Y-109452381D01*
X108738096Y-109500000D01*
X108785715Y-109547619D01*
X108833334Y-109642857D01*
X108833334Y-109785714D01*
X108785715Y-109880952D01*
X108738096Y-109928571D01*
X108642858Y-109976190D01*
X108261905Y-109976190D01*
X109404762Y-109880952D02*
X109309524Y-109833333D01*
X109261905Y-109785714D01*
X109214286Y-109690476D01*
X109214286Y-109642857D01*
X109261905Y-109547619D01*
X109309524Y-109500000D01*
X109404762Y-109452381D01*
X109595239Y-109452381D01*
X109690477Y-109500000D01*
X109738096Y-109547619D01*
X109785715Y-109642857D01*
X109785715Y-109690476D01*
X109738096Y-109785714D01*
X109690477Y-109833333D01*
X109595239Y-109880952D01*
X109404762Y-109880952D01*
X109309524Y-109928571D01*
X109261905Y-109976190D01*
X109214286Y-110071429D01*
X109214286Y-110261905D01*
X109261905Y-110357143D01*
X109309524Y-110404762D01*
X109404762Y-110452381D01*
X109595239Y-110452381D01*
X109690477Y-110404762D01*
X109738096Y-110357143D01*
X109785715Y-110261905D01*
X109785715Y-110071429D01*
X109738096Y-109976190D01*
X109690477Y-109928571D01*
X109595239Y-109880952D01*
X129333334Y-148952381D02*
X129000000Y-148476190D01*
X128761905Y-148952381D02*
X128761905Y-147952381D01*
X129142858Y-147952381D01*
X129238096Y-148000000D01*
X129285715Y-148047619D01*
X129333334Y-148142857D01*
X129333334Y-148285714D01*
X129285715Y-148380952D01*
X129238096Y-148428571D01*
X129142858Y-148476190D01*
X128761905Y-148476190D01*
X130285715Y-148952381D02*
X129714286Y-148952381D01*
X130000000Y-148952381D02*
X130000000Y-147952381D01*
X129904762Y-148095238D01*
X129809524Y-148190476D01*
X129714286Y-148238095D01*
X116404762Y-148547619D02*
X116309524Y-148500000D01*
X116214286Y-148404762D01*
X116071429Y-148261905D01*
X115976190Y-148214286D01*
X115880952Y-148214286D01*
X115928571Y-148452381D02*
X115833333Y-148404762D01*
X115738095Y-148309524D01*
X115690476Y-148119048D01*
X115690476Y-147785714D01*
X115738095Y-147595238D01*
X115833333Y-147500000D01*
X115928571Y-147452381D01*
X116119048Y-147452381D01*
X116214286Y-147500000D01*
X116309524Y-147595238D01*
X116357143Y-147785714D01*
X116357143Y-148119048D01*
X116309524Y-148309524D01*
X116214286Y-148404762D01*
X116119048Y-148452381D01*
X115928571Y-148452381D01*
X117309524Y-148452381D02*
X116738095Y-148452381D01*
X117023809Y-148452381D02*
X117023809Y-147452381D01*
X116928571Y-147595238D01*
X116833333Y-147690476D01*
X116738095Y-147738095D01*
X128904762Y-122047619D02*
X128809524Y-122000000D01*
X128714286Y-121904762D01*
X128571429Y-121761905D01*
X128476190Y-121714286D01*
X128380952Y-121714286D01*
X128428571Y-121952381D02*
X128333333Y-121904762D01*
X128238095Y-121809524D01*
X128190476Y-121619048D01*
X128190476Y-121285714D01*
X128238095Y-121095238D01*
X128333333Y-121000000D01*
X128428571Y-120952381D01*
X128619048Y-120952381D01*
X128714286Y-121000000D01*
X128809524Y-121095238D01*
X128857143Y-121285714D01*
X128857143Y-121619048D01*
X128809524Y-121809524D01*
X128714286Y-121904762D01*
X128619048Y-121952381D01*
X128428571Y-121952381D01*
X129238095Y-121047619D02*
X129285714Y-121000000D01*
X129380952Y-120952381D01*
X129619048Y-120952381D01*
X129714286Y-121000000D01*
X129761905Y-121047619D01*
X129809524Y-121142857D01*
X129809524Y-121238095D01*
X129761905Y-121380952D01*
X129190476Y-121952381D01*
X129809524Y-121952381D01*
X130238095Y-108952381D02*
X130238095Y-109761905D01*
X130285714Y-109857143D01*
X130333333Y-109904762D01*
X130428571Y-109952381D01*
X130619048Y-109952381D01*
X130714286Y-109904762D01*
X130761905Y-109857143D01*
X130809524Y-109761905D01*
X130809524Y-108952381D01*
X131809524Y-109952381D02*
X131238095Y-109952381D01*
X131523809Y-109952381D02*
X131523809Y-108952381D01*
X131428571Y-109095238D01*
X131333333Y-109190476D01*
X131238095Y-109238095D01*
X112738095Y-109452381D02*
X112738095Y-110261905D01*
X112785714Y-110357143D01*
X112833333Y-110404762D01*
X112928571Y-110452381D01*
X113119048Y-110452381D01*
X113214286Y-110404762D01*
X113261905Y-110357143D01*
X113309524Y-110261905D01*
X113309524Y-109452381D01*
X113690476Y-109452381D02*
X114309524Y-109452381D01*
X113976190Y-109833333D01*
X114119048Y-109833333D01*
X114214286Y-109880952D01*
X114261905Y-109928571D01*
X114309524Y-110023810D01*
X114309524Y-110261905D01*
X114261905Y-110357143D01*
X114214286Y-110404762D01*
X114119048Y-110452381D01*
X113833333Y-110452381D01*
X113738095Y-110404762D01*
X113690476Y-110357143D01*
X115833334Y-123357143D02*
X115785715Y-123404762D01*
X115642858Y-123452381D01*
X115547620Y-123452381D01*
X115404762Y-123404762D01*
X115309524Y-123309524D01*
X115261905Y-123214286D01*
X115214286Y-123023810D01*
X115214286Y-122880952D01*
X115261905Y-122690476D01*
X115309524Y-122595238D01*
X115404762Y-122500000D01*
X115547620Y-122452381D01*
X115642858Y-122452381D01*
X115785715Y-122500000D01*
X115833334Y-122547619D01*
X116785715Y-123452381D02*
X116214286Y-123452381D01*
X116500000Y-123452381D02*
X116500000Y-122452381D01*
X116404762Y-122595238D01*
X116309524Y-122690476D01*
X116214286Y-122738095D01*
X126333334Y-118857143D02*
X126285715Y-118904762D01*
X126142858Y-118952381D01*
X126047620Y-118952381D01*
X125904762Y-118904762D01*
X125809524Y-118809524D01*
X125761905Y-118714286D01*
X125714286Y-118523810D01*
X125714286Y-118380952D01*
X125761905Y-118190476D01*
X125809524Y-118095238D01*
X125904762Y-118000000D01*
X126047620Y-117952381D01*
X126142858Y-117952381D01*
X126285715Y-118000000D01*
X126333334Y-118047619D01*
X127190477Y-118285714D02*
X127190477Y-118952381D01*
X126952381Y-117904762D02*
X126714286Y-118619048D01*
X127333334Y-118619048D01*
M02*
