G04 #@! TF.FileFunction,Copper,L1,Top,Signal*
%FSLAX46Y46*%
G04 Gerber Fmt 4.6, Leading zero omitted, Abs format (unit mm)*
G04 Created by KiCad (PCBNEW 4.0.7) date 07/21/18 13:32:25*
%MOMM*%
%LPD*%
G01*
G04 APERTURE LIST*
%ADD10C,0.100000*%
%ADD11R,1.700000X1.700000*%
%ADD12C,1.700000*%
%ADD13C,1.800000*%
%ADD14R,1.800000X1.800000*%
%ADD15O,1.700000X1.700000*%
%ADD16C,1.750000*%
%ADD17O,4.000000X4.000000*%
%ADD18C,1.600000*%
%ADD19R,1.600000X1.600000*%
%ADD20C,4.000000*%
%ADD21R,2.200000X2.200000*%
%ADD22O,2.200000X2.200000*%
%ADD23R,1.500000X1.300000*%
%ADD24R,1.300000X1.500000*%
%ADD25R,1.900000X0.800000*%
%ADD26R,0.800000X1.900000*%
%ADD27R,2.000000X3.800000*%
%ADD28R,2.000000X1.500000*%
%ADD29R,1.550000X0.600000*%
%ADD30R,1.250000X1.500000*%
%ADD31R,2.500000X1.000000*%
%ADD32C,0.600000*%
%ADD33C,0.250000*%
%ADD34C,0.254000*%
G04 APERTURE END LIST*
D10*
D11*
X124000000Y-135000000D03*
D12*
X121460000Y-135000000D03*
X124000000Y-132460000D03*
X121460000Y-132460000D03*
X124000000Y-129920000D03*
X121460000Y-129920000D03*
X124000000Y-127380000D03*
X121460000Y-127380000D03*
X124000000Y-124840000D03*
X121460000Y-124840000D03*
D13*
X115100000Y-136500000D03*
X115100000Y-124900000D03*
D14*
X107500000Y-136500000D03*
D13*
X107500000Y-124900000D03*
D11*
X130620000Y-52120000D03*
D15*
X128080000Y-52120000D03*
X125540000Y-52120000D03*
X123000000Y-52120000D03*
X120460000Y-52120000D03*
X117920000Y-52120000D03*
X115380000Y-52120000D03*
D13*
X126600000Y-89000000D03*
X126600000Y-77400000D03*
D14*
X119000000Y-89000000D03*
D13*
X119000000Y-77400000D03*
X113600000Y-89000000D03*
X113600000Y-77400000D03*
D14*
X106000000Y-89000000D03*
D13*
X106000000Y-77400000D03*
X139600000Y-89000000D03*
X139600000Y-77400000D03*
D14*
X132000000Y-89000000D03*
D13*
X132000000Y-77400000D03*
D16*
X111000000Y-94000000D03*
X116000000Y-94000000D03*
X113500000Y-94000000D03*
X116000000Y-108500000D03*
X111000000Y-108500000D03*
D17*
X119700000Y-101500000D03*
X107300000Y-101500000D03*
D18*
X106490000Y-65000000D03*
X106490000Y-67540000D03*
X106490000Y-70080000D03*
X106490000Y-72620000D03*
X106490000Y-62460000D03*
X106490000Y-59920000D03*
X106490000Y-57380000D03*
X109030000Y-72620000D03*
X111570000Y-72620000D03*
X114110000Y-72620000D03*
X116650000Y-72620000D03*
X119190000Y-72620000D03*
X121730000Y-72620000D03*
X124270000Y-72620000D03*
X126810000Y-72620000D03*
X129350000Y-72620000D03*
X131890000Y-72620000D03*
X134430000Y-72620000D03*
X136970000Y-72620000D03*
X139510000Y-72620000D03*
X109030000Y-57380000D03*
X111570000Y-57380000D03*
X114110000Y-57380000D03*
X116650000Y-57380000D03*
X119190000Y-57380000D03*
X121730000Y-57380000D03*
X124270000Y-57380000D03*
X126810000Y-57380000D03*
X129350000Y-57380000D03*
X131890000Y-57380000D03*
X134430000Y-57380000D03*
X136970000Y-57380000D03*
D19*
X139510000Y-57380000D03*
D13*
X130000000Y-94000000D03*
X132500000Y-94000000D03*
X135000000Y-94000000D03*
D20*
X128100000Y-101000000D03*
X136900000Y-101000000D03*
D21*
X131500000Y-140500000D03*
D22*
X139120000Y-140500000D03*
D21*
X106000000Y-140000000D03*
D22*
X113620000Y-140000000D03*
D19*
X138000000Y-111500000D03*
D18*
X140000000Y-111500000D03*
D19*
X110000000Y-120000000D03*
D18*
X112000000Y-120000000D03*
D23*
X121650000Y-142500000D03*
X124350000Y-142500000D03*
X133650000Y-123500000D03*
X136350000Y-123500000D03*
D24*
X131000000Y-120650000D03*
X131000000Y-123350000D03*
D23*
X124350000Y-112000000D03*
X121650000Y-112000000D03*
D24*
X106500000Y-114850000D03*
X106500000Y-112150000D03*
X121500000Y-117350000D03*
X121500000Y-114650000D03*
X109000000Y-114850000D03*
X109000000Y-112150000D03*
X129500000Y-146350000D03*
X129500000Y-143650000D03*
D25*
X117500000Y-146450000D03*
X117500000Y-144550000D03*
X114500000Y-145500000D03*
D26*
X136550000Y-120500000D03*
X138450000Y-120500000D03*
X137500000Y-117500000D03*
D27*
X134150000Y-114000000D03*
D28*
X127850000Y-114000000D03*
X127850000Y-116300000D03*
X127850000Y-111700000D03*
D29*
X118700000Y-115405000D03*
X118700000Y-114135000D03*
X118700000Y-112865000D03*
X118700000Y-111595000D03*
X113300000Y-111595000D03*
X113300000Y-112865000D03*
X113300000Y-114135000D03*
X113300000Y-115405000D03*
D30*
X116000000Y-118250000D03*
X116000000Y-120750000D03*
X124500000Y-117250000D03*
X124500000Y-114750000D03*
D31*
X123000000Y-145080000D03*
X123000000Y-153380000D03*
X123000000Y-156480000D03*
X136000000Y-145080000D03*
X136000000Y-153380000D03*
X136000000Y-156480000D03*
X136000000Y-126580000D03*
X136000000Y-134880000D03*
X136000000Y-137980000D03*
X110000000Y-145080000D03*
X110000000Y-153380000D03*
X110000000Y-156480000D03*
D32*
X104000000Y-142500000D03*
X130000000Y-109500000D03*
X123500000Y-108500000D03*
X134500000Y-109000000D03*
X119500000Y-118000000D03*
X107000000Y-117500000D03*
D33*
X115000000Y-144000000D02*
X114500000Y-144000000D01*
X114500000Y-145500000D02*
X111500000Y-142500000D01*
X111500000Y-142500000D02*
X111500000Y-142500000D01*
X111500000Y-142500000D02*
X111500000Y-142500000D01*
X111500000Y-142500000D02*
X104000000Y-142500000D01*
X130000000Y-109500000D02*
X127850000Y-111650000D01*
X127850000Y-111650000D02*
X127850000Y-111700000D01*
X124000000Y-111750000D02*
X124250000Y-111750000D01*
X107070000Y-125080000D02*
X106500000Y-125650000D01*
X106000000Y-140000000D02*
X106000000Y-124000000D01*
X106000000Y-124000000D02*
X110000000Y-120000000D01*
X127850000Y-116300000D02*
X127850000Y-116650000D01*
X127850000Y-116650000D02*
X125000000Y-119500000D01*
X125000000Y-119500000D02*
X117250000Y-119500000D01*
X117250000Y-119500000D02*
X116000000Y-118250000D01*
X113300000Y-115405000D02*
X112095000Y-115405000D01*
X110000000Y-117500000D02*
X110000000Y-120000000D01*
X112095000Y-115405000D02*
X110000000Y-117500000D01*
X113300000Y-115405000D02*
X113300000Y-115550000D01*
X113300000Y-115550000D02*
X115750000Y-118000000D01*
X110000000Y-120000000D02*
X109500000Y-120000000D01*
X122000000Y-108500000D02*
X118905000Y-111595000D01*
X123500000Y-108500000D02*
X122000000Y-108500000D01*
X118905000Y-111595000D02*
X118700000Y-111595000D01*
X124500000Y-117250000D02*
X125250000Y-117250000D01*
X126500000Y-114000000D02*
X127850000Y-114000000D01*
X126000000Y-114500000D02*
X126500000Y-114000000D01*
X126000000Y-116500000D02*
X126000000Y-114500000D01*
X125250000Y-117250000D02*
X126000000Y-116500000D01*
X129500000Y-114000000D02*
X127850000Y-114000000D01*
X134500000Y-109000000D02*
X129500000Y-114000000D01*
X121460000Y-124840000D02*
X120660000Y-124840000D01*
X120660000Y-124840000D02*
X118500000Y-127000000D01*
X118500000Y-135120000D02*
X113620000Y-140000000D01*
X118500000Y-127000000D02*
X118500000Y-135120000D01*
X121460000Y-124840000D02*
X124000000Y-124840000D01*
X121460000Y-135000000D02*
X124000000Y-135000000D01*
X124000000Y-135000000D02*
X126000000Y-135000000D01*
X126000000Y-135000000D02*
X131500000Y-140500000D01*
X120250000Y-117250000D02*
X119500000Y-118000000D01*
X118700000Y-115405000D02*
X118700000Y-115700000D01*
X118700000Y-115700000D02*
X120250000Y-117250000D01*
X120250000Y-117250000D02*
X120350000Y-117350000D01*
X120350000Y-117350000D02*
X121500000Y-117350000D01*
X118700000Y-115405000D02*
X118905000Y-115405000D01*
X109000000Y-114850000D02*
X109000000Y-115500000D01*
X109000000Y-115500000D02*
X107000000Y-117500000D01*
X109000000Y-114850000D02*
X109000000Y-115000000D01*
X109000000Y-114850000D02*
X110650000Y-114850000D01*
X111365000Y-114135000D02*
X113300000Y-114135000D01*
X110650000Y-114850000D02*
X111365000Y-114135000D01*
X121650000Y-112000000D02*
X121650000Y-114500000D01*
X121650000Y-114500000D02*
X121500000Y-114650000D01*
X118700000Y-114135000D02*
X120985000Y-114135000D01*
X120985000Y-114135000D02*
X121500000Y-114650000D01*
X109000000Y-112150000D02*
X110150000Y-112150000D01*
X110865000Y-112865000D02*
X113300000Y-112865000D01*
X110150000Y-112150000D02*
X110865000Y-112865000D01*
X106500000Y-112150000D02*
X109000000Y-112150000D01*
X141500000Y-59000000D02*
X141500000Y-52500000D01*
X134430000Y-66570000D02*
X141500000Y-59000000D01*
X134430000Y-72620000D02*
X134430000Y-66570000D01*
X129700000Y-50500000D02*
X128080000Y-52120000D01*
X139500000Y-50500000D02*
X129700000Y-50500000D01*
X141500000Y-52500000D02*
X139500000Y-50500000D01*
X134430000Y-72620000D02*
X134430000Y-94430000D01*
X134430000Y-94430000D02*
X135000000Y-95000000D01*
X106490000Y-70080000D02*
X106420000Y-70080000D01*
X106420000Y-70080000D02*
X104950002Y-71549998D01*
X111595000Y-111595000D02*
X113300000Y-111595000D01*
X109000000Y-109000000D02*
X111595000Y-111595000D01*
X109000000Y-108000000D02*
X109000000Y-109000000D01*
X110000000Y-107000000D02*
X109000000Y-108000000D01*
X110000000Y-100500000D02*
X110000000Y-107000000D01*
X107500000Y-98000000D02*
X110000000Y-100500000D01*
X107500000Y-76000000D02*
X107500000Y-98000000D01*
X104950002Y-73450002D02*
X107500000Y-76000000D01*
X104950002Y-71549998D02*
X104950002Y-73450002D01*
X118700000Y-112865000D02*
X117135000Y-112865000D01*
X117000000Y-74810000D02*
X119190000Y-72620000D01*
X117000000Y-79000000D02*
X117000000Y-74810000D01*
X123000000Y-85000000D02*
X117000000Y-79000000D01*
X123000000Y-104500000D02*
X123000000Y-85000000D01*
X116500000Y-111000000D02*
X123000000Y-104500000D01*
X116500000Y-112230000D02*
X116500000Y-111000000D01*
X117135000Y-112865000D02*
X116500000Y-112230000D01*
X118135000Y-112865000D02*
X118000000Y-112730000D01*
X125540000Y-52120000D02*
X125540000Y-56110000D01*
X125540000Y-56110000D02*
X124270000Y-57380000D01*
X125540000Y-52380000D02*
X125540000Y-52460000D01*
X123000000Y-52120000D02*
X123000000Y-56110000D01*
X123000000Y-56110000D02*
X121730000Y-57380000D01*
X123000000Y-52380000D02*
X123000000Y-53000000D01*
X115380000Y-52120000D02*
X115380000Y-56110000D01*
X115380000Y-56110000D02*
X114110000Y-57380000D01*
X120460000Y-52120000D02*
X120460000Y-56110000D01*
X120460000Y-56110000D02*
X119190000Y-57380000D01*
X117920000Y-52120000D02*
X117920000Y-56110000D01*
X117920000Y-56110000D02*
X116650000Y-57380000D01*
X116650000Y-72620000D02*
X116650000Y-73850000D01*
X116000000Y-74500000D02*
X116000000Y-94000000D01*
X116650000Y-73850000D02*
X116000000Y-74500000D01*
X114110000Y-72620000D02*
X114110000Y-73890000D01*
X111000000Y-77000000D02*
X111000000Y-94000000D01*
X114110000Y-73890000D02*
X111000000Y-77000000D01*
X111570000Y-72620000D02*
X111570000Y-72930000D01*
X111570000Y-72930000D02*
X109000000Y-75500000D01*
X109000000Y-75500000D02*
X109000000Y-98000000D01*
X109000000Y-98000000D02*
X111000000Y-100000000D01*
X111000000Y-100000000D02*
X111000000Y-108500000D01*
X129500000Y-143650000D02*
X134570000Y-143650000D01*
X134570000Y-143650000D02*
X136000000Y-145080000D01*
X136350000Y-123500000D02*
X136350000Y-126230000D01*
X136350000Y-126230000D02*
X136000000Y-126580000D01*
X132500000Y-94000000D02*
X132500000Y-92500000D01*
X133500000Y-74230000D02*
X131890000Y-72620000D01*
X133500000Y-91500000D02*
X133500000Y-74230000D01*
X132500000Y-92500000D02*
X133500000Y-91500000D01*
X131890000Y-72620000D02*
X131890000Y-72890000D01*
X136000000Y-116000000D02*
X137500000Y-117500000D01*
X124000000Y-76000000D02*
X126810000Y-73190000D01*
X124000000Y-92500000D02*
X124000000Y-76000000D01*
X136000000Y-105000000D02*
X124000000Y-92500000D01*
X136000000Y-116000000D02*
X136000000Y-116000000D01*
X136000000Y-116000000D02*
X136000000Y-105000000D01*
X126810000Y-73190000D02*
X126810000Y-72620000D01*
X121730000Y-72620000D02*
X121730000Y-74670000D01*
X121730000Y-74670000D02*
X119000000Y-77400000D01*
X106490000Y-57380000D02*
X104620000Y-57380000D01*
X104620000Y-57380000D02*
X104500000Y-57500000D01*
X104500000Y-75900000D02*
X106000000Y-77400000D01*
X104500000Y-57500000D02*
X104500000Y-75900000D01*
X121650000Y-142500000D02*
X121650000Y-143350000D01*
X121650000Y-143350000D02*
X118550000Y-146450000D01*
X117500000Y-146450000D02*
X118550000Y-146450000D01*
X118550000Y-146450000D02*
X129400000Y-146450000D01*
X129400000Y-146450000D02*
X129500000Y-146350000D01*
X121650000Y-142750000D02*
X121650000Y-142500000D01*
X133650000Y-123500000D02*
X133650000Y-123400000D01*
X133650000Y-123400000D02*
X136550000Y-120500000D01*
X136550000Y-120500000D02*
X131150000Y-120500000D01*
X136550000Y-120500000D02*
X136400000Y-120650000D01*
D34*
G36*
X142290000Y-158290000D02*
X103710000Y-158290000D01*
X103710000Y-156765750D01*
X108115000Y-156765750D01*
X108115000Y-157106310D01*
X108211673Y-157339699D01*
X108390302Y-157518327D01*
X108623691Y-157615000D01*
X109714250Y-157615000D01*
X109873000Y-157456250D01*
X109873000Y-156607000D01*
X110127000Y-156607000D01*
X110127000Y-157456250D01*
X110285750Y-157615000D01*
X111376309Y-157615000D01*
X111609698Y-157518327D01*
X111788327Y-157339699D01*
X111885000Y-157106310D01*
X111885000Y-156765750D01*
X121115000Y-156765750D01*
X121115000Y-157106310D01*
X121211673Y-157339699D01*
X121390302Y-157518327D01*
X121623691Y-157615000D01*
X122714250Y-157615000D01*
X122873000Y-157456250D01*
X122873000Y-156607000D01*
X123127000Y-156607000D01*
X123127000Y-157456250D01*
X123285750Y-157615000D01*
X124376309Y-157615000D01*
X124609698Y-157518327D01*
X124788327Y-157339699D01*
X124885000Y-157106310D01*
X124885000Y-156765750D01*
X134115000Y-156765750D01*
X134115000Y-157106310D01*
X134211673Y-157339699D01*
X134390302Y-157518327D01*
X134623691Y-157615000D01*
X135714250Y-157615000D01*
X135873000Y-157456250D01*
X135873000Y-156607000D01*
X136127000Y-156607000D01*
X136127000Y-157456250D01*
X136285750Y-157615000D01*
X137376309Y-157615000D01*
X137609698Y-157518327D01*
X137788327Y-157339699D01*
X137885000Y-157106310D01*
X137885000Y-156765750D01*
X137726250Y-156607000D01*
X136127000Y-156607000D01*
X135873000Y-156607000D01*
X134273750Y-156607000D01*
X134115000Y-156765750D01*
X124885000Y-156765750D01*
X124726250Y-156607000D01*
X123127000Y-156607000D01*
X122873000Y-156607000D01*
X121273750Y-156607000D01*
X121115000Y-156765750D01*
X111885000Y-156765750D01*
X111726250Y-156607000D01*
X110127000Y-156607000D01*
X109873000Y-156607000D01*
X108273750Y-156607000D01*
X108115000Y-156765750D01*
X103710000Y-156765750D01*
X103710000Y-155853690D01*
X108115000Y-155853690D01*
X108115000Y-156194250D01*
X108273750Y-156353000D01*
X109873000Y-156353000D01*
X109873000Y-155503750D01*
X110127000Y-155503750D01*
X110127000Y-156353000D01*
X111726250Y-156353000D01*
X111885000Y-156194250D01*
X111885000Y-155853690D01*
X121115000Y-155853690D01*
X121115000Y-156194250D01*
X121273750Y-156353000D01*
X122873000Y-156353000D01*
X122873000Y-155503750D01*
X123127000Y-155503750D01*
X123127000Y-156353000D01*
X124726250Y-156353000D01*
X124885000Y-156194250D01*
X124885000Y-155853690D01*
X134115000Y-155853690D01*
X134115000Y-156194250D01*
X134273750Y-156353000D01*
X135873000Y-156353000D01*
X135873000Y-155503750D01*
X136127000Y-155503750D01*
X136127000Y-156353000D01*
X137726250Y-156353000D01*
X137885000Y-156194250D01*
X137885000Y-155853690D01*
X137788327Y-155620301D01*
X137609698Y-155441673D01*
X137376309Y-155345000D01*
X136285750Y-155345000D01*
X136127000Y-155503750D01*
X135873000Y-155503750D01*
X135714250Y-155345000D01*
X134623691Y-155345000D01*
X134390302Y-155441673D01*
X134211673Y-155620301D01*
X134115000Y-155853690D01*
X124885000Y-155853690D01*
X124788327Y-155620301D01*
X124609698Y-155441673D01*
X124376309Y-155345000D01*
X123285750Y-155345000D01*
X123127000Y-155503750D01*
X122873000Y-155503750D01*
X122714250Y-155345000D01*
X121623691Y-155345000D01*
X121390302Y-155441673D01*
X121211673Y-155620301D01*
X121115000Y-155853690D01*
X111885000Y-155853690D01*
X111788327Y-155620301D01*
X111609698Y-155441673D01*
X111376309Y-155345000D01*
X110285750Y-155345000D01*
X110127000Y-155503750D01*
X109873000Y-155503750D01*
X109714250Y-155345000D01*
X108623691Y-155345000D01*
X108390302Y-155441673D01*
X108211673Y-155620301D01*
X108115000Y-155853690D01*
X103710000Y-155853690D01*
X103710000Y-152880000D01*
X108102560Y-152880000D01*
X108102560Y-153880000D01*
X108146838Y-154115317D01*
X108285910Y-154331441D01*
X108498110Y-154476431D01*
X108750000Y-154527440D01*
X111250000Y-154527440D01*
X111485317Y-154483162D01*
X111701441Y-154344090D01*
X111846431Y-154131890D01*
X111897440Y-153880000D01*
X111897440Y-152880000D01*
X121102560Y-152880000D01*
X121102560Y-153880000D01*
X121146838Y-154115317D01*
X121285910Y-154331441D01*
X121498110Y-154476431D01*
X121750000Y-154527440D01*
X124250000Y-154527440D01*
X124485317Y-154483162D01*
X124701441Y-154344090D01*
X124846431Y-154131890D01*
X124897440Y-153880000D01*
X124897440Y-152880000D01*
X134102560Y-152880000D01*
X134102560Y-153880000D01*
X134146838Y-154115317D01*
X134285910Y-154331441D01*
X134498110Y-154476431D01*
X134750000Y-154527440D01*
X137250000Y-154527440D01*
X137485317Y-154483162D01*
X137701441Y-154344090D01*
X137846431Y-154131890D01*
X137897440Y-153880000D01*
X137897440Y-152880000D01*
X137853162Y-152644683D01*
X137714090Y-152428559D01*
X137501890Y-152283569D01*
X137250000Y-152232560D01*
X134750000Y-152232560D01*
X134514683Y-152276838D01*
X134298559Y-152415910D01*
X134153569Y-152628110D01*
X134102560Y-152880000D01*
X124897440Y-152880000D01*
X124853162Y-152644683D01*
X124714090Y-152428559D01*
X124501890Y-152283569D01*
X124250000Y-152232560D01*
X121750000Y-152232560D01*
X121514683Y-152276838D01*
X121298559Y-152415910D01*
X121153569Y-152628110D01*
X121102560Y-152880000D01*
X111897440Y-152880000D01*
X111853162Y-152644683D01*
X111714090Y-152428559D01*
X111501890Y-152283569D01*
X111250000Y-152232560D01*
X108750000Y-152232560D01*
X108514683Y-152276838D01*
X108298559Y-152415910D01*
X108153569Y-152628110D01*
X108102560Y-152880000D01*
X103710000Y-152880000D01*
X103710000Y-150373305D01*
X108114674Y-150373305D01*
X108401043Y-151066372D01*
X108930839Y-151597093D01*
X109623405Y-151884672D01*
X110373305Y-151885326D01*
X111066372Y-151598957D01*
X111597093Y-151069161D01*
X111884672Y-150376595D01*
X111884674Y-150373305D01*
X121114674Y-150373305D01*
X121401043Y-151066372D01*
X121930839Y-151597093D01*
X122623405Y-151884672D01*
X123373305Y-151885326D01*
X124066372Y-151598957D01*
X124597093Y-151069161D01*
X124884672Y-150376595D01*
X124884674Y-150373305D01*
X134114674Y-150373305D01*
X134401043Y-151066372D01*
X134930839Y-151597093D01*
X135623405Y-151884672D01*
X136373305Y-151885326D01*
X137066372Y-151598957D01*
X137597093Y-151069161D01*
X137884672Y-150376595D01*
X137885326Y-149626695D01*
X137598957Y-148933628D01*
X137069161Y-148402907D01*
X136376595Y-148115328D01*
X135626695Y-148114674D01*
X134933628Y-148401043D01*
X134402907Y-148930839D01*
X134115328Y-149623405D01*
X134114674Y-150373305D01*
X124884674Y-150373305D01*
X124885326Y-149626695D01*
X124598957Y-148933628D01*
X124069161Y-148402907D01*
X123376595Y-148115328D01*
X122626695Y-148114674D01*
X121933628Y-148401043D01*
X121402907Y-148930839D01*
X121115328Y-149623405D01*
X121114674Y-150373305D01*
X111884674Y-150373305D01*
X111885326Y-149626695D01*
X111598957Y-148933628D01*
X111069161Y-148402907D01*
X110376595Y-148115328D01*
X109626695Y-148114674D01*
X108933628Y-148401043D01*
X108402907Y-148930839D01*
X108115328Y-149623405D01*
X108114674Y-150373305D01*
X103710000Y-150373305D01*
X103710000Y-144580000D01*
X108102560Y-144580000D01*
X108102560Y-145580000D01*
X108146838Y-145815317D01*
X108285910Y-146031441D01*
X108498110Y-146176431D01*
X108750000Y-146227440D01*
X111250000Y-146227440D01*
X111485317Y-146183162D01*
X111701441Y-146044090D01*
X111846431Y-145831890D01*
X111897440Y-145580000D01*
X111897440Y-144580000D01*
X111853162Y-144344683D01*
X111714090Y-144128559D01*
X111501890Y-143983569D01*
X111250000Y-143932560D01*
X108750000Y-143932560D01*
X108514683Y-143976838D01*
X108298559Y-144115910D01*
X108153569Y-144328110D01*
X108102560Y-144580000D01*
X103710000Y-144580000D01*
X103710000Y-143391985D01*
X103813201Y-143434838D01*
X104185167Y-143435162D01*
X104528943Y-143293117D01*
X104562118Y-143260000D01*
X111185198Y-143260000D01*
X112923213Y-144998015D01*
X112902560Y-145100000D01*
X112902560Y-145900000D01*
X112946838Y-146135317D01*
X113085910Y-146351441D01*
X113298110Y-146496431D01*
X113550000Y-146547440D01*
X115450000Y-146547440D01*
X115685317Y-146503162D01*
X115901441Y-146364090D01*
X115902560Y-146362452D01*
X115902560Y-146850000D01*
X115946838Y-147085317D01*
X116085910Y-147301441D01*
X116298110Y-147446431D01*
X116550000Y-147497440D01*
X118450000Y-147497440D01*
X118685317Y-147453162D01*
X118901441Y-147314090D01*
X118972563Y-147210000D01*
X128223258Y-147210000D01*
X128246838Y-147335317D01*
X128385910Y-147551441D01*
X128598110Y-147696431D01*
X128850000Y-147747440D01*
X130150000Y-147747440D01*
X130385317Y-147703162D01*
X130601441Y-147564090D01*
X130746431Y-147351890D01*
X130797440Y-147100000D01*
X130797440Y-145600000D01*
X130753162Y-145364683D01*
X130614090Y-145148559D01*
X130401890Y-145003569D01*
X130388803Y-145000919D01*
X130601441Y-144864090D01*
X130746431Y-144651890D01*
X130795415Y-144410000D01*
X134136986Y-144410000D01*
X134102560Y-144580000D01*
X134102560Y-145580000D01*
X134146838Y-145815317D01*
X134285910Y-146031441D01*
X134498110Y-146176431D01*
X134750000Y-146227440D01*
X137250000Y-146227440D01*
X137485317Y-146183162D01*
X137701441Y-146044090D01*
X137846431Y-145831890D01*
X137897440Y-145580000D01*
X137897440Y-144580000D01*
X137853162Y-144344683D01*
X137714090Y-144128559D01*
X137501890Y-143983569D01*
X137250000Y-143932560D01*
X135927362Y-143932560D01*
X135107401Y-143112599D01*
X134860839Y-142947852D01*
X134570000Y-142890000D01*
X130795558Y-142890000D01*
X130753162Y-142664683D01*
X130614090Y-142448559D01*
X130401890Y-142303569D01*
X130150000Y-142252560D01*
X128850000Y-142252560D01*
X128614683Y-142296838D01*
X128398559Y-142435910D01*
X128253569Y-142648110D01*
X128202560Y-142900000D01*
X128202560Y-144400000D01*
X128246838Y-144635317D01*
X128385910Y-144851441D01*
X128598110Y-144996431D01*
X128611197Y-144999081D01*
X128398559Y-145135910D01*
X128253569Y-145348110D01*
X128202560Y-145600000D01*
X128202560Y-145690000D01*
X124875164Y-145690000D01*
X124897440Y-145580000D01*
X124897440Y-144580000D01*
X124853162Y-144344683D01*
X124714090Y-144128559D01*
X124501890Y-143983569D01*
X124250000Y-143932560D01*
X122142242Y-143932560D01*
X122187401Y-143887401D01*
X122247511Y-143797440D01*
X122400000Y-143797440D01*
X122635317Y-143753162D01*
X122851441Y-143614090D01*
X122996431Y-143401890D01*
X123003191Y-143368510D01*
X123061673Y-143509699D01*
X123240302Y-143688327D01*
X123473691Y-143785000D01*
X124064250Y-143785000D01*
X124223000Y-143626250D01*
X124223000Y-142627000D01*
X124477000Y-142627000D01*
X124477000Y-143626250D01*
X124635750Y-143785000D01*
X125226309Y-143785000D01*
X125459698Y-143688327D01*
X125638327Y-143509699D01*
X125735000Y-143276310D01*
X125735000Y-142785750D01*
X125576250Y-142627000D01*
X124477000Y-142627000D01*
X124223000Y-142627000D01*
X124203000Y-142627000D01*
X124203000Y-142373000D01*
X124223000Y-142373000D01*
X124223000Y-141373750D01*
X124477000Y-141373750D01*
X124477000Y-142373000D01*
X125576250Y-142373000D01*
X125735000Y-142214250D01*
X125735000Y-141723690D01*
X125638327Y-141490301D01*
X125459698Y-141311673D01*
X125226309Y-141215000D01*
X124635750Y-141215000D01*
X124477000Y-141373750D01*
X124223000Y-141373750D01*
X124064250Y-141215000D01*
X123473691Y-141215000D01*
X123240302Y-141311673D01*
X123061673Y-141490301D01*
X123005346Y-141626287D01*
X123003162Y-141614683D01*
X122864090Y-141398559D01*
X122651890Y-141253569D01*
X122400000Y-141202560D01*
X120900000Y-141202560D01*
X120664683Y-141246838D01*
X120448559Y-141385910D01*
X120303569Y-141598110D01*
X120252560Y-141850000D01*
X120252560Y-143150000D01*
X120296838Y-143385317D01*
X120391998Y-143533200D01*
X119085000Y-144840198D01*
X119085000Y-144835750D01*
X118926250Y-144677000D01*
X117627000Y-144677000D01*
X117627000Y-144697000D01*
X117373000Y-144697000D01*
X117373000Y-144677000D01*
X116073750Y-144677000D01*
X115987738Y-144763012D01*
X115914090Y-144648559D01*
X115701890Y-144503569D01*
X115576917Y-144478261D01*
X115702148Y-144290839D01*
X115755287Y-144023690D01*
X115915000Y-144023690D01*
X115915000Y-144264250D01*
X116073750Y-144423000D01*
X117373000Y-144423000D01*
X117373000Y-143673750D01*
X117627000Y-143673750D01*
X117627000Y-144423000D01*
X118926250Y-144423000D01*
X119085000Y-144264250D01*
X119085000Y-144023690D01*
X118988327Y-143790301D01*
X118809698Y-143611673D01*
X118576309Y-143515000D01*
X117785750Y-143515000D01*
X117627000Y-143673750D01*
X117373000Y-143673750D01*
X117214250Y-143515000D01*
X116423691Y-143515000D01*
X116190302Y-143611673D01*
X116011673Y-143790301D01*
X115915000Y-144023690D01*
X115755287Y-144023690D01*
X115760000Y-144000000D01*
X115702148Y-143709161D01*
X115537401Y-143462599D01*
X115290839Y-143297852D01*
X115000000Y-143240000D01*
X114500000Y-143240000D01*
X114209161Y-143297852D01*
X113962599Y-143462599D01*
X113797852Y-143709161D01*
X113795548Y-143720746D01*
X112037401Y-141962599D01*
X111790839Y-141797852D01*
X111500000Y-141740000D01*
X107139540Y-141740000D01*
X107335317Y-141703162D01*
X107551441Y-141564090D01*
X107696431Y-141351890D01*
X107747440Y-141100000D01*
X107747440Y-140000000D01*
X111851009Y-140000000D01*
X111983078Y-140663956D01*
X112359179Y-141226830D01*
X112922053Y-141602931D01*
X113586009Y-141735000D01*
X113653991Y-141735000D01*
X114317947Y-141602931D01*
X114880821Y-141226830D01*
X115256922Y-140663956D01*
X115388991Y-140000000D01*
X115273818Y-139420984D01*
X119037401Y-135657401D01*
X119202148Y-135410840D01*
X119225371Y-135294089D01*
X119974743Y-135294089D01*
X120200344Y-135840086D01*
X120617717Y-136258188D01*
X121163319Y-136484742D01*
X121754089Y-136485257D01*
X122300086Y-136259656D01*
X122535435Y-136024717D01*
X122546838Y-136085317D01*
X122685910Y-136301441D01*
X122898110Y-136446431D01*
X123150000Y-136497440D01*
X124850000Y-136497440D01*
X125085317Y-136453162D01*
X125301441Y-136314090D01*
X125446431Y-136101890D01*
X125497440Y-135850000D01*
X125497440Y-135760000D01*
X125685198Y-135760000D01*
X129752560Y-139827362D01*
X129752560Y-141600000D01*
X129796838Y-141835317D01*
X129935910Y-142051441D01*
X130148110Y-142196431D01*
X130400000Y-142247440D01*
X132600000Y-142247440D01*
X132835317Y-142203162D01*
X133051441Y-142064090D01*
X133196431Y-141851890D01*
X133247440Y-141600000D01*
X133247440Y-140500000D01*
X137351009Y-140500000D01*
X137483078Y-141163956D01*
X137859179Y-141726830D01*
X138422053Y-142102931D01*
X139086009Y-142235000D01*
X139153991Y-142235000D01*
X139817947Y-142102931D01*
X140380821Y-141726830D01*
X140756922Y-141163956D01*
X140888991Y-140500000D01*
X140756922Y-139836044D01*
X140380821Y-139273170D01*
X139817947Y-138897069D01*
X139153991Y-138765000D01*
X139086009Y-138765000D01*
X138422053Y-138897069D01*
X137859179Y-139273170D01*
X137483078Y-139836044D01*
X137351009Y-140500000D01*
X133247440Y-140500000D01*
X133247440Y-139400000D01*
X133203162Y-139164683D01*
X133064090Y-138948559D01*
X132851890Y-138803569D01*
X132600000Y-138752560D01*
X130827362Y-138752560D01*
X130340552Y-138265750D01*
X134115000Y-138265750D01*
X134115000Y-138606310D01*
X134211673Y-138839699D01*
X134390302Y-139018327D01*
X134623691Y-139115000D01*
X135714250Y-139115000D01*
X135873000Y-138956250D01*
X135873000Y-138107000D01*
X136127000Y-138107000D01*
X136127000Y-138956250D01*
X136285750Y-139115000D01*
X137376309Y-139115000D01*
X137609698Y-139018327D01*
X137788327Y-138839699D01*
X137885000Y-138606310D01*
X137885000Y-138265750D01*
X137726250Y-138107000D01*
X136127000Y-138107000D01*
X135873000Y-138107000D01*
X134273750Y-138107000D01*
X134115000Y-138265750D01*
X130340552Y-138265750D01*
X129428492Y-137353690D01*
X134115000Y-137353690D01*
X134115000Y-137694250D01*
X134273750Y-137853000D01*
X135873000Y-137853000D01*
X135873000Y-137003750D01*
X136127000Y-137003750D01*
X136127000Y-137853000D01*
X137726250Y-137853000D01*
X137885000Y-137694250D01*
X137885000Y-137353690D01*
X137788327Y-137120301D01*
X137609698Y-136941673D01*
X137376309Y-136845000D01*
X136285750Y-136845000D01*
X136127000Y-137003750D01*
X135873000Y-137003750D01*
X135714250Y-136845000D01*
X134623691Y-136845000D01*
X134390302Y-136941673D01*
X134211673Y-137120301D01*
X134115000Y-137353690D01*
X129428492Y-137353690D01*
X126537401Y-134462599D01*
X126413783Y-134380000D01*
X134102560Y-134380000D01*
X134102560Y-135380000D01*
X134146838Y-135615317D01*
X134285910Y-135831441D01*
X134498110Y-135976431D01*
X134750000Y-136027440D01*
X137250000Y-136027440D01*
X137485317Y-135983162D01*
X137701441Y-135844090D01*
X137846431Y-135631890D01*
X137897440Y-135380000D01*
X137897440Y-134380000D01*
X137853162Y-134144683D01*
X137714090Y-133928559D01*
X137501890Y-133783569D01*
X137250000Y-133732560D01*
X134750000Y-133732560D01*
X134514683Y-133776838D01*
X134298559Y-133915910D01*
X134153569Y-134128110D01*
X134102560Y-134380000D01*
X126413783Y-134380000D01*
X126290839Y-134297852D01*
X126000000Y-134240000D01*
X125497440Y-134240000D01*
X125497440Y-134150000D01*
X125453162Y-133914683D01*
X125314090Y-133698559D01*
X125101890Y-133553569D01*
X124863900Y-133505375D01*
X124864353Y-133503958D01*
X124000000Y-132639605D01*
X123135647Y-133503958D01*
X123136040Y-133505187D01*
X122914683Y-133546838D01*
X122698559Y-133685910D01*
X122553569Y-133898110D01*
X122537504Y-133977443D01*
X122302283Y-133741812D01*
X122254688Y-133722049D01*
X122324353Y-133503958D01*
X121460000Y-132639605D01*
X120595647Y-133503958D01*
X120665181Y-133721640D01*
X120619914Y-133740344D01*
X120201812Y-134157717D01*
X119975258Y-134703319D01*
X119974743Y-135294089D01*
X119225371Y-135294089D01*
X119260000Y-135120000D01*
X119260000Y-132231279D01*
X119963282Y-132231279D01*
X119989685Y-132821458D01*
X120164741Y-133244080D01*
X120416042Y-133324353D01*
X121280395Y-132460000D01*
X121639605Y-132460000D01*
X122503958Y-133324353D01*
X122730000Y-133252148D01*
X122956042Y-133324353D01*
X123820395Y-132460000D01*
X124179605Y-132460000D01*
X125043958Y-133324353D01*
X125295259Y-133244080D01*
X125496718Y-132688721D01*
X125470315Y-132098542D01*
X125377019Y-131873305D01*
X134114674Y-131873305D01*
X134401043Y-132566372D01*
X134930839Y-133097093D01*
X135623405Y-133384672D01*
X136373305Y-133385326D01*
X137066372Y-133098957D01*
X137597093Y-132569161D01*
X137884672Y-131876595D01*
X137885326Y-131126695D01*
X137598957Y-130433628D01*
X137069161Y-129902907D01*
X136376595Y-129615328D01*
X135626695Y-129614674D01*
X134933628Y-129901043D01*
X134402907Y-130430839D01*
X134115328Y-131123405D01*
X134114674Y-131873305D01*
X125377019Y-131873305D01*
X125295259Y-131675920D01*
X125043958Y-131595647D01*
X124179605Y-132460000D01*
X123820395Y-132460000D01*
X122956042Y-131595647D01*
X122730000Y-131667852D01*
X122503958Y-131595647D01*
X121639605Y-132460000D01*
X121280395Y-132460000D01*
X120416042Y-131595647D01*
X120164741Y-131675920D01*
X119963282Y-132231279D01*
X119260000Y-132231279D01*
X119260000Y-130963958D01*
X120595647Y-130963958D01*
X120667852Y-131190000D01*
X120595647Y-131416042D01*
X121460000Y-132280395D01*
X122324353Y-131416042D01*
X122252148Y-131190000D01*
X122324353Y-130963958D01*
X123135647Y-130963958D01*
X123207852Y-131190000D01*
X123135647Y-131416042D01*
X124000000Y-132280395D01*
X124864353Y-131416042D01*
X124792148Y-131190000D01*
X124864353Y-130963958D01*
X124000000Y-130099605D01*
X123135647Y-130963958D01*
X122324353Y-130963958D01*
X121460000Y-130099605D01*
X120595647Y-130963958D01*
X119260000Y-130963958D01*
X119260000Y-129691279D01*
X119963282Y-129691279D01*
X119989685Y-130281458D01*
X120164741Y-130704080D01*
X120416042Y-130784353D01*
X121280395Y-129920000D01*
X121639605Y-129920000D01*
X122503958Y-130784353D01*
X122730000Y-130712148D01*
X122956042Y-130784353D01*
X123820395Y-129920000D01*
X124179605Y-129920000D01*
X125043958Y-130784353D01*
X125295259Y-130704080D01*
X125496718Y-130148721D01*
X125470315Y-129558542D01*
X125295259Y-129135920D01*
X125043958Y-129055647D01*
X124179605Y-129920000D01*
X123820395Y-129920000D01*
X122956042Y-129055647D01*
X122730000Y-129127852D01*
X122503958Y-129055647D01*
X121639605Y-129920000D01*
X121280395Y-129920000D01*
X120416042Y-129055647D01*
X120164741Y-129135920D01*
X119963282Y-129691279D01*
X119260000Y-129691279D01*
X119260000Y-128423958D01*
X120595647Y-128423958D01*
X120667852Y-128650000D01*
X120595647Y-128876042D01*
X121460000Y-129740395D01*
X122324353Y-128876042D01*
X122252148Y-128650000D01*
X122324353Y-128423958D01*
X123135647Y-128423958D01*
X123207852Y-128650000D01*
X123135647Y-128876042D01*
X124000000Y-129740395D01*
X124864353Y-128876042D01*
X124792148Y-128650000D01*
X124864353Y-128423958D01*
X124000000Y-127559605D01*
X123135647Y-128423958D01*
X122324353Y-128423958D01*
X121460000Y-127559605D01*
X120595647Y-128423958D01*
X119260000Y-128423958D01*
X119260000Y-127314802D01*
X119423523Y-127151279D01*
X119963282Y-127151279D01*
X119989685Y-127741458D01*
X120164741Y-128164080D01*
X120416042Y-128244353D01*
X121280395Y-127380000D01*
X121639605Y-127380000D01*
X122503958Y-128244353D01*
X122730000Y-128172148D01*
X122956042Y-128244353D01*
X123820395Y-127380000D01*
X124179605Y-127380000D01*
X125043958Y-128244353D01*
X125295259Y-128164080D01*
X125496718Y-127608721D01*
X125470315Y-127018542D01*
X125295259Y-126595920D01*
X125043958Y-126515647D01*
X124179605Y-127380000D01*
X123820395Y-127380000D01*
X122956042Y-126515647D01*
X122730000Y-126587852D01*
X122503958Y-126515647D01*
X121639605Y-127380000D01*
X121280395Y-127380000D01*
X120416042Y-126515647D01*
X120164741Y-126595920D01*
X119963282Y-127151279D01*
X119423523Y-127151279D01*
X120547227Y-126027575D01*
X120617717Y-126098188D01*
X120665312Y-126117951D01*
X120595647Y-126336042D01*
X121460000Y-127200395D01*
X122324353Y-126336042D01*
X122254819Y-126118360D01*
X122300086Y-126099656D01*
X122718188Y-125682283D01*
X122729748Y-125654443D01*
X122740344Y-125680086D01*
X123157717Y-126098188D01*
X123205312Y-126117951D01*
X123135647Y-126336042D01*
X124000000Y-127200395D01*
X124864353Y-126336042D01*
X124794819Y-126118360D01*
X124840086Y-126099656D01*
X125258188Y-125682283D01*
X125484742Y-125136681D01*
X125485257Y-124545911D01*
X125259656Y-123999914D01*
X124896127Y-123635750D01*
X129715000Y-123635750D01*
X129715000Y-124226309D01*
X129811673Y-124459698D01*
X129990301Y-124638327D01*
X130223690Y-124735000D01*
X130714250Y-124735000D01*
X130873000Y-124576250D01*
X130873000Y-123477000D01*
X129873750Y-123477000D01*
X129715000Y-123635750D01*
X124896127Y-123635750D01*
X124842283Y-123581812D01*
X124296681Y-123355258D01*
X123705911Y-123354743D01*
X123159914Y-123580344D01*
X122741812Y-123997717D01*
X122730252Y-124025557D01*
X122719656Y-123999914D01*
X122302283Y-123581812D01*
X121756681Y-123355258D01*
X121165911Y-123354743D01*
X120619914Y-123580344D01*
X120201812Y-123997717D01*
X120041566Y-124383632D01*
X117962599Y-126462599D01*
X117797852Y-126709161D01*
X117740000Y-127000000D01*
X117740000Y-134805198D01*
X116551622Y-135993576D01*
X116402068Y-135631629D01*
X115970643Y-135199449D01*
X115406670Y-134965267D01*
X114796009Y-134964735D01*
X114231629Y-135197932D01*
X113799449Y-135629357D01*
X113565267Y-136193330D01*
X113564735Y-136803991D01*
X113797932Y-137368371D01*
X114229357Y-137800551D01*
X114593459Y-137951739D01*
X114176304Y-138368894D01*
X113653991Y-138265000D01*
X113586009Y-138265000D01*
X112922053Y-138397069D01*
X112359179Y-138773170D01*
X111983078Y-139336044D01*
X111851009Y-140000000D01*
X107747440Y-140000000D01*
X107747440Y-138900000D01*
X107703162Y-138664683D01*
X107564090Y-138448559D01*
X107351890Y-138303569D01*
X107100000Y-138252560D01*
X106760000Y-138252560D01*
X106760000Y-138035000D01*
X107214250Y-138035000D01*
X107373000Y-137876250D01*
X107373000Y-136627000D01*
X107627000Y-136627000D01*
X107627000Y-137876250D01*
X107785750Y-138035000D01*
X108526310Y-138035000D01*
X108759699Y-137938327D01*
X108938327Y-137759698D01*
X109035000Y-137526309D01*
X109035000Y-136785750D01*
X108876250Y-136627000D01*
X107627000Y-136627000D01*
X107373000Y-136627000D01*
X107353000Y-136627000D01*
X107353000Y-136373000D01*
X107373000Y-136373000D01*
X107373000Y-135123750D01*
X107627000Y-135123750D01*
X107627000Y-136373000D01*
X108876250Y-136373000D01*
X109035000Y-136214250D01*
X109035000Y-135473691D01*
X108938327Y-135240302D01*
X108759699Y-135061673D01*
X108526310Y-134965000D01*
X107785750Y-134965000D01*
X107627000Y-135123750D01*
X107373000Y-135123750D01*
X107214250Y-134965000D01*
X106760000Y-134965000D01*
X106760000Y-126358282D01*
X106790839Y-126352148D01*
X106868874Y-126300007D01*
X107193330Y-126434733D01*
X107803991Y-126435265D01*
X108368371Y-126202068D01*
X108800551Y-125770643D01*
X109034733Y-125206670D01*
X109034735Y-125203991D01*
X113564735Y-125203991D01*
X113797932Y-125768371D01*
X114229357Y-126200551D01*
X114793330Y-126434733D01*
X115403991Y-126435265D01*
X115968371Y-126202068D01*
X116400551Y-125770643D01*
X116634733Y-125206670D01*
X116635265Y-124596009D01*
X116402068Y-124031629D01*
X115970643Y-123599449D01*
X115406670Y-123365267D01*
X114796009Y-123364735D01*
X114231629Y-123597932D01*
X113799449Y-124029357D01*
X113565267Y-124593330D01*
X113564735Y-125203991D01*
X109034735Y-125203991D01*
X109035265Y-124596009D01*
X108802068Y-124031629D01*
X108370643Y-123599449D01*
X107806670Y-123365267D01*
X107709620Y-123365182D01*
X109627362Y-121447440D01*
X110800000Y-121447440D01*
X111035317Y-121403162D01*
X111251441Y-121264090D01*
X111255977Y-121257452D01*
X111783223Y-121446965D01*
X112353454Y-121419778D01*
X112754005Y-121253864D01*
X112819703Y-121035750D01*
X114740000Y-121035750D01*
X114740000Y-121626309D01*
X114836673Y-121859698D01*
X115015301Y-122038327D01*
X115248690Y-122135000D01*
X115714250Y-122135000D01*
X115873000Y-121976250D01*
X115873000Y-120877000D01*
X116127000Y-120877000D01*
X116127000Y-121976250D01*
X116285750Y-122135000D01*
X116751310Y-122135000D01*
X116984699Y-122038327D01*
X117163327Y-121859698D01*
X117260000Y-121626309D01*
X117260000Y-121035750D01*
X117101250Y-120877000D01*
X116127000Y-120877000D01*
X115873000Y-120877000D01*
X114898750Y-120877000D01*
X114740000Y-121035750D01*
X112819703Y-121035750D01*
X112828139Y-121007745D01*
X112000000Y-120179605D01*
X111985858Y-120193748D01*
X111806253Y-120014143D01*
X111820395Y-120000000D01*
X112179605Y-120000000D01*
X113007745Y-120828139D01*
X113253864Y-120754005D01*
X113446965Y-120216777D01*
X113419778Y-119646546D01*
X113253864Y-119245995D01*
X113007745Y-119171861D01*
X112179605Y-120000000D01*
X111820395Y-120000000D01*
X111806253Y-119985858D01*
X111985858Y-119806252D01*
X112000000Y-119820395D01*
X112828139Y-118992255D01*
X112754005Y-118746136D01*
X112216777Y-118553035D01*
X111646546Y-118580222D01*
X111255053Y-118742384D01*
X111051890Y-118603569D01*
X110800000Y-118552560D01*
X110760000Y-118552560D01*
X110760000Y-117814802D01*
X112273327Y-116301475D01*
X112525000Y-116352440D01*
X113027638Y-116352440D01*
X114727560Y-118052362D01*
X114727560Y-119000000D01*
X114771838Y-119235317D01*
X114910910Y-119451441D01*
X114979006Y-119497969D01*
X114836673Y-119640302D01*
X114740000Y-119873691D01*
X114740000Y-120464250D01*
X114898750Y-120623000D01*
X115873000Y-120623000D01*
X115873000Y-120603000D01*
X116127000Y-120603000D01*
X116127000Y-120623000D01*
X117101250Y-120623000D01*
X117260000Y-120464250D01*
X117260000Y-120260000D01*
X125000000Y-120260000D01*
X125290839Y-120202148D01*
X125537401Y-120037401D01*
X127877362Y-117697440D01*
X128850000Y-117697440D01*
X129085317Y-117653162D01*
X129301441Y-117514090D01*
X129446431Y-117301890D01*
X129497440Y-117050000D01*
X129497440Y-115550000D01*
X129453162Y-115314683D01*
X129346241Y-115148523D01*
X129446431Y-115001890D01*
X129495415Y-114760000D01*
X129500000Y-114760000D01*
X129790839Y-114702148D01*
X130037401Y-114537401D01*
X132509608Y-112065194D01*
X132502560Y-112100000D01*
X132502560Y-115900000D01*
X132546838Y-116135317D01*
X132685910Y-116351441D01*
X132898110Y-116496431D01*
X133150000Y-116547440D01*
X135150000Y-116547440D01*
X135385317Y-116503162D01*
X135423363Y-116478680D01*
X135462599Y-116537401D01*
X136452560Y-117527362D01*
X136452560Y-118450000D01*
X136496838Y-118685317D01*
X136635910Y-118901441D01*
X136637548Y-118902560D01*
X136150000Y-118902560D01*
X135914683Y-118946838D01*
X135698559Y-119085910D01*
X135553569Y-119298110D01*
X135502560Y-119550000D01*
X135502560Y-119740000D01*
X132267334Y-119740000D01*
X132253162Y-119664683D01*
X132114090Y-119448559D01*
X131901890Y-119303569D01*
X131650000Y-119252560D01*
X130350000Y-119252560D01*
X130114683Y-119296838D01*
X129898559Y-119435910D01*
X129753569Y-119648110D01*
X129702560Y-119900000D01*
X129702560Y-121400000D01*
X129746838Y-121635317D01*
X129885910Y-121851441D01*
X130098110Y-121996431D01*
X130131490Y-122003191D01*
X129990301Y-122061673D01*
X129811673Y-122240302D01*
X129715000Y-122473691D01*
X129715000Y-123064250D01*
X129873750Y-123223000D01*
X130873000Y-123223000D01*
X130873000Y-123203000D01*
X131127000Y-123203000D01*
X131127000Y-123223000D01*
X131147000Y-123223000D01*
X131147000Y-123477000D01*
X131127000Y-123477000D01*
X131127000Y-124576250D01*
X131285750Y-124735000D01*
X131776310Y-124735000D01*
X132009699Y-124638327D01*
X132188327Y-124459698D01*
X132272567Y-124256326D01*
X132296838Y-124385317D01*
X132435910Y-124601441D01*
X132648110Y-124746431D01*
X132900000Y-124797440D01*
X134400000Y-124797440D01*
X134635317Y-124753162D01*
X134851441Y-124614090D01*
X134996431Y-124401890D01*
X134999081Y-124388803D01*
X135135910Y-124601441D01*
X135348110Y-124746431D01*
X135590000Y-124795415D01*
X135590000Y-125432560D01*
X134750000Y-125432560D01*
X134514683Y-125476838D01*
X134298559Y-125615910D01*
X134153569Y-125828110D01*
X134102560Y-126080000D01*
X134102560Y-127080000D01*
X134146838Y-127315317D01*
X134285910Y-127531441D01*
X134498110Y-127676431D01*
X134750000Y-127727440D01*
X137250000Y-127727440D01*
X137485317Y-127683162D01*
X137701441Y-127544090D01*
X137846431Y-127331890D01*
X137897440Y-127080000D01*
X137897440Y-126080000D01*
X137853162Y-125844683D01*
X137714090Y-125628559D01*
X137501890Y-125483569D01*
X137250000Y-125432560D01*
X137110000Y-125432560D01*
X137110000Y-124795558D01*
X137335317Y-124753162D01*
X137551441Y-124614090D01*
X137696431Y-124401890D01*
X137747440Y-124150000D01*
X137747440Y-122850000D01*
X137703162Y-122614683D01*
X137564090Y-122398559D01*
X137351890Y-122253569D01*
X137100000Y-122202560D01*
X135922242Y-122202560D01*
X136048015Y-122076787D01*
X136150000Y-122097440D01*
X136950000Y-122097440D01*
X137185317Y-122053162D01*
X137401441Y-121914090D01*
X137496990Y-121774250D01*
X137511673Y-121809698D01*
X137690301Y-121988327D01*
X137923690Y-122085000D01*
X138164250Y-122085000D01*
X138323000Y-121926250D01*
X138323000Y-120627000D01*
X138577000Y-120627000D01*
X138577000Y-121926250D01*
X138735750Y-122085000D01*
X138976310Y-122085000D01*
X139209699Y-121988327D01*
X139388327Y-121809698D01*
X139485000Y-121576309D01*
X139485000Y-120785750D01*
X139326250Y-120627000D01*
X138577000Y-120627000D01*
X138323000Y-120627000D01*
X138303000Y-120627000D01*
X138303000Y-120373000D01*
X138323000Y-120373000D01*
X138323000Y-119073750D01*
X138577000Y-119073750D01*
X138577000Y-120373000D01*
X139326250Y-120373000D01*
X139485000Y-120214250D01*
X139485000Y-119423691D01*
X139388327Y-119190302D01*
X139209699Y-119011673D01*
X138976310Y-118915000D01*
X138735750Y-118915000D01*
X138577000Y-119073750D01*
X138323000Y-119073750D01*
X138236988Y-118987738D01*
X138351441Y-118914090D01*
X138496431Y-118701890D01*
X138547440Y-118450000D01*
X138547440Y-116550000D01*
X138503162Y-116314683D01*
X138364090Y-116098559D01*
X138151890Y-115953569D01*
X137900000Y-115902560D01*
X137100000Y-115902560D01*
X136996784Y-115921982D01*
X136760000Y-115685198D01*
X136760000Y-112758025D01*
X136840302Y-112838327D01*
X137073691Y-112935000D01*
X137714250Y-112935000D01*
X137873000Y-112776250D01*
X137873000Y-111627000D01*
X137853000Y-111627000D01*
X137853000Y-111373000D01*
X137873000Y-111373000D01*
X137873000Y-110223750D01*
X138127000Y-110223750D01*
X138127000Y-111373000D01*
X138147000Y-111373000D01*
X138147000Y-111627000D01*
X138127000Y-111627000D01*
X138127000Y-112776250D01*
X138285750Y-112935000D01*
X138926309Y-112935000D01*
X139159698Y-112838327D01*
X139253998Y-112744027D01*
X139713309Y-112934750D01*
X140284187Y-112935248D01*
X140811800Y-112717243D01*
X141215824Y-112313923D01*
X141434750Y-111786691D01*
X141435248Y-111215813D01*
X141217243Y-110688200D01*
X140813923Y-110284176D01*
X140286691Y-110065250D01*
X139715813Y-110064752D01*
X139253713Y-110255688D01*
X139159698Y-110161673D01*
X138926309Y-110065000D01*
X138285750Y-110065000D01*
X138127000Y-110223750D01*
X137873000Y-110223750D01*
X137714250Y-110065000D01*
X137073691Y-110065000D01*
X136840302Y-110161673D01*
X136760000Y-110241975D01*
X136760000Y-105000000D01*
X136732555Y-104862024D01*
X136707936Y-104723547D01*
X136703687Y-104716898D01*
X136702148Y-104709161D01*
X136624012Y-104592222D01*
X136548254Y-104473675D01*
X133714487Y-101521834D01*
X134264543Y-101521834D01*
X134664853Y-102490658D01*
X135405443Y-103232542D01*
X136373567Y-103634542D01*
X137421834Y-103635457D01*
X138390658Y-103235147D01*
X139132542Y-102494557D01*
X139534542Y-101526433D01*
X139535457Y-100478166D01*
X139135147Y-99509342D01*
X138394557Y-98767458D01*
X137426433Y-98365458D01*
X136378166Y-98364543D01*
X135409342Y-98764853D01*
X134667458Y-99505443D01*
X134265458Y-100473567D01*
X134264543Y-101521834D01*
X133714487Y-101521834D01*
X127530479Y-95080159D01*
X129099446Y-95080159D01*
X129185852Y-95336643D01*
X129759336Y-95546458D01*
X130369460Y-95520839D01*
X130814148Y-95336643D01*
X130900554Y-95080159D01*
X130000000Y-94179605D01*
X129099446Y-95080159D01*
X127530479Y-95080159D01*
X126262488Y-93759336D01*
X128453542Y-93759336D01*
X128479161Y-94369460D01*
X128663357Y-94814148D01*
X128919841Y-94900554D01*
X129820395Y-94000000D01*
X128919841Y-93099446D01*
X128663357Y-93185852D01*
X128453542Y-93759336D01*
X126262488Y-93759336D01*
X125456573Y-92919841D01*
X129099446Y-92919841D01*
X130000000Y-93820395D01*
X130900554Y-92919841D01*
X130814148Y-92663357D01*
X130240664Y-92453542D01*
X129630540Y-92479161D01*
X129185852Y-92663357D01*
X129099446Y-92919841D01*
X125456573Y-92919841D01*
X124760000Y-92194245D01*
X124760000Y-89303991D01*
X125064735Y-89303991D01*
X125297932Y-89868371D01*
X125729357Y-90300551D01*
X126293330Y-90534733D01*
X126903991Y-90535265D01*
X127468371Y-90302068D01*
X127900551Y-89870643D01*
X128134733Y-89306670D01*
X128134751Y-89285750D01*
X130465000Y-89285750D01*
X130465000Y-90026309D01*
X130561673Y-90259698D01*
X130740301Y-90438327D01*
X130973690Y-90535000D01*
X131714250Y-90535000D01*
X131873000Y-90376250D01*
X131873000Y-89127000D01*
X130623750Y-89127000D01*
X130465000Y-89285750D01*
X128134751Y-89285750D01*
X128135265Y-88696009D01*
X127902068Y-88131629D01*
X127744406Y-87973691D01*
X130465000Y-87973691D01*
X130465000Y-88714250D01*
X130623750Y-88873000D01*
X131873000Y-88873000D01*
X131873000Y-87623750D01*
X131714250Y-87465000D01*
X130973690Y-87465000D01*
X130740301Y-87561673D01*
X130561673Y-87740302D01*
X130465000Y-87973691D01*
X127744406Y-87973691D01*
X127470643Y-87699449D01*
X126906670Y-87465267D01*
X126296009Y-87464735D01*
X125731629Y-87697932D01*
X125299449Y-88129357D01*
X125065267Y-88693330D01*
X125064735Y-89303991D01*
X124760000Y-89303991D01*
X124760000Y-77703991D01*
X125064735Y-77703991D01*
X125297932Y-78268371D01*
X125729357Y-78700551D01*
X126293330Y-78934733D01*
X126903991Y-78935265D01*
X127468371Y-78702068D01*
X127900551Y-78270643D01*
X128134733Y-77706670D01*
X128135265Y-77096009D01*
X127902068Y-76531629D01*
X127470643Y-76099449D01*
X126906670Y-75865267D01*
X126296009Y-75864735D01*
X125731629Y-76097932D01*
X125299449Y-76529357D01*
X125065267Y-77093330D01*
X125064735Y-77703991D01*
X124760000Y-77703991D01*
X124760000Y-76314802D01*
X127019619Y-74055183D01*
X127094187Y-74055248D01*
X127621800Y-73837243D01*
X128025824Y-73433923D01*
X128079862Y-73303785D01*
X128132757Y-73431800D01*
X128536077Y-73835824D01*
X129063309Y-74054750D01*
X129634187Y-74055248D01*
X130161800Y-73837243D01*
X130565824Y-73433923D01*
X130619862Y-73303785D01*
X130672757Y-73431800D01*
X131076077Y-73835824D01*
X131603309Y-74054750D01*
X132174187Y-74055248D01*
X132228149Y-74032951D01*
X132740000Y-74544802D01*
X132740000Y-76045201D01*
X132306670Y-75865267D01*
X131696009Y-75864735D01*
X131131629Y-76097932D01*
X130699449Y-76529357D01*
X130465267Y-77093330D01*
X130464735Y-77703991D01*
X130697932Y-78268371D01*
X131129357Y-78700551D01*
X131693330Y-78934733D01*
X132303991Y-78935265D01*
X132740000Y-78755110D01*
X132740000Y-87465000D01*
X132285750Y-87465000D01*
X132127000Y-87623750D01*
X132127000Y-88873000D01*
X132147000Y-88873000D01*
X132147000Y-89127000D01*
X132127000Y-89127000D01*
X132127000Y-90376250D01*
X132285750Y-90535000D01*
X132740000Y-90535000D01*
X132740000Y-91185198D01*
X131962599Y-91962599D01*
X131797852Y-92209161D01*
X131740000Y-92500000D01*
X131740000Y-92653154D01*
X131631629Y-92697932D01*
X131199449Y-93129357D01*
X131195706Y-93138372D01*
X131080159Y-93099446D01*
X130179605Y-94000000D01*
X131080159Y-94900554D01*
X131195214Y-94861793D01*
X131197932Y-94868371D01*
X131629357Y-95300551D01*
X132193330Y-95534733D01*
X132803991Y-95535265D01*
X133368371Y-95302068D01*
X133750288Y-94920818D01*
X134129357Y-95300551D01*
X134294196Y-95368998D01*
X134462599Y-95537401D01*
X134709161Y-95702148D01*
X135000000Y-95760000D01*
X135290840Y-95702148D01*
X135537401Y-95537401D01*
X135628390Y-95401226D01*
X135868371Y-95302068D01*
X136300551Y-94870643D01*
X136534733Y-94306670D01*
X136535265Y-93696009D01*
X136302068Y-93131629D01*
X135870643Y-92699449D01*
X135306670Y-92465267D01*
X135190000Y-92465165D01*
X135190000Y-89303991D01*
X138064735Y-89303991D01*
X138297932Y-89868371D01*
X138729357Y-90300551D01*
X139293330Y-90534733D01*
X139903991Y-90535265D01*
X140468371Y-90302068D01*
X140900551Y-89870643D01*
X141134733Y-89306670D01*
X141135265Y-88696009D01*
X140902068Y-88131629D01*
X140470643Y-87699449D01*
X139906670Y-87465267D01*
X139296009Y-87464735D01*
X138731629Y-87697932D01*
X138299449Y-88129357D01*
X138065267Y-88693330D01*
X138064735Y-89303991D01*
X135190000Y-89303991D01*
X135190000Y-77703991D01*
X138064735Y-77703991D01*
X138297932Y-78268371D01*
X138729357Y-78700551D01*
X139293330Y-78934733D01*
X139903991Y-78935265D01*
X140468371Y-78702068D01*
X140900551Y-78270643D01*
X141134733Y-77706670D01*
X141135265Y-77096009D01*
X140902068Y-76531629D01*
X140470643Y-76099449D01*
X139906670Y-75865267D01*
X139296009Y-75864735D01*
X138731629Y-76097932D01*
X138299449Y-76529357D01*
X138065267Y-77093330D01*
X138064735Y-77703991D01*
X135190000Y-77703991D01*
X135190000Y-73858646D01*
X135241800Y-73837243D01*
X135645824Y-73433923D01*
X135699862Y-73303785D01*
X135752757Y-73431800D01*
X136156077Y-73835824D01*
X136683309Y-74054750D01*
X137254187Y-74055248D01*
X137781800Y-73837243D01*
X138185824Y-73433923D01*
X138239862Y-73303785D01*
X138292757Y-73431800D01*
X138696077Y-73835824D01*
X139223309Y-74054750D01*
X139794187Y-74055248D01*
X140321800Y-73837243D01*
X140725824Y-73433923D01*
X140944750Y-72906691D01*
X140945248Y-72335813D01*
X140727243Y-71808200D01*
X140323923Y-71404176D01*
X139796691Y-71185250D01*
X139225813Y-71184752D01*
X138698200Y-71402757D01*
X138294176Y-71806077D01*
X138240138Y-71936215D01*
X138187243Y-71808200D01*
X137783923Y-71404176D01*
X137256691Y-71185250D01*
X136685813Y-71184752D01*
X136158200Y-71402757D01*
X135754176Y-71806077D01*
X135700138Y-71936215D01*
X135647243Y-71808200D01*
X135243923Y-71404176D01*
X135190000Y-71381785D01*
X135190000Y-66869709D01*
X142055431Y-59518745D01*
X142126845Y-59403538D01*
X142202148Y-59290839D01*
X142204720Y-59277908D01*
X142211666Y-59266703D01*
X142233556Y-59132943D01*
X142260000Y-59000000D01*
X142260000Y-52500000D01*
X142202148Y-52209161D01*
X142037401Y-51962599D01*
X140037401Y-49962599D01*
X139790839Y-49797852D01*
X139500000Y-49740000D01*
X129700000Y-49740000D01*
X129409161Y-49797852D01*
X129162599Y-49962599D01*
X128446408Y-50678790D01*
X128080000Y-50605907D01*
X127511715Y-50718946D01*
X127029946Y-51040853D01*
X126810000Y-51370026D01*
X126590054Y-51040853D01*
X126108285Y-50718946D01*
X125540000Y-50605907D01*
X124971715Y-50718946D01*
X124489946Y-51040853D01*
X124270000Y-51370026D01*
X124050054Y-51040853D01*
X123568285Y-50718946D01*
X123000000Y-50605907D01*
X122431715Y-50718946D01*
X121949946Y-51040853D01*
X121730000Y-51370026D01*
X121510054Y-51040853D01*
X121028285Y-50718946D01*
X120460000Y-50605907D01*
X119891715Y-50718946D01*
X119409946Y-51040853D01*
X119190000Y-51370026D01*
X118970054Y-51040853D01*
X118488285Y-50718946D01*
X117920000Y-50605907D01*
X117351715Y-50718946D01*
X116869946Y-51040853D01*
X116650000Y-51370026D01*
X116430054Y-51040853D01*
X115948285Y-50718946D01*
X115380000Y-50605907D01*
X114811715Y-50718946D01*
X114329946Y-51040853D01*
X114008039Y-51522622D01*
X113895000Y-52090907D01*
X113895000Y-52149093D01*
X114008039Y-52717378D01*
X114329946Y-53199147D01*
X114620000Y-53392954D01*
X114620000Y-55795198D01*
X114448454Y-55966744D01*
X114396691Y-55945250D01*
X113825813Y-55944752D01*
X113298200Y-56162757D01*
X112894176Y-56566077D01*
X112840138Y-56696215D01*
X112787243Y-56568200D01*
X112383923Y-56164176D01*
X111856691Y-55945250D01*
X111285813Y-55944752D01*
X110758200Y-56162757D01*
X110354176Y-56566077D01*
X110306552Y-56680768D01*
X110283864Y-56625995D01*
X110037745Y-56551861D01*
X109209605Y-57380000D01*
X110037745Y-58208139D01*
X110283864Y-58134005D01*
X110304805Y-58075746D01*
X110352757Y-58191800D01*
X110756077Y-58595824D01*
X111283309Y-58814750D01*
X111854187Y-58815248D01*
X112381800Y-58597243D01*
X112785824Y-58193923D01*
X112839862Y-58063785D01*
X112892757Y-58191800D01*
X113296077Y-58595824D01*
X113823309Y-58814750D01*
X114394187Y-58815248D01*
X114921800Y-58597243D01*
X115325824Y-58193923D01*
X115379862Y-58063785D01*
X115432757Y-58191800D01*
X115836077Y-58595824D01*
X116363309Y-58814750D01*
X116934187Y-58815248D01*
X117461800Y-58597243D01*
X117865824Y-58193923D01*
X117919862Y-58063785D01*
X117972757Y-58191800D01*
X118376077Y-58595824D01*
X118903309Y-58814750D01*
X119474187Y-58815248D01*
X120001800Y-58597243D01*
X120405824Y-58193923D01*
X120459862Y-58063785D01*
X120512757Y-58191800D01*
X120916077Y-58595824D01*
X121443309Y-58814750D01*
X122014187Y-58815248D01*
X122541800Y-58597243D01*
X122945824Y-58193923D01*
X122999862Y-58063785D01*
X123052757Y-58191800D01*
X123456077Y-58595824D01*
X123983309Y-58814750D01*
X124554187Y-58815248D01*
X125081800Y-58597243D01*
X125485824Y-58193923D01*
X125539862Y-58063785D01*
X125592757Y-58191800D01*
X125996077Y-58595824D01*
X126523309Y-58814750D01*
X127094187Y-58815248D01*
X127621800Y-58597243D01*
X128025824Y-58193923D01*
X128079862Y-58063785D01*
X128132757Y-58191800D01*
X128536077Y-58595824D01*
X129063309Y-58814750D01*
X129634187Y-58815248D01*
X130161800Y-58597243D01*
X130565824Y-58193923D01*
X130619862Y-58063785D01*
X130672757Y-58191800D01*
X131076077Y-58595824D01*
X131603309Y-58814750D01*
X132174187Y-58815248D01*
X132701800Y-58597243D01*
X133105824Y-58193923D01*
X133159862Y-58063785D01*
X133212757Y-58191800D01*
X133616077Y-58595824D01*
X134143309Y-58814750D01*
X134714187Y-58815248D01*
X135241800Y-58597243D01*
X135645824Y-58193923D01*
X135699862Y-58063785D01*
X135752757Y-58191800D01*
X136156077Y-58595824D01*
X136683309Y-58814750D01*
X137254187Y-58815248D01*
X137781800Y-58597243D01*
X138075000Y-58304554D01*
X138075000Y-58306310D01*
X138171673Y-58539699D01*
X138350302Y-58718327D01*
X138583691Y-58815000D01*
X139224250Y-58815000D01*
X139383000Y-58656250D01*
X139383000Y-57507000D01*
X139363000Y-57507000D01*
X139363000Y-57253000D01*
X139383000Y-57253000D01*
X139383000Y-56103750D01*
X139224250Y-55945000D01*
X138583691Y-55945000D01*
X138350302Y-56041673D01*
X138171673Y-56220301D01*
X138075000Y-56453690D01*
X138075000Y-56455761D01*
X137783923Y-56164176D01*
X137256691Y-55945250D01*
X136685813Y-55944752D01*
X136158200Y-56162757D01*
X135754176Y-56566077D01*
X135700138Y-56696215D01*
X135647243Y-56568200D01*
X135243923Y-56164176D01*
X134716691Y-55945250D01*
X134145813Y-55944752D01*
X133618200Y-56162757D01*
X133214176Y-56566077D01*
X133160138Y-56696215D01*
X133107243Y-56568200D01*
X132703923Y-56164176D01*
X132176691Y-55945250D01*
X131605813Y-55944752D01*
X131078200Y-56162757D01*
X130674176Y-56566077D01*
X130620138Y-56696215D01*
X130567243Y-56568200D01*
X130163923Y-56164176D01*
X129636691Y-55945250D01*
X129065813Y-55944752D01*
X128538200Y-56162757D01*
X128134176Y-56566077D01*
X128080138Y-56696215D01*
X128027243Y-56568200D01*
X127623923Y-56164176D01*
X127096691Y-55945250D01*
X126525813Y-55944752D01*
X126300000Y-56038056D01*
X126300000Y-53392954D01*
X126590054Y-53199147D01*
X126810000Y-52869974D01*
X127029946Y-53199147D01*
X127511715Y-53521054D01*
X128080000Y-53634093D01*
X128648285Y-53521054D01*
X129130054Y-53199147D01*
X129159403Y-53155223D01*
X129231673Y-53329698D01*
X129410301Y-53508327D01*
X129643690Y-53605000D01*
X130334250Y-53605000D01*
X130493000Y-53446250D01*
X130493000Y-52247000D01*
X130747000Y-52247000D01*
X130747000Y-53446250D01*
X130905750Y-53605000D01*
X131596310Y-53605000D01*
X131829699Y-53508327D01*
X132008327Y-53329698D01*
X132105000Y-53096309D01*
X132105000Y-52405750D01*
X131946250Y-52247000D01*
X130747000Y-52247000D01*
X130493000Y-52247000D01*
X130473000Y-52247000D01*
X130473000Y-51993000D01*
X130493000Y-51993000D01*
X130493000Y-51973000D01*
X130747000Y-51973000D01*
X130747000Y-51993000D01*
X131946250Y-51993000D01*
X132105000Y-51834250D01*
X132105000Y-51260000D01*
X139185198Y-51260000D01*
X140740000Y-52814802D01*
X140740000Y-56111975D01*
X140669698Y-56041673D01*
X140436309Y-55945000D01*
X139795750Y-55945000D01*
X139637000Y-56103750D01*
X139637000Y-57253000D01*
X139657000Y-57253000D01*
X139657000Y-57507000D01*
X139637000Y-57507000D01*
X139637000Y-58656250D01*
X139795750Y-58815000D01*
X140436309Y-58815000D01*
X140669698Y-58718327D01*
X140740000Y-58648025D01*
X140740000Y-58700291D01*
X133874569Y-66051255D01*
X133803155Y-66166462D01*
X133727852Y-66279161D01*
X133725280Y-66292092D01*
X133718334Y-66303297D01*
X133696444Y-66437057D01*
X133670000Y-66570000D01*
X133670000Y-71381354D01*
X133618200Y-71402757D01*
X133214176Y-71806077D01*
X133160138Y-71936215D01*
X133107243Y-71808200D01*
X132703923Y-71404176D01*
X132176691Y-71185250D01*
X131605813Y-71184752D01*
X131078200Y-71402757D01*
X130674176Y-71806077D01*
X130620138Y-71936215D01*
X130567243Y-71808200D01*
X130163923Y-71404176D01*
X129636691Y-71185250D01*
X129065813Y-71184752D01*
X128538200Y-71402757D01*
X128134176Y-71806077D01*
X128080138Y-71936215D01*
X128027243Y-71808200D01*
X127623923Y-71404176D01*
X127096691Y-71185250D01*
X126525813Y-71184752D01*
X125998200Y-71402757D01*
X125594176Y-71806077D01*
X125540138Y-71936215D01*
X125487243Y-71808200D01*
X125083923Y-71404176D01*
X124556691Y-71185250D01*
X123985813Y-71184752D01*
X123458200Y-71402757D01*
X123054176Y-71806077D01*
X123000138Y-71936215D01*
X122947243Y-71808200D01*
X122543923Y-71404176D01*
X122016691Y-71185250D01*
X121445813Y-71184752D01*
X120918200Y-71402757D01*
X120514176Y-71806077D01*
X120460138Y-71936215D01*
X120407243Y-71808200D01*
X120003923Y-71404176D01*
X119476691Y-71185250D01*
X118905813Y-71184752D01*
X118378200Y-71402757D01*
X117974176Y-71806077D01*
X117920138Y-71936215D01*
X117867243Y-71808200D01*
X117463923Y-71404176D01*
X116936691Y-71185250D01*
X116365813Y-71184752D01*
X115838200Y-71402757D01*
X115434176Y-71806077D01*
X115380138Y-71936215D01*
X115327243Y-71808200D01*
X114923923Y-71404176D01*
X114396691Y-71185250D01*
X113825813Y-71184752D01*
X113298200Y-71402757D01*
X112894176Y-71806077D01*
X112840138Y-71936215D01*
X112787243Y-71808200D01*
X112383923Y-71404176D01*
X111856691Y-71185250D01*
X111285813Y-71184752D01*
X110758200Y-71402757D01*
X110354176Y-71806077D01*
X110300138Y-71936215D01*
X110247243Y-71808200D01*
X109843923Y-71404176D01*
X109316691Y-71185250D01*
X108745813Y-71184752D01*
X108218200Y-71402757D01*
X107814176Y-71806077D01*
X107760138Y-71936215D01*
X107707243Y-71808200D01*
X107303923Y-71404176D01*
X107173785Y-71350138D01*
X107301800Y-71297243D01*
X107705824Y-70893923D01*
X107924750Y-70366691D01*
X107925248Y-69795813D01*
X107707243Y-69268200D01*
X107303923Y-68864176D01*
X107173785Y-68810138D01*
X107301800Y-68757243D01*
X107705824Y-68353923D01*
X107924750Y-67826691D01*
X107925248Y-67255813D01*
X107707243Y-66728200D01*
X107303923Y-66324176D01*
X107173785Y-66270138D01*
X107301800Y-66217243D01*
X107705824Y-65813923D01*
X107924750Y-65286691D01*
X107925248Y-64715813D01*
X107707243Y-64188200D01*
X107303923Y-63784176D01*
X107173785Y-63730138D01*
X107301800Y-63677243D01*
X107705824Y-63273923D01*
X107924750Y-62746691D01*
X107925248Y-62175813D01*
X107707243Y-61648200D01*
X107303923Y-61244176D01*
X107173785Y-61190138D01*
X107301800Y-61137243D01*
X107705824Y-60733923D01*
X107924750Y-60206691D01*
X107925248Y-59635813D01*
X107707243Y-59108200D01*
X107303923Y-58704176D01*
X107173785Y-58650138D01*
X107301800Y-58597243D01*
X107511663Y-58387745D01*
X108201861Y-58387745D01*
X108275995Y-58633864D01*
X108813223Y-58826965D01*
X109383454Y-58799778D01*
X109784005Y-58633864D01*
X109858139Y-58387745D01*
X109030000Y-57559605D01*
X108201861Y-58387745D01*
X107511663Y-58387745D01*
X107705824Y-58193923D01*
X107753448Y-58079232D01*
X107776136Y-58134005D01*
X108022255Y-58208139D01*
X108850395Y-57380000D01*
X108022255Y-56551861D01*
X107776136Y-56625995D01*
X107755195Y-56684254D01*
X107707243Y-56568200D01*
X107511640Y-56372255D01*
X108201861Y-56372255D01*
X109030000Y-57200395D01*
X109858139Y-56372255D01*
X109784005Y-56126136D01*
X109246777Y-55933035D01*
X108676546Y-55960222D01*
X108275995Y-56126136D01*
X108201861Y-56372255D01*
X107511640Y-56372255D01*
X107303923Y-56164176D01*
X106776691Y-55945250D01*
X106205813Y-55944752D01*
X105678200Y-56162757D01*
X105274176Y-56566077D01*
X105251785Y-56620000D01*
X104620000Y-56620000D01*
X104329161Y-56677852D01*
X104082599Y-56842599D01*
X103962599Y-56962599D01*
X103797852Y-57209161D01*
X103740000Y-57500000D01*
X103740000Y-75900000D01*
X103797852Y-76190839D01*
X103962599Y-76437401D01*
X104510234Y-76985036D01*
X104465267Y-77093330D01*
X104464735Y-77703991D01*
X104697932Y-78268371D01*
X105129357Y-78700551D01*
X105693330Y-78934733D01*
X106303991Y-78935265D01*
X106740000Y-78755110D01*
X106740000Y-87465000D01*
X106285750Y-87465000D01*
X106127000Y-87623750D01*
X106127000Y-88873000D01*
X106147000Y-88873000D01*
X106147000Y-89127000D01*
X106127000Y-89127000D01*
X106127000Y-90376250D01*
X106285750Y-90535000D01*
X106740000Y-90535000D01*
X106740000Y-98000000D01*
X106797852Y-98290839D01*
X106962599Y-98537401D01*
X107290198Y-98865000D01*
X107248377Y-98865000D01*
X106240006Y-99065577D01*
X105385151Y-99636774D01*
X104813954Y-100491629D01*
X104613377Y-101500000D01*
X104813954Y-102508371D01*
X105385151Y-103363226D01*
X106240006Y-103934423D01*
X107248377Y-104135000D01*
X107351623Y-104135000D01*
X108359994Y-103934423D01*
X109214849Y-103363226D01*
X109240000Y-103325585D01*
X109240000Y-106685198D01*
X108462599Y-107462599D01*
X108297852Y-107709161D01*
X108240000Y-108000000D01*
X108240000Y-109000000D01*
X108297852Y-109290839D01*
X108462599Y-109537401D01*
X109684806Y-110759608D01*
X109650000Y-110752560D01*
X108350000Y-110752560D01*
X108114683Y-110796838D01*
X107898559Y-110935910D01*
X107753569Y-111148110D01*
X107750919Y-111161197D01*
X107614090Y-110948559D01*
X107401890Y-110803569D01*
X107150000Y-110752560D01*
X105850000Y-110752560D01*
X105614683Y-110796838D01*
X105398559Y-110935910D01*
X105253569Y-111148110D01*
X105202560Y-111400000D01*
X105202560Y-112900000D01*
X105246838Y-113135317D01*
X105385910Y-113351441D01*
X105598110Y-113496431D01*
X105631490Y-113503191D01*
X105490301Y-113561673D01*
X105311673Y-113740302D01*
X105215000Y-113973691D01*
X105215000Y-114564250D01*
X105373750Y-114723000D01*
X106373000Y-114723000D01*
X106373000Y-114703000D01*
X106627000Y-114703000D01*
X106627000Y-114723000D01*
X106647000Y-114723000D01*
X106647000Y-114977000D01*
X106627000Y-114977000D01*
X106627000Y-116076250D01*
X106785750Y-116235000D01*
X107190198Y-116235000D01*
X106860320Y-116564878D01*
X106814833Y-116564838D01*
X106471057Y-116706883D01*
X106207808Y-116969673D01*
X106065162Y-117313201D01*
X106064838Y-117685167D01*
X106206883Y-118028943D01*
X106469673Y-118292192D01*
X106813201Y-118434838D01*
X107185167Y-118435162D01*
X107528943Y-118293117D01*
X107792192Y-118030327D01*
X107934838Y-117686799D01*
X107934879Y-117639923D01*
X109327362Y-116247440D01*
X109650000Y-116247440D01*
X109885317Y-116203162D01*
X110101441Y-116064090D01*
X110246431Y-115851890D01*
X110295415Y-115610000D01*
X110650000Y-115610000D01*
X110856218Y-115568980D01*
X109462599Y-116962599D01*
X109297852Y-117209161D01*
X109240000Y-117500000D01*
X109240000Y-118552560D01*
X109200000Y-118552560D01*
X108964683Y-118596838D01*
X108748559Y-118735910D01*
X108603569Y-118948110D01*
X108552560Y-119200000D01*
X108552560Y-120372638D01*
X105462599Y-123462599D01*
X105297852Y-123709161D01*
X105240000Y-124000000D01*
X105240000Y-138252560D01*
X104900000Y-138252560D01*
X104664683Y-138296838D01*
X104448559Y-138435910D01*
X104303569Y-138648110D01*
X104252560Y-138900000D01*
X104252560Y-141100000D01*
X104296838Y-141335317D01*
X104435910Y-141551441D01*
X104648110Y-141696431D01*
X104863260Y-141740000D01*
X104562463Y-141740000D01*
X104530327Y-141707808D01*
X104186799Y-141565162D01*
X103814833Y-141564838D01*
X103710000Y-141608154D01*
X103710000Y-115135750D01*
X105215000Y-115135750D01*
X105215000Y-115726309D01*
X105311673Y-115959698D01*
X105490301Y-116138327D01*
X105723690Y-116235000D01*
X106214250Y-116235000D01*
X106373000Y-116076250D01*
X106373000Y-114977000D01*
X105373750Y-114977000D01*
X105215000Y-115135750D01*
X103710000Y-115135750D01*
X103710000Y-89285750D01*
X104465000Y-89285750D01*
X104465000Y-90026309D01*
X104561673Y-90259698D01*
X104740301Y-90438327D01*
X104973690Y-90535000D01*
X105714250Y-90535000D01*
X105873000Y-90376250D01*
X105873000Y-89127000D01*
X104623750Y-89127000D01*
X104465000Y-89285750D01*
X103710000Y-89285750D01*
X103710000Y-87973691D01*
X104465000Y-87973691D01*
X104465000Y-88714250D01*
X104623750Y-88873000D01*
X105873000Y-88873000D01*
X105873000Y-87623750D01*
X105714250Y-87465000D01*
X104973690Y-87465000D01*
X104740301Y-87561673D01*
X104561673Y-87740302D01*
X104465000Y-87973691D01*
X103710000Y-87973691D01*
X103710000Y-49710000D01*
X142290000Y-49710000D01*
X142290000Y-158290000D01*
X142290000Y-158290000D01*
G37*
X142290000Y-158290000D02*
X103710000Y-158290000D01*
X103710000Y-156765750D01*
X108115000Y-156765750D01*
X108115000Y-157106310D01*
X108211673Y-157339699D01*
X108390302Y-157518327D01*
X108623691Y-157615000D01*
X109714250Y-157615000D01*
X109873000Y-157456250D01*
X109873000Y-156607000D01*
X110127000Y-156607000D01*
X110127000Y-157456250D01*
X110285750Y-157615000D01*
X111376309Y-157615000D01*
X111609698Y-157518327D01*
X111788327Y-157339699D01*
X111885000Y-157106310D01*
X111885000Y-156765750D01*
X121115000Y-156765750D01*
X121115000Y-157106310D01*
X121211673Y-157339699D01*
X121390302Y-157518327D01*
X121623691Y-157615000D01*
X122714250Y-157615000D01*
X122873000Y-157456250D01*
X122873000Y-156607000D01*
X123127000Y-156607000D01*
X123127000Y-157456250D01*
X123285750Y-157615000D01*
X124376309Y-157615000D01*
X124609698Y-157518327D01*
X124788327Y-157339699D01*
X124885000Y-157106310D01*
X124885000Y-156765750D01*
X134115000Y-156765750D01*
X134115000Y-157106310D01*
X134211673Y-157339699D01*
X134390302Y-157518327D01*
X134623691Y-157615000D01*
X135714250Y-157615000D01*
X135873000Y-157456250D01*
X135873000Y-156607000D01*
X136127000Y-156607000D01*
X136127000Y-157456250D01*
X136285750Y-157615000D01*
X137376309Y-157615000D01*
X137609698Y-157518327D01*
X137788327Y-157339699D01*
X137885000Y-157106310D01*
X137885000Y-156765750D01*
X137726250Y-156607000D01*
X136127000Y-156607000D01*
X135873000Y-156607000D01*
X134273750Y-156607000D01*
X134115000Y-156765750D01*
X124885000Y-156765750D01*
X124726250Y-156607000D01*
X123127000Y-156607000D01*
X122873000Y-156607000D01*
X121273750Y-156607000D01*
X121115000Y-156765750D01*
X111885000Y-156765750D01*
X111726250Y-156607000D01*
X110127000Y-156607000D01*
X109873000Y-156607000D01*
X108273750Y-156607000D01*
X108115000Y-156765750D01*
X103710000Y-156765750D01*
X103710000Y-155853690D01*
X108115000Y-155853690D01*
X108115000Y-156194250D01*
X108273750Y-156353000D01*
X109873000Y-156353000D01*
X109873000Y-155503750D01*
X110127000Y-155503750D01*
X110127000Y-156353000D01*
X111726250Y-156353000D01*
X111885000Y-156194250D01*
X111885000Y-155853690D01*
X121115000Y-155853690D01*
X121115000Y-156194250D01*
X121273750Y-156353000D01*
X122873000Y-156353000D01*
X122873000Y-155503750D01*
X123127000Y-155503750D01*
X123127000Y-156353000D01*
X124726250Y-156353000D01*
X124885000Y-156194250D01*
X124885000Y-155853690D01*
X134115000Y-155853690D01*
X134115000Y-156194250D01*
X134273750Y-156353000D01*
X135873000Y-156353000D01*
X135873000Y-155503750D01*
X136127000Y-155503750D01*
X136127000Y-156353000D01*
X137726250Y-156353000D01*
X137885000Y-156194250D01*
X137885000Y-155853690D01*
X137788327Y-155620301D01*
X137609698Y-155441673D01*
X137376309Y-155345000D01*
X136285750Y-155345000D01*
X136127000Y-155503750D01*
X135873000Y-155503750D01*
X135714250Y-155345000D01*
X134623691Y-155345000D01*
X134390302Y-155441673D01*
X134211673Y-155620301D01*
X134115000Y-155853690D01*
X124885000Y-155853690D01*
X124788327Y-155620301D01*
X124609698Y-155441673D01*
X124376309Y-155345000D01*
X123285750Y-155345000D01*
X123127000Y-155503750D01*
X122873000Y-155503750D01*
X122714250Y-155345000D01*
X121623691Y-155345000D01*
X121390302Y-155441673D01*
X121211673Y-155620301D01*
X121115000Y-155853690D01*
X111885000Y-155853690D01*
X111788327Y-155620301D01*
X111609698Y-155441673D01*
X111376309Y-155345000D01*
X110285750Y-155345000D01*
X110127000Y-155503750D01*
X109873000Y-155503750D01*
X109714250Y-155345000D01*
X108623691Y-155345000D01*
X108390302Y-155441673D01*
X108211673Y-155620301D01*
X108115000Y-155853690D01*
X103710000Y-155853690D01*
X103710000Y-152880000D01*
X108102560Y-152880000D01*
X108102560Y-153880000D01*
X108146838Y-154115317D01*
X108285910Y-154331441D01*
X108498110Y-154476431D01*
X108750000Y-154527440D01*
X111250000Y-154527440D01*
X111485317Y-154483162D01*
X111701441Y-154344090D01*
X111846431Y-154131890D01*
X111897440Y-153880000D01*
X111897440Y-152880000D01*
X121102560Y-152880000D01*
X121102560Y-153880000D01*
X121146838Y-154115317D01*
X121285910Y-154331441D01*
X121498110Y-154476431D01*
X121750000Y-154527440D01*
X124250000Y-154527440D01*
X124485317Y-154483162D01*
X124701441Y-154344090D01*
X124846431Y-154131890D01*
X124897440Y-153880000D01*
X124897440Y-152880000D01*
X134102560Y-152880000D01*
X134102560Y-153880000D01*
X134146838Y-154115317D01*
X134285910Y-154331441D01*
X134498110Y-154476431D01*
X134750000Y-154527440D01*
X137250000Y-154527440D01*
X137485317Y-154483162D01*
X137701441Y-154344090D01*
X137846431Y-154131890D01*
X137897440Y-153880000D01*
X137897440Y-152880000D01*
X137853162Y-152644683D01*
X137714090Y-152428559D01*
X137501890Y-152283569D01*
X137250000Y-152232560D01*
X134750000Y-152232560D01*
X134514683Y-152276838D01*
X134298559Y-152415910D01*
X134153569Y-152628110D01*
X134102560Y-152880000D01*
X124897440Y-152880000D01*
X124853162Y-152644683D01*
X124714090Y-152428559D01*
X124501890Y-152283569D01*
X124250000Y-152232560D01*
X121750000Y-152232560D01*
X121514683Y-152276838D01*
X121298559Y-152415910D01*
X121153569Y-152628110D01*
X121102560Y-152880000D01*
X111897440Y-152880000D01*
X111853162Y-152644683D01*
X111714090Y-152428559D01*
X111501890Y-152283569D01*
X111250000Y-152232560D01*
X108750000Y-152232560D01*
X108514683Y-152276838D01*
X108298559Y-152415910D01*
X108153569Y-152628110D01*
X108102560Y-152880000D01*
X103710000Y-152880000D01*
X103710000Y-150373305D01*
X108114674Y-150373305D01*
X108401043Y-151066372D01*
X108930839Y-151597093D01*
X109623405Y-151884672D01*
X110373305Y-151885326D01*
X111066372Y-151598957D01*
X111597093Y-151069161D01*
X111884672Y-150376595D01*
X111884674Y-150373305D01*
X121114674Y-150373305D01*
X121401043Y-151066372D01*
X121930839Y-151597093D01*
X122623405Y-151884672D01*
X123373305Y-151885326D01*
X124066372Y-151598957D01*
X124597093Y-151069161D01*
X124884672Y-150376595D01*
X124884674Y-150373305D01*
X134114674Y-150373305D01*
X134401043Y-151066372D01*
X134930839Y-151597093D01*
X135623405Y-151884672D01*
X136373305Y-151885326D01*
X137066372Y-151598957D01*
X137597093Y-151069161D01*
X137884672Y-150376595D01*
X137885326Y-149626695D01*
X137598957Y-148933628D01*
X137069161Y-148402907D01*
X136376595Y-148115328D01*
X135626695Y-148114674D01*
X134933628Y-148401043D01*
X134402907Y-148930839D01*
X134115328Y-149623405D01*
X134114674Y-150373305D01*
X124884674Y-150373305D01*
X124885326Y-149626695D01*
X124598957Y-148933628D01*
X124069161Y-148402907D01*
X123376595Y-148115328D01*
X122626695Y-148114674D01*
X121933628Y-148401043D01*
X121402907Y-148930839D01*
X121115328Y-149623405D01*
X121114674Y-150373305D01*
X111884674Y-150373305D01*
X111885326Y-149626695D01*
X111598957Y-148933628D01*
X111069161Y-148402907D01*
X110376595Y-148115328D01*
X109626695Y-148114674D01*
X108933628Y-148401043D01*
X108402907Y-148930839D01*
X108115328Y-149623405D01*
X108114674Y-150373305D01*
X103710000Y-150373305D01*
X103710000Y-144580000D01*
X108102560Y-144580000D01*
X108102560Y-145580000D01*
X108146838Y-145815317D01*
X108285910Y-146031441D01*
X108498110Y-146176431D01*
X108750000Y-146227440D01*
X111250000Y-146227440D01*
X111485317Y-146183162D01*
X111701441Y-146044090D01*
X111846431Y-145831890D01*
X111897440Y-145580000D01*
X111897440Y-144580000D01*
X111853162Y-144344683D01*
X111714090Y-144128559D01*
X111501890Y-143983569D01*
X111250000Y-143932560D01*
X108750000Y-143932560D01*
X108514683Y-143976838D01*
X108298559Y-144115910D01*
X108153569Y-144328110D01*
X108102560Y-144580000D01*
X103710000Y-144580000D01*
X103710000Y-143391985D01*
X103813201Y-143434838D01*
X104185167Y-143435162D01*
X104528943Y-143293117D01*
X104562118Y-143260000D01*
X111185198Y-143260000D01*
X112923213Y-144998015D01*
X112902560Y-145100000D01*
X112902560Y-145900000D01*
X112946838Y-146135317D01*
X113085910Y-146351441D01*
X113298110Y-146496431D01*
X113550000Y-146547440D01*
X115450000Y-146547440D01*
X115685317Y-146503162D01*
X115901441Y-146364090D01*
X115902560Y-146362452D01*
X115902560Y-146850000D01*
X115946838Y-147085317D01*
X116085910Y-147301441D01*
X116298110Y-147446431D01*
X116550000Y-147497440D01*
X118450000Y-147497440D01*
X118685317Y-147453162D01*
X118901441Y-147314090D01*
X118972563Y-147210000D01*
X128223258Y-147210000D01*
X128246838Y-147335317D01*
X128385910Y-147551441D01*
X128598110Y-147696431D01*
X128850000Y-147747440D01*
X130150000Y-147747440D01*
X130385317Y-147703162D01*
X130601441Y-147564090D01*
X130746431Y-147351890D01*
X130797440Y-147100000D01*
X130797440Y-145600000D01*
X130753162Y-145364683D01*
X130614090Y-145148559D01*
X130401890Y-145003569D01*
X130388803Y-145000919D01*
X130601441Y-144864090D01*
X130746431Y-144651890D01*
X130795415Y-144410000D01*
X134136986Y-144410000D01*
X134102560Y-144580000D01*
X134102560Y-145580000D01*
X134146838Y-145815317D01*
X134285910Y-146031441D01*
X134498110Y-146176431D01*
X134750000Y-146227440D01*
X137250000Y-146227440D01*
X137485317Y-146183162D01*
X137701441Y-146044090D01*
X137846431Y-145831890D01*
X137897440Y-145580000D01*
X137897440Y-144580000D01*
X137853162Y-144344683D01*
X137714090Y-144128559D01*
X137501890Y-143983569D01*
X137250000Y-143932560D01*
X135927362Y-143932560D01*
X135107401Y-143112599D01*
X134860839Y-142947852D01*
X134570000Y-142890000D01*
X130795558Y-142890000D01*
X130753162Y-142664683D01*
X130614090Y-142448559D01*
X130401890Y-142303569D01*
X130150000Y-142252560D01*
X128850000Y-142252560D01*
X128614683Y-142296838D01*
X128398559Y-142435910D01*
X128253569Y-142648110D01*
X128202560Y-142900000D01*
X128202560Y-144400000D01*
X128246838Y-144635317D01*
X128385910Y-144851441D01*
X128598110Y-144996431D01*
X128611197Y-144999081D01*
X128398559Y-145135910D01*
X128253569Y-145348110D01*
X128202560Y-145600000D01*
X128202560Y-145690000D01*
X124875164Y-145690000D01*
X124897440Y-145580000D01*
X124897440Y-144580000D01*
X124853162Y-144344683D01*
X124714090Y-144128559D01*
X124501890Y-143983569D01*
X124250000Y-143932560D01*
X122142242Y-143932560D01*
X122187401Y-143887401D01*
X122247511Y-143797440D01*
X122400000Y-143797440D01*
X122635317Y-143753162D01*
X122851441Y-143614090D01*
X122996431Y-143401890D01*
X123003191Y-143368510D01*
X123061673Y-143509699D01*
X123240302Y-143688327D01*
X123473691Y-143785000D01*
X124064250Y-143785000D01*
X124223000Y-143626250D01*
X124223000Y-142627000D01*
X124477000Y-142627000D01*
X124477000Y-143626250D01*
X124635750Y-143785000D01*
X125226309Y-143785000D01*
X125459698Y-143688327D01*
X125638327Y-143509699D01*
X125735000Y-143276310D01*
X125735000Y-142785750D01*
X125576250Y-142627000D01*
X124477000Y-142627000D01*
X124223000Y-142627000D01*
X124203000Y-142627000D01*
X124203000Y-142373000D01*
X124223000Y-142373000D01*
X124223000Y-141373750D01*
X124477000Y-141373750D01*
X124477000Y-142373000D01*
X125576250Y-142373000D01*
X125735000Y-142214250D01*
X125735000Y-141723690D01*
X125638327Y-141490301D01*
X125459698Y-141311673D01*
X125226309Y-141215000D01*
X124635750Y-141215000D01*
X124477000Y-141373750D01*
X124223000Y-141373750D01*
X124064250Y-141215000D01*
X123473691Y-141215000D01*
X123240302Y-141311673D01*
X123061673Y-141490301D01*
X123005346Y-141626287D01*
X123003162Y-141614683D01*
X122864090Y-141398559D01*
X122651890Y-141253569D01*
X122400000Y-141202560D01*
X120900000Y-141202560D01*
X120664683Y-141246838D01*
X120448559Y-141385910D01*
X120303569Y-141598110D01*
X120252560Y-141850000D01*
X120252560Y-143150000D01*
X120296838Y-143385317D01*
X120391998Y-143533200D01*
X119085000Y-144840198D01*
X119085000Y-144835750D01*
X118926250Y-144677000D01*
X117627000Y-144677000D01*
X117627000Y-144697000D01*
X117373000Y-144697000D01*
X117373000Y-144677000D01*
X116073750Y-144677000D01*
X115987738Y-144763012D01*
X115914090Y-144648559D01*
X115701890Y-144503569D01*
X115576917Y-144478261D01*
X115702148Y-144290839D01*
X115755287Y-144023690D01*
X115915000Y-144023690D01*
X115915000Y-144264250D01*
X116073750Y-144423000D01*
X117373000Y-144423000D01*
X117373000Y-143673750D01*
X117627000Y-143673750D01*
X117627000Y-144423000D01*
X118926250Y-144423000D01*
X119085000Y-144264250D01*
X119085000Y-144023690D01*
X118988327Y-143790301D01*
X118809698Y-143611673D01*
X118576309Y-143515000D01*
X117785750Y-143515000D01*
X117627000Y-143673750D01*
X117373000Y-143673750D01*
X117214250Y-143515000D01*
X116423691Y-143515000D01*
X116190302Y-143611673D01*
X116011673Y-143790301D01*
X115915000Y-144023690D01*
X115755287Y-144023690D01*
X115760000Y-144000000D01*
X115702148Y-143709161D01*
X115537401Y-143462599D01*
X115290839Y-143297852D01*
X115000000Y-143240000D01*
X114500000Y-143240000D01*
X114209161Y-143297852D01*
X113962599Y-143462599D01*
X113797852Y-143709161D01*
X113795548Y-143720746D01*
X112037401Y-141962599D01*
X111790839Y-141797852D01*
X111500000Y-141740000D01*
X107139540Y-141740000D01*
X107335317Y-141703162D01*
X107551441Y-141564090D01*
X107696431Y-141351890D01*
X107747440Y-141100000D01*
X107747440Y-140000000D01*
X111851009Y-140000000D01*
X111983078Y-140663956D01*
X112359179Y-141226830D01*
X112922053Y-141602931D01*
X113586009Y-141735000D01*
X113653991Y-141735000D01*
X114317947Y-141602931D01*
X114880821Y-141226830D01*
X115256922Y-140663956D01*
X115388991Y-140000000D01*
X115273818Y-139420984D01*
X119037401Y-135657401D01*
X119202148Y-135410840D01*
X119225371Y-135294089D01*
X119974743Y-135294089D01*
X120200344Y-135840086D01*
X120617717Y-136258188D01*
X121163319Y-136484742D01*
X121754089Y-136485257D01*
X122300086Y-136259656D01*
X122535435Y-136024717D01*
X122546838Y-136085317D01*
X122685910Y-136301441D01*
X122898110Y-136446431D01*
X123150000Y-136497440D01*
X124850000Y-136497440D01*
X125085317Y-136453162D01*
X125301441Y-136314090D01*
X125446431Y-136101890D01*
X125497440Y-135850000D01*
X125497440Y-135760000D01*
X125685198Y-135760000D01*
X129752560Y-139827362D01*
X129752560Y-141600000D01*
X129796838Y-141835317D01*
X129935910Y-142051441D01*
X130148110Y-142196431D01*
X130400000Y-142247440D01*
X132600000Y-142247440D01*
X132835317Y-142203162D01*
X133051441Y-142064090D01*
X133196431Y-141851890D01*
X133247440Y-141600000D01*
X133247440Y-140500000D01*
X137351009Y-140500000D01*
X137483078Y-141163956D01*
X137859179Y-141726830D01*
X138422053Y-142102931D01*
X139086009Y-142235000D01*
X139153991Y-142235000D01*
X139817947Y-142102931D01*
X140380821Y-141726830D01*
X140756922Y-141163956D01*
X140888991Y-140500000D01*
X140756922Y-139836044D01*
X140380821Y-139273170D01*
X139817947Y-138897069D01*
X139153991Y-138765000D01*
X139086009Y-138765000D01*
X138422053Y-138897069D01*
X137859179Y-139273170D01*
X137483078Y-139836044D01*
X137351009Y-140500000D01*
X133247440Y-140500000D01*
X133247440Y-139400000D01*
X133203162Y-139164683D01*
X133064090Y-138948559D01*
X132851890Y-138803569D01*
X132600000Y-138752560D01*
X130827362Y-138752560D01*
X130340552Y-138265750D01*
X134115000Y-138265750D01*
X134115000Y-138606310D01*
X134211673Y-138839699D01*
X134390302Y-139018327D01*
X134623691Y-139115000D01*
X135714250Y-139115000D01*
X135873000Y-138956250D01*
X135873000Y-138107000D01*
X136127000Y-138107000D01*
X136127000Y-138956250D01*
X136285750Y-139115000D01*
X137376309Y-139115000D01*
X137609698Y-139018327D01*
X137788327Y-138839699D01*
X137885000Y-138606310D01*
X137885000Y-138265750D01*
X137726250Y-138107000D01*
X136127000Y-138107000D01*
X135873000Y-138107000D01*
X134273750Y-138107000D01*
X134115000Y-138265750D01*
X130340552Y-138265750D01*
X129428492Y-137353690D01*
X134115000Y-137353690D01*
X134115000Y-137694250D01*
X134273750Y-137853000D01*
X135873000Y-137853000D01*
X135873000Y-137003750D01*
X136127000Y-137003750D01*
X136127000Y-137853000D01*
X137726250Y-137853000D01*
X137885000Y-137694250D01*
X137885000Y-137353690D01*
X137788327Y-137120301D01*
X137609698Y-136941673D01*
X137376309Y-136845000D01*
X136285750Y-136845000D01*
X136127000Y-137003750D01*
X135873000Y-137003750D01*
X135714250Y-136845000D01*
X134623691Y-136845000D01*
X134390302Y-136941673D01*
X134211673Y-137120301D01*
X134115000Y-137353690D01*
X129428492Y-137353690D01*
X126537401Y-134462599D01*
X126413783Y-134380000D01*
X134102560Y-134380000D01*
X134102560Y-135380000D01*
X134146838Y-135615317D01*
X134285910Y-135831441D01*
X134498110Y-135976431D01*
X134750000Y-136027440D01*
X137250000Y-136027440D01*
X137485317Y-135983162D01*
X137701441Y-135844090D01*
X137846431Y-135631890D01*
X137897440Y-135380000D01*
X137897440Y-134380000D01*
X137853162Y-134144683D01*
X137714090Y-133928559D01*
X137501890Y-133783569D01*
X137250000Y-133732560D01*
X134750000Y-133732560D01*
X134514683Y-133776838D01*
X134298559Y-133915910D01*
X134153569Y-134128110D01*
X134102560Y-134380000D01*
X126413783Y-134380000D01*
X126290839Y-134297852D01*
X126000000Y-134240000D01*
X125497440Y-134240000D01*
X125497440Y-134150000D01*
X125453162Y-133914683D01*
X125314090Y-133698559D01*
X125101890Y-133553569D01*
X124863900Y-133505375D01*
X124864353Y-133503958D01*
X124000000Y-132639605D01*
X123135647Y-133503958D01*
X123136040Y-133505187D01*
X122914683Y-133546838D01*
X122698559Y-133685910D01*
X122553569Y-133898110D01*
X122537504Y-133977443D01*
X122302283Y-133741812D01*
X122254688Y-133722049D01*
X122324353Y-133503958D01*
X121460000Y-132639605D01*
X120595647Y-133503958D01*
X120665181Y-133721640D01*
X120619914Y-133740344D01*
X120201812Y-134157717D01*
X119975258Y-134703319D01*
X119974743Y-135294089D01*
X119225371Y-135294089D01*
X119260000Y-135120000D01*
X119260000Y-132231279D01*
X119963282Y-132231279D01*
X119989685Y-132821458D01*
X120164741Y-133244080D01*
X120416042Y-133324353D01*
X121280395Y-132460000D01*
X121639605Y-132460000D01*
X122503958Y-133324353D01*
X122730000Y-133252148D01*
X122956042Y-133324353D01*
X123820395Y-132460000D01*
X124179605Y-132460000D01*
X125043958Y-133324353D01*
X125295259Y-133244080D01*
X125496718Y-132688721D01*
X125470315Y-132098542D01*
X125377019Y-131873305D01*
X134114674Y-131873305D01*
X134401043Y-132566372D01*
X134930839Y-133097093D01*
X135623405Y-133384672D01*
X136373305Y-133385326D01*
X137066372Y-133098957D01*
X137597093Y-132569161D01*
X137884672Y-131876595D01*
X137885326Y-131126695D01*
X137598957Y-130433628D01*
X137069161Y-129902907D01*
X136376595Y-129615328D01*
X135626695Y-129614674D01*
X134933628Y-129901043D01*
X134402907Y-130430839D01*
X134115328Y-131123405D01*
X134114674Y-131873305D01*
X125377019Y-131873305D01*
X125295259Y-131675920D01*
X125043958Y-131595647D01*
X124179605Y-132460000D01*
X123820395Y-132460000D01*
X122956042Y-131595647D01*
X122730000Y-131667852D01*
X122503958Y-131595647D01*
X121639605Y-132460000D01*
X121280395Y-132460000D01*
X120416042Y-131595647D01*
X120164741Y-131675920D01*
X119963282Y-132231279D01*
X119260000Y-132231279D01*
X119260000Y-130963958D01*
X120595647Y-130963958D01*
X120667852Y-131190000D01*
X120595647Y-131416042D01*
X121460000Y-132280395D01*
X122324353Y-131416042D01*
X122252148Y-131190000D01*
X122324353Y-130963958D01*
X123135647Y-130963958D01*
X123207852Y-131190000D01*
X123135647Y-131416042D01*
X124000000Y-132280395D01*
X124864353Y-131416042D01*
X124792148Y-131190000D01*
X124864353Y-130963958D01*
X124000000Y-130099605D01*
X123135647Y-130963958D01*
X122324353Y-130963958D01*
X121460000Y-130099605D01*
X120595647Y-130963958D01*
X119260000Y-130963958D01*
X119260000Y-129691279D01*
X119963282Y-129691279D01*
X119989685Y-130281458D01*
X120164741Y-130704080D01*
X120416042Y-130784353D01*
X121280395Y-129920000D01*
X121639605Y-129920000D01*
X122503958Y-130784353D01*
X122730000Y-130712148D01*
X122956042Y-130784353D01*
X123820395Y-129920000D01*
X124179605Y-129920000D01*
X125043958Y-130784353D01*
X125295259Y-130704080D01*
X125496718Y-130148721D01*
X125470315Y-129558542D01*
X125295259Y-129135920D01*
X125043958Y-129055647D01*
X124179605Y-129920000D01*
X123820395Y-129920000D01*
X122956042Y-129055647D01*
X122730000Y-129127852D01*
X122503958Y-129055647D01*
X121639605Y-129920000D01*
X121280395Y-129920000D01*
X120416042Y-129055647D01*
X120164741Y-129135920D01*
X119963282Y-129691279D01*
X119260000Y-129691279D01*
X119260000Y-128423958D01*
X120595647Y-128423958D01*
X120667852Y-128650000D01*
X120595647Y-128876042D01*
X121460000Y-129740395D01*
X122324353Y-128876042D01*
X122252148Y-128650000D01*
X122324353Y-128423958D01*
X123135647Y-128423958D01*
X123207852Y-128650000D01*
X123135647Y-128876042D01*
X124000000Y-129740395D01*
X124864353Y-128876042D01*
X124792148Y-128650000D01*
X124864353Y-128423958D01*
X124000000Y-127559605D01*
X123135647Y-128423958D01*
X122324353Y-128423958D01*
X121460000Y-127559605D01*
X120595647Y-128423958D01*
X119260000Y-128423958D01*
X119260000Y-127314802D01*
X119423523Y-127151279D01*
X119963282Y-127151279D01*
X119989685Y-127741458D01*
X120164741Y-128164080D01*
X120416042Y-128244353D01*
X121280395Y-127380000D01*
X121639605Y-127380000D01*
X122503958Y-128244353D01*
X122730000Y-128172148D01*
X122956042Y-128244353D01*
X123820395Y-127380000D01*
X124179605Y-127380000D01*
X125043958Y-128244353D01*
X125295259Y-128164080D01*
X125496718Y-127608721D01*
X125470315Y-127018542D01*
X125295259Y-126595920D01*
X125043958Y-126515647D01*
X124179605Y-127380000D01*
X123820395Y-127380000D01*
X122956042Y-126515647D01*
X122730000Y-126587852D01*
X122503958Y-126515647D01*
X121639605Y-127380000D01*
X121280395Y-127380000D01*
X120416042Y-126515647D01*
X120164741Y-126595920D01*
X119963282Y-127151279D01*
X119423523Y-127151279D01*
X120547227Y-126027575D01*
X120617717Y-126098188D01*
X120665312Y-126117951D01*
X120595647Y-126336042D01*
X121460000Y-127200395D01*
X122324353Y-126336042D01*
X122254819Y-126118360D01*
X122300086Y-126099656D01*
X122718188Y-125682283D01*
X122729748Y-125654443D01*
X122740344Y-125680086D01*
X123157717Y-126098188D01*
X123205312Y-126117951D01*
X123135647Y-126336042D01*
X124000000Y-127200395D01*
X124864353Y-126336042D01*
X124794819Y-126118360D01*
X124840086Y-126099656D01*
X125258188Y-125682283D01*
X125484742Y-125136681D01*
X125485257Y-124545911D01*
X125259656Y-123999914D01*
X124896127Y-123635750D01*
X129715000Y-123635750D01*
X129715000Y-124226309D01*
X129811673Y-124459698D01*
X129990301Y-124638327D01*
X130223690Y-124735000D01*
X130714250Y-124735000D01*
X130873000Y-124576250D01*
X130873000Y-123477000D01*
X129873750Y-123477000D01*
X129715000Y-123635750D01*
X124896127Y-123635750D01*
X124842283Y-123581812D01*
X124296681Y-123355258D01*
X123705911Y-123354743D01*
X123159914Y-123580344D01*
X122741812Y-123997717D01*
X122730252Y-124025557D01*
X122719656Y-123999914D01*
X122302283Y-123581812D01*
X121756681Y-123355258D01*
X121165911Y-123354743D01*
X120619914Y-123580344D01*
X120201812Y-123997717D01*
X120041566Y-124383632D01*
X117962599Y-126462599D01*
X117797852Y-126709161D01*
X117740000Y-127000000D01*
X117740000Y-134805198D01*
X116551622Y-135993576D01*
X116402068Y-135631629D01*
X115970643Y-135199449D01*
X115406670Y-134965267D01*
X114796009Y-134964735D01*
X114231629Y-135197932D01*
X113799449Y-135629357D01*
X113565267Y-136193330D01*
X113564735Y-136803991D01*
X113797932Y-137368371D01*
X114229357Y-137800551D01*
X114593459Y-137951739D01*
X114176304Y-138368894D01*
X113653991Y-138265000D01*
X113586009Y-138265000D01*
X112922053Y-138397069D01*
X112359179Y-138773170D01*
X111983078Y-139336044D01*
X111851009Y-140000000D01*
X107747440Y-140000000D01*
X107747440Y-138900000D01*
X107703162Y-138664683D01*
X107564090Y-138448559D01*
X107351890Y-138303569D01*
X107100000Y-138252560D01*
X106760000Y-138252560D01*
X106760000Y-138035000D01*
X107214250Y-138035000D01*
X107373000Y-137876250D01*
X107373000Y-136627000D01*
X107627000Y-136627000D01*
X107627000Y-137876250D01*
X107785750Y-138035000D01*
X108526310Y-138035000D01*
X108759699Y-137938327D01*
X108938327Y-137759698D01*
X109035000Y-137526309D01*
X109035000Y-136785750D01*
X108876250Y-136627000D01*
X107627000Y-136627000D01*
X107373000Y-136627000D01*
X107353000Y-136627000D01*
X107353000Y-136373000D01*
X107373000Y-136373000D01*
X107373000Y-135123750D01*
X107627000Y-135123750D01*
X107627000Y-136373000D01*
X108876250Y-136373000D01*
X109035000Y-136214250D01*
X109035000Y-135473691D01*
X108938327Y-135240302D01*
X108759699Y-135061673D01*
X108526310Y-134965000D01*
X107785750Y-134965000D01*
X107627000Y-135123750D01*
X107373000Y-135123750D01*
X107214250Y-134965000D01*
X106760000Y-134965000D01*
X106760000Y-126358282D01*
X106790839Y-126352148D01*
X106868874Y-126300007D01*
X107193330Y-126434733D01*
X107803991Y-126435265D01*
X108368371Y-126202068D01*
X108800551Y-125770643D01*
X109034733Y-125206670D01*
X109034735Y-125203991D01*
X113564735Y-125203991D01*
X113797932Y-125768371D01*
X114229357Y-126200551D01*
X114793330Y-126434733D01*
X115403991Y-126435265D01*
X115968371Y-126202068D01*
X116400551Y-125770643D01*
X116634733Y-125206670D01*
X116635265Y-124596009D01*
X116402068Y-124031629D01*
X115970643Y-123599449D01*
X115406670Y-123365267D01*
X114796009Y-123364735D01*
X114231629Y-123597932D01*
X113799449Y-124029357D01*
X113565267Y-124593330D01*
X113564735Y-125203991D01*
X109034735Y-125203991D01*
X109035265Y-124596009D01*
X108802068Y-124031629D01*
X108370643Y-123599449D01*
X107806670Y-123365267D01*
X107709620Y-123365182D01*
X109627362Y-121447440D01*
X110800000Y-121447440D01*
X111035317Y-121403162D01*
X111251441Y-121264090D01*
X111255977Y-121257452D01*
X111783223Y-121446965D01*
X112353454Y-121419778D01*
X112754005Y-121253864D01*
X112819703Y-121035750D01*
X114740000Y-121035750D01*
X114740000Y-121626309D01*
X114836673Y-121859698D01*
X115015301Y-122038327D01*
X115248690Y-122135000D01*
X115714250Y-122135000D01*
X115873000Y-121976250D01*
X115873000Y-120877000D01*
X116127000Y-120877000D01*
X116127000Y-121976250D01*
X116285750Y-122135000D01*
X116751310Y-122135000D01*
X116984699Y-122038327D01*
X117163327Y-121859698D01*
X117260000Y-121626309D01*
X117260000Y-121035750D01*
X117101250Y-120877000D01*
X116127000Y-120877000D01*
X115873000Y-120877000D01*
X114898750Y-120877000D01*
X114740000Y-121035750D01*
X112819703Y-121035750D01*
X112828139Y-121007745D01*
X112000000Y-120179605D01*
X111985858Y-120193748D01*
X111806253Y-120014143D01*
X111820395Y-120000000D01*
X112179605Y-120000000D01*
X113007745Y-120828139D01*
X113253864Y-120754005D01*
X113446965Y-120216777D01*
X113419778Y-119646546D01*
X113253864Y-119245995D01*
X113007745Y-119171861D01*
X112179605Y-120000000D01*
X111820395Y-120000000D01*
X111806253Y-119985858D01*
X111985858Y-119806252D01*
X112000000Y-119820395D01*
X112828139Y-118992255D01*
X112754005Y-118746136D01*
X112216777Y-118553035D01*
X111646546Y-118580222D01*
X111255053Y-118742384D01*
X111051890Y-118603569D01*
X110800000Y-118552560D01*
X110760000Y-118552560D01*
X110760000Y-117814802D01*
X112273327Y-116301475D01*
X112525000Y-116352440D01*
X113027638Y-116352440D01*
X114727560Y-118052362D01*
X114727560Y-119000000D01*
X114771838Y-119235317D01*
X114910910Y-119451441D01*
X114979006Y-119497969D01*
X114836673Y-119640302D01*
X114740000Y-119873691D01*
X114740000Y-120464250D01*
X114898750Y-120623000D01*
X115873000Y-120623000D01*
X115873000Y-120603000D01*
X116127000Y-120603000D01*
X116127000Y-120623000D01*
X117101250Y-120623000D01*
X117260000Y-120464250D01*
X117260000Y-120260000D01*
X125000000Y-120260000D01*
X125290839Y-120202148D01*
X125537401Y-120037401D01*
X127877362Y-117697440D01*
X128850000Y-117697440D01*
X129085317Y-117653162D01*
X129301441Y-117514090D01*
X129446431Y-117301890D01*
X129497440Y-117050000D01*
X129497440Y-115550000D01*
X129453162Y-115314683D01*
X129346241Y-115148523D01*
X129446431Y-115001890D01*
X129495415Y-114760000D01*
X129500000Y-114760000D01*
X129790839Y-114702148D01*
X130037401Y-114537401D01*
X132509608Y-112065194D01*
X132502560Y-112100000D01*
X132502560Y-115900000D01*
X132546838Y-116135317D01*
X132685910Y-116351441D01*
X132898110Y-116496431D01*
X133150000Y-116547440D01*
X135150000Y-116547440D01*
X135385317Y-116503162D01*
X135423363Y-116478680D01*
X135462599Y-116537401D01*
X136452560Y-117527362D01*
X136452560Y-118450000D01*
X136496838Y-118685317D01*
X136635910Y-118901441D01*
X136637548Y-118902560D01*
X136150000Y-118902560D01*
X135914683Y-118946838D01*
X135698559Y-119085910D01*
X135553569Y-119298110D01*
X135502560Y-119550000D01*
X135502560Y-119740000D01*
X132267334Y-119740000D01*
X132253162Y-119664683D01*
X132114090Y-119448559D01*
X131901890Y-119303569D01*
X131650000Y-119252560D01*
X130350000Y-119252560D01*
X130114683Y-119296838D01*
X129898559Y-119435910D01*
X129753569Y-119648110D01*
X129702560Y-119900000D01*
X129702560Y-121400000D01*
X129746838Y-121635317D01*
X129885910Y-121851441D01*
X130098110Y-121996431D01*
X130131490Y-122003191D01*
X129990301Y-122061673D01*
X129811673Y-122240302D01*
X129715000Y-122473691D01*
X129715000Y-123064250D01*
X129873750Y-123223000D01*
X130873000Y-123223000D01*
X130873000Y-123203000D01*
X131127000Y-123203000D01*
X131127000Y-123223000D01*
X131147000Y-123223000D01*
X131147000Y-123477000D01*
X131127000Y-123477000D01*
X131127000Y-124576250D01*
X131285750Y-124735000D01*
X131776310Y-124735000D01*
X132009699Y-124638327D01*
X132188327Y-124459698D01*
X132272567Y-124256326D01*
X132296838Y-124385317D01*
X132435910Y-124601441D01*
X132648110Y-124746431D01*
X132900000Y-124797440D01*
X134400000Y-124797440D01*
X134635317Y-124753162D01*
X134851441Y-124614090D01*
X134996431Y-124401890D01*
X134999081Y-124388803D01*
X135135910Y-124601441D01*
X135348110Y-124746431D01*
X135590000Y-124795415D01*
X135590000Y-125432560D01*
X134750000Y-125432560D01*
X134514683Y-125476838D01*
X134298559Y-125615910D01*
X134153569Y-125828110D01*
X134102560Y-126080000D01*
X134102560Y-127080000D01*
X134146838Y-127315317D01*
X134285910Y-127531441D01*
X134498110Y-127676431D01*
X134750000Y-127727440D01*
X137250000Y-127727440D01*
X137485317Y-127683162D01*
X137701441Y-127544090D01*
X137846431Y-127331890D01*
X137897440Y-127080000D01*
X137897440Y-126080000D01*
X137853162Y-125844683D01*
X137714090Y-125628559D01*
X137501890Y-125483569D01*
X137250000Y-125432560D01*
X137110000Y-125432560D01*
X137110000Y-124795558D01*
X137335317Y-124753162D01*
X137551441Y-124614090D01*
X137696431Y-124401890D01*
X137747440Y-124150000D01*
X137747440Y-122850000D01*
X137703162Y-122614683D01*
X137564090Y-122398559D01*
X137351890Y-122253569D01*
X137100000Y-122202560D01*
X135922242Y-122202560D01*
X136048015Y-122076787D01*
X136150000Y-122097440D01*
X136950000Y-122097440D01*
X137185317Y-122053162D01*
X137401441Y-121914090D01*
X137496990Y-121774250D01*
X137511673Y-121809698D01*
X137690301Y-121988327D01*
X137923690Y-122085000D01*
X138164250Y-122085000D01*
X138323000Y-121926250D01*
X138323000Y-120627000D01*
X138577000Y-120627000D01*
X138577000Y-121926250D01*
X138735750Y-122085000D01*
X138976310Y-122085000D01*
X139209699Y-121988327D01*
X139388327Y-121809698D01*
X139485000Y-121576309D01*
X139485000Y-120785750D01*
X139326250Y-120627000D01*
X138577000Y-120627000D01*
X138323000Y-120627000D01*
X138303000Y-120627000D01*
X138303000Y-120373000D01*
X138323000Y-120373000D01*
X138323000Y-119073750D01*
X138577000Y-119073750D01*
X138577000Y-120373000D01*
X139326250Y-120373000D01*
X139485000Y-120214250D01*
X139485000Y-119423691D01*
X139388327Y-119190302D01*
X139209699Y-119011673D01*
X138976310Y-118915000D01*
X138735750Y-118915000D01*
X138577000Y-119073750D01*
X138323000Y-119073750D01*
X138236988Y-118987738D01*
X138351441Y-118914090D01*
X138496431Y-118701890D01*
X138547440Y-118450000D01*
X138547440Y-116550000D01*
X138503162Y-116314683D01*
X138364090Y-116098559D01*
X138151890Y-115953569D01*
X137900000Y-115902560D01*
X137100000Y-115902560D01*
X136996784Y-115921982D01*
X136760000Y-115685198D01*
X136760000Y-112758025D01*
X136840302Y-112838327D01*
X137073691Y-112935000D01*
X137714250Y-112935000D01*
X137873000Y-112776250D01*
X137873000Y-111627000D01*
X137853000Y-111627000D01*
X137853000Y-111373000D01*
X137873000Y-111373000D01*
X137873000Y-110223750D01*
X138127000Y-110223750D01*
X138127000Y-111373000D01*
X138147000Y-111373000D01*
X138147000Y-111627000D01*
X138127000Y-111627000D01*
X138127000Y-112776250D01*
X138285750Y-112935000D01*
X138926309Y-112935000D01*
X139159698Y-112838327D01*
X139253998Y-112744027D01*
X139713309Y-112934750D01*
X140284187Y-112935248D01*
X140811800Y-112717243D01*
X141215824Y-112313923D01*
X141434750Y-111786691D01*
X141435248Y-111215813D01*
X141217243Y-110688200D01*
X140813923Y-110284176D01*
X140286691Y-110065250D01*
X139715813Y-110064752D01*
X139253713Y-110255688D01*
X139159698Y-110161673D01*
X138926309Y-110065000D01*
X138285750Y-110065000D01*
X138127000Y-110223750D01*
X137873000Y-110223750D01*
X137714250Y-110065000D01*
X137073691Y-110065000D01*
X136840302Y-110161673D01*
X136760000Y-110241975D01*
X136760000Y-105000000D01*
X136732555Y-104862024D01*
X136707936Y-104723547D01*
X136703687Y-104716898D01*
X136702148Y-104709161D01*
X136624012Y-104592222D01*
X136548254Y-104473675D01*
X133714487Y-101521834D01*
X134264543Y-101521834D01*
X134664853Y-102490658D01*
X135405443Y-103232542D01*
X136373567Y-103634542D01*
X137421834Y-103635457D01*
X138390658Y-103235147D01*
X139132542Y-102494557D01*
X139534542Y-101526433D01*
X139535457Y-100478166D01*
X139135147Y-99509342D01*
X138394557Y-98767458D01*
X137426433Y-98365458D01*
X136378166Y-98364543D01*
X135409342Y-98764853D01*
X134667458Y-99505443D01*
X134265458Y-100473567D01*
X134264543Y-101521834D01*
X133714487Y-101521834D01*
X127530479Y-95080159D01*
X129099446Y-95080159D01*
X129185852Y-95336643D01*
X129759336Y-95546458D01*
X130369460Y-95520839D01*
X130814148Y-95336643D01*
X130900554Y-95080159D01*
X130000000Y-94179605D01*
X129099446Y-95080159D01*
X127530479Y-95080159D01*
X126262488Y-93759336D01*
X128453542Y-93759336D01*
X128479161Y-94369460D01*
X128663357Y-94814148D01*
X128919841Y-94900554D01*
X129820395Y-94000000D01*
X128919841Y-93099446D01*
X128663357Y-93185852D01*
X128453542Y-93759336D01*
X126262488Y-93759336D01*
X125456573Y-92919841D01*
X129099446Y-92919841D01*
X130000000Y-93820395D01*
X130900554Y-92919841D01*
X130814148Y-92663357D01*
X130240664Y-92453542D01*
X129630540Y-92479161D01*
X129185852Y-92663357D01*
X129099446Y-92919841D01*
X125456573Y-92919841D01*
X124760000Y-92194245D01*
X124760000Y-89303991D01*
X125064735Y-89303991D01*
X125297932Y-89868371D01*
X125729357Y-90300551D01*
X126293330Y-90534733D01*
X126903991Y-90535265D01*
X127468371Y-90302068D01*
X127900551Y-89870643D01*
X128134733Y-89306670D01*
X128134751Y-89285750D01*
X130465000Y-89285750D01*
X130465000Y-90026309D01*
X130561673Y-90259698D01*
X130740301Y-90438327D01*
X130973690Y-90535000D01*
X131714250Y-90535000D01*
X131873000Y-90376250D01*
X131873000Y-89127000D01*
X130623750Y-89127000D01*
X130465000Y-89285750D01*
X128134751Y-89285750D01*
X128135265Y-88696009D01*
X127902068Y-88131629D01*
X127744406Y-87973691D01*
X130465000Y-87973691D01*
X130465000Y-88714250D01*
X130623750Y-88873000D01*
X131873000Y-88873000D01*
X131873000Y-87623750D01*
X131714250Y-87465000D01*
X130973690Y-87465000D01*
X130740301Y-87561673D01*
X130561673Y-87740302D01*
X130465000Y-87973691D01*
X127744406Y-87973691D01*
X127470643Y-87699449D01*
X126906670Y-87465267D01*
X126296009Y-87464735D01*
X125731629Y-87697932D01*
X125299449Y-88129357D01*
X125065267Y-88693330D01*
X125064735Y-89303991D01*
X124760000Y-89303991D01*
X124760000Y-77703991D01*
X125064735Y-77703991D01*
X125297932Y-78268371D01*
X125729357Y-78700551D01*
X126293330Y-78934733D01*
X126903991Y-78935265D01*
X127468371Y-78702068D01*
X127900551Y-78270643D01*
X128134733Y-77706670D01*
X128135265Y-77096009D01*
X127902068Y-76531629D01*
X127470643Y-76099449D01*
X126906670Y-75865267D01*
X126296009Y-75864735D01*
X125731629Y-76097932D01*
X125299449Y-76529357D01*
X125065267Y-77093330D01*
X125064735Y-77703991D01*
X124760000Y-77703991D01*
X124760000Y-76314802D01*
X127019619Y-74055183D01*
X127094187Y-74055248D01*
X127621800Y-73837243D01*
X128025824Y-73433923D01*
X128079862Y-73303785D01*
X128132757Y-73431800D01*
X128536077Y-73835824D01*
X129063309Y-74054750D01*
X129634187Y-74055248D01*
X130161800Y-73837243D01*
X130565824Y-73433923D01*
X130619862Y-73303785D01*
X130672757Y-73431800D01*
X131076077Y-73835824D01*
X131603309Y-74054750D01*
X132174187Y-74055248D01*
X132228149Y-74032951D01*
X132740000Y-74544802D01*
X132740000Y-76045201D01*
X132306670Y-75865267D01*
X131696009Y-75864735D01*
X131131629Y-76097932D01*
X130699449Y-76529357D01*
X130465267Y-77093330D01*
X130464735Y-77703991D01*
X130697932Y-78268371D01*
X131129357Y-78700551D01*
X131693330Y-78934733D01*
X132303991Y-78935265D01*
X132740000Y-78755110D01*
X132740000Y-87465000D01*
X132285750Y-87465000D01*
X132127000Y-87623750D01*
X132127000Y-88873000D01*
X132147000Y-88873000D01*
X132147000Y-89127000D01*
X132127000Y-89127000D01*
X132127000Y-90376250D01*
X132285750Y-90535000D01*
X132740000Y-90535000D01*
X132740000Y-91185198D01*
X131962599Y-91962599D01*
X131797852Y-92209161D01*
X131740000Y-92500000D01*
X131740000Y-92653154D01*
X131631629Y-92697932D01*
X131199449Y-93129357D01*
X131195706Y-93138372D01*
X131080159Y-93099446D01*
X130179605Y-94000000D01*
X131080159Y-94900554D01*
X131195214Y-94861793D01*
X131197932Y-94868371D01*
X131629357Y-95300551D01*
X132193330Y-95534733D01*
X132803991Y-95535265D01*
X133368371Y-95302068D01*
X133750288Y-94920818D01*
X134129357Y-95300551D01*
X134294196Y-95368998D01*
X134462599Y-95537401D01*
X134709161Y-95702148D01*
X135000000Y-95760000D01*
X135290840Y-95702148D01*
X135537401Y-95537401D01*
X135628390Y-95401226D01*
X135868371Y-95302068D01*
X136300551Y-94870643D01*
X136534733Y-94306670D01*
X136535265Y-93696009D01*
X136302068Y-93131629D01*
X135870643Y-92699449D01*
X135306670Y-92465267D01*
X135190000Y-92465165D01*
X135190000Y-89303991D01*
X138064735Y-89303991D01*
X138297932Y-89868371D01*
X138729357Y-90300551D01*
X139293330Y-90534733D01*
X139903991Y-90535265D01*
X140468371Y-90302068D01*
X140900551Y-89870643D01*
X141134733Y-89306670D01*
X141135265Y-88696009D01*
X140902068Y-88131629D01*
X140470643Y-87699449D01*
X139906670Y-87465267D01*
X139296009Y-87464735D01*
X138731629Y-87697932D01*
X138299449Y-88129357D01*
X138065267Y-88693330D01*
X138064735Y-89303991D01*
X135190000Y-89303991D01*
X135190000Y-77703991D01*
X138064735Y-77703991D01*
X138297932Y-78268371D01*
X138729357Y-78700551D01*
X139293330Y-78934733D01*
X139903991Y-78935265D01*
X140468371Y-78702068D01*
X140900551Y-78270643D01*
X141134733Y-77706670D01*
X141135265Y-77096009D01*
X140902068Y-76531629D01*
X140470643Y-76099449D01*
X139906670Y-75865267D01*
X139296009Y-75864735D01*
X138731629Y-76097932D01*
X138299449Y-76529357D01*
X138065267Y-77093330D01*
X138064735Y-77703991D01*
X135190000Y-77703991D01*
X135190000Y-73858646D01*
X135241800Y-73837243D01*
X135645824Y-73433923D01*
X135699862Y-73303785D01*
X135752757Y-73431800D01*
X136156077Y-73835824D01*
X136683309Y-74054750D01*
X137254187Y-74055248D01*
X137781800Y-73837243D01*
X138185824Y-73433923D01*
X138239862Y-73303785D01*
X138292757Y-73431800D01*
X138696077Y-73835824D01*
X139223309Y-74054750D01*
X139794187Y-74055248D01*
X140321800Y-73837243D01*
X140725824Y-73433923D01*
X140944750Y-72906691D01*
X140945248Y-72335813D01*
X140727243Y-71808200D01*
X140323923Y-71404176D01*
X139796691Y-71185250D01*
X139225813Y-71184752D01*
X138698200Y-71402757D01*
X138294176Y-71806077D01*
X138240138Y-71936215D01*
X138187243Y-71808200D01*
X137783923Y-71404176D01*
X137256691Y-71185250D01*
X136685813Y-71184752D01*
X136158200Y-71402757D01*
X135754176Y-71806077D01*
X135700138Y-71936215D01*
X135647243Y-71808200D01*
X135243923Y-71404176D01*
X135190000Y-71381785D01*
X135190000Y-66869709D01*
X142055431Y-59518745D01*
X142126845Y-59403538D01*
X142202148Y-59290839D01*
X142204720Y-59277908D01*
X142211666Y-59266703D01*
X142233556Y-59132943D01*
X142260000Y-59000000D01*
X142260000Y-52500000D01*
X142202148Y-52209161D01*
X142037401Y-51962599D01*
X140037401Y-49962599D01*
X139790839Y-49797852D01*
X139500000Y-49740000D01*
X129700000Y-49740000D01*
X129409161Y-49797852D01*
X129162599Y-49962599D01*
X128446408Y-50678790D01*
X128080000Y-50605907D01*
X127511715Y-50718946D01*
X127029946Y-51040853D01*
X126810000Y-51370026D01*
X126590054Y-51040853D01*
X126108285Y-50718946D01*
X125540000Y-50605907D01*
X124971715Y-50718946D01*
X124489946Y-51040853D01*
X124270000Y-51370026D01*
X124050054Y-51040853D01*
X123568285Y-50718946D01*
X123000000Y-50605907D01*
X122431715Y-50718946D01*
X121949946Y-51040853D01*
X121730000Y-51370026D01*
X121510054Y-51040853D01*
X121028285Y-50718946D01*
X120460000Y-50605907D01*
X119891715Y-50718946D01*
X119409946Y-51040853D01*
X119190000Y-51370026D01*
X118970054Y-51040853D01*
X118488285Y-50718946D01*
X117920000Y-50605907D01*
X117351715Y-50718946D01*
X116869946Y-51040853D01*
X116650000Y-51370026D01*
X116430054Y-51040853D01*
X115948285Y-50718946D01*
X115380000Y-50605907D01*
X114811715Y-50718946D01*
X114329946Y-51040853D01*
X114008039Y-51522622D01*
X113895000Y-52090907D01*
X113895000Y-52149093D01*
X114008039Y-52717378D01*
X114329946Y-53199147D01*
X114620000Y-53392954D01*
X114620000Y-55795198D01*
X114448454Y-55966744D01*
X114396691Y-55945250D01*
X113825813Y-55944752D01*
X113298200Y-56162757D01*
X112894176Y-56566077D01*
X112840138Y-56696215D01*
X112787243Y-56568200D01*
X112383923Y-56164176D01*
X111856691Y-55945250D01*
X111285813Y-55944752D01*
X110758200Y-56162757D01*
X110354176Y-56566077D01*
X110306552Y-56680768D01*
X110283864Y-56625995D01*
X110037745Y-56551861D01*
X109209605Y-57380000D01*
X110037745Y-58208139D01*
X110283864Y-58134005D01*
X110304805Y-58075746D01*
X110352757Y-58191800D01*
X110756077Y-58595824D01*
X111283309Y-58814750D01*
X111854187Y-58815248D01*
X112381800Y-58597243D01*
X112785824Y-58193923D01*
X112839862Y-58063785D01*
X112892757Y-58191800D01*
X113296077Y-58595824D01*
X113823309Y-58814750D01*
X114394187Y-58815248D01*
X114921800Y-58597243D01*
X115325824Y-58193923D01*
X115379862Y-58063785D01*
X115432757Y-58191800D01*
X115836077Y-58595824D01*
X116363309Y-58814750D01*
X116934187Y-58815248D01*
X117461800Y-58597243D01*
X117865824Y-58193923D01*
X117919862Y-58063785D01*
X117972757Y-58191800D01*
X118376077Y-58595824D01*
X118903309Y-58814750D01*
X119474187Y-58815248D01*
X120001800Y-58597243D01*
X120405824Y-58193923D01*
X120459862Y-58063785D01*
X120512757Y-58191800D01*
X120916077Y-58595824D01*
X121443309Y-58814750D01*
X122014187Y-58815248D01*
X122541800Y-58597243D01*
X122945824Y-58193923D01*
X122999862Y-58063785D01*
X123052757Y-58191800D01*
X123456077Y-58595824D01*
X123983309Y-58814750D01*
X124554187Y-58815248D01*
X125081800Y-58597243D01*
X125485824Y-58193923D01*
X125539862Y-58063785D01*
X125592757Y-58191800D01*
X125996077Y-58595824D01*
X126523309Y-58814750D01*
X127094187Y-58815248D01*
X127621800Y-58597243D01*
X128025824Y-58193923D01*
X128079862Y-58063785D01*
X128132757Y-58191800D01*
X128536077Y-58595824D01*
X129063309Y-58814750D01*
X129634187Y-58815248D01*
X130161800Y-58597243D01*
X130565824Y-58193923D01*
X130619862Y-58063785D01*
X130672757Y-58191800D01*
X131076077Y-58595824D01*
X131603309Y-58814750D01*
X132174187Y-58815248D01*
X132701800Y-58597243D01*
X133105824Y-58193923D01*
X133159862Y-58063785D01*
X133212757Y-58191800D01*
X133616077Y-58595824D01*
X134143309Y-58814750D01*
X134714187Y-58815248D01*
X135241800Y-58597243D01*
X135645824Y-58193923D01*
X135699862Y-58063785D01*
X135752757Y-58191800D01*
X136156077Y-58595824D01*
X136683309Y-58814750D01*
X137254187Y-58815248D01*
X137781800Y-58597243D01*
X138075000Y-58304554D01*
X138075000Y-58306310D01*
X138171673Y-58539699D01*
X138350302Y-58718327D01*
X138583691Y-58815000D01*
X139224250Y-58815000D01*
X139383000Y-58656250D01*
X139383000Y-57507000D01*
X139363000Y-57507000D01*
X139363000Y-57253000D01*
X139383000Y-57253000D01*
X139383000Y-56103750D01*
X139224250Y-55945000D01*
X138583691Y-55945000D01*
X138350302Y-56041673D01*
X138171673Y-56220301D01*
X138075000Y-56453690D01*
X138075000Y-56455761D01*
X137783923Y-56164176D01*
X137256691Y-55945250D01*
X136685813Y-55944752D01*
X136158200Y-56162757D01*
X135754176Y-56566077D01*
X135700138Y-56696215D01*
X135647243Y-56568200D01*
X135243923Y-56164176D01*
X134716691Y-55945250D01*
X134145813Y-55944752D01*
X133618200Y-56162757D01*
X133214176Y-56566077D01*
X133160138Y-56696215D01*
X133107243Y-56568200D01*
X132703923Y-56164176D01*
X132176691Y-55945250D01*
X131605813Y-55944752D01*
X131078200Y-56162757D01*
X130674176Y-56566077D01*
X130620138Y-56696215D01*
X130567243Y-56568200D01*
X130163923Y-56164176D01*
X129636691Y-55945250D01*
X129065813Y-55944752D01*
X128538200Y-56162757D01*
X128134176Y-56566077D01*
X128080138Y-56696215D01*
X128027243Y-56568200D01*
X127623923Y-56164176D01*
X127096691Y-55945250D01*
X126525813Y-55944752D01*
X126300000Y-56038056D01*
X126300000Y-53392954D01*
X126590054Y-53199147D01*
X126810000Y-52869974D01*
X127029946Y-53199147D01*
X127511715Y-53521054D01*
X128080000Y-53634093D01*
X128648285Y-53521054D01*
X129130054Y-53199147D01*
X129159403Y-53155223D01*
X129231673Y-53329698D01*
X129410301Y-53508327D01*
X129643690Y-53605000D01*
X130334250Y-53605000D01*
X130493000Y-53446250D01*
X130493000Y-52247000D01*
X130747000Y-52247000D01*
X130747000Y-53446250D01*
X130905750Y-53605000D01*
X131596310Y-53605000D01*
X131829699Y-53508327D01*
X132008327Y-53329698D01*
X132105000Y-53096309D01*
X132105000Y-52405750D01*
X131946250Y-52247000D01*
X130747000Y-52247000D01*
X130493000Y-52247000D01*
X130473000Y-52247000D01*
X130473000Y-51993000D01*
X130493000Y-51993000D01*
X130493000Y-51973000D01*
X130747000Y-51973000D01*
X130747000Y-51993000D01*
X131946250Y-51993000D01*
X132105000Y-51834250D01*
X132105000Y-51260000D01*
X139185198Y-51260000D01*
X140740000Y-52814802D01*
X140740000Y-56111975D01*
X140669698Y-56041673D01*
X140436309Y-55945000D01*
X139795750Y-55945000D01*
X139637000Y-56103750D01*
X139637000Y-57253000D01*
X139657000Y-57253000D01*
X139657000Y-57507000D01*
X139637000Y-57507000D01*
X139637000Y-58656250D01*
X139795750Y-58815000D01*
X140436309Y-58815000D01*
X140669698Y-58718327D01*
X140740000Y-58648025D01*
X140740000Y-58700291D01*
X133874569Y-66051255D01*
X133803155Y-66166462D01*
X133727852Y-66279161D01*
X133725280Y-66292092D01*
X133718334Y-66303297D01*
X133696444Y-66437057D01*
X133670000Y-66570000D01*
X133670000Y-71381354D01*
X133618200Y-71402757D01*
X133214176Y-71806077D01*
X133160138Y-71936215D01*
X133107243Y-71808200D01*
X132703923Y-71404176D01*
X132176691Y-71185250D01*
X131605813Y-71184752D01*
X131078200Y-71402757D01*
X130674176Y-71806077D01*
X130620138Y-71936215D01*
X130567243Y-71808200D01*
X130163923Y-71404176D01*
X129636691Y-71185250D01*
X129065813Y-71184752D01*
X128538200Y-71402757D01*
X128134176Y-71806077D01*
X128080138Y-71936215D01*
X128027243Y-71808200D01*
X127623923Y-71404176D01*
X127096691Y-71185250D01*
X126525813Y-71184752D01*
X125998200Y-71402757D01*
X125594176Y-71806077D01*
X125540138Y-71936215D01*
X125487243Y-71808200D01*
X125083923Y-71404176D01*
X124556691Y-71185250D01*
X123985813Y-71184752D01*
X123458200Y-71402757D01*
X123054176Y-71806077D01*
X123000138Y-71936215D01*
X122947243Y-71808200D01*
X122543923Y-71404176D01*
X122016691Y-71185250D01*
X121445813Y-71184752D01*
X120918200Y-71402757D01*
X120514176Y-71806077D01*
X120460138Y-71936215D01*
X120407243Y-71808200D01*
X120003923Y-71404176D01*
X119476691Y-71185250D01*
X118905813Y-71184752D01*
X118378200Y-71402757D01*
X117974176Y-71806077D01*
X117920138Y-71936215D01*
X117867243Y-71808200D01*
X117463923Y-71404176D01*
X116936691Y-71185250D01*
X116365813Y-71184752D01*
X115838200Y-71402757D01*
X115434176Y-71806077D01*
X115380138Y-71936215D01*
X115327243Y-71808200D01*
X114923923Y-71404176D01*
X114396691Y-71185250D01*
X113825813Y-71184752D01*
X113298200Y-71402757D01*
X112894176Y-71806077D01*
X112840138Y-71936215D01*
X112787243Y-71808200D01*
X112383923Y-71404176D01*
X111856691Y-71185250D01*
X111285813Y-71184752D01*
X110758200Y-71402757D01*
X110354176Y-71806077D01*
X110300138Y-71936215D01*
X110247243Y-71808200D01*
X109843923Y-71404176D01*
X109316691Y-71185250D01*
X108745813Y-71184752D01*
X108218200Y-71402757D01*
X107814176Y-71806077D01*
X107760138Y-71936215D01*
X107707243Y-71808200D01*
X107303923Y-71404176D01*
X107173785Y-71350138D01*
X107301800Y-71297243D01*
X107705824Y-70893923D01*
X107924750Y-70366691D01*
X107925248Y-69795813D01*
X107707243Y-69268200D01*
X107303923Y-68864176D01*
X107173785Y-68810138D01*
X107301800Y-68757243D01*
X107705824Y-68353923D01*
X107924750Y-67826691D01*
X107925248Y-67255813D01*
X107707243Y-66728200D01*
X107303923Y-66324176D01*
X107173785Y-66270138D01*
X107301800Y-66217243D01*
X107705824Y-65813923D01*
X107924750Y-65286691D01*
X107925248Y-64715813D01*
X107707243Y-64188200D01*
X107303923Y-63784176D01*
X107173785Y-63730138D01*
X107301800Y-63677243D01*
X107705824Y-63273923D01*
X107924750Y-62746691D01*
X107925248Y-62175813D01*
X107707243Y-61648200D01*
X107303923Y-61244176D01*
X107173785Y-61190138D01*
X107301800Y-61137243D01*
X107705824Y-60733923D01*
X107924750Y-60206691D01*
X107925248Y-59635813D01*
X107707243Y-59108200D01*
X107303923Y-58704176D01*
X107173785Y-58650138D01*
X107301800Y-58597243D01*
X107511663Y-58387745D01*
X108201861Y-58387745D01*
X108275995Y-58633864D01*
X108813223Y-58826965D01*
X109383454Y-58799778D01*
X109784005Y-58633864D01*
X109858139Y-58387745D01*
X109030000Y-57559605D01*
X108201861Y-58387745D01*
X107511663Y-58387745D01*
X107705824Y-58193923D01*
X107753448Y-58079232D01*
X107776136Y-58134005D01*
X108022255Y-58208139D01*
X108850395Y-57380000D01*
X108022255Y-56551861D01*
X107776136Y-56625995D01*
X107755195Y-56684254D01*
X107707243Y-56568200D01*
X107511640Y-56372255D01*
X108201861Y-56372255D01*
X109030000Y-57200395D01*
X109858139Y-56372255D01*
X109784005Y-56126136D01*
X109246777Y-55933035D01*
X108676546Y-55960222D01*
X108275995Y-56126136D01*
X108201861Y-56372255D01*
X107511640Y-56372255D01*
X107303923Y-56164176D01*
X106776691Y-55945250D01*
X106205813Y-55944752D01*
X105678200Y-56162757D01*
X105274176Y-56566077D01*
X105251785Y-56620000D01*
X104620000Y-56620000D01*
X104329161Y-56677852D01*
X104082599Y-56842599D01*
X103962599Y-56962599D01*
X103797852Y-57209161D01*
X103740000Y-57500000D01*
X103740000Y-75900000D01*
X103797852Y-76190839D01*
X103962599Y-76437401D01*
X104510234Y-76985036D01*
X104465267Y-77093330D01*
X104464735Y-77703991D01*
X104697932Y-78268371D01*
X105129357Y-78700551D01*
X105693330Y-78934733D01*
X106303991Y-78935265D01*
X106740000Y-78755110D01*
X106740000Y-87465000D01*
X106285750Y-87465000D01*
X106127000Y-87623750D01*
X106127000Y-88873000D01*
X106147000Y-88873000D01*
X106147000Y-89127000D01*
X106127000Y-89127000D01*
X106127000Y-90376250D01*
X106285750Y-90535000D01*
X106740000Y-90535000D01*
X106740000Y-98000000D01*
X106797852Y-98290839D01*
X106962599Y-98537401D01*
X107290198Y-98865000D01*
X107248377Y-98865000D01*
X106240006Y-99065577D01*
X105385151Y-99636774D01*
X104813954Y-100491629D01*
X104613377Y-101500000D01*
X104813954Y-102508371D01*
X105385151Y-103363226D01*
X106240006Y-103934423D01*
X107248377Y-104135000D01*
X107351623Y-104135000D01*
X108359994Y-103934423D01*
X109214849Y-103363226D01*
X109240000Y-103325585D01*
X109240000Y-106685198D01*
X108462599Y-107462599D01*
X108297852Y-107709161D01*
X108240000Y-108000000D01*
X108240000Y-109000000D01*
X108297852Y-109290839D01*
X108462599Y-109537401D01*
X109684806Y-110759608D01*
X109650000Y-110752560D01*
X108350000Y-110752560D01*
X108114683Y-110796838D01*
X107898559Y-110935910D01*
X107753569Y-111148110D01*
X107750919Y-111161197D01*
X107614090Y-110948559D01*
X107401890Y-110803569D01*
X107150000Y-110752560D01*
X105850000Y-110752560D01*
X105614683Y-110796838D01*
X105398559Y-110935910D01*
X105253569Y-111148110D01*
X105202560Y-111400000D01*
X105202560Y-112900000D01*
X105246838Y-113135317D01*
X105385910Y-113351441D01*
X105598110Y-113496431D01*
X105631490Y-113503191D01*
X105490301Y-113561673D01*
X105311673Y-113740302D01*
X105215000Y-113973691D01*
X105215000Y-114564250D01*
X105373750Y-114723000D01*
X106373000Y-114723000D01*
X106373000Y-114703000D01*
X106627000Y-114703000D01*
X106627000Y-114723000D01*
X106647000Y-114723000D01*
X106647000Y-114977000D01*
X106627000Y-114977000D01*
X106627000Y-116076250D01*
X106785750Y-116235000D01*
X107190198Y-116235000D01*
X106860320Y-116564878D01*
X106814833Y-116564838D01*
X106471057Y-116706883D01*
X106207808Y-116969673D01*
X106065162Y-117313201D01*
X106064838Y-117685167D01*
X106206883Y-118028943D01*
X106469673Y-118292192D01*
X106813201Y-118434838D01*
X107185167Y-118435162D01*
X107528943Y-118293117D01*
X107792192Y-118030327D01*
X107934838Y-117686799D01*
X107934879Y-117639923D01*
X109327362Y-116247440D01*
X109650000Y-116247440D01*
X109885317Y-116203162D01*
X110101441Y-116064090D01*
X110246431Y-115851890D01*
X110295415Y-115610000D01*
X110650000Y-115610000D01*
X110856218Y-115568980D01*
X109462599Y-116962599D01*
X109297852Y-117209161D01*
X109240000Y-117500000D01*
X109240000Y-118552560D01*
X109200000Y-118552560D01*
X108964683Y-118596838D01*
X108748559Y-118735910D01*
X108603569Y-118948110D01*
X108552560Y-119200000D01*
X108552560Y-120372638D01*
X105462599Y-123462599D01*
X105297852Y-123709161D01*
X105240000Y-124000000D01*
X105240000Y-138252560D01*
X104900000Y-138252560D01*
X104664683Y-138296838D01*
X104448559Y-138435910D01*
X104303569Y-138648110D01*
X104252560Y-138900000D01*
X104252560Y-141100000D01*
X104296838Y-141335317D01*
X104435910Y-141551441D01*
X104648110Y-141696431D01*
X104863260Y-141740000D01*
X104562463Y-141740000D01*
X104530327Y-141707808D01*
X104186799Y-141565162D01*
X103814833Y-141564838D01*
X103710000Y-141608154D01*
X103710000Y-115135750D01*
X105215000Y-115135750D01*
X105215000Y-115726309D01*
X105311673Y-115959698D01*
X105490301Y-116138327D01*
X105723690Y-116235000D01*
X106214250Y-116235000D01*
X106373000Y-116076250D01*
X106373000Y-114977000D01*
X105373750Y-114977000D01*
X105215000Y-115135750D01*
X103710000Y-115135750D01*
X103710000Y-89285750D01*
X104465000Y-89285750D01*
X104465000Y-90026309D01*
X104561673Y-90259698D01*
X104740301Y-90438327D01*
X104973690Y-90535000D01*
X105714250Y-90535000D01*
X105873000Y-90376250D01*
X105873000Y-89127000D01*
X104623750Y-89127000D01*
X104465000Y-89285750D01*
X103710000Y-89285750D01*
X103710000Y-87973691D01*
X104465000Y-87973691D01*
X104465000Y-88714250D01*
X104623750Y-88873000D01*
X105873000Y-88873000D01*
X105873000Y-87623750D01*
X105714250Y-87465000D01*
X104973690Y-87465000D01*
X104740301Y-87561673D01*
X104561673Y-87740302D01*
X104465000Y-87973691D01*
X103710000Y-87973691D01*
X103710000Y-49710000D01*
X142290000Y-49710000D01*
X142290000Y-158290000D01*
G36*
X128577273Y-98365415D02*
X127578166Y-98364543D01*
X126609342Y-98764853D01*
X125867458Y-99505443D01*
X125465458Y-100473567D01*
X125464543Y-101521834D01*
X125864853Y-102490658D01*
X126605443Y-103232542D01*
X127573567Y-103634542D01*
X128621834Y-103635457D01*
X129590658Y-103235147D01*
X130332542Y-102494557D01*
X130734542Y-101526433D01*
X130735339Y-100613401D01*
X135240000Y-105305756D01*
X135240000Y-108417847D01*
X135030327Y-108207808D01*
X134686799Y-108065162D01*
X134314833Y-108064838D01*
X133971057Y-108206883D01*
X133707808Y-108469673D01*
X133565162Y-108813201D01*
X133565121Y-108860077D01*
X129436464Y-112988734D01*
X129347518Y-112850508D01*
X129388327Y-112809699D01*
X129485000Y-112576310D01*
X129485000Y-111985750D01*
X129326250Y-111827000D01*
X127977000Y-111827000D01*
X127977000Y-111847000D01*
X127723000Y-111847000D01*
X127723000Y-111827000D01*
X126373750Y-111827000D01*
X126215000Y-111985750D01*
X126215000Y-112576310D01*
X126311673Y-112809699D01*
X126353634Y-112851660D01*
X126253569Y-112998110D01*
X126202560Y-113250000D01*
X126202560Y-113302263D01*
X125962599Y-113462599D01*
X125698934Y-113726264D01*
X125663327Y-113640302D01*
X125484699Y-113461673D01*
X125251310Y-113365000D01*
X124785750Y-113365000D01*
X124627000Y-113523750D01*
X124627000Y-114623000D01*
X124647000Y-114623000D01*
X124647000Y-114877000D01*
X124627000Y-114877000D01*
X124627000Y-114897000D01*
X124373000Y-114897000D01*
X124373000Y-114877000D01*
X123398750Y-114877000D01*
X123240000Y-115035750D01*
X123240000Y-115626309D01*
X123336673Y-115859698D01*
X123477910Y-116000936D01*
X123423559Y-116035910D01*
X123278569Y-116248110D01*
X123227560Y-116500000D01*
X123227560Y-118000000D01*
X123271838Y-118235317D01*
X123410910Y-118451441D01*
X123623110Y-118596431D01*
X123875000Y-118647440D01*
X124777758Y-118647440D01*
X124685198Y-118740000D01*
X122189540Y-118740000D01*
X122385317Y-118703162D01*
X122601441Y-118564090D01*
X122746431Y-118351890D01*
X122797440Y-118100000D01*
X122797440Y-116600000D01*
X122753162Y-116364683D01*
X122614090Y-116148559D01*
X122401890Y-116003569D01*
X122388803Y-116000919D01*
X122601441Y-115864090D01*
X122746431Y-115651890D01*
X122797440Y-115400000D01*
X122797440Y-113900000D01*
X122792490Y-113873691D01*
X123240000Y-113873691D01*
X123240000Y-114464250D01*
X123398750Y-114623000D01*
X124373000Y-114623000D01*
X124373000Y-113523750D01*
X124214250Y-113365000D01*
X123748690Y-113365000D01*
X123515301Y-113461673D01*
X123336673Y-113640302D01*
X123240000Y-113873691D01*
X122792490Y-113873691D01*
X122753162Y-113664683D01*
X122614090Y-113448559D01*
X122410000Y-113309110D01*
X122410000Y-113295558D01*
X122635317Y-113253162D01*
X122851441Y-113114090D01*
X122996431Y-112901890D01*
X123003191Y-112868510D01*
X123061673Y-113009699D01*
X123240302Y-113188327D01*
X123473691Y-113285000D01*
X124064250Y-113285000D01*
X124223000Y-113126250D01*
X124223000Y-112127000D01*
X124477000Y-112127000D01*
X124477000Y-113126250D01*
X124635750Y-113285000D01*
X125226309Y-113285000D01*
X125459698Y-113188327D01*
X125638327Y-113009699D01*
X125735000Y-112776310D01*
X125735000Y-112285750D01*
X125576250Y-112127000D01*
X124477000Y-112127000D01*
X124223000Y-112127000D01*
X124203000Y-112127000D01*
X124203000Y-111873000D01*
X124223000Y-111873000D01*
X124223000Y-110873750D01*
X124477000Y-110873750D01*
X124477000Y-111873000D01*
X125576250Y-111873000D01*
X125735000Y-111714250D01*
X125735000Y-111223690D01*
X125638327Y-110990301D01*
X125471716Y-110823690D01*
X126215000Y-110823690D01*
X126215000Y-111414250D01*
X126373750Y-111573000D01*
X127723000Y-111573000D01*
X127723000Y-110473750D01*
X127977000Y-110473750D01*
X127977000Y-111573000D01*
X129326250Y-111573000D01*
X129485000Y-111414250D01*
X129485000Y-110823690D01*
X129388327Y-110590301D01*
X129209698Y-110411673D01*
X128976309Y-110315000D01*
X128135750Y-110315000D01*
X127977000Y-110473750D01*
X127723000Y-110473750D01*
X127564250Y-110315000D01*
X126723691Y-110315000D01*
X126490302Y-110411673D01*
X126311673Y-110590301D01*
X126215000Y-110823690D01*
X125471716Y-110823690D01*
X125459698Y-110811673D01*
X125226309Y-110715000D01*
X124635750Y-110715000D01*
X124477000Y-110873750D01*
X124223000Y-110873750D01*
X124064250Y-110715000D01*
X123473691Y-110715000D01*
X123240302Y-110811673D01*
X123061673Y-110990301D01*
X123005346Y-111126287D01*
X123003162Y-111114683D01*
X122864090Y-110898559D01*
X122651890Y-110753569D01*
X122400000Y-110702560D01*
X120900000Y-110702560D01*
X120865808Y-110708994D01*
X122314802Y-109260000D01*
X122937537Y-109260000D01*
X122969673Y-109292192D01*
X123313201Y-109434838D01*
X123685167Y-109435162D01*
X124028943Y-109293117D01*
X124292192Y-109030327D01*
X124434838Y-108686799D01*
X124435162Y-108314833D01*
X124293117Y-107971057D01*
X124030327Y-107707808D01*
X123686799Y-107565162D01*
X123314833Y-107564838D01*
X122971057Y-107706883D01*
X122937882Y-107740000D01*
X122000000Y-107740000D01*
X121709161Y-107797852D01*
X121462599Y-107962599D01*
X118777638Y-110647560D01*
X117927242Y-110647560D01*
X123537401Y-105037401D01*
X123702148Y-104790839D01*
X123760000Y-104500000D01*
X123760000Y-93347422D01*
X128577273Y-98365415D01*
X128577273Y-98365415D01*
G37*
X128577273Y-98365415D02*
X127578166Y-98364543D01*
X126609342Y-98764853D01*
X125867458Y-99505443D01*
X125465458Y-100473567D01*
X125464543Y-101521834D01*
X125864853Y-102490658D01*
X126605443Y-103232542D01*
X127573567Y-103634542D01*
X128621834Y-103635457D01*
X129590658Y-103235147D01*
X130332542Y-102494557D01*
X130734542Y-101526433D01*
X130735339Y-100613401D01*
X135240000Y-105305756D01*
X135240000Y-108417847D01*
X135030327Y-108207808D01*
X134686799Y-108065162D01*
X134314833Y-108064838D01*
X133971057Y-108206883D01*
X133707808Y-108469673D01*
X133565162Y-108813201D01*
X133565121Y-108860077D01*
X129436464Y-112988734D01*
X129347518Y-112850508D01*
X129388327Y-112809699D01*
X129485000Y-112576310D01*
X129485000Y-111985750D01*
X129326250Y-111827000D01*
X127977000Y-111827000D01*
X127977000Y-111847000D01*
X127723000Y-111847000D01*
X127723000Y-111827000D01*
X126373750Y-111827000D01*
X126215000Y-111985750D01*
X126215000Y-112576310D01*
X126311673Y-112809699D01*
X126353634Y-112851660D01*
X126253569Y-112998110D01*
X126202560Y-113250000D01*
X126202560Y-113302263D01*
X125962599Y-113462599D01*
X125698934Y-113726264D01*
X125663327Y-113640302D01*
X125484699Y-113461673D01*
X125251310Y-113365000D01*
X124785750Y-113365000D01*
X124627000Y-113523750D01*
X124627000Y-114623000D01*
X124647000Y-114623000D01*
X124647000Y-114877000D01*
X124627000Y-114877000D01*
X124627000Y-114897000D01*
X124373000Y-114897000D01*
X124373000Y-114877000D01*
X123398750Y-114877000D01*
X123240000Y-115035750D01*
X123240000Y-115626309D01*
X123336673Y-115859698D01*
X123477910Y-116000936D01*
X123423559Y-116035910D01*
X123278569Y-116248110D01*
X123227560Y-116500000D01*
X123227560Y-118000000D01*
X123271838Y-118235317D01*
X123410910Y-118451441D01*
X123623110Y-118596431D01*
X123875000Y-118647440D01*
X124777758Y-118647440D01*
X124685198Y-118740000D01*
X122189540Y-118740000D01*
X122385317Y-118703162D01*
X122601441Y-118564090D01*
X122746431Y-118351890D01*
X122797440Y-118100000D01*
X122797440Y-116600000D01*
X122753162Y-116364683D01*
X122614090Y-116148559D01*
X122401890Y-116003569D01*
X122388803Y-116000919D01*
X122601441Y-115864090D01*
X122746431Y-115651890D01*
X122797440Y-115400000D01*
X122797440Y-113900000D01*
X122792490Y-113873691D01*
X123240000Y-113873691D01*
X123240000Y-114464250D01*
X123398750Y-114623000D01*
X124373000Y-114623000D01*
X124373000Y-113523750D01*
X124214250Y-113365000D01*
X123748690Y-113365000D01*
X123515301Y-113461673D01*
X123336673Y-113640302D01*
X123240000Y-113873691D01*
X122792490Y-113873691D01*
X122753162Y-113664683D01*
X122614090Y-113448559D01*
X122410000Y-113309110D01*
X122410000Y-113295558D01*
X122635317Y-113253162D01*
X122851441Y-113114090D01*
X122996431Y-112901890D01*
X123003191Y-112868510D01*
X123061673Y-113009699D01*
X123240302Y-113188327D01*
X123473691Y-113285000D01*
X124064250Y-113285000D01*
X124223000Y-113126250D01*
X124223000Y-112127000D01*
X124477000Y-112127000D01*
X124477000Y-113126250D01*
X124635750Y-113285000D01*
X125226309Y-113285000D01*
X125459698Y-113188327D01*
X125638327Y-113009699D01*
X125735000Y-112776310D01*
X125735000Y-112285750D01*
X125576250Y-112127000D01*
X124477000Y-112127000D01*
X124223000Y-112127000D01*
X124203000Y-112127000D01*
X124203000Y-111873000D01*
X124223000Y-111873000D01*
X124223000Y-110873750D01*
X124477000Y-110873750D01*
X124477000Y-111873000D01*
X125576250Y-111873000D01*
X125735000Y-111714250D01*
X125735000Y-111223690D01*
X125638327Y-110990301D01*
X125471716Y-110823690D01*
X126215000Y-110823690D01*
X126215000Y-111414250D01*
X126373750Y-111573000D01*
X127723000Y-111573000D01*
X127723000Y-110473750D01*
X127977000Y-110473750D01*
X127977000Y-111573000D01*
X129326250Y-111573000D01*
X129485000Y-111414250D01*
X129485000Y-110823690D01*
X129388327Y-110590301D01*
X129209698Y-110411673D01*
X128976309Y-110315000D01*
X128135750Y-110315000D01*
X127977000Y-110473750D01*
X127723000Y-110473750D01*
X127564250Y-110315000D01*
X126723691Y-110315000D01*
X126490302Y-110411673D01*
X126311673Y-110590301D01*
X126215000Y-110823690D01*
X125471716Y-110823690D01*
X125459698Y-110811673D01*
X125226309Y-110715000D01*
X124635750Y-110715000D01*
X124477000Y-110873750D01*
X124223000Y-110873750D01*
X124064250Y-110715000D01*
X123473691Y-110715000D01*
X123240302Y-110811673D01*
X123061673Y-110990301D01*
X123005346Y-111126287D01*
X123003162Y-111114683D01*
X122864090Y-110898559D01*
X122651890Y-110753569D01*
X122400000Y-110702560D01*
X120900000Y-110702560D01*
X120865808Y-110708994D01*
X122314802Y-109260000D01*
X122937537Y-109260000D01*
X122969673Y-109292192D01*
X123313201Y-109434838D01*
X123685167Y-109435162D01*
X124028943Y-109293117D01*
X124292192Y-109030327D01*
X124434838Y-108686799D01*
X124435162Y-108314833D01*
X124293117Y-107971057D01*
X124030327Y-107707808D01*
X123686799Y-107565162D01*
X123314833Y-107564838D01*
X122971057Y-107706883D01*
X122937882Y-107740000D01*
X122000000Y-107740000D01*
X121709161Y-107797852D01*
X121462599Y-107962599D01*
X118777638Y-110647560D01*
X117927242Y-110647560D01*
X123537401Y-105037401D01*
X123702148Y-104790839D01*
X123760000Y-104500000D01*
X123760000Y-93347422D01*
X128577273Y-98365415D01*
G36*
X115432757Y-73431800D02*
X115712833Y-73712365D01*
X115462599Y-73962599D01*
X115297852Y-74209161D01*
X115240000Y-74500000D01*
X115240000Y-92680203D01*
X115145771Y-92719138D01*
X114720630Y-93143537D01*
X114711108Y-93166469D01*
X114562060Y-93117545D01*
X113679605Y-94000000D01*
X114562060Y-94882455D01*
X114710648Y-94833682D01*
X114719138Y-94854229D01*
X115143537Y-95279370D01*
X115698325Y-95509738D01*
X116299040Y-95510262D01*
X116854229Y-95280862D01*
X117279370Y-94856463D01*
X117509738Y-94301675D01*
X117510262Y-93700960D01*
X117280862Y-93145771D01*
X116856463Y-92720630D01*
X116760000Y-92680575D01*
X116760000Y-89285750D01*
X117465000Y-89285750D01*
X117465000Y-90026309D01*
X117561673Y-90259698D01*
X117740301Y-90438327D01*
X117973690Y-90535000D01*
X118714250Y-90535000D01*
X118873000Y-90376250D01*
X118873000Y-89127000D01*
X119127000Y-89127000D01*
X119127000Y-90376250D01*
X119285750Y-90535000D01*
X120026310Y-90535000D01*
X120259699Y-90438327D01*
X120438327Y-90259698D01*
X120535000Y-90026309D01*
X120535000Y-89285750D01*
X120376250Y-89127000D01*
X119127000Y-89127000D01*
X118873000Y-89127000D01*
X117623750Y-89127000D01*
X117465000Y-89285750D01*
X116760000Y-89285750D01*
X116760000Y-87973691D01*
X117465000Y-87973691D01*
X117465000Y-88714250D01*
X117623750Y-88873000D01*
X118873000Y-88873000D01*
X118873000Y-87623750D01*
X119127000Y-87623750D01*
X119127000Y-88873000D01*
X120376250Y-88873000D01*
X120535000Y-88714250D01*
X120535000Y-87973691D01*
X120438327Y-87740302D01*
X120259699Y-87561673D01*
X120026310Y-87465000D01*
X119285750Y-87465000D01*
X119127000Y-87623750D01*
X118873000Y-87623750D01*
X118714250Y-87465000D01*
X117973690Y-87465000D01*
X117740301Y-87561673D01*
X117561673Y-87740302D01*
X117465000Y-87973691D01*
X116760000Y-87973691D01*
X116760000Y-79834802D01*
X122240000Y-85314802D01*
X122240000Y-100762875D01*
X122186046Y-100491629D01*
X121614849Y-99636774D01*
X120759994Y-99065577D01*
X119751623Y-98865000D01*
X119648377Y-98865000D01*
X118640006Y-99065577D01*
X117785151Y-99636774D01*
X117213954Y-100491629D01*
X117013377Y-101500000D01*
X117213954Y-102508371D01*
X117785151Y-103363226D01*
X118640006Y-103934423D01*
X119648377Y-104135000D01*
X119751623Y-104135000D01*
X120759994Y-103934423D01*
X121614849Y-103363226D01*
X122186046Y-102508371D01*
X122240000Y-102237125D01*
X122240000Y-104185198D01*
X117424777Y-109000421D01*
X117521590Y-108734694D01*
X117495579Y-108134542D01*
X117315953Y-107700884D01*
X117062060Y-107617545D01*
X116179605Y-108500000D01*
X116193748Y-108514143D01*
X116014143Y-108693748D01*
X116000000Y-108679605D01*
X115117545Y-109562060D01*
X115200884Y-109815953D01*
X115765306Y-110021590D01*
X116365458Y-109995579D01*
X116474987Y-109950211D01*
X115962599Y-110462599D01*
X115797852Y-110709161D01*
X115740000Y-111000000D01*
X115740000Y-112230000D01*
X115797852Y-112520839D01*
X115962599Y-112767401D01*
X116597599Y-113402401D01*
X116844161Y-113567148D01*
X117135000Y-113625000D01*
X117320086Y-113625000D01*
X117277560Y-113835000D01*
X117277560Y-114435000D01*
X117321838Y-114670317D01*
X117385678Y-114769528D01*
X117328569Y-114853110D01*
X117277560Y-115105000D01*
X117277560Y-115705000D01*
X117321838Y-115940317D01*
X117460910Y-116156441D01*
X117673110Y-116301431D01*
X117925000Y-116352440D01*
X118277638Y-116352440D01*
X119085001Y-117159803D01*
X118971057Y-117206883D01*
X118707808Y-117469673D01*
X118565162Y-117813201D01*
X118564838Y-118185167D01*
X118706883Y-118528943D01*
X118917572Y-118740000D01*
X117564802Y-118740000D01*
X117272440Y-118447638D01*
X117272440Y-117500000D01*
X117228162Y-117264683D01*
X117089090Y-117048559D01*
X116876890Y-116903569D01*
X116625000Y-116852560D01*
X115677362Y-116852560D01*
X114689999Y-115865197D01*
X114722440Y-115705000D01*
X114722440Y-115105000D01*
X114678162Y-114869683D01*
X114614322Y-114770472D01*
X114671431Y-114686890D01*
X114722440Y-114435000D01*
X114722440Y-113835000D01*
X114678162Y-113599683D01*
X114614322Y-113500472D01*
X114671431Y-113416890D01*
X114722440Y-113165000D01*
X114722440Y-112565000D01*
X114678162Y-112329683D01*
X114614322Y-112230472D01*
X114671431Y-112146890D01*
X114722440Y-111895000D01*
X114722440Y-111295000D01*
X114678162Y-111059683D01*
X114539090Y-110843559D01*
X114326890Y-110698569D01*
X114075000Y-110647560D01*
X112525000Y-110647560D01*
X112289683Y-110691838D01*
X112073559Y-110830910D01*
X112070764Y-110835000D01*
X111909802Y-110835000D01*
X111084877Y-110010075D01*
X111299040Y-110010262D01*
X111854229Y-109780862D01*
X112279370Y-109356463D01*
X112509738Y-108801675D01*
X112510205Y-108265306D01*
X114478410Y-108265306D01*
X114504421Y-108865458D01*
X114684047Y-109299116D01*
X114937940Y-109382455D01*
X115820395Y-108500000D01*
X114937940Y-107617545D01*
X114684047Y-107700884D01*
X114478410Y-108265306D01*
X112510205Y-108265306D01*
X112510262Y-108200960D01*
X112280862Y-107645771D01*
X112073394Y-107437940D01*
X115117545Y-107437940D01*
X116000000Y-108320395D01*
X116882455Y-107437940D01*
X116799116Y-107184047D01*
X116234694Y-106978410D01*
X115634542Y-107004421D01*
X115200884Y-107184047D01*
X115117545Y-107437940D01*
X112073394Y-107437940D01*
X111856463Y-107220630D01*
X111760000Y-107180575D01*
X111760000Y-100000000D01*
X111702148Y-99709161D01*
X111537401Y-99462599D01*
X109760000Y-97685198D01*
X109760000Y-94895162D01*
X110143537Y-95279370D01*
X110698325Y-95509738D01*
X111299040Y-95510262D01*
X111854229Y-95280862D01*
X112073413Y-95062060D01*
X112617545Y-95062060D01*
X112700884Y-95315953D01*
X113265306Y-95521590D01*
X113865458Y-95495579D01*
X114299116Y-95315953D01*
X114382455Y-95062060D01*
X113500000Y-94179605D01*
X112617545Y-95062060D01*
X112073413Y-95062060D01*
X112279370Y-94856463D01*
X112288892Y-94833531D01*
X112437940Y-94882455D01*
X113320395Y-94000000D01*
X112437940Y-93117545D01*
X112289352Y-93166318D01*
X112280862Y-93145771D01*
X112073394Y-92937940D01*
X112617545Y-92937940D01*
X113500000Y-93820395D01*
X114382455Y-92937940D01*
X114299116Y-92684047D01*
X113734694Y-92478410D01*
X113134542Y-92504421D01*
X112700884Y-92684047D01*
X112617545Y-92937940D01*
X112073394Y-92937940D01*
X111856463Y-92720630D01*
X111760000Y-92680575D01*
X111760000Y-89303991D01*
X112064735Y-89303991D01*
X112297932Y-89868371D01*
X112729357Y-90300551D01*
X113293330Y-90534733D01*
X113903991Y-90535265D01*
X114468371Y-90302068D01*
X114900551Y-89870643D01*
X115134733Y-89306670D01*
X115135265Y-88696009D01*
X114902068Y-88131629D01*
X114470643Y-87699449D01*
X113906670Y-87465267D01*
X113296009Y-87464735D01*
X112731629Y-87697932D01*
X112299449Y-88129357D01*
X112065267Y-88693330D01*
X112064735Y-89303991D01*
X111760000Y-89303991D01*
X111760000Y-77314802D01*
X112124769Y-76950033D01*
X112065267Y-77093330D01*
X112064735Y-77703991D01*
X112297932Y-78268371D01*
X112729357Y-78700551D01*
X113293330Y-78934733D01*
X113903991Y-78935265D01*
X114468371Y-78702068D01*
X114900551Y-78270643D01*
X115134733Y-77706670D01*
X115135265Y-77096009D01*
X114902068Y-76531629D01*
X114470643Y-76099449D01*
X113906670Y-75865267D01*
X113296009Y-75864735D01*
X113149552Y-75925250D01*
X114647401Y-74427401D01*
X114812148Y-74180840D01*
X114870000Y-73890000D01*
X114870000Y-73858646D01*
X114921800Y-73837243D01*
X115325824Y-73433923D01*
X115379862Y-73303785D01*
X115432757Y-73431800D01*
X115432757Y-73431800D01*
G37*
X115432757Y-73431800D02*
X115712833Y-73712365D01*
X115462599Y-73962599D01*
X115297852Y-74209161D01*
X115240000Y-74500000D01*
X115240000Y-92680203D01*
X115145771Y-92719138D01*
X114720630Y-93143537D01*
X114711108Y-93166469D01*
X114562060Y-93117545D01*
X113679605Y-94000000D01*
X114562060Y-94882455D01*
X114710648Y-94833682D01*
X114719138Y-94854229D01*
X115143537Y-95279370D01*
X115698325Y-95509738D01*
X116299040Y-95510262D01*
X116854229Y-95280862D01*
X117279370Y-94856463D01*
X117509738Y-94301675D01*
X117510262Y-93700960D01*
X117280862Y-93145771D01*
X116856463Y-92720630D01*
X116760000Y-92680575D01*
X116760000Y-89285750D01*
X117465000Y-89285750D01*
X117465000Y-90026309D01*
X117561673Y-90259698D01*
X117740301Y-90438327D01*
X117973690Y-90535000D01*
X118714250Y-90535000D01*
X118873000Y-90376250D01*
X118873000Y-89127000D01*
X119127000Y-89127000D01*
X119127000Y-90376250D01*
X119285750Y-90535000D01*
X120026310Y-90535000D01*
X120259699Y-90438327D01*
X120438327Y-90259698D01*
X120535000Y-90026309D01*
X120535000Y-89285750D01*
X120376250Y-89127000D01*
X119127000Y-89127000D01*
X118873000Y-89127000D01*
X117623750Y-89127000D01*
X117465000Y-89285750D01*
X116760000Y-89285750D01*
X116760000Y-87973691D01*
X117465000Y-87973691D01*
X117465000Y-88714250D01*
X117623750Y-88873000D01*
X118873000Y-88873000D01*
X118873000Y-87623750D01*
X119127000Y-87623750D01*
X119127000Y-88873000D01*
X120376250Y-88873000D01*
X120535000Y-88714250D01*
X120535000Y-87973691D01*
X120438327Y-87740302D01*
X120259699Y-87561673D01*
X120026310Y-87465000D01*
X119285750Y-87465000D01*
X119127000Y-87623750D01*
X118873000Y-87623750D01*
X118714250Y-87465000D01*
X117973690Y-87465000D01*
X117740301Y-87561673D01*
X117561673Y-87740302D01*
X117465000Y-87973691D01*
X116760000Y-87973691D01*
X116760000Y-79834802D01*
X122240000Y-85314802D01*
X122240000Y-100762875D01*
X122186046Y-100491629D01*
X121614849Y-99636774D01*
X120759994Y-99065577D01*
X119751623Y-98865000D01*
X119648377Y-98865000D01*
X118640006Y-99065577D01*
X117785151Y-99636774D01*
X117213954Y-100491629D01*
X117013377Y-101500000D01*
X117213954Y-102508371D01*
X117785151Y-103363226D01*
X118640006Y-103934423D01*
X119648377Y-104135000D01*
X119751623Y-104135000D01*
X120759994Y-103934423D01*
X121614849Y-103363226D01*
X122186046Y-102508371D01*
X122240000Y-102237125D01*
X122240000Y-104185198D01*
X117424777Y-109000421D01*
X117521590Y-108734694D01*
X117495579Y-108134542D01*
X117315953Y-107700884D01*
X117062060Y-107617545D01*
X116179605Y-108500000D01*
X116193748Y-108514143D01*
X116014143Y-108693748D01*
X116000000Y-108679605D01*
X115117545Y-109562060D01*
X115200884Y-109815953D01*
X115765306Y-110021590D01*
X116365458Y-109995579D01*
X116474987Y-109950211D01*
X115962599Y-110462599D01*
X115797852Y-110709161D01*
X115740000Y-111000000D01*
X115740000Y-112230000D01*
X115797852Y-112520839D01*
X115962599Y-112767401D01*
X116597599Y-113402401D01*
X116844161Y-113567148D01*
X117135000Y-113625000D01*
X117320086Y-113625000D01*
X117277560Y-113835000D01*
X117277560Y-114435000D01*
X117321838Y-114670317D01*
X117385678Y-114769528D01*
X117328569Y-114853110D01*
X117277560Y-115105000D01*
X117277560Y-115705000D01*
X117321838Y-115940317D01*
X117460910Y-116156441D01*
X117673110Y-116301431D01*
X117925000Y-116352440D01*
X118277638Y-116352440D01*
X119085001Y-117159803D01*
X118971057Y-117206883D01*
X118707808Y-117469673D01*
X118565162Y-117813201D01*
X118564838Y-118185167D01*
X118706883Y-118528943D01*
X118917572Y-118740000D01*
X117564802Y-118740000D01*
X117272440Y-118447638D01*
X117272440Y-117500000D01*
X117228162Y-117264683D01*
X117089090Y-117048559D01*
X116876890Y-116903569D01*
X116625000Y-116852560D01*
X115677362Y-116852560D01*
X114689999Y-115865197D01*
X114722440Y-115705000D01*
X114722440Y-115105000D01*
X114678162Y-114869683D01*
X114614322Y-114770472D01*
X114671431Y-114686890D01*
X114722440Y-114435000D01*
X114722440Y-113835000D01*
X114678162Y-113599683D01*
X114614322Y-113500472D01*
X114671431Y-113416890D01*
X114722440Y-113165000D01*
X114722440Y-112565000D01*
X114678162Y-112329683D01*
X114614322Y-112230472D01*
X114671431Y-112146890D01*
X114722440Y-111895000D01*
X114722440Y-111295000D01*
X114678162Y-111059683D01*
X114539090Y-110843559D01*
X114326890Y-110698569D01*
X114075000Y-110647560D01*
X112525000Y-110647560D01*
X112289683Y-110691838D01*
X112073559Y-110830910D01*
X112070764Y-110835000D01*
X111909802Y-110835000D01*
X111084877Y-110010075D01*
X111299040Y-110010262D01*
X111854229Y-109780862D01*
X112279370Y-109356463D01*
X112509738Y-108801675D01*
X112510205Y-108265306D01*
X114478410Y-108265306D01*
X114504421Y-108865458D01*
X114684047Y-109299116D01*
X114937940Y-109382455D01*
X115820395Y-108500000D01*
X114937940Y-107617545D01*
X114684047Y-107700884D01*
X114478410Y-108265306D01*
X112510205Y-108265306D01*
X112510262Y-108200960D01*
X112280862Y-107645771D01*
X112073394Y-107437940D01*
X115117545Y-107437940D01*
X116000000Y-108320395D01*
X116882455Y-107437940D01*
X116799116Y-107184047D01*
X116234694Y-106978410D01*
X115634542Y-107004421D01*
X115200884Y-107184047D01*
X115117545Y-107437940D01*
X112073394Y-107437940D01*
X111856463Y-107220630D01*
X111760000Y-107180575D01*
X111760000Y-100000000D01*
X111702148Y-99709161D01*
X111537401Y-99462599D01*
X109760000Y-97685198D01*
X109760000Y-94895162D01*
X110143537Y-95279370D01*
X110698325Y-95509738D01*
X111299040Y-95510262D01*
X111854229Y-95280862D01*
X112073413Y-95062060D01*
X112617545Y-95062060D01*
X112700884Y-95315953D01*
X113265306Y-95521590D01*
X113865458Y-95495579D01*
X114299116Y-95315953D01*
X114382455Y-95062060D01*
X113500000Y-94179605D01*
X112617545Y-95062060D01*
X112073413Y-95062060D01*
X112279370Y-94856463D01*
X112288892Y-94833531D01*
X112437940Y-94882455D01*
X113320395Y-94000000D01*
X112437940Y-93117545D01*
X112289352Y-93166318D01*
X112280862Y-93145771D01*
X112073394Y-92937940D01*
X112617545Y-92937940D01*
X113500000Y-93820395D01*
X114382455Y-92937940D01*
X114299116Y-92684047D01*
X113734694Y-92478410D01*
X113134542Y-92504421D01*
X112700884Y-92684047D01*
X112617545Y-92937940D01*
X112073394Y-92937940D01*
X111856463Y-92720630D01*
X111760000Y-92680575D01*
X111760000Y-89303991D01*
X112064735Y-89303991D01*
X112297932Y-89868371D01*
X112729357Y-90300551D01*
X113293330Y-90534733D01*
X113903991Y-90535265D01*
X114468371Y-90302068D01*
X114900551Y-89870643D01*
X115134733Y-89306670D01*
X115135265Y-88696009D01*
X114902068Y-88131629D01*
X114470643Y-87699449D01*
X113906670Y-87465267D01*
X113296009Y-87464735D01*
X112731629Y-87697932D01*
X112299449Y-88129357D01*
X112065267Y-88693330D01*
X112064735Y-89303991D01*
X111760000Y-89303991D01*
X111760000Y-77314802D01*
X112124769Y-76950033D01*
X112065267Y-77093330D01*
X112064735Y-77703991D01*
X112297932Y-78268371D01*
X112729357Y-78700551D01*
X113293330Y-78934733D01*
X113903991Y-78935265D01*
X114468371Y-78702068D01*
X114900551Y-78270643D01*
X115134733Y-77706670D01*
X115135265Y-77096009D01*
X114902068Y-76531629D01*
X114470643Y-76099449D01*
X113906670Y-75865267D01*
X113296009Y-75864735D01*
X113149552Y-75925250D01*
X114647401Y-74427401D01*
X114812148Y-74180840D01*
X114870000Y-73890000D01*
X114870000Y-73858646D01*
X114921800Y-73837243D01*
X115325824Y-73433923D01*
X115379862Y-73303785D01*
X115432757Y-73431800D01*
M02*
